<svg xmlns="http://www.w3.org/2000/svg" xmlns:xlink="http://www.w3.org/1999/xlink" width="50.242" height="36" viewBox="0 0 50.242 36">
  <defs>
    <clipPath id="clip-path">
      <path id="Clip_2" data-name="Clip 2" d="M0,0H50.242V36H0Z" fill="none"/>
    </clipPath>
  </defs>
  <g id="amex-信用卡" transform="translate(0)">
    <g id="Group_3" data-name="Group 3">
      <path id="Clip_2-2" data-name="Clip 2" d="M0,0H50.242V36H0Z" fill="none"/>
      <g id="Group_3-2" data-name="Group 3" clip-path="url(#clip-path)">
        <path id="Fill_1" data-name="Fill 1" d="M45.809,36H4.433A4.479,4.479,0,0,1,0,31.5V4.5A4.48,4.48,0,0,1,4.433,0H45.809a4.48,4.48,0,0,1,4.433,4.5v27A4.479,4.479,0,0,1,45.809,36" transform="translate(0 0)" fill="#2baced"/>
      </g>
    </g>
    <path id="Fill_4" data-name="Fill 4" d="M0,0V1.4H3.9V2.93H0V4.456H4.393l2.07-2.228L4.472,0Z" transform="translate(30.101 15.772)" fill="#fff"/>
    <path id="Fill_6" data-name="Fill 6" d="M0,3.053H2.439L1.22,0Z" transform="translate(10.669 15.482)" fill="#fff"/>
    <path id="Fill_8" data-name="Fill 8" d="M30.852,10.646H18.859a.388.388,0,0,1-.408-.412V9.328L18,10.4a.352.352,0,0,1-.365.249h-2.6a.383.383,0,0,1-.365-.249l-.448-1.031v.868a.388.388,0,0,1-.407.412H8.451a.387.387,0,0,1-.365-.249L7.6,9.2a.363.363,0,0,0-.369-.248H6.214A.4.4,0,0,0,5.85,9.2l-.486,1.2A.355.355,0,0,1,5,10.646H.4a.4.4,0,0,1-.336-.179.415.415,0,0,1-.029-.4L4.264.248A.355.355,0,0,1,4.629,0h4.19a.456.456,0,0,1,.365.248L9.67,1.282V.455a.387.387,0,0,1,.407-.411h4.842a.386.386,0,0,1,.364.245l.731,1.65a.395.395,0,0,0,.734,0l.689-1.65A.354.354,0,0,1,17.8.043H31.014a.455.455,0,0,1,.327.121l.976,1.117a.439.439,0,0,0,.61,0L33.984.123A.366.366,0,0,1,34.267,0h5.286a.393.393,0,0,1,.372.237.385.385,0,0,1-.087.425l-3.78,4.371a.437.437,0,0,0,0,.539L39.838,9.9a.465.465,0,0,1,.039.483.4.4,0,0,1-.363.217H34.145a.43.43,0,0,1-.286-.122L32.844,9.328a.421.421,0,0,0-.3-.127.43.43,0,0,0-.306.127l-1.1,1.2A.367.367,0,0,1,30.852,10.646ZM13.415,4.7a.381.381,0,0,1,.363.252l1.708,3.964a.355.355,0,0,0,.365.243h1.058a.39.39,0,0,0,.365-.243l1.708-3.964a.381.381,0,0,1,.363-.252.4.4,0,0,1,.41.416V8.708a.388.388,0,0,0,.406.414h.975a.486.486,0,0,0,.448-.374V1.938a.387.387,0,0,0-.406-.412H18.941a.39.39,0,0,0-.365.248L16.868,5.858a.366.366,0,0,1-.35.25.426.426,0,0,1-.381-.25l-1.87-4.084a.391.391,0,0,0-.366-.248H11.624a.387.387,0,0,0-.405.412V6.684a.407.407,0,0,1-.413.418.377.377,0,0,1-.36-.251L8.289,1.732a.355.355,0,0,0-.365-.244H5.77a.391.391,0,0,0-.368.244L2.517,8.542a.418.418,0,0,0,.03.4.4.4,0,0,0,.336.18H3.941a.4.4,0,0,0,.364-.248l.485-1.2a.359.359,0,0,1,.37-.248H8.373a.386.386,0,0,1,.365.248l.526,1.238a.355.355,0,0,0,.37.243H12.6A.382.382,0,0,0,13,8.748V5.116A.4.4,0,0,1,13.415,4.7ZM32.58,6.809a.43.43,0,0,1,.305.123L34.673,9a.313.313,0,0,0,.286.126h1.219a.411.411,0,0,0,.373-.263A.322.322,0,0,0,36.5,8.5l-2.517-2.85a.43.43,0,0,1,0-.536L36.5,2.228a.451.451,0,0,0,.079-.481.386.386,0,0,0-.361-.221h-1.14a.425.425,0,0,0-.283.126l-1.87,2.021a.439.439,0,0,1-.61,0L30.529,1.651a.316.316,0,0,0-.286-.126H23.617a.388.388,0,0,0-.407.412V8.708a.389.389,0,0,0,.407.414h6.505A.43.43,0,0,0,30.4,9l1.871-2.064A.43.43,0,0,1,32.58,6.809Z" transform="translate(5.144 12.676)" fill="#fff"/>
  </g>
</svg>
