<svg xmlns="http://www.w3.org/2000/svg" width="18.785" height="21.954" viewBox="0 0 18.785 21.954">
  <path id="路径_3572" data-name="路径 3572" d="M1771.629,593.432a1.345,1.345,0,0,0-1.336,1.355v5.3a1.336,1.336,0,1,0,2.671,0v-5.3a1.346,1.346,0,0,0-1.335-1.355Zm-16.114,0a1.346,1.346,0,0,0-1.335,1.355v5.3a1.336,1.336,0,1,0,2.671,0v-5.3a1.345,1.345,0,0,0-1.335-1.355Zm2.141,9.726a1.041,1.041,0,0,0,1.042,1.042h1.189v2.95a1.336,1.336,0,1,0,2.671,0V604.2h2.079v2.95a1.336,1.336,0,1,0,2.671,0V604.2h1.191a1.043,1.043,0,0,0,1.042-1.042v-9.687h-11.886Zm8.733-14.7,1.1-1.595a.188.188,0,1,0-.308-.213l-1.14,1.656a6.812,6.812,0,0,0-4.934,0l-1.14-1.656a.188.188,0,1,0-.309.213l1.1,1.595a5.179,5.179,0,0,0-3.126,4.156h11.886a5.178,5.178,0,0,0-3.126-4.156Zm-5.323,2.512a.658.658,0,1,1,.655-.658.658.658,0,0,1-.655.658Zm5.1,0a.658.658,0,1,1,.658-.658.66.66,0,0,1-.658.658Zm0,0" transform="translate(-1754.18 -586.552)" fill="#242c45"/>
</svg>
