<svg xmlns="http://www.w3.org/2000/svg" width="24" height="24" viewBox="0 0 24 24">
  <g id="安卓" transform="translate(-728 -928)">
    <rect id="矩形_2244" data-name="矩形 2244" width="24" height="24" transform="translate(728 928)" fill="#cdd3e3" opacity="0"/>
    <path id="安卓-2" data-name="安卓" d="M99.822,17.654a1.447,1.447,0,0,0,1.424,1.466h1.028a1.42,1.42,0,0,0-.054.385v2.931a1.35,1.35,0,1,0,2.7,0V19.5a1.445,1.445,0,0,0-.054-.385h2.505a1.42,1.42,0,0,0-.054.385v2.931a1.35,1.35,0,1,0,2.7,0V19.5a1.387,1.387,0,0,0-.055-.385h1.028a1.447,1.447,0,0,0,1.424-1.466V7.473H99.821V17.654ZM97.573,7.473a1.369,1.369,0,0,0-1.349,1.388V14.8a1.35,1.35,0,1,0,2.7,0V8.861a1.369,1.369,0,0,0-1.349-1.389Zm17.086,0a1.368,1.368,0,0,0-1.348,1.388V14.8a1.349,1.349,0,1,0,2.7,0V8.861a1.369,1.369,0,0,0-1.348-1.389Zm-5.447-5.557L110.275.274a.236.236,0,0,0-.062-.32.221.221,0,0,0-.313.064l-.6.928-.253.39-.256.4a7.325,7.325,0,0,0-5.349,0l-.509-.786-.6-.928a.222.222,0,0,0-.312-.064.236.236,0,0,0-.062.32l1.064,1.643a5.256,5.256,0,0,0-3.2,4.631H112.41a5.254,5.254,0,0,0-3.2-4.63ZM103.419,4.7A.694.694,0,1,1,104.093,4,.685.685,0,0,1,103.419,4.7Zm5.4,0A.694.694,0,1,1,109.488,4,.685.685,0,0,1,108.814,4.7Z" transform="translate(633.484 928.086)" fill="#3963ef"/>
  </g>
</svg>
