<svg xmlns="http://www.w3.org/2000/svg" width="18.537" height="20.991" viewBox="0 0 18.537 20.991">
  <g id="组_1567" data-name="组 1567" transform="translate(-1799.542 -650.519)">
    <path id="路径_3573" data-name="路径 3573" d="M1808.708,655.367a4.158,4.158,0,0,1,1.223-3.276,4.8,4.8,0,0,1,3.259-1.57,4.612,4.612,0,0,1-1.222,3.405,4.2,4.2,0,0,1-3.26,1.441Zm6.25,6.285a4.493,4.493,0,0,0,3.122,4.193,12.358,12.358,0,0,1-1.63,3.011c-.95,1.309-1.9,2.488-3.529,2.617-1.495,0-2.037-.785-3.8-.785-1.764-.129-2.307.785-3.667.785-1.492,0-2.58-1.441-3.529-2.617-1.9-2.62-3.4-7.334-1.495-10.607a5.519,5.519,0,0,1,4.754-2.62c1.492,0,2.852.915,3.8.915s2.579-1.176,4.347-.915a5.5,5.5,0,0,1,4.209,2.094,4.332,4.332,0,0,0-2.58,3.929Zm0,0" transform="translate(0 0.004)" fill="#fff"/>
    <rect id="矩形_1221" data-name="矩形 1221" width="18.536" height="20.991" transform="translate(1799.543 650.518)" fill="none"/>
  </g>
</svg>
