<svg xmlns="http://www.w3.org/2000/svg" xmlns:xlink="http://www.w3.org/1999/xlink" width="16" height="16" viewBox="0 0 16 16">
  <defs>
    <linearGradient id="linear-gradient" x1="-0.631" y1="-51.137" x2="-0.631" y2="-51.143" gradientUnits="objectBoundingBox">
      <stop offset="0" stop-color="#2525d0"/>
      <stop offset="1" stop-color="#2a31e3"/>
    </linearGradient>
    <linearGradient id="linear-gradient-2" x1="-1.646" y1="-51.137" x2="-1.646" y2="-51.143" xlink:href="#linear-gradient"/>
  </defs>
  <g id="组_4370" data-name="组 4370" transform="translate(9779 -14516)">
    <rect id="矩形_2834" data-name="矩形 2834" width="16" height="16" rx="3" transform="translate(-9779 14516)" fill="#fff"/>
    <g id="组_4227" data-name="组 4227" transform="translate(-9777.684 14517.316)">
      <rect id="矩形_2831" data-name="矩形 2831" width="13" height="13" transform="translate(-0.316 -0.316)" fill="#fff" opacity="0"/>
      <g id="组_3845" data-name="组 3845" transform="translate(0.494 0.74)">
        <path id="路径_7261" data-name="路径 7261" d="M76.372,57.977H74.279a1.839,1.839,0,1,1,1.594-2.758L78,58.9A1.839,1.839,0,0,0,76.372,57.977Z" transform="translate(-66.07 -50.62)" fill="#246efc"/>
        <circle id="椭圆_399" data-name="椭圆 399" cx="1.805" cy="1.805" r="1.805" transform="translate(0 7.465)" fill="#0e1449"/>
        <circle id="椭圆_400" data-name="椭圆 400" cx="1.839" cy="1.839" r="1.839" transform="translate(8.495 7.356)" fill="#0e1449"/>
        <path id="路径_7254" data-name="路径 7254" d="M22.5,86.66h0l-1.047,1.813h0a1.839,1.839,0,1,1-1.591-2.758h4.247A1.839,1.839,0,0,0,22.5,86.66Z" transform="translate(-18.026 -78.357)" fill="url(#linear-gradient)"/>
        <path id="路径_7255" data-name="路径 7255" d="M71.622,86.66h0l1.047,1.813h0a1.839,1.839,0,1,0,1.591-2.758H70.013A1.839,1.839,0,0,1,71.622,86.66Z" transform="translate(-63.926 -78.357)" fill="url(#linear-gradient-2)"/>
        <path id="路径_7256" data-name="路径 7256" d="M21.758,57.977h2.093a1.839,1.839,0,1,0-1.594-2.758L20.134,58.9a1.839,1.839,0,0,1,1.624-.919Z" transform="translate(-19.887 -50.62)" fill="#246efc"/>
        <path id="路径_7257" data-name="路径 7257" d="M39.9,26.554h2.092A1.839,1.839,0,1,0,40.395,23.8l-2.124,3.678a1.839,1.839,0,0,1,1.625-.919Z" transform="translate(-35.901 -22.876)" fill="#1892fc"/>
        <path id="路径_7258" data-name="路径 7258" d="M53.483,57.024h0l1.047-1.813h0a1.839,1.839,0,1,1,1.591,2.758H51.875a1.839,1.839,0,0,0,1.609-.946Z" transform="translate(-47.911 -50.614)" fill="#304afb"/>
        <path id="路径_7259" data-name="路径 7259" d="M40.091,47.354H38a1.839,1.839,0,1,0,1.594,2.758l2.124-3.678A1.839,1.839,0,0,1,40.091,47.354Z" transform="translate(-34.037 -43.677)" fill="#246efc"/>
        <path id="路径_7260" data-name="路径 7260" d="M73.731,32.6h0l-1.047,1.813h0a1.839,1.839,0,1,0,3.186,0l-2.124-3.678A1.839,1.839,0,0,1,73.731,32.6Z" transform="translate(-66.068 -29.81)" fill="#304afb"/>
      </g>
    </g>
  </g>
</svg>
