<svg xmlns="http://www.w3.org/2000/svg" width="16.995" height="10.356" viewBox="0 0 16.995 10.356">
  <path id="路径_3956" data-name="路径 3956" d="M626.221,279.423c-.021-.01-.039-.028-.06-.036a.989.989,0,0,0-1.151.2l-6.944,7.342a1,1,0,1,0,1.449,1.371l6.232-6.588,6.323,6.562a1,1,0,0,0,1.717-.691.987.987,0,0,0-.281-.691l-7.012-7.274c-.013-.013-.034-.018-.047-.034a.428.428,0,0,1-.029-.034.858.858,0,0,0-.2-.127Zm0,0" transform="translate(-617.293 -278.757)" fill="#3963ef" stroke="rgba(0,0,0,0)" stroke-width="1"/>
</svg>
