<svg xmlns="http://www.w3.org/2000/svg" xmlns:xlink="http://www.w3.org/1999/xlink" width="1920" height="416" viewBox="0 0 1920 416">
  <defs>
    <clipPath id="clip-path">
      <rect id="矩形_2588" data-name="矩形 2588" width="1920" height="416" transform="translate(-13440 -18947)" fill="#3963ef"/>
    </clipPath>
  </defs>
  <g id="组_3847" data-name="组 3847" transform="translate(13440 18947)">
    <rect id="矩形_2589" data-name="矩形 2589" width="1920" height="416" transform="translate(-13440 -18947)" fill="#3963ef"/>
    <g id="蒙版组_7" data-name="蒙版组 7" clip-path="url(#clip-path)">
      <g id="组_3748" data-name="组 3748" transform="translate(-1810 -5249)" opacity="0.06">
        <circle id="椭圆_392" data-name="椭圆 392" cx="53" cy="53" r="53" transform="translate(-11483 -13571)" fill="#fff"/>
        <circle id="椭圆_393" data-name="椭圆 393" cx="45.5" cy="45.5" r="45.5" transform="translate(-11487 -13383)" fill="#fff"/>
        <circle id="椭圆_394" data-name="椭圆 394" cx="28" cy="28" r="28" transform="translate(-11658 -13592)" fill="#fff"/>
        <circle id="椭圆_395" data-name="椭圆 395" cx="21" cy="21" r="21" transform="translate(-11341 -13372)" fill="#fff"/>
        <circle id="椭圆_396" data-name="椭圆 396" cx="36" cy="36" r="36" transform="translate(-11230 -13473)" fill="#fff"/>
        <circle id="椭圆_397" data-name="椭圆 397" cx="33" cy="33" r="33" transform="translate(-11238 -13620)" fill="#fff"/>
        <circle id="椭圆_398" data-name="椭圆 398" cx="22" cy="22" r="22" transform="translate(-11332 -13720)" fill="#fff"/>
        <circle id="椭圆_399" data-name="椭圆 399" cx="18" cy="18" r="18" transform="translate(-11274 -13546)" fill="#fff"/>
        <circle id="椭圆_400" data-name="椭圆 400" cx="33" cy="33" r="33" transform="translate(-11099 -13683)" fill="#fff"/>
        <circle id="椭圆_401" data-name="椭圆 401" cx="22" cy="22" r="22" transform="translate(-11071 -13598)" fill="#fff"/>
        <circle id="椭圆_402" data-name="椭圆 402" cx="18" cy="18" r="18" transform="translate(-10994 -13576)" fill="#fff"/>
        <circle id="椭圆_403" data-name="椭圆 403" cx="54.5" cy="54.5" r="54.5" transform="translate(-11082 -13523)" fill="#fff"/>
        <circle id="椭圆_404" data-name="椭圆 404" cx="54.5" cy="54.5" r="54.5" transform="translate(-10933 -13582)" fill="#fff"/>
        <circle id="椭圆_405" data-name="椭圆 405" cx="22" cy="22" r="22" transform="translate(-10984 -13699)" fill="#fff"/>
        <circle id="椭圆_407" data-name="椭圆 407" cx="33" cy="33" r="33" transform="translate(-10802 -13612)" fill="#fff"/>
        <circle id="椭圆_408" data-name="椭圆 408" cx="22" cy="22" r="22" transform="translate(-10791 -13715)" fill="#fff"/>
        <circle id="椭圆_409" data-name="椭圆 409" cx="18" cy="18" r="18" transform="translate(-10855 -13661)" fill="#fff"/>
        <circle id="椭圆_410" data-name="椭圆 410" cx="18" cy="18" r="18" transform="translate(-10703 -13711)" fill="#fff"/>
        <circle id="椭圆_411" data-name="椭圆 411" cx="36" cy="36" r="36" transform="translate(-11090 -13290)" fill="#fff"/>
        <circle id="椭圆_412" data-name="椭圆 412" cx="54.5" cy="54.5" r="54.5" transform="translate(-10641 -13407)" fill="#fff"/>
        <circle id="椭圆_413" data-name="椭圆 413" cx="18" cy="18" r="18" transform="translate(-10545 -13460)" fill="#fff"/>
        <circle id="椭圆_414" data-name="椭圆 414" cx="33" cy="33" r="33" transform="translate(-10819 -13478)" fill="#fff"/>
        <circle id="椭圆_415" data-name="椭圆 415" cx="33" cy="33" r="33" transform="translate(-10173 -13434)" fill="#fff"/>
        <circle id="椭圆_416" data-name="椭圆 416" cx="18" cy="18" r="18" transform="translate(-10553 -13640)" fill="#fff"/>
        <circle id="椭圆_417" data-name="椭圆 417" cx="53" cy="53" r="53" transform="translate(-11625 -13516)" fill="#fff"/>
        <circle id="椭圆_418" data-name="椭圆 418" cx="35.5" cy="35.5" r="35.5" transform="translate(-11355 -13488)" fill="#fff"/>
        <circle id="椭圆_419" data-name="椭圆 419" cx="18" cy="18" r="18" transform="translate(-11627 -13683)" fill="#fff"/>
        <circle id="椭圆_420" data-name="椭圆 420" cx="18" cy="18" r="18" transform="translate(-11513 -13609)" fill="#fff"/>
        <circle id="椭圆_421" data-name="椭圆 421" cx="18" cy="18" r="18" transform="translate(-11577 -13705)" fill="#fff"/>
        <circle id="椭圆_422" data-name="椭圆 422" cx="18" cy="18" r="18" transform="translate(-11398 -13694)" fill="#fff"/>
        <circle id="椭圆_423" data-name="椭圆 423" cx="22" cy="22" r="22" transform="translate(-11310 -13609)" fill="#fff"/>
        <circle id="椭圆_424" data-name="椭圆 424" cx="54.5" cy="54.5" r="54.5" transform="translate(-11267 -13330)" fill="#fff"/>
        <circle id="椭圆_425" data-name="椭圆 425" cx="36" cy="36" r="36" transform="translate(-10950 -13358)" fill="#fff"/>
        <circle id="椭圆_426" data-name="椭圆 426" cx="18" cy="18" r="18" transform="translate(-11126 -13419)" fill="#fff"/>
        <circle id="椭圆_427" data-name="椭圆 427" cx="18" cy="18" r="18" transform="translate(-11235 -13394)" fill="#fff"/>
        <circle id="椭圆_428" data-name="椭圆 428" cx="18" cy="18" r="18" transform="translate(-11024 -13338)" fill="#fff"/>
        <circle id="椭圆_429" data-name="椭圆 429" cx="54.5" cy="54.5" r="54.5" transform="translate(-10725 -13533)" fill="#fff"/>
        <circle id="椭圆_430" data-name="椭圆 430" cx="33" cy="33" r="33" transform="translate(-10542 -13599)" fill="#fff"/>
        <circle id="椭圆_431" data-name="椭圆 431" cx="18" cy="18" r="18" transform="translate(-10340 -13689)" fill="#fff"/>
        <circle id="椭圆_432" data-name="椭圆 432" cx="43.5" cy="43.5" r="43.5" transform="translate(-10467 -13478)" fill="#fff"/>
        <circle id="椭圆_433" data-name="椭圆 433" cx="18" cy="18" r="18" transform="translate(-9790 -13310)" fill="#fff"/>
        <circle id="椭圆_434" data-name="椭圆 434" cx="18" cy="18" r="18" transform="translate(-10325 -13378)" fill="#fff"/>
        <circle id="椭圆_435" data-name="椭圆 435" cx="18" cy="18" r="18" transform="translate(-10416 -13323)" fill="#fff"/>
        <circle id="椭圆_436" data-name="椭圆 436" cx="33" cy="33" r="33" transform="translate(-10266 -13352)" fill="#fff"/>
        <circle id="椭圆_437" data-name="椭圆 437" cx="54.5" cy="54.5" r="54.5" transform="translate(-10022 -13492)" fill="#fff"/>
        <circle id="椭圆_438" data-name="椭圆 438" cx="42" cy="42" r="42" transform="translate(-9842 -13462)" fill="#fff"/>
        <circle id="椭圆_439" data-name="椭圆 439" cx="54.5" cy="54.5" r="54.5" transform="translate(-9919 -13684)" fill="#fff"/>
        <circle id="椭圆_440" data-name="椭圆 440" cx="33" cy="33" r="33" transform="translate(-10450 -13678)" fill="#fff"/>
        <circle id="椭圆_441" data-name="椭圆 441" cx="33" cy="33" r="33" transform="translate(-10030 -13588)" fill="#fff"/>
        <circle id="椭圆_442" data-name="椭圆 442" cx="18" cy="18" r="18" transform="translate(-10093 -13478)" fill="#fff"/>
        <circle id="椭圆_443" data-name="椭圆 443" cx="18" cy="18" r="18" transform="translate(-10111 -13635)" fill="#fff"/>
        <circle id="椭圆_444" data-name="椭圆 444" cx="18" cy="18" r="18" transform="translate(-10066 -13409)" fill="#fff"/>
        <circle id="椭圆_445" data-name="椭圆 445" cx="18" cy="18" r="18" transform="translate(-10040 -13310)" fill="#fff"/>
        <circle id="椭圆_446" data-name="椭圆 446" cx="18" cy="18" r="18" transform="translate(-9964 -13328)" fill="#fff"/>
        <circle id="椭圆_447" data-name="椭圆 447" cx="33" cy="33" r="33" transform="translate(-10177 -13588)" fill="#fff"/>
        <circle id="椭圆_448" data-name="椭圆 448" cx="54.5" cy="54.5" r="54.5" transform="translate(-10184 -13755)" fill="#fff"/>
        <circle id="椭圆_449" data-name="椭圆 449" cx="54.5" cy="54.5" r="54.5" transform="translate(-10367 -13566)" fill="#fff"/>
        <circle id="椭圆_450" data-name="椭圆 450" cx="18" cy="18" r="18" transform="translate(-10343 -13438)" fill="#fff"/>
        <circle id="椭圆_451" data-name="椭圆 451" cx="18" cy="18" r="18" transform="translate(-10251 -13664)" fill="#fff"/>
        <circle id="椭圆_452" data-name="椭圆 452" cx="18" cy="18" r="18" transform="translate(-9728 -13342)" fill="#fff"/>
        <circle id="椭圆_470" data-name="椭圆 470" cx="28" cy="28" r="28" transform="translate(-9738 -13592)" fill="#fff"/>
        <circle id="椭圆_471" data-name="椭圆 471" cx="18" cy="18" r="18" transform="translate(-9833 -13532)" fill="#fff"/>
        <circle id="椭圆_472" data-name="椭圆 472" cx="18" cy="18" r="18" transform="translate(-11648 -13342)" fill="#fff"/>
      </g>
    </g>
  </g>
</svg>
