<svg xmlns="http://www.w3.org/2000/svg" width="59.474" height="25.001" viewBox="0 0 59.474 25.001">
  <path id="路径_4390" data-name="路径 4390" d="M1777.578,3416.691a2.965,2.965,0,0,0-3.136-3.076l-44.025-.089a3.8,3.8,0,0,0-1.037.265,2.07,2.07,0,0,0-.339.252c-.149.128-.242.211-.282.252l-9.763,9.763a3.423,3.423,0,0,0-.591.829,2.12,2.12,0,0,0-.236,1.124,1.933,1.933,0,0,0,.281,1.081c.186.284.389.577.606.872a.038.038,0,0,1,0,.06q2.513,2.575,4.556,4.674c.591.593,1.168,1.177,1.73,1.761s1.071,1.1,1.524,1.554l1.774,1.774a1.783,1.783,0,0,0,.977.532c.356.06.6.1.74.119a12.173,12.173,0,0,0,1.243.028q1.154,0,2.974.016t4.128.015h4.733c3.768.02,26.707.03,31.483.03a2.674,2.674,0,0,0,1.746-.74,2.762,2.762,0,0,0,.976-1.864Zm-49.765,11.272a2.6,2.6,0,0,1-1.939.785,2.691,2.691,0,0,1-1.937-.814,2.72,2.72,0,1,1,3.846-3.847,2.691,2.691,0,0,1,.813,1.939A2.577,2.577,0,0,1,1727.813,3427.963Z" transform="translate(-1718.164 -3413.526)" fill="#3ec68d"/>
</svg>
