<svg id="货币1-icon" xmlns="http://www.w3.org/2000/svg" xmlns:xlink="http://www.w3.org/1999/xlink" width="50.407" height="36" viewBox="0 0 50.407 36">
  <defs>
    <clipPath id="clip-path">
      <path id="Clip_2" data-name="Clip 2" d="M0,0H50.407V36H0Z" transform="translate(0)" fill="none"/>
    </clipPath>
  </defs>
  <g id="Group_3" data-name="Group 3">
    <path id="Clip_2-2" data-name="Clip 2" d="M0,0H50.407V36H0Z" transform="translate(0)" fill="none"/>
    <g id="Group_3-2" data-name="Group 3" clip-path="url(#clip-path)">
      <path id="Fill_1" data-name="Fill 1" d="M45.959,36H4.448A4.486,4.486,0,0,1,0,31.5V4.5A4.486,4.486,0,0,1,4.448,0H45.959a4.486,4.486,0,0,1,4.448,4.5v27A4.486,4.486,0,0,1,45.959,36" transform="translate(0 0)" fill="#ff9522"/>
    </g>
  </g>
  <path id="Fill_4" data-name="Fill 4" d="M9.669,22.557H7.792a.071.071,0,0,1-.07-.072V19.214a.072.072,0,0,0-.072-.072H6.343a.07.07,0,0,0-.071.072v3.271a.072.072,0,0,1-.071.072H4.252a.072.072,0,0,1-.071-.072V19.1a.071.071,0,0,0-.069-.072H.291a.07.07,0,0,1-.071-.07V16.987a.07.07,0,0,1,.071-.071H1.922a.724.724,0,0,0,.718-.728V6.325A.724.724,0,0,0,1.922,5.6H.07A.07.07,0,0,1,0,5.526V3.406a.07.07,0,0,1,.069-.072l4.051.031a.072.072,0,0,0,.07-.072V.071A.07.07,0,0,1,4.261,0H6.206a.07.07,0,0,1,.071.071V3.293a.07.07,0,0,0,.07.072H7.66a.071.071,0,0,0,.069-.072V.071A.072.072,0,0,1,7.8,0h1.9a.07.07,0,0,1,.071.071v3.2a.074.074,0,0,0,.061.072c2.866.417,3.755,1.319,3.764,1.328a3.327,3.327,0,0,1,1.32,3.145.009.009,0,0,0,0,.006,3.649,3.649,0,0,1-1.61,2.542.067.067,0,0,0-.029.065.071.071,0,0,0,.047.058,4.827,4.827,0,0,1,2.09,1.531,5.011,5.011,0,0,1,.526,3.164,4.617,4.617,0,0,1-1.48,2.723,3.114,3.114,0,0,1-1,.66,8.642,8.642,0,0,1-3.211.548c-.2,0-.348-.005-.44-.009a.07.07,0,0,0-.074.07v3.31A.072.072,0,0,1,9.669,22.557ZM6.374,12.174a.073.073,0,0,0-.072.072v4.282a.073.073,0,0,0,.072.074H9.332A2.853,2.853,0,0,0,11.36,15.7a2.81,2.81,0,0,0,.413-2.324c-.018-.048-.477-1.178-2.529-1.2Zm0-6.425a.073.073,0,0,0-.072.072V9.806a.073.073,0,0,0,.072.072H9.12a1.92,1.92,0,0,0,1.737-1.664,1.909,1.909,0,0,0-.773-2.063l-.005,0a3.587,3.587,0,0,0-1.591-.4Z" transform="translate(17.198 6.722)" fill="#fff"/>
</svg>
