<svg xmlns="http://www.w3.org/2000/svg" xmlns:xlink="http://www.w3.org/1999/xlink" width="50.407" height="36" viewBox="0 0 50.407 36">
  <defs>
    <clipPath id="clip-path">
      <path id="Clip_8" data-name="Clip 8" d="M0,0H11.9V36H0Z" fill="none"/>
    </clipPath>
    <clipPath id="clip-path-2">
      <path id="Clip_11" data-name="Clip 11" d="M0,0H11.9V36H0Z" transform="translate(0.553)" fill="none"/>
    </clipPath>
  </defs>
  <g id="货币2-icon" transform="translate(0)">
    <path id="Fill_1" data-name="Fill 1" d="M5.014,1.868A1.884,1.884,0,0,0,3.739.079l-.007,0A3.555,3.555,0,0,0,2.094.108L.052.662A.071.071,0,0,0,0,.749L1.022,4.6a.07.07,0,0,0,.087.05l2.652-.719A1.919,1.919,0,0,0,5.014,1.868" transform="translate(22.686 12.156)" fill="#ff9522"/>
    <path id="Fill_3" data-name="Fill 3" d="M2.825.152.052.9A.07.07,0,0,0,0,.992L1.1,5.129a.069.069,0,0,0,.087.05l2.857-.774h0C4.087,4.391,5.469,3.93,5.769,3a2.78,2.78,0,0,0-.2-2.351S4.857-.378,2.825.152" transform="translate(24.33 18.12)" fill="#ff9522"/>
    <path id="Fill_5" data-name="Fill 5" d="M17.79,36a17.5,17.5,0,0,1-6.924-1.415,17.722,17.722,0,0,1-5.655-3.858A18.183,18.183,0,0,1,1.4,10.994,17.955,17.955,0,0,1,5.211,5.272a17.722,17.722,0,0,1,5.655-3.858,17.656,17.656,0,0,1,13.849,0A17.723,17.723,0,0,1,30.37,5.272a18.183,18.183,0,0,1,3.813,19.734,17.954,17.954,0,0,1-3.813,5.722,17.723,17.723,0,0,1-5.655,3.858A17.5,17.5,0,0,1,17.79,36Zm-1.233-9.762a.07.07,0,0,1,.067.053l.865,3.268a.072.072,0,0,0,.07.052l.017,0,1.881-.51a.072.072,0,0,0,.044-.034.069.069,0,0,0,.006-.053l-.836-3.16a.075.075,0,0,1,.009-.058.064.064,0,0,1,.041-.03l1.265-.345.016,0a.073.073,0,0,1,.07.053l.836,3.159a.074.074,0,0,0,.068.054l.018,0,1.813-.49a.075.075,0,0,0,.051-.088l-.847-3.2a.073.073,0,0,1,.007-.056.072.072,0,0,1,.045-.034,9.25,9.25,0,0,0,3.389-1.476,3.154,3.154,0,0,0,.8-.9,4.74,4.74,0,0,0,.732-3.02,4.97,4.97,0,0,0-1.314-2.917,4.765,4.765,0,0,0-2.413-.933.072.072,0,0,1-.06-.043.068.068,0,0,1,.01-.07,3.669,3.669,0,0,0,.9-2.876.018.018,0,0,1,0-.007,3.306,3.306,0,0,0-2.079-2.69,4.976,4.976,0,0,0-2.36-.4,13.557,13.557,0,0,0-1.615.1H18.05a.073.073,0,0,1-.07-.053l-.818-3.091a.071.071,0,0,0-.068-.053l-.019,0-1.84.5a.075.075,0,0,0-.043.034.067.067,0,0,0-.007.053l.824,3.113a.068.068,0,0,1-.006.053.072.072,0,0,1-.044.034l-1.266.344-.017,0a.069.069,0,0,1-.069-.052L13.78,7.359a.071.071,0,0,0-.068-.053l-.019,0-1.878.508a.072.072,0,0,0-.05.089l.823,3.11a.074.074,0,0,1-.007.057.069.069,0,0,1-.042.033L8.621,12.136a.072.072,0,0,0-.05.087l.542,2.048a.071.071,0,0,0,.068.053l.019,0,1.788-.484a.713.713,0,0,1,.186-.025.721.721,0,0,1,.694.54l2.524,9.526a.728.728,0,0,1-.509.89l-1.575.428a.074.074,0,0,0-.051.088l.506,1.9a.072.072,0,0,0,.068.053l.019,0,3.69-1Z" transform="translate(7.413)" fill="#ff9522"/>
    <g id="Group_9" data-name="Group 9">
      <path id="Clip_8-2" data-name="Clip 8" d="M0,0H11.9V36H0Z" fill="none"/>
      <g id="Group_9-2" data-name="Group 9" clip-path="url(#clip-path)">
        <path id="Fill_7" data-name="Fill 7" d="M2.965,18A22.528,22.528,0,0,1,11.9,0H4.448A4.487,4.487,0,0,0,0,4.5v27A4.487,4.487,0,0,0,4.448,36H11.9A22.528,22.528,0,0,1,2.965,18" transform="translate(0 0)" fill="#ff9522"/>
      </g>
    </g>
    <g id="Group_12" data-name="Group 12" transform="translate(37.953)">
      <path id="Clip_11-2" data-name="Clip 11" d="M0,0H11.9V36H0Z" transform="translate(0.553)" fill="none"/>
      <g id="Group_12-2" data-name="Group 12" clip-path="url(#clip-path-2)">
        <path id="Fill_10" data-name="Fill 10" d="M7.453,0H0A22.528,22.528,0,0,1,8.936,18,22.528,22.528,0,0,1,0,36H7.453A4.486,4.486,0,0,0,11.9,31.5V4.5A4.486,4.486,0,0,0,7.453,0" transform="translate(0.553 0)" fill="#ff9522"/>
      </g>
    </g>
  </g>
</svg>
