<svg xmlns="http://www.w3.org/2000/svg" width="24" height="24" viewBox="0 0 24 24">
  <g id="组_2551" data-name="组 2551" transform="translate(-680 -371)">
    <rect id="矩形_2269" data-name="矩形 2269" width="24" height="24" transform="translate(680 371)" fill="#cfd2e0" opacity="0"/>
    <path id="Shape" d="M22.464-21.49H1.537A1.534,1.534,0,0,0,0-19.964v12.8A1.534,1.534,0,0,0,1.537-5.634h9.587v2.879H7.166a.847.847,0,0,0-.849.843.847.847,0,0,0,.849.843H16.8a.847.847,0,0,0,.849-.843.847.847,0,0,0-.849-.843H12.822V-5.634h9.641A1.533,1.533,0,0,0,24-7.161v-12.8A1.533,1.533,0,0,0,22.464-21.49ZM1.7-7.321V-19.8H22.3V-7.321Z" transform="translate(680 394.49)" fill="#616577"/>
  </g>
</svg>
