<svg id="图层_1" data-name="图层 1" xmlns="http://www.w3.org/2000/svg" xmlns:xlink="http://www.w3.org/1999/xlink" viewBox="0 0 322 322"><defs><style>.cls-1,.cls-2{fill:none;}.cls-2{clip-rule:evenodd;}.cls-3{clip-path:url(#clip-path);}.cls-4{fill:#196cf9;}.cls-5{clip-path:url(#clip-path-2);}.cls-6{fill:#50a3ff;}.cls-6,.cls-8{opacity:0.9;}.cls-7{clip-path:url(#clip-path-3);}.cls-8{fill:#5ec7ff;}.cls-9{clip-path:url(#clip-path-4);}.cls-10{fill:#997bff;}.cls-10,.cls-12{opacity:0.8;}.cls-11{clip-path:url(#clip-path-5);}.cls-12{fill:#3979ff;}.cls-13{clip-path:url(#clip-path-6);}.cls-14{clip-path:url(#clip-path-7);}.cls-15{fill:#fff;}</style><clipPath id="clip-path" transform="translate(5 5)"><rect class="cls-1" x="85" y="76" width="139" height="171"/></clipPath><clipPath id="clip-path-2" transform="translate(5 5)"><circle class="cls-1" cx="156" cy="156" r="156"/></clipPath><clipPath id="clip-path-3" transform="translate(5 5)"><circle class="cls-1" cx="157" cy="155" r="153"/></clipPath><clipPath id="clip-path-4" transform="translate(5 5)"><ellipse class="cls-1" cx="163" cy="153" rx="145" ry="146"/></clipPath><clipPath id="clip-path-5" transform="translate(5 5)"><ellipse class="cls-1" cx="156.5" cy="153.5" rx="148.5" ry="139.5"/></clipPath><clipPath id="clip-path-6" transform="translate(5 5)"><ellipse class="cls-1" cx="155" cy="158.5" rx="143" ry="147.5"/></clipPath><clipPath id="clip-path-7" transform="translate(5 5)"><path class="cls-2" d="M156.31,95a8.43,8.43,0,0,1,8.43,8.43v40.45a8.43,8.43,0,0,1-16.86,0V103.43A8.42,8.42,0,0,1,156.31,95Zm34,17.62a57.31,57.31,0,1,1-67.27-.55,9.59,9.59,0,0,1,1-.72l.19-.13v0a8.5,8.5,0,1,1,7.59,15.2v.07a40.46,40.46,0,1,0,48.25-.46,8.5,8.5,0,0,1,4.23-15.88,8.4,8.4,0,0,1,3.14.6v-.11l.49.32A8.43,8.43,0,0,1,190.32,112.62Z"/></clipPath></defs><title>未连接1</title><g class="cls-3"><rect class="cls-4" x="85" y="76" width="149" height="181"/></g><g class="cls-5"><rect class="cls-6" width="322" height="322"/></g><g class="cls-7"><rect class="cls-8" x="4" y="2" width="316" height="316"/></g><g class="cls-9"><rect class="cls-10" x="18" y="7" width="300" height="302"/></g><g class="cls-11"><rect class="cls-12" x="8" y="14" width="307" height="289"/></g><g class="cls-13"><rect class="cls-4" x="12" y="11" width="296" height="305"/></g><g class="cls-14"><rect class="cls-15" x="99" y="95" width="124.62" height="131.06"/></g></svg>