<svg xmlns="http://www.w3.org/2000/svg" width="14.85" height="15.366" viewBox="0 0 14.85 15.366">
  <g id="组_2606" data-name="组 2606" transform="translate(-935.364 -1058)">
    <g id="路径_326" data-name="路径 326" transform="translate(571.364 642)" fill="none">
      <path d="M377.436,416H365.414A1.414,1.414,0,0,0,364,417.414v9.9a1.414,1.414,0,0,0,1.414,1.414h5.731a.284.284,0,0,1,.165.053l3.556,2.531a.284.284,0,0,0,.449-.231v-2.069a.284.284,0,0,1,.284-.284h1.838a1.414,1.414,0,0,0,1.414-1.414v-9.9A1.414,1.414,0,0,0,377.436,416Z" stroke="none"/>
      <path d="M 365.4143981933594 417.2000122070312 C 365.2962036132812 417.2000122070312 365.2000732421875 417.2961730957031 365.2000732421875 417.4143676757812 L 365.2000732421875 427.3146057128906 C 365.2000732421875 427.4327697753906 365.2962036132812 427.5289001464844 365.4143981933594 427.5289001464844 L 371.1455993652344 427.5289001464844 C 371.4560546875 427.5289001464844 371.7538146972656 427.6241149902344 372.00634765625 427.8040161132812 L 374.1146850585938 429.3049926757812 L 374.1146850585938 429.0128479003906 C 374.1146850585938 428.1946105957031 374.7803955078125 427.5289001464844 375.5986328125 427.5289001464844 L 377.4361877441406 427.5289001464844 C 377.5543212890625 427.5289001464844 377.6504516601562 427.4327697753906 377.6504516601562 427.3146057128906 L 377.6504516601562 417.4143676757812 C 377.6504516601562 417.2961730957031 377.5543212890625 417.2000122070312 377.4361877441406 417.2000122070312 L 365.4143981933594 417.2000122070312 M 365.4143981933594 416 L 377.4361877441406 416 C 378.2172546386719 416 378.8504638671875 416.6332702636719 378.8504638671875 417.4143676757812 L 378.8504638671875 427.3146057128906 C 378.8504638671875 428.0956420898438 378.2172546386719 428.7289123535156 377.4361877441406 428.7289123535156 L 375.5986328125 428.7289123535156 C 375.4420166015625 428.7289123535156 375.314697265625 428.8562316894531 375.314697265625 429.0128479003906 L 375.314697265625 431.0816650390625 C 375.314697265625 431.2493591308594 375.17724609375 431.3661193847656 375.0298767089844 431.3661193847656 C 374.974365234375 431.3661193847656 374.9174499511719 431.3495483398438 374.865966796875 431.3128662109375 L 371.3103942871094 428.7815856933594 C 371.2622680664062 428.747314453125 371.2046508789062 428.7289123535156 371.1455993652344 428.7289123535156 L 365.4143981933594 428.7289123535156 C 364.6333312988281 428.7289123535156 364.0000610351562 428.0956420898438 364.0000610351562 427.3146057128906 L 364.0000610351562 417.4143676757812 C 364.0000610351562 416.6332702636719 364.6333312988281 416 365.4143981933594 416 Z" stroke="none" fill="#3963ef"/>
    </g>
    <rect id="矩形_837" data-name="矩形 837" width="7.777" height="1.21" rx="0.605" transform="translate(938.506 1062.321)" fill="#3963ef"/>
    <rect id="矩形_838" data-name="矩形 838" width="4.321" height="1.21" rx="0.605" transform="translate(938.506 1065.345)" fill="#3963ef"/>
  </g>
</svg>
