<svg xmlns="http://www.w3.org/2000/svg" xmlns:xlink="http://www.w3.org/1999/xlink" width="51" height="51" viewBox="0 0 51 51">
  <defs>
    <linearGradient id="linear-gradient" y1="0.5" x2="1" y2="0.5" gradientUnits="objectBoundingBox">
      <stop offset="0" stop-color="#0586ce" stop-opacity="0.149"/>
      <stop offset="1" stop-color="#0042d8" stop-opacity="0.02"/>
    </linearGradient>
  </defs>
  <g id="组_2570" data-name="组 2570" transform="translate(-748 -867)">
    <rect id="矩形_2287" data-name="矩形 2287" width="51" height="51" transform="translate(748 867)" fill="#a0a7bc" opacity="0"/>
    <g id="组_2567" data-name="组 2567" transform="translate(-47 68)">
      <path id="路径_325" data-name="路径 325" d="M366.855,416H391.12a2.855,2.855,0,0,1,2.855,2.855v19.983a2.855,2.855,0,0,1-2.855,2.855H379.552a.573.573,0,0,0-.333.106l-7.177,5.109a.573.573,0,0,1-.906-.467v-4.176a.574.574,0,0,0-.573-.573h-3.709A2.855,2.855,0,0,1,364,438.838V418.855A2.855,2.855,0,0,1,366.855,416Z" transform="translate(431 402.09)" fill="#a4c7ff"/>
      <g id="路径_326" data-name="路径 326" transform="translate(439.364 390)" fill="#1c73ff">
        <path d="M 391.9558715820312 456.4466247558594 C 391.4943237304688 456.4466247558594 391.0497741699219 456.3037414550781 390.6702880859375 456.033447265625 L 381.8616638183594 449.7624206542969 L 367.5847778320312 449.7624206542969 C 364.7810668945312 449.7624206542969 362.5000610351562 447.4814453125 362.5000610351562 444.6777648925781 L 362.5000610351562 419.5847473144531 C 362.5000610351562 416.781005859375 364.7810668945312 414.5 367.5847778320312 414.5 L 398.0548706054688 414.5 C 400.8585510253906 414.5 403.1395263671875 416.781005859375 403.1395263671875 419.5847473144531 L 403.1395263671875 444.6777648925781 C 403.1395263671875 447.4814453125 400.8585510253906 449.7624206542969 398.0548706054688 449.7624206542969 L 394.1777648925781 449.7624206542969 L 394.1777648925781 454.2255859375 C 394.1777648925781 455.4502563476562 393.1810302734375 456.4466247558594 391.9558715820312 456.4466247558594 Z" stroke="none"/>
        <path d="M 367.5847778320312 416 C 365.6051025390625 416 364.0000610351562 417.6050720214844 364.0000610351562 419.5847473144531 L 364.0000610351562 444.6777648925781 C 364.0000610351562 446.6573791503906 365.6051025390625 448.2624206542969 367.5847778320312 448.2624206542969 L 382.1109313964844 448.2624206542969 C 382.2605895996094 448.2624206542969 382.4066772460938 448.30908203125 382.5285949707031 448.3959350585938 L 391.5404968261719 454.8116760253906 C 391.6709594726562 454.9046020507812 391.8152160644531 454.9466247558594 391.9558715820312 454.9466247558594 C 392.329345703125 454.9466247558594 392.6777648925781 454.650634765625 392.6777648925781 454.2255859375 L 392.6777648925781 448.9820556640625 C 392.6777648925781 448.5850219726562 393.0004272460938 448.2624206542969 393.3974914550781 448.2624206542969 L 398.0548706054688 448.2624206542969 C 400.0345153808594 448.2624206542969 401.6395263671875 446.6573791503906 401.6395263671875 444.6777648925781 L 401.6395263671875 419.5847473144531 C 401.6395263671875 417.6050720214844 400.0345153808594 416 398.0548706054688 416 L 367.5847778320312 416 M 367.5847778320312 413 L 398.0548706054688 413 C 401.6856689453125 413 404.6395263671875 415.9538879394531 404.6395263671875 419.5847473144531 L 404.6395263671875 444.6777648925781 C 404.6395263671875 448.3085632324219 401.6856689453125 451.2624206542969 398.0548706054688 451.2624206542969 L 395.6777648925781 451.2624206542969 L 395.6777648925781 454.2255859375 C 395.6777648925781 456.2773742675781 394.0081481933594 457.9466247558594 391.9558715820312 457.9466247558594 C 391.1805725097656 457.9466247558594 390.4350891113281 457.70751953125 389.800048828125 457.2551879882812 L 381.3822631835938 451.2624206542969 L 367.5847778320312 451.2624206542969 C 363.9539489746094 451.2624206542969 361.0000610351562 448.3085632324219 361.0000610351562 444.6777648925781 L 361.0000610351562 419.5847473144531 C 361.0000610351562 415.9538879394531 363.9539489746094 413 367.5847778320312 413 Z" stroke="none" fill="#fff"/>
      </g>
      <rect id="矩形_829" data-name="矩形 829" width="30" height="24" rx="1" transform="translate(807 810)" fill="url(#linear-gradient)"/>
      <rect id="矩形_837" data-name="矩形 837" width="20" height="2" rx="1" transform="translate(812 817)" fill="#fff"/>
      <rect id="矩形_838" data-name="矩形 838" width="11" height="3" rx="1.5" transform="translate(812 825)" fill="#fff"/>
    </g>
  </g>
</svg>
