<?xml version="1.0" standalone="no"?><!DOCTYPE svg PUBLIC "-//W3C//DTD SVG 1.1//EN" "http://www.w3.org/Graphics/SVG/1.1/DTD/svg11.dtd"><svg t="1620566839156" class="icon" viewBox="0 0 1024 1024" version="1.1" xmlns="http://www.w3.org/2000/svg" p-id="15292" width="28" height="28" xmlns:xlink="http://www.w3.org/1999/xlink"><defs><style type="text/css"></style></defs><path d="M726.458811 551.161081c-21.158054-56.153946-84.950486-75.859027-84.950487-75.859027 11.056432-3.542486 42.17773-31.896216 49.068973-43.52 6.891243-11.623784 18.404324-57.177946-11.042594-94.996757-29.585297-37.915676-91.717189-43.506162-91.717189-43.506162V221.405405H542.443243v68.80173h-78.640432V221.405405H419.00973v73.340541l-100.73946 2.075676v32.795675h30.526271c38.496865 0 44.793081 8.081297 44.793081 8.081298v336.812973c0 15.719784-51.2 19.248432-51.2 19.248432s-17.947676-3.985297-18.404325 12.647784c-0.484324 16.743784 12.703135 18.681081 12.703135 18.681081h81.850811V788.756757h45.969298v-64.816433H542.443243V788.756757h45.969298v-68.345081c8.441081 0 59.046054-10.129297 93.848216-35.881514 34.691459-25.627676 65.34227-77.215135 44.198054-133.369081zM476.505946 326.531459s95.993081-9.686486 128.179892 25.738379c32.200649 35.424865 0 100.130595-30.055784 110.27373-30.055784 10.129297-34.802162 9.105297-53.815351 9.686486-18.999351 0.442811-44.308757 0-44.308757 0V326.517622z m170.343784 271.221622c-2.601514 46.467459-35.148108 87.012324-85.171892 89.516973-50.009946 2.504649-76.855351-11.167135-85.171892-25.28173V510.837622s64.857946-5.244541 100.739459 2.836756c35.881514 8.205838 72.233514 37.486703 69.604325 84.064865z" fill="#369EE2" p-id="15293"></path><path d="M512 1024C229.223784 1024 0 794.776216 0 512S229.223784 0 512 0s512 229.223784 512 512-229.223784 512-512 512z m0-55.351351c252.194595 0 456.648649-204.454054 456.648649-456.648649S764.194595 55.351351 512 55.351351 55.351351 259.805405 55.351351 512s204.454054 456.648649 456.648649 456.648649z" fill="#369EE2" p-id="15294"></path></svg>