<svg xmlns="http://www.w3.org/2000/svg" xmlns:xlink="http://www.w3.org/1999/xlink" width="50.407" height="36" viewBox="0 0 50.407 36">
  <defs>
    <clipPath id="clip-path">
      <path id="Clip_2" data-name="Clip 2" d="M0,0H50.407V36H0Z" fill="none"/>
    </clipPath>
  </defs>
  <g id="货币3-icon" transform="translate(0)">
    <g id="Group_3" data-name="Group 3">
      <path id="Clip_2-2" data-name="Clip 2" d="M0,0H50.407V36H0Z" fill="none"/>
      <g id="Group_3-2" data-name="Group 3" clip-path="url(#clip-path)">
        <path id="Fill_1" data-name="Fill 1" d="M45.959,36H4.448A4.486,4.486,0,0,1,0,31.5V4.5A4.486,4.486,0,0,1,4.448,0H45.959a4.486,4.486,0,0,1,4.448,4.5v27A4.486,4.486,0,0,1,45.959,36" transform="translate(0 0)" fill="#39b83a"/>
      </g>
    </g>
    <path id="Fill_4" data-name="Fill 4" d="M7.767,0,0,11.652,7.767,7.487Z" transform="translate(17.436 5.1)" fill="#fff"/>
    <path id="Fill_6" data-name="Fill 6" d="M0,0,7.767,11.652,0,7.487Z" transform="translate(25.203 5.1)" fill="#fff"/>
    <path id="Fill_8" data-name="Fill 8" d="M7.42,0,0,4.074l7.42.647Z" transform="translate(17.783 13.917)" fill="#fff"/>
    <path id="Fill_10" data-name="Fill 10" d="M0,0,7.421,4.074,0,4.721Z" transform="translate(25.203 13.917)" fill="#fff"/>
    <path id="Fill_12" data-name="Fill 12" d="M0,0,7.42,4.144V.647Z" transform="translate(17.783 17.99)" fill="#fff"/>
    <path id="Fill_14" data-name="Fill 14" d="M0,4.144,7.421,0,0,.647Z" transform="translate(25.203 17.991)" fill="#fff"/>
    <path id="Fill_16" data-name="Fill 16" d="M0,0C.074.164,7.767,11.726,7.767,11.726V4.237Z" transform="translate(17.436 19.173)" fill="#fff"/>
    <path id="Fill_18" data-name="Fill 18" d="M7.767,0C7.694.164,0,11.726,0,11.726V4.237Z" transform="translate(25.203 19.173)" fill="#fff"/>
  </g>
</svg>
