<svg id="货币4-icon" xmlns="http://www.w3.org/2000/svg" xmlns:xlink="http://www.w3.org/1999/xlink" width="50.407" height="36" viewBox="0 0 50.407 36">
  <defs>
    <clipPath id="clip-path">
      <path id="Clip_2" data-name="Clip 2" d="M0,0H50.407V36H0Z" fill="none"/>
    </clipPath>
  </defs>
  <g id="Group_3" data-name="Group 3">
    <path id="Clip_2-2" data-name="Clip 2" d="M0,0H50.407V36H0Z" fill="none"/>
    <g id="Group_3-2" data-name="Group 3" clip-path="url(#clip-path)">
      <path id="Fill_1" data-name="Fill 1" d="M45.959,36H4.448A4.486,4.486,0,0,1,0,31.5V4.5A4.486,4.486,0,0,1,4.448,0H45.959a4.486,4.486,0,0,1,4.448,4.5v27A4.486,4.486,0,0,1,45.959,36" transform="translate(0 0)" fill="#2d2f33"/>
    </g>
  </g>
  <path id="Fill_4" data-name="Fill 4" d="M7.769,4.715,0,0,7.769,11Z" transform="translate(17.436 19.921)" fill="#fff"/>
  <path id="Fill_6" data-name="Fill 6" d="M0,13.1l7.769-3.39V0Z" transform="translate(17.436 5.076)" fill="#fff"/>
  <path id="Fill_8" data-name="Fill 8" d="M0,3.39,7.769,0V8.1Z" transform="translate(17.436 14.778)" fill="#fff"/>
  <path id="Fill_10" data-name="Fill 10" d="M0,4.715,7.767,0,0,11Z" transform="translate(25.203 19.921)" fill="#fff"/>
  <path id="Fill_12" data-name="Fill 12" d="M7.767,13.1,0,9.708V0Z" transform="translate(25.203 5.076)" fill="#fff"/>
  <path id="Fill_14" data-name="Fill 14" d="M7.767,3.39,0,0V8.1Z" transform="translate(25.203 14.778)" fill="#fff"/>
</svg>
