<svg xmlns="http://www.w3.org/2000/svg" xmlns:xlink="http://www.w3.org/1999/xlink" width="52" height="52" viewBox="0 0 52 52">
  <defs>
    <clipPath id="clip-path">
      <rect width="52" height="52" fill="none"/>
    </clipPath>
  </defs>
  <g id="重复网格_1" data-name="重复网格 1" clip-path="url(#clip-path)">
    <g id="组_2142" data-name="组 2142" transform="translate(-3460 -915)">
      <g id="矩形_1846" data-name="矩形 1846" transform="translate(3460 915)" fill="#fff" stroke="#707070" stroke-width="1" opacity="0">
        <rect width="52" height="52" stroke="none"/>
        <rect x="0.5" y="0.5" width="51" height="51" fill="none"/>
      </g>
      <g id="组_2137" data-name="组 2137" transform="translate(3041 -272.416)">
        <path id="减去_3" data-name="减去 3" d="M17.634,11.641h0A51.35,51.35,0,0,1,4.988,9.19C1.725,7.993,0,6.568,0,5.068c0-.981.735-1.928,2.185-2.815A21.893,21.893,0,0,1,8.106,0L7.161,2.189a.464.464,0,0,0,.426.646H18.96a.465.465,0,0,1,.453.561L17.635,11.64Z" transform="translate(420 1221.081)" fill="#1c73ff" opacity="0.4"/>
        <path id="路径_423" data-name="路径 423" d="M1556.329,584.99a.38.38,0,0,0,.038-.008h9.7a.578.578,0,0,1,.563.707l-3.529,15.348.013,0a1.484,1.484,0,0,0-.055.353,1.37,1.37,0,0,0,1.419,1.317,1.352,1.352,0,0,0,.985-.5l21.674-25.793c.019-.019.033-.041.051-.062l.01-.013h0a1.35,1.35,0,0,0-1.024-2.231h-.011c-.021,0-.037-.01-.057-.008s-.022.007-.033.007l-7.783-.08a.578.578,0,0,1-.519-.819l5.55-12.119-.005,0a1.346,1.346,0,0,0,.136-.617,1.368,1.368,0,0,0-1.421-1.313c-.013,0-.025.008-.038.008l-15.82-.005c-.021,0-.037-.01-.057-.01a1.359,1.359,0,0,0-1.2.834h0l0,.01c-.01.024-.022.048-.031.073l-9.857,23.019a1.353,1.353,0,0,0,1.3,1.9Zm0,0" transform="translate(-1123.828 636.262)" fill="#1c73ff"/>
        <path id="减去_1" data-name="减去 1" d="M0,12.191l0,0L10.244,0a27.223,27.223,0,0,1,7.109,2.365c1.762.963,2.656,2,2.656,3.087,0,1.6-2.033,3.151-5.724,4.378A57.821,57.821,0,0,1,0,12.191Z" transform="translate(449.988 1220.697)" fill="#1c73ff" opacity="0.4"/>
      </g>
    </g>
  </g>
</svg>
