<svg id="组_2341" data-name="组 2341" xmlns="http://www.w3.org/2000/svg" width="28.663" height="19.147" viewBox="0 0 28.663 19.147">
  <path id="路径_4169" data-name="路径 4169" d="M288.653,75.511V56.364h28.663V75.511Zm28.6-.059v0Zm-28.484-.061H317.2V56.481H288.773Z" transform="translate(-288.653 -56.364)" fill="#231f20"/>
  <rect id="矩形_2022" data-name="矩形 2022" width="28.544" height="19.029" transform="translate(0.06 0.059)" fill="#de2910"/>
  <path id="路径_4170" data-name="路径 4170" d="M292.809,57.911l.6,1.854h1.95l-1.578,1.147.6,1.855-1.576-1.147-1.578,1.147.6-1.855-1.578-1.147h1.95Z" transform="translate(-287.968 -55.703)" fill="#ffde00"/>
  <path id="路径_4171" data-name="路径 4171" d="M295.927,57.232l-.041.641.6.237-.622.158-.042.641-.343-.543-.622.159.41-.494-.341-.541.6.237Z" transform="translate(-286.004 -55.993)" fill="#ffde00"/>
  <path id="路径_4172" data-name="路径 4172" d="M297.588,58.737l-.293.571.453.454-.633-.1-.294.572-.1-.634-.634-.1.571-.29-.1-.634.452.454Z" transform="translate(-285.476 -55.42)" fill="#ffde00"/>
  <path id="路径_4173" data-name="路径 4173" d="M296.93,60.51l.2.61h.643l-.52.376.2.611-.518-.378-.52.377.2-.611-.518-.377h.641Z" transform="translate(-285.476 -54.593)" fill="#ffde00"/>
  <path id="路径_4174" data-name="路径 4174" d="M295.924,61.882l-.042.641.6.238-.623.158-.04.641-.343-.543-.623.158.41-.493-.341-.543.6.238Z" transform="translate(-286.006 -54.007)" fill="#ffde00"/>
</svg>
