<svg xmlns="http://www.w3.org/2000/svg" width="28.662" height="19.147" viewBox="0 0 28.662 19.147">
  <g id="组_2357" data-name="组 2357" transform="translate(-945.669 -530.426)">
    <path id="路径_4175" data-name="路径 4175" d="M945.669,549.574V530.426h28.662v19.148Zm28.6-.06-28.484-.061h28.427v-18.91H945.787Z" fill="#231f20"/>
    <g id="组_2354" data-name="组 2354">
      <rect id="矩形_2051" data-name="矩形 2051" width="28.54" height="9.513" transform="translate(945.73 530.487)" fill="#e81f30"/>
      <rect id="矩形_2052" data-name="矩形 2052" width="28.54" height="9.513" transform="translate(945.73 540)" fill="#fff"/>
      <path id="路径_4211" data-name="路径 4211" d="M955.519,535.243a3.576,3.576,0,1,1-.272-1.369A3.576,3.576,0,0,1,955.519,535.243Z" fill="#fff"/>
      <path id="路径_4212" data-name="路径 4212" d="M956.642,535.244a3.38,3.38,0,1,1-.257-1.294A3.378,3.378,0,0,1,956.642,535.244Z" fill="#e81f30"/>
      <path id="路径_4213" data-name="路径 4213" d="M952.384,535.33l-.486-.372-.486.373.187-.6-.488-.371h.6l.185-.6.185.6h.6l-.487.371Z" fill="#fff"/>
      <path id="路径_4214" data-name="路径 4214" d="M956.2,535.33l-.486-.372-.486.373.187-.6-.488-.371h.6l.184-.6.185.6h.6l-.487.371Z" fill="#fff"/>
      <path id="路径_4215" data-name="路径 4215" d="M954.295,533.915l-.486-.373-.486.374.187-.6-.488-.37h.6l.184-.6.185.6h.6l-.487.37Z" fill="#fff"/>
      <path id="路径_4216" data-name="路径 4216" d="M953.1,537.594l-.486-.373-.486.373.187-.6-.488-.37h.6l.185-.6.185.6h.6l-.487.37Z" fill="#fff"/>
      <path id="路径_4217" data-name="路径 4217" d="M955.484,537.594l-.486-.373-.486.373.187-.6-.488-.37h.6l.184-.6.185.6h.6l-.487.37Z" fill="#fff"/>
    </g>
  </g>
</svg>
