<svg id="组_2344" data-name="组 2344" xmlns="http://www.w3.org/2000/svg" width="28.663" height="19.146" viewBox="0 0 28.663 19.146">
  <path id="路径_4192" data-name="路径 4192" d="M6.666,208.814V189.668H35.329v19.146Zm28.6-.058v0ZM6.786,208.7H35.211v-18.91H6.786Z" transform="translate(-6.666 -189.668)" fill="#231f20"/>
  <rect id="矩形_2027" data-name="矩形 2027" width="28.544" height="19.029" transform="translate(0.061 0.058)" fill="#fff"/>
  <path id="路径_4193" data-name="路径 4193" d="M22.788,197.353a4.694,4.694,0,1,1-5.1-4.247A4.694,4.694,0,0,1,22.788,197.353Z" transform="translate(-3.781 -188.208)" fill="#ce1126"/>
  <path id="路径_4194" data-name="路径 4194" d="M14.1,194.676a2.345,2.345,0,1,0,4.01,2.43,2.343,2.343,0,0,1,4.008,2.429,4.688,4.688,0,1,1-8.018-4.86" transform="translate(-3.781 -187.529)" fill="#003f87"/>
  <rect id="矩形_2028" data-name="矩形 2028" width="4.711" height="0.734" transform="translate(4.355 5.792) rotate(-55.983)"/>
  <rect id="矩形_2029" data-name="矩形 2029" width="4.711" height="0.735" transform="matrix(0.56, -0.829, 0.829, 0.56, 5.292, 6.425)"/>
  <path id="路径_4195" data-name="路径 4195" d="M11.033,195.783l.609.41,2.633-3.905-.609-.41Z" transform="translate(-4.8 -188.724)"/>
  <rect id="矩形_2030" data-name="矩形 2030" width="2.182" height="0.734" transform="translate(20.603 13.485) rotate(-55.974)"/>
  <rect id="矩形_2031" data-name="矩形 2031" width="2.182" height="0.735" transform="translate(19.19 15.582) rotate(-56.058)"/>
  <rect id="矩形_2032" data-name="矩形 2032" width="2.182" height="0.735" transform="translate(21.541 14.118) rotate(-55.943)"/>
  <path id="路径_4196" data-name="路径 4196" d="M20.769,201.569l.608.413,1.221-1.81-.61-.41Z" transform="translate(-0.641 -185.356)"/>
  <rect id="矩形_2033" data-name="矩形 2033" width="2.182" height="0.734" transform="matrix(0.559, -0.829, 0.829, 0.559, 22.48, 14.752)"/>
  <rect id="矩形_2034" data-name="矩形 2034" width="2.182" height="0.735" transform="translate(21.067 16.848) rotate(-56.098)"/>
  <path id="路径_4197" data-name="路径 4197" d="M23.4,195.748l.609-.409-2.633-3.905-.61.41Z" transform="translate(-0.641 -188.914)"/>
  <rect id="矩形_2035" data-name="矩形 2035" width="0.735" height="2.182" transform="matrix(0.829, -0.56, 0.56, 0.829, 21.066, 2.299)"/>
  <rect id="矩形_2036" data-name="矩形 2036" width="0.735" height="2.182" transform="matrix(0.828, -0.56, 0.56, 0.828, 22.479, 4.395)"/>
  <rect id="矩形_2037" data-name="矩形 2037" width="0.734" height="2.182" transform="translate(19.19 3.563) rotate(-33.959)"/>
  <rect id="矩形_2038" data-name="矩形 2038" width="0.734" height="2.183" transform="matrix(0.829, -0.559, 0.559, 0.829, 20.603, 5.659)"/>
  <rect id="矩形_2039" data-name="矩形 2039" width="0.734" height="4.71" transform="matrix(0.829, -0.559, 0.559, 0.829, 6.233, 12.087)"/>
  <rect id="矩形_2040" data-name="矩形 2040" width="0.733" height="4.71" transform="matrix(0.829, -0.559, 0.559, 0.829, 4.357, 13.353)"/>
  <rect id="矩形_2041" data-name="矩形 2041" width="0.735" height="2.183" transform="translate(5.294 12.72) rotate(-33.995)"/>
  <path id="路径_4198" data-name="路径 4198" d="M12.586,201.979l.609-.41-1.219-1.808-.61.41Z" transform="translate(-4.658 -185.356)"/>
</svg>
