<svg xmlns="http://www.w3.org/2000/svg" width="29.1" height="19.588" viewBox="0 0 29.1 19.588">
  <g id="组_2362" data-name="组 2362" transform="translate(-102.562 -4194.561)">
    <path id="路径_4175" data-name="路径 4175" d="M945.669,549.574V530.426h28.662v19.148Zm28.6-.06-28.484-.061h28.427v-18.91H945.787Z" transform="translate(-842.669 3664.574)" fill="#231f20"/>
    <rect id="矩形_2053" data-name="矩形 2053" width="28.538" height="19.026" transform="translate(103.063 4195.061)" fill="#f7120e"/>
    <rect id="矩形_2057" data-name="矩形 2057" width="10" height="7" transform="translate(105 4196)" fill="#fff"/>
    <path id="减去_26" data-name="减去 26" d="M-3446.3-1427.153H-3460V-1436h13.7v8.847Zm-7.375-2.607.008,0h0l0,0,.488,1.322.489-1.324.011,0,1.084.9-.238-1.4h0a1.915,1.915,0,0,1-.847.493l-.007-.006,0,.009a1.926,1.926,0,0,1-.492.065,1.909,1.909,0,0,1-.485-.063l0-.011h0l-.009.007a1.912,1.912,0,0,1-.846-.491v-.006h-.006l.005.005-.24,1.393,1.085-.9Zm-1.338-1.35-.907,1.093,1.394-.239A1.9,1.9,0,0,1-3455.015-1431.11Zm3.676,0a1.919,1.919,0,0,1-.488.853l1.4.239-.908-1.093Zm-1.838-2.078h0a1.587,1.587,0,0,0-1.585,1.582,1.589,1.589,0,0,0,1.586,1.588,1.588,1.588,0,0,0,1.584-1.581,1.578,1.578,0,0,0-.462-1.123,1.57,1.57,0,0,0-1.119-.466Zm-1.838,1.092-1.332.491,1.331.493a1.9,1.9,0,0,1,0-.983Zm3.678,0a1.931,1.931,0,0,1,.064.49,1.975,1.975,0,0,1-.064.493l1.333-.493Zm.908-1.094-1.4.241a1.912,1.912,0,0,1,.491.851h0l.909-1.093Zm-5.493,0,.907,1.092a1.907,1.907,0,0,1,.493-.85l-1.4-.241Zm1.16-1.159h0l.24,1.4a1.886,1.886,0,0,1,.852-.493l-1.093-.907Zm2.079.906a1.888,1.888,0,0,1,.853.493l.239-1.4Zm-.493-1.331-.49,1.331a1.931,1.931,0,0,1,.49-.063h0a1.906,1.906,0,0,1,.488.063Z" transform="translate(3563.062 5631.061)" fill="#141398" stroke="rgba(0,0,0,0)" stroke-width="1"/>
  </g>
</svg>
