<svg id="组_2346" data-name="组 2346" xmlns="http://www.w3.org/2000/svg" width="28.663" height="19.147" viewBox="0 0 28.663 19.147">
  <path id="路径_4200" data-name="路径 4200" d="M34.865,395.44V376.293H63.528V395.44Zm28.6-.059v0Zm-28.484-.06H63.41V376.41H34.985Z" transform="translate(-34.865 -376.293)" fill="#231f20"/>
  <rect id="矩形_2045" data-name="矩形 2045" width="28.544" height="19.029" transform="translate(0.06 0.059)" fill="#01247d"/>
  <path id="路径_4201" data-name="路径 4201" d="M63.451,382.995H52.033v-6.661H46.325v6.661H34.907V388.7H46.325v6.659h5.709V388.7H63.451Z" transform="translate(-34.847 -376.275)" fill="#fff"/>
  <path id="路径_4202" data-name="路径 4202" d="M63.451,393.177,38.182,376.334H34.907v2.2L60.15,395.363h3.3Z" transform="translate(-34.847 -376.275)" fill="#fff"/>
  <path id="路径_4203" data-name="路径 4203" d="M34.907,393.177l25.268-16.843h3.276v2.2L38.208,395.363h-3.3Z" transform="translate(-34.847 -376.275)" fill="#fff"/>
  <path id="路径_4204" data-name="路径 4204" d="M63.451,384.183H50.844v-7.849h-3.33v7.849H34.907v3.33H47.513v7.849h3.33v-7.849H63.451Z" transform="translate(-34.847 -376.275)" fill="#cf142b"/>
  <path id="路径_4205" data-name="路径 4205" d="M57.88,391.606v-1.5L50.208,385h-2.26Z" transform="translate(-29.276 -372.573)" fill="#cf142b"/>
  <path id="路径_4206" data-name="路径 4206" d="M58.325,376.334H56.068l-9.16,6.092v.569h1.406l10.011-6.659Z" transform="translate(-29.721 -376.275)" fill="#cf142b"/>
  <path id="路径_4207" data-name="路径 4207" d="M44.842,385l-9.935,6.606v.053h2.18l9.238-6.144V385Z" transform="translate(-34.847 -372.573)" fill="#cf142b"/>
  <path id="路径_4208" data-name="路径 4208" d="M34.907,376.343v1.5l7.735,5.146H44.9Z" transform="translate(-34.847 -376.272)" fill="#cf142b"/>
</svg>
