<svg id="组_2340" data-name="组 2340" xmlns="http://www.w3.org/2000/svg" width="28.662" height="19.147" viewBox="0 0 28.662 19.147">
  <path id="路径_4118" data-name="路径 4118" d="M63.064,395.44V376.293H91.726V395.44Zm28.6-.059v0Zm-28.485-.06H91.608V376.41H63.182Z" transform="translate(-63.064 -376.293)" fill="#231f20"/>
  <rect id="矩形_2008" data-name="矩形 2008" width="28.544" height="1.463" transform="translate(0.06 13.233)" fill="#fff"/>
  <rect id="矩形_2009" data-name="矩形 2009" width="28.544" height="1.465" transform="translate(0.06 11.769)" fill="#bf0a30"/>
  <rect id="矩形_2010" data-name="矩形 2010" width="28.544" height="1.463" transform="translate(0.06 16.16)" fill="#fff"/>
  <rect id="矩形_2011" data-name="矩形 2011" width="28.544" height="1.465" transform="translate(0.06 17.624)" fill="#bf0a30"/>
  <rect id="矩形_2012" data-name="矩形 2012" width="28.544" height="1.463" transform="translate(0.06 14.697)" fill="#bf0a30"/>
  <rect id="矩形_2013" data-name="矩形 2013" width="28.544" height="1.463" transform="translate(0.06 10.305)" fill="#fff"/>
  <rect id="矩形_2014" data-name="矩形 2014" width="28.544" height="1.463" transform="translate(0.06 5.914)" fill="#bf0a30"/>
  <rect id="矩形_2015" data-name="矩形 2015" width="28.544" height="1.463" transform="translate(0.06 1.522)" fill="#fff"/>
  <rect id="矩形_2016" data-name="矩形 2016" width="28.544" height="1.465" transform="translate(0.06 2.985)" fill="#bf0a30"/>
  <rect id="矩形_2017" data-name="矩形 2017" width="28.544" height="1.465" transform="translate(0.06 8.84)" fill="#bf0a30"/>
  <rect id="矩形_2018" data-name="矩形 2018" width="28.544" height="1.462" transform="translate(0.06 0.06)" fill="#bf0a30"/>
  <rect id="矩形_2019" data-name="矩形 2019" width="28.544" height="1.463" transform="translate(0.06 4.45)" fill="#fff"/>
  <rect id="矩形_2020" data-name="矩形 2020" width="28.544" height="1.463" transform="translate(0.06 7.377)" fill="#fff"/>
  <rect id="矩形_2021" data-name="矩形 2021" width="11.417" height="10.258" transform="translate(0.06 0.06)" fill="#002868"/>
  <path id="路径_4119" data-name="路径 4119" d="M69.215,376.719l.078.243h.255l-.206.15.079.243-.206-.151-.208.151.08-.243-.206-.15h.255Z" transform="translate(-60.579 -376.111)" fill="#fff"/>
  <path id="路径_4120" data-name="路径 4120" d="M69.215,378.212l.078.243h.255l-.206.151.079.242-.206-.149-.208.149.08-.242-.206-.151h.255Z" transform="translate(-60.579 -375.473)" fill="#fff"/>
  <path id="路径_4121" data-name="路径 4121" d="M69.215,379.706l.078.242h.255l-.206.15.079.243-.206-.151-.208.151.08-.243-.206-.15h.255Z" transform="translate(-60.579 -374.835)" fill="#fff"/>
  <path id="路径_4122" data-name="路径 4122" d="M69.215,381.233l.078.244h.255l-.206.149.079.244-.206-.151-.208.151.08-.244-.206-.149h.255Z" transform="translate(-60.579 -374.183)" fill="#fff"/>
  <path id="路径_4123" data-name="路径 4123" d="M69.215,382.692l.078.242h.255l-.206.151.079.242-.206-.151-.208.151.08-.242-.206-.151h.255Z" transform="translate(-60.579 -373.559)" fill="#fff"/>
  <path id="路径_4124" data-name="路径 4124" d="M67.876,376.719l.079.243h.256l-.207.15.079.243-.206-.151-.207.151.079-.243-.206-.15H67.8Z" transform="translate(-61.152 -376.111)" fill="#fff"/>
  <path id="路径_4125" data-name="路径 4125" d="M67.876,378.212l.079.243h.256L68,378.6l.079.242-.206-.149-.207.149.079-.242-.206-.151H67.8Z" transform="translate(-61.152 -375.473)" fill="#fff"/>
  <path id="路径_4126" data-name="路径 4126" d="M67.876,379.706l.079.242h.256L68,380.1l.079.243-.206-.151-.207.151.079-.243-.206-.15H67.8Z" transform="translate(-61.152 -374.835)" fill="#fff"/>
  <path id="路径_4127" data-name="路径 4127" d="M67.876,381.233l.079.244h.256l-.207.149.079.244-.206-.151-.207.151.079-.244-.206-.149H67.8Z" transform="translate(-61.152 -374.183)" fill="#fff"/>
  <path id="路径_4128" data-name="路径 4128" d="M67.876,382.692l.079.242h.256l-.207.151.079.242-.206-.151-.207.151.079-.242-.206-.151H67.8Z" transform="translate(-61.152 -373.559)" fill="#fff"/>
  <path id="路径_4129" data-name="路径 4129" d="M66.537,376.719l.078.243h.255l-.206.15.079.243-.206-.151-.208.151.079-.243-.206-.15h.254Z" transform="translate(-61.723 -376.111)" fill="#fff"/>
  <path id="路径_4130" data-name="路径 4130" d="M66.537,378.212l.078.243h.255l-.206.151.079.242-.206-.149-.208.149.079-.242-.206-.151h.254Z" transform="translate(-61.723 -375.473)" fill="#fff"/>
  <path id="路径_4131" data-name="路径 4131" d="M66.537,379.706l.078.242h.255l-.206.15.079.243-.206-.151-.208.151.079-.243-.206-.15h.254Z" transform="translate(-61.723 -374.835)" fill="#fff"/>
  <path id="路径_4132" data-name="路径 4132" d="M66.537,381.233l.078.244h.255l-.206.149.079.244-.206-.151-.208.151.079-.244-.206-.149h.254Z" transform="translate(-61.723 -374.183)" fill="#fff"/>
  <path id="路径_4133" data-name="路径 4133" d="M66.537,382.692l.078.242h.255l-.206.151.079.242-.206-.151-.208.151.079-.242-.206-.151h.254Z" transform="translate(-61.723 -373.559)" fill="#fff"/>
  <path id="路径_4134" data-name="路径 4134" d="M65.2,376.719l.079.243h.256l-.206.15.079.243L65.2,377.2l-.206.151.079-.243-.207-.15h.255Z" transform="translate(-62.296 -376.111)" fill="#fff"/>
  <path id="路径_4135" data-name="路径 4135" d="M65.2,378.212l.079.243h.256l-.206.151.079.242L65.2,378.7l-.206.149.079-.242-.207-.151h.255Z" transform="translate(-62.296 -375.473)" fill="#fff"/>
  <path id="路径_4136" data-name="路径 4136" d="M65.2,379.706l.079.242h.256l-.206.15.079.243-.207-.151-.206.151.079-.243-.207-.15h.255Z" transform="translate(-62.296 -374.835)" fill="#fff"/>
  <path id="路径_4137" data-name="路径 4137" d="M65.2,381.233l.079.244h.256l-.206.149.079.244-.207-.151-.206.151.079-.244-.207-.149h.255Z" transform="translate(-62.296 -374.183)" fill="#fff"/>
  <path id="路径_4138" data-name="路径 4138" d="M65.2,382.692l.079.242h.256l-.206.151.079.242-.207-.151-.206.151.079-.242-.207-.151h.255Z" transform="translate(-62.296 -373.559)" fill="#fff"/>
  <path id="路径_4139" data-name="路径 4139" d="M63.858,376.719l.08.243h.254l-.206.15.079.243-.206-.151-.207.151.079-.243-.206-.15h.256Z" transform="translate(-62.868 -376.111)" fill="#fff"/>
  <path id="路径_4140" data-name="路径 4140" d="M63.858,378.212l.08.243h.254l-.206.151.079.242-.206-.149-.207.149.079-.242-.206-.151h.256Z" transform="translate(-62.868 -375.473)" fill="#fff"/>
  <path id="路径_4141" data-name="路径 4141" d="M63.858,379.706l.08.242h.254l-.206.15.079.243-.206-.151-.207.151.079-.243-.206-.15h.256Z" transform="translate(-62.868 -374.835)" fill="#fff"/>
  <path id="路径_4142" data-name="路径 4142" d="M63.858,381.233l.08.244h.254l-.206.149.079.244-.206-.151-.207.151.079-.244-.206-.149h.256Z" transform="translate(-62.868 -374.183)" fill="#fff"/>
  <path id="路径_4143" data-name="路径 4143" d="M63.858,382.692l.08.242h.254l-.206.151.079.242-.206-.151-.207.151.079-.242-.206-.151h.256Z" transform="translate(-62.868 -373.559)" fill="#fff"/>
  <path id="路径_4144" data-name="路径 4144" d="M69.9,377.465l.079.244h.256l-.207.149.079.244-.206-.15-.207.15.08-.244-.207-.149h.255Z" transform="translate(-60.288 -375.792)" fill="#fff"/>
  <path id="路径_4145" data-name="路径 4145" d="M69.9,379.007l.079.243h.256l-.207.15.079.242-.206-.15-.207.15.08-.242-.207-.15h.255Z" transform="translate(-60.288 -375.134)" fill="#fff"/>
  <path id="路径_4146" data-name="路径 4146" d="M69.884,380.518l.079.242h.256l-.206.151.079.243L69.884,381l-.206.151.079-.243-.207-.151h.256Z" transform="translate(-60.294 -374.488)" fill="#fff"/>
  <path id="路径_4147" data-name="路径 4147" d="M69.871,382.011l.079.243h.256L70,382.4l.079.243-.207-.151-.206.151.079-.243-.207-.15h.256Z" transform="translate(-60.299 -373.851)" fill="#fff"/>
  <path id="路径_4148" data-name="路径 4148" d="M68.558,377.465l.079.244h.256l-.207.149.079.244-.207-.15-.207.15.079-.244-.206-.149h.255Z" transform="translate(-60.86 -375.792)" fill="#fff"/>
  <path id="路径_4149" data-name="路径 4149" d="M68.558,379.007l.079.243h.256l-.207.15.079.242-.207-.15-.207.15.079-.242-.206-.15h.255Z" transform="translate(-60.86 -375.134)" fill="#fff"/>
  <path id="路径_4150" data-name="路径 4150" d="M68.545,380.518l.079.242h.256l-.206.151.079.243L68.545,381l-.206.151.079-.243-.207-.151h.255Z" transform="translate(-60.866 -374.488)" fill="#fff"/>
  <path id="路径_4151" data-name="路径 4151" d="M68.532,382.011l.079.243h.255l-.206.15.079.243-.206-.151-.207.151.079-.243-.206-.15h.255Z" transform="translate(-60.871 -373.851)" fill="#fff"/>
  <path id="路径_4152" data-name="路径 4152" d="M67.219,377.412l.079.242h.255l-.206.149.079.244-.208-.15-.206.15.079-.244-.207-.149h.255Z" transform="translate(-61.432 -375.815)" fill="#fff"/>
  <path id="路径_4153" data-name="路径 4153" d="M67.219,378.953l.079.242h.255l-.206.151.079.242-.208-.149-.206.149.079-.242-.207-.151h.255Z" transform="translate(-61.432 -375.157)" fill="#fff"/>
  <path id="路径_4154" data-name="路径 4154" d="M67.206,380.464l.078.243h.256l-.207.151.079.242-.206-.151L67,381.1l.079-.242-.206-.151h.255Z" transform="translate(-61.437 -374.511)" fill="#fff"/>
  <path id="路径_4155" data-name="路径 4155" d="M67.192,381.958l.079.242h.256l-.206.149.079.244-.207-.15-.206.15.079-.244-.207-.149h.255Z" transform="translate(-61.443 -373.873)" fill="#fff"/>
  <path id="路径_4156" data-name="路径 4156" d="M65.88,377.4l.079.242h.256l-.207.151.079.242-.206-.151-.207.151.079-.242-.207-.151H65.8Z" transform="translate(-62.004 -375.821)" fill="#fff"/>
  <path id="路径_4157" data-name="路径 4157" d="M65.88,378.939l.079.242h.256l-.207.151.079.242-.206-.151-.207.151.079-.242-.207-.151H65.8Z" transform="translate(-62.004 -375.163)" fill="#fff"/>
  <path id="路径_4158" data-name="路径 4158" d="M65.867,380.449l.078.243H66.2l-.206.151.079.243-.206-.15-.207.15.079-.243-.206-.151h.255Z" transform="translate(-62.009 -374.518)" fill="#fff"/>
  <path id="路径_4159" data-name="路径 4159" d="M65.854,381.942l.079.242h.255l-.207.151.079.242-.206-.151-.206.151.079-.242-.207-.151h.256Z" transform="translate(-62.015 -373.88)" fill="#fff"/>
  <path id="路径_4160" data-name="路径 4160" d="M64.541,377.37l.079.242h.256l-.207.151.079.242-.206-.15-.207.15.079-.242-.206-.151h.255Z" transform="translate(-62.576 -375.833)" fill="#fff"/>
  <path id="路径_4161" data-name="路径 4161" d="M64.541,378.911l.079.243h.256l-.207.15.079.242-.206-.149-.207.149.079-.242-.206-.15h.255Z" transform="translate(-62.576 -375.175)" fill="#fff"/>
  <path id="路径_4162" data-name="路径 4162" d="M64.527,380.423l.08.242h.255l-.207.15.079.243-.207-.151-.206.151.079-.243-.207-.15h.256Z" transform="translate(-62.582 -374.529)" fill="#fff"/>
  <path id="路径_4163" data-name="路径 4163" d="M64.515,381.916l.078.242h.256l-.207.151.079.242-.206-.15-.208.15.079-.242-.206-.151h.255Z" transform="translate(-62.587 -373.891)" fill="#fff"/>
  <path id="路径_4164" data-name="路径 4164" d="M70.554,376.719l.078.243h.256l-.206.15.079.243-.206-.151-.207.151.079-.243-.206-.15h.255Z" transform="translate(-60.007 -376.111)" fill="#fff"/>
  <path id="路径_4165" data-name="路径 4165" d="M70.554,378.212l.078.243h.256l-.206.151.079.242-.206-.149-.207.149.079-.242-.206-.151h.255Z" transform="translate(-60.007 -375.473)" fill="#fff"/>
  <path id="路径_4166" data-name="路径 4166" d="M70.554,379.706l.078.242h.256l-.206.15.079.243-.206-.151-.207.151.079-.243-.206-.15h.255Z" transform="translate(-60.007 -374.835)" fill="#fff"/>
  <path id="路径_4167" data-name="路径 4167" d="M70.554,381.233l.078.244h.256l-.206.149.079.244-.206-.151-.207.151.079-.244-.206-.149h.255Z" transform="translate(-60.007 -374.183)" fill="#fff"/>
  <path id="路径_4168" data-name="路径 4168" d="M70.554,382.692l.078.242h.256l-.206.151.079.242-.206-.151-.207.151.079-.242-.206-.151h.255Z" transform="translate(-60.007 -373.559)" fill="#fff"/>
</svg>
