<svg id="组_2343" data-name="组 2343" xmlns="http://www.w3.org/2000/svg" width="28.662" height="19.147" viewBox="0 0 28.662 19.147">
  <path id="路径_4176" data-name="路径 4176" d="M345.052,155.493V136.346h28.662v19.147Zm28.6-.059v0Zm-28.483-.06H373.6V136.463H345.171Z" transform="translate(-345.052 -136.346)" fill="#231f20"/>
  <rect id="矩形_2024" data-name="矩形 2024" width="28.544" height="19.029" transform="translate(0.058 0.06)" fill="#ea2018"/>
  <rect id="矩形_2025" data-name="矩形 2025" width="0.221" height="0.221" transform="translate(13.883 9.677) rotate(-45.244)" fill="red"/>
  <path id="路径_4177" data-name="路径 4177" d="M355.425,144.785a3.058,3.058,0,0,1-1.567-3.933,2.791,2.791,0,0,1,3.114-1.531c-.591.3-.989.705-.6,1.286a1.369,1.369,0,0,1-.6,1.985A1.349,1.349,0,0,0,355.425,144.785Z" transform="translate(-341.386 -135.109)" fill="#fff"/>
  <path id="路径_4178" data-name="路径 4178" d="M355.157,144.09a1.955,1.955,0,0,1-.933-1.537l-.02-.324a2.088,2.088,0,0,1,.4-1.289l.051,0,0,.051a1.522,1.522,0,0,0-.19.321,2.233,2.233,0,0,0-.193.921l.02.315a1.872,1.872,0,0,0,.908,1.489l.006.051-.029.013Z" transform="translate(-341.142 -134.385)" fill="red"/>
  <path id="路径_4179" data-name="路径 4179" d="M354.627,140.331l.254.226.294-.172-.137.311.254.227-.337-.033-.138.311-.072-.332-.337-.035.293-.171Z" transform="translate(-341.056 -134.644)" fill="red"/>
  <path id="路径_4180" data-name="路径 4180" d="M354.889,143.937a3.06,3.06,0,0,1,3.262-2.7,2.79,2.79,0,0,1,2.412,2.493c-.462-.472-.973-.725-1.409-.18a1.37,1.37,0,0,1-2.071.043A1.348,1.348,0,0,0,354.889,143.937Z" transform="translate(-340.85 -134.261)" fill="#fff"/>
  <path id="路径_4181" data-name="路径 4181" d="M354.865,143.595a1.953,1.953,0,0,1,1.176-1.362l.3-.118a2.082,2.082,0,0,1,1.352-.014l.019.047-.047.02a1.52,1.52,0,0,0-.365-.083,2.242,2.242,0,0,0-.935.1l-.293.116a1.874,1.874,0,0,0-1.139,1.322l-.047.02-.023-.021Z" transform="translate(-340.861 -133.931)" fill="red"/>
  <path id="路径_4182" data-name="路径 4182" d="M357.678,141.973l-.137.31.254.227-.337-.033-.138.31-.071-.332-.34-.034.3-.172-.073-.332.254.226Z" transform="translate(-339.987 -133.966)" fill="red"/>
  <path id="路径_4183" data-name="路径 4183" d="M354.889,143.148a3.061,3.061,0,0,1,3.571,2.276,2.8,2.8,0,0,1-1.636,3.061c.308-.585.391-1.147-.261-1.4a1.369,1.369,0,0,1-.674-1.959A1.348,1.348,0,0,0,354.889,143.148Z" transform="translate(-340.85 -133.472)" fill="#fff"/>
  <path id="路径_4184" data-name="路径 4184" d="M354.9,143.1a1.939,1.939,0,0,1,1.656.7l.2.25a2.091,2.091,0,0,1,.43,1.282l-.04.034-.033-.04a1.585,1.585,0,0,0-.034-.372,2.234,2.234,0,0,0-.381-.861l-.2-.243a1.871,1.871,0,0,0-1.607-.679l-.036-.037.017-.029Z" transform="translate(-340.861 -133.46)" fill="red"/>
  <path id="路径_4185" data-name="路径 4185" d="M357.052,145.381l-.337-.035-.138.311-.071-.332-.339-.036.294-.17-.071-.332.254.228.294-.171-.138.311Z" transform="translate(-340.304 -132.74)" fill="red"/>
  <path id="路径_4186" data-name="路径 4186" d="M356.232,143.126a3.057,3.057,0,0,1-1.072,4.1,2.792,2.792,0,0,1-3.415-.615c.652.113,1.215.019,1.249-.678a1.37,1.37,0,0,1,1.657-1.243A1.348,1.348,0,0,0,356.232,143.126Z" transform="translate(-342.193 -133.45)" fill="#fff"/>
  <path id="路径_4187" data-name="路径 4187" d="M355.353,143.127a1.952,1.952,0,0,1-.16,1.793l-.176.271a2.1,2.1,0,0,1-1.087.8l-.044-.029.027-.043a1.532,1.532,0,0,0,.344-.147,2.2,2.2,0,0,0,.7-.627l.17-.264a1.87,1.87,0,0,0,.153-1.738l.029-.044.029.006Z" transform="translate(-341.278 -133.46)" fill="red"/>
  <path id="路径_4188" data-name="路径 4188" d="M353.616,145.831l-.07-.335-.339-.034.3-.17-.071-.332.252.227.3-.169-.139.31.252.228-.339-.038Z" transform="translate(-341.568 -132.666)" fill="red"/>
  <path id="路径_4189" data-name="路径 4189" d="M356.413,144.085a3.058,3.058,0,0,1-4.226.235,2.791,2.791,0,0,1-.464-3.438c.094.655.355,1.16,1.028.98a1.371,1.371,0,0,1,1.693,1.2A1.348,1.348,0,0,0,356.413,144.085Z" transform="translate(-342.374 -134.408)" fill="#fff"/>
  <path id="路径_4190" data-name="路径 4190" d="M355.849,143.306a1.944,1.944,0,0,1-1.753.4l-.314-.084a2.107,2.107,0,0,1-1.1-.788h0l.013-.051.05.013a1.606,1.606,0,0,0,.244.283,2.23,2.23,0,0,0,.813.475l.3.08a1.875,1.875,0,0,0,1.7-.387l.05.011,0,.031Z" transform="translate(-341.791 -133.598)" fill="red"/>
  <path id="路径_4191" data-name="路径 4191" d="M352.135,142.7l.3-.169-.07-.333.252.228.3-.169-.141.309.252.228-.337-.037-.141.311-.068-.334Z" transform="translate(-342.026 -133.847)" fill="red"/>
</svg>
