<svg xmlns="http://www.w3.org/2000/svg" width="24" height="24" viewBox="0 0 24 24">
  <g id="组_2548" data-name="组 2548" transform="translate(-812 -931)">
    <rect id="矩形_2270" data-name="矩形 2270" width="24" height="24" transform="translate(812 931)" fill="#cfd2e0" opacity="0"/>
    <g id="组_2510" data-name="组 2510" transform="translate(605.789 -278.399)">
      <g id="组_2508" data-name="组 2508" transform="translate(214.325 1224.15)">
        <path id="Stroke_5" data-name="Stroke 5" d="M215.9,1229.719a3,3,0,0,1,1.267-.957,2.3,2.3,0,0,1,2.542.765" transform="translate(-215.901 -1228.644)" fill="none" stroke="#616679" stroke-miterlimit="10" stroke-width="1.6"/>
        <path id="Stroke_7" data-name="Stroke 7" d="M224.688,1229.339a2.993,2.993,0,0,1-1.286.96,2.271,2.271,0,0,1-2.535-.627" transform="translate(-217.071 -1228.808)" fill="none" stroke="#616679" stroke-miterlimit="10" stroke-width="1.6"/>
      </g>
      <g id="组_2509" data-name="组 2509" transform="translate(209.211 1209.573)">
        <path id="路径_4274" data-name="路径 4274" d="M218.133,1233.373a8.775,8.775,0,0,0,8.922-8.6,8.365,8.365,0,0,0-1.3-4.469l-7.012-10.4a.743.743,0,0,0-1.232,0l-7.016,10.423a8.349,8.349,0,0,0-1.283,4.443,8.775,8.775,0,0,0,8.922,8.6Zm-6.392-12.231,6.386-9.487,6.382,9.462a6.862,6.862,0,0,1,1.059,3.657,7.442,7.442,0,0,1-14.87,0,6.84,6.84,0,0,1,1.042-3.632Zm0,0" transform="translate(-209.211 -1209.575)" fill="#616679"/>
        <rect id="矩形_2126" data-name="矩形 2126" width="17.847" height="23.826" transform="translate(0.004)" fill="none"/>
      </g>
    </g>
  </g>
</svg>
