<svg xmlns="http://www.w3.org/2000/svg" width="24" height="24" viewBox="0 0 24 24">
  <g id="组_2549" data-name="组 2549" transform="translate(-856 -931)">
    <rect id="矩形_2271" data-name="矩形 2271" width="24" height="24" transform="translate(856 931)" fill="#cfd2e0" opacity="0"/>
    <g id="组_2544" data-name="组 2544" transform="translate(413.971 882.128)">
      <path id="路径_4324" data-name="路径 4324" d="M463.8,63.622h-.275a.755.755,0,0,0-.687.413,9.412,9.412,0,0,1-17.875,0,.613.613,0,0,0-.825-.413.757.757,0,0,0-.412.688v5.5a.736.736,0,0,0,.687.687.65.65,0,0,0,.688-.687V67.06a10.729,10.729,0,0,0,19.112-2.475A.71.71,0,0,0,463.8,63.622Z" fill="#616679" stroke="#616679" stroke-width="0.2"/>
      <path id="路径_4325" data-name="路径 4325" d="M444.278,58.122h.138a.757.757,0,0,0,.688-.412,9.411,9.411,0,0,1,17.874,0,.613.613,0,0,0,.825.412.755.755,0,0,0,.413-.687v-5.5a.554.554,0,0,0-.55-.688.65.65,0,0,0-.688.688v2.75a10.728,10.728,0,0,0-19.112,2.475A.71.71,0,0,0,444.278,58.122Z" fill="#616679" stroke="#616679" stroke-width="0.2"/>
      <path id="路径_4326" data-name="路径 4326" d="M457.541,60.973a.726.726,0,0,0-.629-1.089h-2.2V59.54l2.693-2.815a.724.724,0,0,0-1.043-1L454.05,58.15l-2.444-2.44a.732.732,0,0,0-1.041,1.029l2.689,2.695v.448H451.1a.727.727,0,0,0,0,1.454h2.154V62.79H451.1a.727.727,0,0,0,0,1.454h2.154V66.4a.726.726,0,1,0,1.452,0v-2.16h2.206a.727.727,0,0,0,0-1.453h-2.2V61.335h2.2A.726.726,0,0,0,457.541,60.973Z" fill="#616679"/>
    </g>
  </g>
</svg>
