<svg xmlns="http://www.w3.org/2000/svg" width="16" height="16" viewBox="0 0 16 16">
  <g id="联系我们_呼叫中心" data-name="联系我们/呼叫中心" transform="translate(-1342 -11811)">
    <rect id="矩形_1160" data-name="矩形 1160" width="16" height="16" transform="translate(1342 11811)" opacity="0"/>
    <g id="组_2334" data-name="组 2334" transform="translate(654.185 10571.715)">
      <path id="路径_4084" data-name="路径 4084" d="M698.474,1248.937c-.261-.07-.659.371-.659.371a2.012,2.012,0,0,0-.345.571.65.65,0,0,1-.952.276,13.686,13.686,0,0,1-3.556-3.567.653.653,0,0,1,.255-.942c.318-.16.612-.314.612-.314l0-.008a.5.5,0,0,0,.276-.582s-1.82-4.457-2.341-4.457a2.948,2.948,0,0,0-2.948,2.948,2.883,2.883,0,0,0,.2,1.055,14.419,14.419,0,0,0,9.835,9.836,2.962,2.962,0,0,0,4.03-2.669,23.9,23.9,0,0,0-4.406-2.517Z" fill="#9da3b9"/>
      <path id="路径_4085" data-name="路径 4085" d="M718.794,1267.136" transform="translate(-20.32 -18.199)" fill="#9da3b9"/>
    </g>
  </g>
</svg>
