<svg xmlns="http://www.w3.org/2000/svg" xmlns:xlink="http://www.w3.org/1999/xlink"  viewBox="0 0 246 88">
    <defs>
        <clipPath id="clip-path">
            <rect id="Rectangle_2813" data-name="Rectangle 2813" width="40.458" height="45.853" fill="none"/>
        </clipPath>
        <linearGradient id="linear-gradient" x1="-0.004" y1="0.558" x2="0.977" y2="0.586" gradientUnits="objectBoundingBox">
            <stop offset="0" stop-color="#00d9ff"/>
            <stop offset="1" stop-color="#00c4ff"/>
        </linearGradient>
        <linearGradient id="linear-gradient-2" x1="0.031" y1="2.082" x2="0.921" y2="1.166" gradientUnits="objectBoundingBox">
            <stop offset="0" stop-color="#11d574"/>
            <stop offset="0" stop-color="#0eda74"/>
            <stop offset="1" stop-color="#00f076"/>
        </linearGradient>
        <linearGradient id="linear-gradient-3" x1="0.85" y1="-0.043" x2="-0.005" y2="-0.889" gradientUnits="objectBoundingBox">
            <stop offset="0" stop-color="#ff3a44"/>
            <stop offset="1" stop-color="#e12653"/>
        </linearGradient>
        <linearGradient id="linear-gradient-4" x1="0.998" y1="0.721" x2="-0.019" y2="0.721" gradientUnits="objectBoundingBox">
            <stop offset="0" stop-color="#ffda00"/>
            <stop offset="1" stop-color="#ffbd00"/>
        </linearGradient>
    </defs>
    <g id="Group_4186" data-name="Group 4186" transform="translate(-1 -1)">
        <rect id="Rectangle_2812" data-name="Rectangle 2812" width="246" height="88" rx="16" transform="translate(1 1)" fill="#f4f5f7"/>
        <g id="Group_4187" data-name="Group 4187" transform="translate(4.49 8.537)">
            <path id="Path_4467" data-name="Path 4467" d="M59.22,25.076a8.593,8.593,0,0,0-6.967,3.041,10.831,10.831,0,0,0-2.433,7.3A10.486,10.486,0,0,0,52.253,42.6a9.208,9.208,0,0,0,7.326,2.986,16.134,16.134,0,0,0,4.784-.664,11.427,11.427,0,0,0,3.594-1.88V34.7H59.5v2.765h5.225v4.063a9.1,9.1,0,0,1-2.128.913,10.265,10.265,0,0,1-2.654.332q-3.607,0-5.308-1.991a8.112,8.112,0,0,1-1.577-5.363A8.1,8.1,0,0,1,54.823,29.8a5.448,5.448,0,0,1,4.4-1.879,6.226,6.226,0,0,1,3.621.94,4.532,4.532,0,0,1,1.769,2.847h3.264a7.5,7.5,0,0,0-2.655-4.949A9.552,9.552,0,0,0,59.22,25.076ZM77.9,30.523a6.675,6.675,0,0,0-5.225,2.128,7.557,7.557,0,0,0-1.964,5.419,7.523,7.523,0,0,0,1.935,5.363,7.476,7.476,0,0,0,10.506,0,7.642,7.642,0,0,0,1.935-5.363,7.68,7.68,0,0,0-1.962-5.419A6.757,6.757,0,0,0,77.9,30.523Zm0,2.57a3.46,3.46,0,0,1,3.041,1.548,6.67,6.67,0,0,1,0,6.828,3.759,3.759,0,0,1-6.082,0,5.874,5.874,0,0,1-.912-3.4,5.969,5.969,0,0,1,.912-3.428A3.429,3.429,0,0,1,77.9,33.093Zm16.577-2.57a6.675,6.675,0,0,0-5.225,2.128,7.557,7.557,0,0,0-1.964,5.419,7.523,7.523,0,0,0,1.935,5.363,7.476,7.476,0,0,0,10.506,0,7.642,7.642,0,0,0,1.935-5.363,7.68,7.68,0,0,0-1.962-5.419A6.757,6.757,0,0,0,94.482,30.523Zm0,2.57a3.46,3.46,0,0,1,3.041,1.548,6.67,6.67,0,0,1,0,6.828,3.759,3.759,0,0,1-6.082,0,5.874,5.874,0,0,1-.912-3.4,5.969,5.969,0,0,1,.912-3.428A3.429,3.429,0,0,1,94.482,33.093Zm15.887-2.57a6.022,6.022,0,0,0-4.7,1.989,7.417,7.417,0,0,0-1.8,5.226,7.3,7.3,0,0,0,1.8,5.2,6.165,6.165,0,0,0,4.7,1.935,4.958,4.958,0,0,0,4.229-2.212v2.1q0,3.815-3.566,3.815a4.785,4.785,0,0,1-2.406-.469,2.447,2.447,0,0,1-1.022-1.687h-3.152a5.266,5.266,0,0,0,1.991,3.539,8.083,8.083,0,0,0,4.589,1.106c4.479,0,6.717-2.267,6.717-6.773V30.91H114.6v1.741A4.95,4.95,0,0,0,110.369,30.523Zm.5,2.542a3.385,3.385,0,0,1,2.792,1.245,5.491,5.491,0,0,1,.968,3.428,5.373,5.373,0,0,1-.968,3.373,3.529,3.529,0,0,1-2.82,1.188,3.279,3.279,0,0,1-2.958-1.382,5.566,5.566,0,0,1-.774-3.179,5.226,5.226,0,0,1,1-3.428A3.331,3.331,0,0,1,110.866,33.065Zm10.465-7.989V45.2h3.152V25.076Zm12.825,5.447a6.186,6.186,0,0,0-5.032,2.183,7.726,7.726,0,0,0-1.88,5.335,7.627,7.627,0,0,0,1.991,5.586,6.687,6.687,0,0,0,5.06,1.962,7.089,7.089,0,0,0,4.755-1.632,6.484,6.484,0,0,0,1.991-3.345H137.89a4.748,4.748,0,0,1-1.272,1.742,3.888,3.888,0,0,1-2.351.664,3.335,3.335,0,0,1-2.626-1.051,5.173,5.173,0,0,1-1.079-3.041h10.7a9.534,9.534,0,0,0-1.714-6.027A6.393,6.393,0,0,0,134.157,30.523Zm.084,2.57c2.212,0,3.455,1.133,3.732,3.455h-7.354a4.651,4.651,0,0,1,1.161-2.57A3.283,3.283,0,0,1,134.24,33.093Zm19-7.63V45.2h3.235V37.628h4.893c4.811,0,7.216-2.046,7.216-6.109,0-4.036-2.406-6.055-7.161-6.055Zm3.235,2.765h4.7A5.04,5.04,0,0,1,164.3,29a2.946,2.946,0,0,1,1.024,2.517,3.085,3.085,0,0,1-1,2.57,5.274,5.274,0,0,1-3.152.774h-4.7Zm14.881-3.152V45.2h3.152V25.076ZM184.6,30.523a8.043,8.043,0,0,0-4.313.967,4.82,4.82,0,0,0-2.322,3.456l3.123.248a2.483,2.483,0,0,1,1.189-1.659,3.881,3.881,0,0,1,2.1-.471c2.046,0,3.068.913,3.068,2.793v.553l-3.123.082a8.716,8.716,0,0,0-4.894,1.328,4.181,4.181,0,0,0-1.88,3.7,3.711,3.711,0,0,0,1.327,2.931,5.152,5.152,0,0,0,3.512,1.134,7.743,7.743,0,0,0,3.234-.637,5.576,5.576,0,0,0,2.046-1.63V45.2H190.6V36.079a5.5,5.5,0,0,0-1.327-3.981A6.2,6.2,0,0,0,184.6,30.523Zm2.847,8.155V39.4a3.486,3.486,0,0,1-1.272,2.736,4.637,4.637,0,0,1-3.068,1.052,2.727,2.727,0,0,1-1.687-.526,1.472,1.472,0,0,1-.635-1.243c0-1.714,1.243-2.6,3.76-2.655ZM192.4,30.91l5.668,13.961-2.516,5.806h3.373l7.741-19.767h-3.428L199.62,41.083,195.831,30.91Z" transform="translate(17.193 8.567)" fill="#242c45"/>
            <path id="Path_4468" data-name="Path 4468" d="M54.469,11.992a4.6,4.6,0,0,0-3.724,1.632A5.81,5.81,0,0,0,49.44,17.54,5.626,5.626,0,0,0,50.745,21.4,4.94,4.94,0,0,0,54.677,23a8.593,8.593,0,0,0,2.537-.356,6.166,6.166,0,0,0,1.914-.994V17.2H54.588v1.38H57.51v2.3a4.3,4.3,0,0,1-1.187.519,5.853,5.853,0,0,1-1.469.193,3.612,3.612,0,0,1-2.922-1.113,4.343,4.343,0,0,1-.875-2.937,4.485,4.485,0,0,1,.964-3.071,3.044,3.044,0,0,1,2.448-1.053,3.35,3.35,0,0,1,2.018.549,2.488,2.488,0,0,1,.979,1.6H59.1a4.025,4.025,0,0,0-1.424-2.655A5.02,5.02,0,0,0,54.469,11.992Zm6.6.208V22.792h7.862v-1.38H62.686V18.045h5.637v-1.38H62.686V13.579h5.993V12.2Zm8.688,0v1.38H73.3v9.212h1.6V13.579h3.531V12.2Zm14.926,0V22.792h1.6V12.2Zm2.893,0v1.38h3.546v9.212h1.6V13.579h3.531V12.2Zm19.585-.208a4.761,4.761,0,0,0-3.813,1.587,5.706,5.706,0,0,0-1.32,3.931,5.692,5.692,0,0,0,1.32,3.916,5.426,5.426,0,0,0,7.625.015,5.714,5.714,0,0,0,1.335-3.931,5.7,5.7,0,0,0-1.335-3.946A4.84,4.84,0,0,0,107.161,11.992Zm0,1.424a3.18,3.18,0,0,1,2.611,1.1,4.6,4.6,0,0,1,.9,3,4.514,4.514,0,0,1-.9,2.967,3.637,3.637,0,0,1-5.237-.03,4.507,4.507,0,0,1-.89-2.937,4.522,4.522,0,0,1,.89-2.952A3.174,3.174,0,0,1,107.161,13.416Zm6.786-1.216V22.792h1.617V14.825h.059l5.474,7.966h1.572V12.2h-1.617v7.877h-.059L115.579,12.2Z" transform="translate(17.061 4.006)" fill="#242c45"/>
            <g id="Group_4185" data-name="Group 4185" transform="translate(16.01 11.963)">
                <g id="Group_4184" data-name="Group 4184" clip-path="url(#clip-path)">
                    <g id="Group_4183" data-name="Group 4183">
                        <path id="Path_4469" data-name="Path 4469" d="M12.809,9A1.19,1.19,0,0,0,12,10.261v43.56a1.2,1.2,0,0,0,.579,1.032l23.35-23.041Z" transform="translate(-12 -9)" fill="url(#linear-gradient)"/>
                        <path id="Path_4470" data-name="Path 4470" d="M43.139,26.15,33.2,20.434S15,9.952,13.918,9.357A2.016,2.016,0,0,0,12.6,9L36.553,32.582Z" transform="translate(-11.791 -9)" fill="url(#linear-gradient-2)"/>
                        <path id="Path_4471" data-name="Path 4471" d="M13.469,48.756c.579-.344,17.686-10.088,28.783-16.507L35.779,25.83,12.429,48.871A1.158,1.158,0,0,0,13.469,48.756Z" transform="translate(-11.85 -3.133)" fill="url(#linear-gradient-3)"/>
                        <path id="Path_4472" data-name="Path 4472" d="M45.61,26.628c-.925-.459-9.363-5.388-9.363-5.388H36.13l-6.473,6.3,6.473,6.419c5.087-2.98,9.017-5.158,9.363-5.388C46.65,27.889,46.535,27.086,45.61,26.628Z" transform="translate(-5.845 -4.733)" fill="url(#linear-gradient-4)"/>
                    </g>
                </g>
            </g>
        </g>
    </g>
</svg>
