<svg xmlns="http://www.w3.org/2000/svg" width="20" height="20" viewBox="0 0 20 20">
  <g id="GOST" transform="translate(-242 -1446)">
    <rect id="矩形_994" data-name="矩形 994" width="20" height="20" transform="translate(242 1446)" fill="#a4a6be" opacity="0"/>
    <path id="GOST-2" data-name="GOST" d="M87.333,170.667h16a2,2,0,0,1,2,2v12a2,2,0,0,1-2,2h-16a2,2,0,0,1-2-2v-12A2,2,0,0,1,87.333,170.667Zm0,2v12h16v-12Zm8,8h6v2h-6Zm-1.015-2.429-3.535,3.536-1.414-1.415,2.12-2.12-2.12-2.122,1.414-1.414Z" transform="translate(156.667 1277.333)"/>
  </g>
</svg>
