<svg xmlns="http://www.w3.org/2000/svg" viewBox="0 0 68 68">
    <g id="Group_4314" data-name="Group 4314" transform="translate(-394.999 -1437)">
        <g id="Group_4312" data-name="Group 4312" transform="translate(-519.029 707.764)">
            <rect id="Rectangle_1203" data-name="Rectangle 1203" width="68" height="68" rx="14" transform="translate(914.029 729.236)"/>
        </g>
        <g id="Group_4313" data-name="Group 4313" transform="translate(-0.453 -80.964)">
            <g id="Group_4310" data-name="Group 4310" transform="translate(405.652 1530.764)">
                <path id="Path_4564" data-name="Path 4564" d="M1824.085,1780.967a3.7,3.7,0,1,0-3.7-3.7,3.7,3.7,0,0,0,3.7,3.7Z" transform="translate(-1786.363 -1767.554)" fill="#f6f6f6" fill-rule="evenodd"/>
                <path id="Path_4565" data-name="Path 4565" d="M1805.781,1761.806a9.7,9.7,0,0,0-9.16,6.521,9.233,9.233,0,0,0,.073-1.225,4.888,4.888,0,0,0-1.959-3.76,5.766,5.766,0,0,0-3.471-1.254h-8.4v19.126h7.871a7.058,7.058,0,0,0,4.215-1.526,5,5,0,0,0,2.014-3.923c0-.069,0-.137,0-.206a9.7,9.7,0,1,0,8.817-13.753Zm-18.01,4.428h2.053c1,0,2.053.176,2.053,1.454.073,1.154-.617,1.838-2,1.838l-2.106.008v-3.3Zm3.809,10.285a2.306,2.306,0,0,1-1.531.327h-2.285v-3.511h2.084c1.262,0,2.342.327,2.4,1.8a1.918,1.918,0,0,1-.664,1.383Zm4.621-3.686a5.565,5.565,0,0,0-1.714-1.424,3.712,3.712,0,0,0,1.81-1.785,9.832,9.832,0,0,0-.1,3.209Zm9.536,3.734a5.052,5.052,0,1,1,5.043-5.051,5.047,5.047,0,0,1-5.043,5.051Z" transform="translate(-1768.013 -1761.806)" fill="#f6f6f6" fill-rule="evenodd"/>
                <path id="Path_4566" data-name="Path 4566" d="M1762.649,1769.345h-3.963v-7.054H1753.8v19.192h4.864v-7.491h3.963v7.491h4.951v-19.192h-4.927v7.054Z" transform="translate(-1753.798 -1762.044)" fill="#f6f6f6" fill-rule="evenodd"/>
            </g>
            <path id="Path_4567" data-name="Path 4567" d="M1809.589,1807.675a9.81,9.81,0,1,0,9.81,9.81A9.81,9.81,0,0,0,1809.589,1807.675Zm0,14.612a4.8,4.8,0,1,1,4.8-4.8A4.8,4.8,0,0,1,1809.589,1822.288Z" transform="translate(-1370.633 -253.475)" fill="#c7c6c6" fill-rule="evenodd"/>
            <path id="Path_4568" data-name="Path 4568" d="M1815.239,1827.034a3.7,3.7,0,1,0-3.7-3.7,3.7,3.7,0,0,0,3.7,3.7Z" transform="translate(-1376.385 -259.319)" fill="#1a9fe4" fill-rule="evenodd"/>
            <path id="Path_4569" data-name="Path 4569" d="M1782.034,1816.529h-10.99v3.775h5.821a5.119,5.119,0,0,1-4.568,3.04,5.687,5.687,0,0,1,0-11.324,5.079,5.079,0,0,1,4.427,2.771h4.949a10.4,10.4,0,1,0,.361,1.738Z" transform="translate(-1352.396 -253.57)" fill="#c7c6c6" fill-rule="evenodd"/>
        </g>
    </g>
</svg>
