<svg xmlns="http://www.w3.org/2000/svg" width="18" height="18" viewBox="0 0 18 18">
  <g id="组_3886" data-name="组 3886" transform="translate(-459 -234)">
    <rect id="矩形_2645" data-name="矩形 2645" width="18" height="18" transform="translate(459 234)" fill="#e3dcdc" opacity="0"/>
    <g id="组_3703" data-name="组 3703" transform="translate(-302 -650)">
      <g id="矩形_207" data-name="矩形 207" transform="translate(765 884)" fill="#fff" stroke="#9da3b9" stroke-width="1.3">
        <rect width="10" height="12" rx="5" stroke="none"/>
        <rect x="0.65" y="0.65" width="8.7" height="10.7" rx="4.35" fill="none"/>
      </g>
      <g id="矩形_206" data-name="矩形 206" transform="translate(762 889)" fill="#fff" stroke="#9da3b9" stroke-width="1.3">
        <rect width="16" height="12" rx="2" stroke="none"/>
        <rect x="0.65" y="0.65" width="14.7" height="10.7" rx="1.35" fill="none"/>
      </g>
      <path id="Path" d="M.635,2.534v2.1a.743.743,0,1,0,1.486,0v-2.1a1.361,1.361,0,0,0,.63-1.153A1.376,1.376,0,0,0,0,1.376,1.39,1.39,0,0,0,.635,2.534Z" transform="translate(768.624 892.4)" fill="#9da3b9"/>
    </g>
  </g>
</svg>
