<svg xmlns="http://www.w3.org/2000/svg" width="24" height="24" viewBox="0 0 24 24">
  <g id="组_4056" data-name="组 4056" transform="translate(-186.851 681) rotate(-90)">
    <rect id="矩形_2308" data-name="矩形 2308" width="24" height="24" transform="translate(657 186.851)" fill="#b1b1b1" opacity="0"/>
    <g id="联合_10" data-name="联合 10" transform="translate(659.726 194.319)" fill="#3963ef">
      <path d="M 9.284400939941406 9.864154815673828 C 9.245640754699707 9.864154815673828 9.171091079711914 9.854635238647461 9.107331275939941 9.790874481201172 L 0.9236308336257935 1.60717499256134 C 0.8598708510398865 1.543414950370789 0.8503508567810059 1.469144940376282 0.8503508567810059 1.430554986000061 C 0.8503508567810059 1.391964912414551 0.8598708510398865 1.317694902420044 0.9236308336257935 1.253934979438782 L 1.21613085269928 0.9614349603652954 C 1.279890894889832 0.8976749777793884 1.354160904884338 0.888154923915863 1.392750859260559 0.888154923915863 C 1.43134081363678 0.888154923915863 1.505610823631287 0.8976749777793884 1.569370865821838 0.9614349603652954 L 8.754071235656738 8.146135330200195 L 9.284400939941406 8.676465034484863 L 9.814730644226074 8.146135330200195 L 17.0372314453125 0.923634946346283 C 17.10099029541016 0.859874963760376 17.17526054382324 0.8503549695014954 17.2138500213623 0.8503549695014954 C 17.25244140625 0.8503549695014954 17.32671165466309 0.859874963760376 17.39047050476074 0.923634946346283 L 17.68297004699707 1.216134905815125 C 17.78036117553711 1.313524961471558 17.78036117553711 1.47198498249054 17.68297004699707 1.569374918937683 L 9.499270439147949 9.753074645996094 L 9.461470603942871 9.790874481201172 C 9.397710800170898 9.854635238647461 9.323161125183105 9.864154815673828 9.284400939941406 9.864154815673828 Z" stroke="none"/>
      <path d="M 9.284400939941406 10.61415481567383 C 9.028350830078125 10.61415481567383 8.772300720214844 10.51650524139404 8.577000617980957 10.32120513916016 L 0.393300861120224 2.137505054473877 C 0.002700857585296035 1.746904969215393 0.002700857585296035 1.114205002784729 0.393300861120224 0.7236049771308899 L 0.6858008503913879 0.4311049580574036 C 0.8811008334159851 0.235804945230484 1.13692581653595 0.1381549537181854 1.392750859260559 0.1381549537181854 C 1.648575901985168 0.1381549537181854 1.904400825500488 0.235804945230484 2.099700927734375 0.4311049580574036 L 9.284400939941406 7.615805149078369 L 16.50690078735352 0.3933049440383911 C 16.70219993591309 0.1980049461126328 16.9580249786377 0.1003549471497536 17.2138500213623 0.1003549471497536 C 17.46967506408691 0.1003549471497536 17.72550010681152 0.1980049461126328 17.92080116271973 0.3933049440383911 L 18.21330070495605 0.6858049631118774 C 18.60390090942383 1.076404929161072 18.60390090942383 1.709104895591736 18.21330070495605 2.09970498085022 L 10.02960109710693 10.28340530395508 L 9.991801261901855 10.32120513916016 C 9.796501159667969 10.51650524139404 9.540451049804688 10.61415481567383 9.284400939941406 10.61415481567383 Z" stroke="none" fill="#3963ef"/>
    </g>
  </g>
</svg>
