<svg xmlns="http://www.w3.org/2000/svg" width="40.169" height="38.87" viewBox="0 0 40.169 38.87">
  <g id="组_3759" data-name="组 3759" transform="translate(-645 -369)">
    <path id="路径_4435" data-name="路径 4435" d="M3281.04,2498.259H3315.7a5.51,5.51,0,0,1,5.51,5.51v33.34h0A38.874,38.874,0,0,1,3281.04,2498.259Z" transform="translate(-2636.04 -2129.259)" fill="#f9fafc"/>
    <path id="联合_78" data-name="联合 78" d="M8.255,9.4,4.818,5.964,1.382,9.4A.81.81,0,0,1,.238,8.254L3.673,4.818.238,1.383A.81.81,0,0,1,1.382.238L4.818,3.673,8.254.238A.81.81,0,0,1,9.4,1.382L5.963,4.819,9.4,8.255A.809.809,0,1,1,8.255,9.4Z" transform="translate(664.801 379.73)" fill="#3963ef"/>
  </g>
</svg>
