<svg xmlns="http://www.w3.org/2000/svg" xmlns:xlink="http://www.w3.org/1999/xlink" width="20" height="20" viewBox="0 0 20 20">
  <defs>
    <clipPath id="clip-path">
      <path id="联合_121" data-name="联合 121" d="M867-6897v-13H854v-2h15v15Z" transform="translate(336 7471)" fill="#5f84a8"/>
    </clipPath>
  </defs>
  <g id="组_3769" data-name="组 3769" transform="translate(-1188 -558)">
    <rect id="矩形_2552" data-name="矩形 2552" width="20" height="20" transform="translate(1188 558)" fill="#746161" opacity="0"/>
    <g id="组_3717" data-name="组 3717" transform="translate(0.5 0.5)">
      <g id="矩形_2544" data-name="矩形 2544" transform="translate(1191 562)" fill="#fff" stroke="#3963ef" stroke-width="1.3">
        <rect width="11" height="14" rx="2" stroke="none"/>
        <rect x="0.65" y="0.65" width="9.7" height="12.7" rx="1.35" fill="none"/>
      </g>
      <g id="组_3716" data-name="组 3716" transform="translate(0 0.8)">
        <g id="矩形_2547" data-name="矩形 2547" transform="translate(1194 565)" fill="#fff" stroke="#3963ef" stroke-width="1">
          <rect width="5" height="1.3" rx="0.65" stroke="none"/>
          <rect x="0.5" y="0.5" width="4" height="0.3" rx="0.15" fill="none"/>
        </g>
        <g id="矩形_2548" data-name="矩形 2548" transform="translate(1194 567.5)" fill="#fff" stroke="#3963ef" stroke-width="1">
          <rect width="5" height="1.3" rx="0.65" stroke="none"/>
          <rect x="0.5" y="0.5" width="4" height="0.3" rx="0.15" fill="none"/>
        </g>
        <g id="矩形_2549" data-name="矩形 2549" transform="translate(1194 570)" fill="#fff" stroke="#3963ef" stroke-width="1">
          <rect width="5" height="1.3" rx="0.65" stroke="none"/>
          <rect x="0.5" y="0.5" width="4" height="0.3" rx="0.15" fill="none"/>
        </g>
      </g>
      <g id="蒙版组_2" data-name="蒙版组 2" clip-path="url(#clip-path)">
        <g id="矩形_2545" data-name="矩形 2545" transform="translate(1194 559)" fill="none" stroke="#3963ef" stroke-width="1.3">
          <rect width="11" height="14" rx="2" stroke="none"/>
          <rect x="0.65" y="0.65" width="9.7" height="12.7" rx="1.35" fill="none"/>
        </g>
      </g>
    </g>
  </g>
</svg>
