<svg xmlns="http://www.w3.org/2000/svg" width="12" height="12" viewBox="0 0 12 12">
  <g id="组_3781" data-name="组 3781" transform="translate(0 0.166)">
    <rect id="矩形_2558" data-name="矩形 2558" width="12" height="12" transform="translate(0 -0.166)" fill="#fff"/>
    <path id="联合_123" data-name="联合 123" d="M1,10.2a1,1,0,0,1-1-1V4.7H10V9.2a1,1,0,0,1-1,1Zm9-6.5H0V2.2a1,1,0,0,1,1-1H2.5V.5a.5.5,0,0,1,1,0v.7h3V.5a.5.5,0,0,1,1,0v.7H9a1,1,0,0,1,1,1V3.7h0Z" transform="translate(1 0.601)" fill="#3963ef"/>
  </g>
</svg>
