<svg xmlns="http://www.w3.org/2000/svg" xmlns:xlink="http://www.w3.org/1999/xlink" width="68" height="68" viewBox="0 0 68 68">
  <defs>
    <linearGradient id="linear-gradient" x1="0.5" x2="0.5" y2="1" gradientUnits="objectBoundingBox">
      <stop offset="0" stop-color="#bfc2d5"/>
      <stop offset="1" stop-color="#e4e5ef"/>
    </linearGradient>
  </defs>
  <g id="组_3862" data-name="组 3862" transform="translate(-903 -163)">
    <rect id="矩形_2430" data-name="矩形 2430" width="68" height="68" transform="translate(903 163)" fill="#7b85f7" opacity="0"/>
    <g id="组_3861" data-name="组 3861" transform="translate(-78 1)">
      <path id="联合_125" data-name="联合 125" d="M7506,2374a2,2,0,0,1-2-2v-6.435a2,2,0,0,1,2-2h38a2,2,0,0,1,2,2V2372a2,2,0,0,1-2,2Zm0-13.281a2,2,0,0,1-2-2v-6.437a2,2,0,0,1,2-2h38a2,2,0,0,1,2,2v6.437a2,2,0,0,1-2,2Zm0-13.283a2,2,0,0,1-2-2V2339a2,2,0,0,1,2-2h38a2,2,0,0,1,2,2v6.435a2,2,0,0,1-2,2Z" transform="translate(-6511 -2162)" fill="url(#linear-gradient)"/>
      <circle id="椭圆_397" data-name="椭圆 397" cx="1.5" cy="1.5" r="1.5" transform="translate(998 178.7)" fill="#fff" opacity="0.8"/>
      <circle id="椭圆_398" data-name="椭圆 398" cx="1.5" cy="1.5" r="1.5" transform="translate(998 192)" fill="#fff" opacity="0.8"/>
      <circle id="椭圆_399" data-name="椭圆 399" cx="1.5" cy="1.5" r="1.5" transform="translate(998 205.3)" fill="#fff" opacity="0.8"/>
      <g id="组_3799" data-name="组 3799" transform="translate(1022.085 199.504)">
        <g id="椭圆_264" data-name="椭圆 264" transform="translate(-0.085 0.496)" stroke="#fff" stroke-width="3" fill="url(#linear-gradient)">
          <ellipse cx="10.5" cy="10" rx="10.5" ry="10" stroke="none"/>
          <ellipse cx="10.5" cy="10" rx="12" ry="11.5" fill="none"/>
        </g>
        <g id="组_3792" data-name="组 3792" transform="translate(1.655 1.655)">
          <rect id="矩形_2615" data-name="矩形 2615" width="2.582" height="21.943" transform="translate(15.516 0) rotate(45)" fill="#fff"/>
        </g>
      </g>
    </g>
  </g>
</svg>
