<svg xmlns="http://www.w3.org/2000/svg" width="20" height="20" viewBox="0 0 20 20">
  <g id="组_3738" data-name="组 3738" transform="translate(-653 -1479)">
    <rect id="矩形_2558" data-name="矩形 2558" width="20" height="20" transform="translate(653 1479)" fill="#dee2e8" opacity="0"/>
    <path id="路径_4433" data-name="路径 4433" d="M1177.739,991.434a.957.957,0,0,1-.446-.111l-3.292-1.73-3.249,1.708a1.008,1.008,0,0,1-.831.069.955.955,0,0,1-.6-1.052l.628-3.669-2.663-2.592a.955.955,0,0,1,.529-1.628l3.681-.534,1.644-3.333a.95.95,0,0,1,1.706,0l1.646,3.335,3.68.534a.955.955,0,0,1,.538,1.625l-2.663,2.6.629,3.669a.957.957,0,0,1-.938,1.117Zm-9.488-7.87,2.445,2.384a.953.953,0,0,1,.274.844l-.577,3.363a.1.1,0,0,0,.144.1l3.023-1.589a.95.95,0,0,1,.888,0l3.022,1.589a.1.1,0,0,0,.143-.1l-.577-3.365a.955.955,0,0,1,.274-.845l2.445-2.38a.1.1,0,0,0-.054-.168l-3.378-.491a.956.956,0,0,1-.719-.523l-1.511-3.063a.1.1,0,0,0-.177,0l-1.512,3.063a.954.954,0,0,1-.718.522l-3.378.491A.1.1,0,0,0,1168.25,983.565Zm-.143-.14" transform="translate(-511.003 504.343)" fill="#3963ef" stroke="#3963ef" stroke-width="0.3"/>
  </g>
</svg>
