<svg xmlns="http://www.w3.org/2000/svg" width="18" height="18" viewBox="0 0 18 18">
  <g id="_40g_解释icon" data-name="40g 解释icon" transform="translate(-0.337 -0.338)">
    <path id="Shape" d="M9,18a9,9,0,1,1,9-9A9.01,9.01,0,0,1,9,18Zm-.642-5.785V13.5H9.643V12.215ZM9,5.786c.954,0,1.5.469,1.5,1.286,0,.385-.138.628-.615,1.087l-.011.01-.005.005L9.628,8.4a3.387,3.387,0,0,0-1.269,2.74H9.645a2.191,2.191,0,0,1,.873-1.811l.259-.246A2.559,2.559,0,0,0,9,4.5,2.541,2.541,0,0,0,6.642,5.776a3.511,3.511,0,0,0-.428,1.718L7.5,7.508C7.513,6.35,8,5.786,9,5.786Z" transform="translate(0.338 0.338)" fill="#c3ccd9"/>
  </g>
</svg>
