<svg xmlns="http://www.w3.org/2000/svg" width="12.604" height="12.603" viewBox="0 0 12.604 12.603">
  <g id="联合_126" data-name="联合 126" transform="translate(-18438.07 -1148.071)" fill="none">
    <path d="M18446.041,1157.1a5.006,5.006,0,1,1,1.059-1.061l3.574,3.578-1.061,1.06Z" stroke="none"/>
    <path d="M 18443.0703125 1156.57080078125 C 18443.828125 1156.570678710938 18444.546875 1156.335205078125 18445.150390625 1155.889770507812 L 18445.57421875 1155.577026367188 L 18445.892578125 1155.146850585938 C 18446.3828125 1154.480102539062 18446.62109375 1153.654052734375 18446.5625 1152.820922851562 C 18446.501953125 1151.980590820312 18446.142578125 1151.189086914062 18445.55078125 1150.595458984375 C 18444.888671875 1149.934936523438 18444.0078125 1149.5712890625 18443.0703125 1149.5712890625 C 18442.134765625 1149.5712890625 18441.25390625 1149.934814453125 18440.595703125 1150.592651367188 C 18439.232421875 1151.959228515625 18439.232421875 1154.182861328125 18440.59375 1155.547119140625 C 18441.25390625 1156.207275390625 18442.134765625 1156.57080078125 18443.0703125 1156.57080078125 M 18449.61328125 1160.67431640625 L 18446.041015625 1157.097045898438 C 18445.16015625 1157.74609375 18444.115234375 1158.070678710938 18443.0703125 1158.070678710938 C 18441.7890625 1158.07080078125 18440.509765625 1157.58349609375 18439.533203125 1156.608764648438 C 18437.583984375 1154.654663085938 18437.583984375 1151.487426757812 18439.533203125 1149.533325195312 C 18440.509765625 1148.55859375 18441.7890625 1148.071166992188 18443.0703125 1148.071166992188 C 18444.3515625 1148.071166992188 18445.6328125 1148.55859375 18446.609375 1149.533325195312 C 18448.376953125 1151.306396484375 18448.541015625 1154.078002929688 18447.099609375 1156.0361328125 L 18450.673828125 1159.614013671875 L 18449.61328125 1160.67431640625 Z" stroke="none" fill="#4385f4"/>
  </g>
</svg>
