<svg id="组_3755" data-name="组 3755" xmlns="http://www.w3.org/2000/svg" width="14.001" height="14.001" viewBox="0 0 14.001 14.001">
  <g id="组_3753" data-name="组 3753">
    <path id="路径_4418" data-name="路径 4418" d="M1009.918,928.743H1008.4v3.884a.783.783,0,0,1-.783.783h-7.831a.783.783,0,0,1-.783-.783v-3.884h-1.52a.782.782,0,0,1-.783-.783v-5.012a.782.782,0,0,1,.783-.783H999v-1.974a.784.784,0,0,1,.784-.783h7.831a.782.782,0,0,1,.783.783v1.973h1.519a.782.782,0,0,1,.783.783v5.012a.782.782,0,0,1-.783.784Zm-9.976,3.415a.312.312,0,0,0,.313.313h6.891a.313.313,0,0,0,.313-.313v-5.012a.313.313,0,0,0-.313-.313h-6.89a.313.313,0,0,0-.313.313Zm7.518-11.5a.313.313,0,0,0-.313-.313h-6.891a.313.313,0,0,0-.313.313v1.5h7.518Zm2.3,2.756a.313.313,0,0,0-.313-.313H997.953a.313.313,0,0,0-.313.313v4.072a.313.313,0,0,0,.313.313H999v-1.128a.783.783,0,0,1,.783-.783h7.831a.782.782,0,0,1,.782.783V927.8h1.05a.313.313,0,0,0,.313-.313Zm-8.394,4.824h4.667a.47.47,0,0,1,0,.94h-4.665a.47.47,0,1,1,0-.94Zm0,1.879h4.667a.47.47,0,1,1,0,.94h-4.665a.47.47,0,1,1,0-.94Zm0,0" transform="translate(-996.7 -919.409)" fill="#666"/>
  </g>
  <rect id="矩形_2468" data-name="矩形 2468" width="10.44" height="0.939" rx="0.47" transform="translate(1.781 6.484)" fill="#666"/>
</svg>
