<svg xmlns="http://www.w3.org/2000/svg" width="99.937" height="76.89" viewBox="0 0 99.937 76.89">
  <g id="组_1585" data-name="组 1585" transform="translate(-1732 -598)">
    <path id="路径_3554" data-name="路径 3554" d="M1050.449,790.694s8.132-6.454,15.361-8.454l6.969,15.553s-9.938,4.9-11.616,7.551l.451-11.552Z" transform="translate(681.551 -130.81)" fill="#eb5b48"/>
    <path id="路径_3555" data-name="路径 3555" d="M1194,792.25s-8.132-6.453-15.36-8.454l-6.969,15.553s9.938,4.9,11.616,7.551l-.452-11.552Z" transform="translate(637.941 -132.01)" fill="#eb5b48"/>
    <path id="路径_373" data-name="路径 373" d="M1102.7,772.716l-5.649,2.189a6.324,6.324,0,0,1-7.6-2.469l-3.284-5.092a6.318,6.318,0,0,0-3.7-2.685l-5.857-1.55a6.323,6.323,0,0,1-4.7-6.462l.336-6.05a6.318,6.318,0,0,0-1.408-4.345l-3.828-4.7a6.325,6.325,0,0,1,0-7.989l3.828-4.7a6.32,6.32,0,0,0,1.408-4.345l-.336-6.049a6.323,6.323,0,0,1,4.7-6.466l5.857-1.549a6.319,6.319,0,0,0,3.7-2.686l3.284-5.091a6.321,6.321,0,0,1,7.6-2.469l5.649,2.188a6.323,6.323,0,0,0,4.568,0l5.65-2.188a6.321,6.321,0,0,1,7.6,2.469l3.284,5.091a6.323,6.323,0,0,0,3.7,2.686l5.857,1.549a6.323,6.323,0,0,1,4.7,6.466l-.336,6.049a6.317,6.317,0,0,0,1.408,4.345l3.827,4.7a6.322,6.322,0,0,1,0,7.989l-3.827,4.7a6.315,6.315,0,0,0-1.408,4.345l.336,6.05a6.323,6.323,0,0,1-4.7,6.462l-5.857,1.55a6.323,6.323,0,0,0-3.7,2.685l-3.284,5.092a6.324,6.324,0,0,1-7.6,2.469l-5.65-2.189A6.317,6.317,0,0,0,1102.7,772.716Z" transform="translate(676.099 -101.786)" fill="#ea2e45"/>
    <circle id="椭圆_35" data-name="椭圆 35" cx="30.168" cy="30.168" r="30.168" transform="translate(1750.92 607.669)" fill="#fff"/>
    <path id="路径_3556" data-name="路径 3556" d="M1067.888,776.281s36.633-21.511,76.487,0l-9.426,20.187s-29.766-13.253-57.218,0Z" transform="translate(675.277 -125.867)" fill="#f76552"/>
    <g id="组_1549" data-name="组 1549" transform="translate(1753.389 648.681) rotate(-7)">
      <g id="组_1547" data-name="组 1547">
        <path id="路径_3550" data-name="路径 3550" d="M2.8,3.421l-.416.762A13.057,13.057,0,0,0,0,2.9l.433-.752A13.5,13.5,0,0,1,2.8,3.421ZM3.26,4.608l.2.708A17.165,17.165,0,0,1,2.483,7.9l1.678-.473.168.6a10.922,10.922,0,0,1-.088,2.735,1.776,1.776,0,0,1,.309.142,4.2,4.2,0,0,0,1.328.524,4.632,4.632,0,0,0,1.631-.164l2.138-.6c.994-.28,2.281-.67,3.861-1.155l.043.913-3.555,1q-1.3.368-2.322.614a5.067,5.067,0,0,1-1.893.185,4.117,4.117,0,0,1-1.579-.6.366.366,0,0,0-.309-.047c-.286.081-.529.739-.74,1.992l-.823-.4A3.619,3.619,0,0,1,3.394,10.8,10.48,10.48,0,0,0,3.53,8.423l-1.9.536-.193-.684A16.909,16.909,0,0,0,2.5,5.709l-2,.564L.264,5.452Zm3.687,4.7q1.111-.556,2.192-1.223l.427.753c-.875.515-1.986,1.1-3.336,1.732L5.8,9.863c.2-.138.292-.3.25-.446L3.857,1.635,9.663,0l1.289,4.573L6,5.968ZM9.016,1.04,4.939,2.189l.316,1.119L9.332,2.159ZM5.777,5.16,9.854,4.01,9.542,2.9,5.465,4.054Zm4.2,1.486A8.888,8.888,0,0,0,10.8,5.126l.787.316a10.8,10.8,0,0,1-.811,1.5,18.75,18.75,0,0,1,2.1.966l-.374.817A20.612,20.612,0,0,0,7.387,6.732l.335-.764C8.518,6.172,9.263,6.391,9.979,6.646Z" transform="translate(0 1.362)" fill="#fff"/>
        <path id="路径_3551" data-name="路径 3551" d="M2.736,1.208,2.718.033,3.6.019l.018,1.175,2.375-.039L6,1.982l-2.375.038.018,1.136,2.078-.033.013.8L.495,4.006l-.012-.8L2.768,3.17,2.75,2.034.013,2.077,0,1.25ZM1.947,8.463A8.978,8.978,0,0,1,.84,11.128l-.7-.428A7.592,7.592,0,0,0,1.2,8.32ZM6.221,6.808l.013.813-2.607.042.066,4.143-.878.014L2.749,7.676l-2.556.04L.18,6.9ZM5.352,4.962l.013.826L.951,5.857.938,5.032ZM6,10.077l-.717.335a13.953,13.953,0,0,0-.9-1.988l.745-.243A15.119,15.119,0,0,1,6,10.077ZM9.04,3.819A22.057,22.057,0,0,1,8.949,6.2a9.755,9.755,0,0,0,2.982,4.833l-.608.72A10.768,10.768,0,0,1,8.7,7.815c-.024.09-.036.181-.06.284a6.457,6.457,0,0,1-2.665,3.787L5.4,11.21a6.02,6.02,0,0,0,2.389-3.24,15.3,15.3,0,0,0,.4-4.138ZM8.117.128C8.05.8,7.956,1.409,7.849,1.979l3.421-.054.008.567c-.163,1.1-.366,2.188-.62,3.264L9.79,5.525a20.387,20.387,0,0,0,.6-2.746l-2.724.042A8.646,8.646,0,0,1,6.535,5.473L5.817,4.98A11.192,11.192,0,0,0,7.263,0Z" transform="translate(13.981)" fill="#fff"/>
        <path id="路径_3552" data-name="路径 3552" d="M4.868.6A16.783,16.783,0,0,1,3.108,2.943L1,11.531l-.914-.225L1.83,4.2A18.089,18.089,0,0,1,.051,5.541L0,4.505A14.434,14.434,0,0,0,4.112,0ZM5.55,8.914a11.283,11.283,0,0,1-3.307,2.1l-.364-.846A11.435,11.435,0,0,0,5.071,8.211Zm5.913-6.429-.974,3.96L7.97,5.827,7.637,7.181l3.61.887-.215.878-3.61-.887L6.256,12.8l-.9-.222L6.519,7.836,3.033,6.98,3.25,6.1l3.484.857.333-1.354L4.573,4.992,5.546,1.03Zm-1.1.646L6.224,2.115,5.678,4.333,9.815,5.35Zm.127,9.163-.763.5A20.788,20.788,0,0,0,7.786,9.491l.7-.479A20.065,20.065,0,0,1,10.488,12.294Z" transform="translate(27.588 0.853)" fill="#fff"/>
        <path id="路径_3553" data-name="路径 3553" d="M.783,10.22,0,9.794l2.153-3.96,3.12,1.7L3.2,11.344l-.784-.426L2.7,10.4,1.147,9.551ZM4.089,7.843,2.535,7,1.56,8.791l1.555.844ZM6.131,5.792l-.395.726L2.751,4.9l.4-.726ZM6.995,4.2l-.4.725L3.615,3.307l.394-.726ZM5.852,11.711A7.786,7.786,0,0,0,5.77,10.24l.885.129a8.4,8.4,0,0,1-.031,1.762l1.339.728A13.415,13.415,0,0,0,9.4,11.844l.6.651a7.126,7.126,0,0,1-1.229.8l1.645.894-.407.749L3.777,11.554l.407-.749ZM6.927,1.785l-.513-.058L8.287,2.745l-.414.761-3.7-2.012L4.588.734l1.531.831A11.051,11.051,0,0,0,6.295,0l.9.211C7.123.8,7.03,1.326,6.927,1.785Zm5.1,7.624-1.468,2.7L5.738,9.488l1.468-2.7ZM6.808,6.248l-.132-.866a6.6,6.6,0,0,0,2.06-.408A11.23,11.23,0,0,0,8.168,3.5L8.927,3.3a8.888,8.888,0,0,1,.5,1.358,6.87,6.87,0,0,0,1.381-.97L9.011,2.711l.376-.692,2.5,1.358-.314.579a7.414,7.414,0,0,1-2.393,1.7l2.938,1.6-.389.715L8.764,6.356l.37-.682A7,7,0,0,1,6.808,6.248Zm4.073,3.434L7.6,7.9,6.88,9.227l3.279,1.783ZM12.913,4.7a6.533,6.533,0,0,0,1.433-.5l.269.749a6.166,6.166,0,0,1-1.752.517c-.005.336,0,.659.019.995a6.478,6.478,0,0,0,1.591-.576l.275.768a6.671,6.671,0,0,1-1.765.568,7.47,7.47,0,0,0,.511,1.792l-.814.307a9.861,9.861,0,0,1-.334-5.739l.757-.015A9.807,9.807,0,0,0,12.913,4.7Z" transform="translate(38.241 5.033)" fill="#fff"/>
      </g>
    </g>
    <text id="_30天" data-name="30天" transform="translate(1760.291 634.366)" fill="#383e44" font-size="20" font-family="Helvetica"><tspan x="0" y="0">30</tspan><tspan y="0" font-size="18" font-family="PingFangSC-Semibold, PingFang SC" font-weight="600">天</tspan></text>
  </g>
</svg>
