<svg xmlns="http://www.w3.org/2000/svg" width="16" height="16" viewBox="0 0 16 16">
  <g id="组_3765" data-name="组 3765" transform="translate(-1259 -667)">
    <rect id="矩形_2583" data-name="矩形 2583" width="16" height="16" transform="translate(1259 667)" fill="#676464" opacity="0"/>
    <path id="路径_7255" data-name="路径 7255" d="M1680.889,985.875a.6.6,0,1,1,0,1.19,5.809,5.809,0,1,0,5.809,5.808.6.6,0,1,1,1.188,0,7,7,0,1,1-7-7Zm3.6,2.976a.585.585,0,0,1,.831-.821l1.024,1.024a.787.787,0,0,1,0,1.118l-1.024,1.025a.585.585,0,0,1-.826-.827l.173-.173h-.755c-2.049,0-2.746.873-2.746,3.513a.585.585,0,1,1-1.169,0c0-3.266,1.192-4.682,3.916-4.682h.755Zm0,0" transform="translate(-413.89 -317.874)" fill="#3963ef" stroke="#3963ef" stroke-width="0.2"/>
  </g>
</svg>
