<svg xmlns="http://www.w3.org/2000/svg" width="18" height="18" viewBox="0 0 18 18">
  <g id="组_3884" data-name="组 3884" transform="translate(-459 -433)">
    <rect id="矩形_2643" data-name="矩形 2643" width="18" height="18" transform="translate(459 433)" fill="#adadad" opacity="0"/>
    <g id="组_3883" data-name="组 3883">
      <g id="椭圆_402" data-name="椭圆 402" transform="translate(459.5 433.5)" fill="#fff" stroke="#9da3b9" stroke-width="1.3">
        <circle cx="8.5" cy="8.5" r="8.5" stroke="none"/>
        <circle cx="8.5" cy="8.5" r="7.85" fill="none"/>
      </g>
      <g id="组_3882" data-name="组 3882" transform="translate(-1212.525 -278.451)">
        <path id="路径_7279" data-name="路径 7279" d="M1676.027,719.05a.079.079,0,0,0,0,.016l0,.018,0,.013,0,.02,0,.011,0,.02,0,.009,0,.019s0,.008,0,.011a.04.04,0,0,0,.007.017l0,.013.005.016.005.013.006.015.006.016s0,.008.006.01l.008.016a.026.026,0,0,0,.007.01l.009.018a.03.03,0,0,0,.006.008l.011.018.006.01.012.016.008.011.011.013.011.013.008.012.023.023.024.022.01.01.012.011a.062.062,0,0,0,.015.01l.009.008.017.013.01.006c.007,0,.011.008.016.01a.035.035,0,0,1,.01.006l.016.01a.033.033,0,0,1,.011.006l.017.008a.015.015,0,0,1,.011,0,.054.054,0,0,0,.016.006l.013.006.015,0,.016.006.011,0,.018.005.01,0,.019,0,.01,0,.02,0,.01,0,.021,0h.011l.02,0,.016,0,.013,0,.032,0h7.734a.637.637,0,0,0,0-1.273h-6.2l.4-.405a.636.636,0,1,0-.9-.9l-1.489,1.486-.022.024-.009.01-.011.013a.079.079,0,0,0-.011.014l-.009.01-.011.016-.007.01-.011.018a.038.038,0,0,1-.006.008l-.009.018a.028.028,0,0,1-.006.01.059.059,0,0,0-.008.016.035.035,0,0,1-.007.011.054.054,0,0,0-.005.016l-.007.013,0,.014-.006.016,0,.012-.007.017a.1.1,0,0,0,0,.011l0,.018a.019.019,0,0,0,0,.01l-.005.02v.01a.1.1,0,0,0,0,.02v.013a.056.056,0,0,0,0,.018l0,.032,0,.031a.164.164,0,0,0,0,.031.044.044,0,0,0,0,.016v0Z" transform="translate(0 0)" fill="#9da3b9"/>
        <path id="路径_7280" data-name="路径 7280" d="M1684.945,732.64l.011-.014.008-.01.012-.016.006-.01c0-.006.008-.011.011-.017a.029.029,0,0,1,.006-.009l.009-.018a.029.029,0,0,1,.007-.01l.008-.016a.027.027,0,0,1,.005-.011.065.065,0,0,0,.007-.016l.006-.013,0-.014.005-.016.005-.012.006-.016,0-.012.005-.018a.017.017,0,0,0,0-.01l0-.02,0-.01a.112.112,0,0,0,0-.02v-.013a.045.045,0,0,0,0-.018l0-.016,0-.017v-.03a.237.237,0,0,0,0-.031l0-.016a.048.048,0,0,0,0-.015l0-.019v-.012l0-.02,0-.011,0-.02a.017.017,0,0,1,0-.01l-.005-.019,0-.01a.063.063,0,0,0-.006-.017l-.005-.013-.005-.016,0-.013-.006-.014-.007-.016s0-.008-.006-.01l-.008-.016a.03.03,0,0,0-.006-.01l-.009-.018-.006-.008c0-.007-.008-.012-.011-.018l-.006-.01-.012-.016-.008-.01-.011-.013-.011-.013-.01-.011a.214.214,0,0,0-.021-.023l-.024-.022-.01-.009-.013-.011-.013-.01-.009-.008-.017-.013-.01-.006c-.006,0-.011-.008-.017-.01l-.009-.006-.018-.01a.033.033,0,0,1-.01-.006l-.016-.008a.022.022,0,0,1-.011,0,.062.062,0,0,0-.016-.006l-.013-.006-.014,0-.016-.006-.012,0-.016-.005-.012,0-.018,0-.011,0-.02,0-.011,0-.02,0h-.012a.079.079,0,0,0-.019,0l-.016,0-.013,0-.033,0h-7.736a.637.637,0,1,0,0,1.273h6.2l-.4.4a.636.636,0,1,0,.9.9l1.49-1.488.021-.024.01-.01Z" transform="translate(-0.022 -10.245)" fill="#9da3b9"/>
      </g>
    </g>
  </g>
</svg>
