<svg xmlns="http://www.w3.org/2000/svg" width="12" height="12" viewBox="0 0 12 12">
  <g id="组_2821" data-name="组 2821" transform="translate(-578 -450)">
    <rect id="矩形_2375" data-name="矩形 2375" width="12" height="12" transform="translate(578 450)" fill="#3963ef" opacity="0"/>
    <path id="Fill_1_Copy_5" data-name="Fill 1 Copy 5" d="M4.184,9.985h0c-.305,0-.614-.232-.614-.75V4.806L.239,1.127a.955.955,0,0,1-.2-.333A.581.581,0,0,1,.047.368a.582.582,0,0,1,.308-.3A.955.955,0,0,1,.739,0H9.261a.955.955,0,0,1,.384.072.581.581,0,0,1,.308.3.582.582,0,0,1,.013.427.955.955,0,0,1-.2.333L6.429,4.806V7.471a2.059,2.059,0,0,1-.682,1.445l-1.04.856a.826.826,0,0,1-.523.214Z" transform="translate(579 451.5)" fill="#3963ef"/>
  </g>
</svg>
