<svg xmlns="http://www.w3.org/2000/svg" width="31.976" height="20.002" viewBox="0 0 31.976 20.002">
  <g id="组_3337" data-name="组 3337" transform="translate(-133.378 -374.689)">
    <path id="路径_4393" data-name="路径 4393" d="M139.64,374.689h7.981a1.555,1.555,0,0,1,1.547,2.026l-3.716,15.953a2.712,2.712,0,0,1-2.492,2.023h-7.981a1.555,1.555,0,0,1-1.547-2.023l3.718-15.953A2.7,2.7,0,0,1,139.64,374.689Z" transform="translate(0 0)" fill="#d6001f"/>
    <path id="路径_4394" data-name="路径 4394" d="M177.255,374.689h9.178c1.114,0,.612.908.35,2.026l-3.715,15.953c-.261,1.114-.179,2.023-1.3,2.023h-9.178a1.551,1.551,0,0,1-1.545-2.023l3.715-15.953A2.71,2.71,0,0,1,177.255,374.689Z" transform="translate(-30.298 0)" fill="#00346e"/>
    <path id="路径_4395" data-name="路径 4395" d="M222.566,374.689h7.981a1.553,1.553,0,0,1,1.546,2.026l-3.715,15.953a2.713,2.713,0,0,1-2.494,2.023h-7.977a1.552,1.552,0,0,1-1.547-2.023l3.716-15.953A2.7,2.7,0,0,1,222.566,374.689Z" transform="translate(-66.794 0)" fill="#006978"/>
    <path id="路径_4396" data-name="路径 4396" d="M236.1,435.735h.752l.216-.723h-.75Zm.6-2-.258.856a3.839,3.839,0,0,1,.439-.192c.155-.035.391-.065.391-.065l.182-.6H236.7m.375-1.23-.25.823a4.2,4.2,0,0,1,.432-.169,2.433,2.433,0,0,1,.387-.055l.181-.6h-.75m1.664,0-.973,3.22h.263l-.2.665h-.26l-.062.205h-.926l.063-.205h-1.88l.188-.615h.191l.986-3.269.2-.659h.944l-.1.332a1.765,1.765,0,0,1,.49-.242c.238-.063,1.606-.086,1.606-.086l-.2.655h-.323" transform="translate(-81.66 -46.04)" fill="#fff" fill-rule="evenodd"/>
    <path id="路径_4397" data-name="路径 4397" d="M257.354,431.869h1.009l.01.375c-.007.064.048.094.166.094h.205l-.188.62h-.545c-.471.033-.65-.169-.638-.4Z" transform="translate(-99.859 -46.057)" fill="#fff"/>
    <path id="路径_4398" data-name="路径 4398" d="M251.745,440.04h-.961l.165-.552h1.1l.156-.5h-1.085l.185-.622h3.017l-.188.622h-1.012l-.158.5h1.015l-.169.552h-1.1l-.2.232h.445l.109.7a.368.368,0,0,0,.035.144.566.566,0,0,0,.234.037h.135l-.206.676h-.343c-.052,0-.132,0-.241-.008a.647.647,0,0,1-.244-.1.327.327,0,0,1-.179-.236l-.107-.694-.5.683a.848.848,0,0,1-.735.382h-.7l.183-.6h.267a.432.432,0,0,0,.2-.056.3.3,0,0,0,.147-.123Z" transform="translate(-94.116 -51.286)" fill="#fff"/>
    <path id="路径_4399" data-name="路径 4399" d="M201.742,439.22h2.546l-.189.606h-1.017l-.159.518h1.041l-.19.626h-1.04l-.253.842c-.03.093.248.1.348.1l.52-.071-.209.694h-1.172a1.125,1.125,0,0,1-.267-.037.278.278,0,0,1-.186-.136.266.266,0,0,1-.064-.272l.338-1.114h-.578l.192-.637h.58l.154-.518h-.578Z" transform="translate(-54.636 -51.977)" fill="#fff"/>
    <path id="路径_4400" data-name="路径 4400" d="M205.181,432.176h1.044l-.189.635H204.61l-.154.134c-.067.065-.09.038-.176.084a1.035,1.035,0,0,1-.469.121h-.457l.184-.609h.138a.505.505,0,0,0,.236-.036.549.549,0,0,0,.153-.2l.264-.476h1.037Z" transform="translate(-56.363 -46.025)" fill="#fff"/>
    <path id="路径_4401" data-name="路径 4401" d="M215.442,433.236a1.638,1.638,0,0,1,.773-.345c.111-.021.8-.014.8-.014l.106-.35h-1.469Zm1.378.265h-1.457l-.09.293h1.261a1.03,1.03,0,0,1,.192,0l.093-.29m-1.888-1.648h.889l-.13.447a2.613,2.613,0,0,1,.478-.305,4.564,4.564,0,0,1,.638-.137l1.439-.008-.49,1.633a1.9,1.9,0,0,1-.239.543.623.623,0,0,1-.242.223.9.9,0,0,1-.334.112c-.095.007-.241.009-.443.012h-1.387l-.39,1.29c-.037.128-.055.19-.03.225a.16.16,0,0,0,.132.065l.612-.058-.21.708h-.683c-.218,0-.376-.005-.487-.014a.566.566,0,0,1-.29-.056c-.063-.056-.16-.131-.158-.206a2.591,2.591,0,0,1,.081-.347l1.245-4.128" transform="translate(-64.622 -46.04)" fill="#fff" fill-rule="evenodd"/>
    <path id="路径_4402" data-name="路径 4402" d="M225.2,445.408l-.083.392a.528.528,0,0,1-.158.293.639.639,0,0,1-.478.169l-.494.021,0,.443c-.005.125.028.112.048.132a.181.181,0,0,0,.065.04l.157-.009.471-.026-.2.647h-.541a1.733,1.733,0,0,1-.751-.081c-.091-.058-.1-.13-.1-.254l.035-1.728h.863l-.012.353h.207a.291.291,0,0,0,.149-.026.157.157,0,0,0,.058-.09l.087-.277Z" transform="translate(-72.293 -56.962)" fill="#fff"/>
    <path id="路径_4403" data-name="路径 4403" d="M155.459,400.876c-.03.141-.584,2.7-.585,2.7a1.869,1.869,0,0,1-.5,1.123.892.892,0,0,1-.589.205.545.545,0,0,1-.612-.524l-.007-.118s.111-.692.111-.7.581-2.328.686-2.636a.292.292,0,0,0,.008-.035,8.529,8.529,0,0,1-1.346-.018c-.008.025-.036.17-.036.17L152,403.67l-.051.223-.1.728a1.071,1.071,0,0,0,.127.541c.271.473,1.042.543,1.478.543a2.867,2.867,0,0,0,1.446-.338,2.142,2.142,0,0,0,.925-1.444l.067-.261s.6-2.418.7-2.733a.105.105,0,0,1,.01-.035A8.581,8.581,0,0,1,155.459,400.876Z" transform="translate(-14.875 -21.093)" fill="#fff"/>
    <path id="路径_4404" data-name="路径 4404" d="M176.47,413.709c-.4-.007-.543-.007-1.012.018l-.018-.036c.04-.179.084-.355.125-.536l.058-.245c.087-.379.171-.821.181-.956.009-.081.037-.283-.195-.283a.769.769,0,0,0-.3.095c-.056.2-.17.77-.225,1.028-.116.545-.123.608-.175.877l-.033.037c-.413-.007-.558-.007-1.033.018l-.021-.041c.079-.323.158-.65.234-.973a13.731,13.731,0,0,0,.3-1.661l.039-.026c.464-.065.577-.079,1.079-.181l.043.047-.077.28c.086-.051.167-.1.253-.146a1.579,1.579,0,0,1,.645-.151.546.546,0,0,1,.562.316c.095.227.032.506-.094,1.056l-.065.281c-.128.612-.15.724-.222,1.144Z" transform="translate(-32.573 -29.122)" fill="#fff"/>
    <path id="路径_4405" data-name="路径 4405" d="M191.278,416.217c-.242,0-.4-.007-.55,0s-.3.009-.524.02l-.012-.02-.014-.021a3.46,3.46,0,0,1,.125-.4,2.779,2.779,0,0,0,.114-.4c.071-.308.114-.522.142-.71s.051-.338.076-.517l.018-.014.019-.018c.241-.033.394-.056.55-.081s.317-.052.566-.1l.009.021.007.023c-.046.19-.093.38-.139.573s-.091.383-.134.573c-.09.4-.126.555-.147.665s-.027.158-.061.367l-.023.019Z" transform="translate(-45.751 -31.631)" fill="#fff"/>
    <path id="路径_4406" data-name="路径 4406" d="M201.414,412.477a2.1,2.1,0,0,1-.234.656.386.386,0,0,1-.3.2c-.033,0-.232,0-.236-.3a2,2,0,0,1,.065-.457c.106-.467.23-.859.549-.859C201.506,411.716,201.525,412.008,201.414,412.477Zm1.052.044a1.2,1.2,0,0,0-.106-1.081,1.179,1.179,0,0,0-.961-.353,1.765,1.765,0,0,0-1.207.418,1.979,1.979,0,0,0-.536,1.043c-.087.378-.186,1.058.439,1.311a1.836,1.836,0,0,0,.651.105,1.7,1.7,0,0,0,1.281-.5,2.268,2.268,0,0,0,.44-.942" transform="translate(-53.332 -29.317)" fill="#fff"/>
    <path id="路径_4407" data-name="路径 4407" d="M260.262,414.055c-.485,0-.624,0-1.071.015l-.028-.037c.121-.46.242-.919.351-1.385a10.082,10.082,0,0,0,.218-1.214l.036-.03c.482-.068.616-.088,1.116-.181l.014.042c-.092.38-.182.758-.271,1.139-.184.8-.251,1.2-.321,1.617Z" transform="translate(-101.315 -29.428)" fill="#fff"/>
    <path id="路径_4408" data-name="路径 4408" d="M253.142,412.674a2.26,2.26,0,0,1-.239.654.552.552,0,0,1-.39.189c-.032,0-.229,0-.236-.29a1.983,1.983,0,0,1,.065-.457c.107-.459.23-.847.549-.847C253.142,411.922,253.249,412.2,253.142,412.674Zm.958.046c.141-.613-.427-.055-.517-.257-.138-.316-.053-.956-.609-1.17a1.341,1.341,0,0,0-1.15.418,1.951,1.951,0,0,0-.533,1.036c-.088.373-.188,1.053.435,1.3a1.216,1.216,0,0,0,.557.1c.625-.033,1.1-.979,1.455-1.352.272-.3.32.111.362-.07" transform="translate(-94.923 -29.462)" fill="#fff"/>
    <path id="路径_4409" data-name="路径 4409" d="M217.495,413.709c-.4-.007-.54-.007-1.011.018l-.017-.036c.04-.179.086-.355.128-.536l.055-.245a9.188,9.188,0,0,0,.181-.956c.009-.081.037-.283-.193-.283a.762.762,0,0,0-.3.095c-.055.2-.171.77-.227,1.028-.112.545-.121.608-.172.877l-.036.037c-.413-.007-.555-.007-1.031.018l-.021-.041c.079-.323.158-.65.234-.973a14.238,14.238,0,0,0,.3-1.661l.036-.026c.464-.065.578-.079,1.081-.181l.039.047-.072.28c.083-.051.167-.1.252-.146a1.573,1.573,0,0,1,.645-.151.553.553,0,0,1,.564.316c.093.227.03.506-.1,1.056l-.063.281c-.132.612-.151.724-.222,1.144Z" transform="translate(-65.62 -29.122)" fill="#fff"/>
    <path id="路径_4410" data-name="路径 4410" d="M234.675,400.833l-.334,0c-.868.011-1.216.008-1.359-.01-.012.063-.035.175-.035.175s-.311,1.441-.311,1.443l-.779,3.207c.758-.009,1.069-.009,1.2.005.03-.145.205-1,.207-1s.15-.628.159-.651a.37.37,0,0,1,.094-.091h.069a3.214,3.214,0,0,0,1.97-.426,2.1,2.1,0,0,0,.783-1.246,1.885,1.885,0,0,0,.054-.434.911.911,0,0,0-.157-.554C235.94,400.844,235.353,400.836,234.675,400.833Zm.434,1.5a1.051,1.051,0,0,1-.545.719,1.72,1.72,0,0,1-.766.119h-.179l.014-.072s.331-1.438.329-1.432l.011-.074,0-.056.132.014.7.06a.568.568,0,0,1,.3.723" transform="translate(-79.322 -21.052)" fill="#fff"/>
    <path id="路径_4411" data-name="路径 4411" d="M271.639,411.022l-.039-.044c-.5.1-.585.116-1.04.178l-.033.033c0,.005,0,.014-.005.021l0-.008c-.339.782-.329.613-.6,1.229,0-.028,0-.046,0-.075l-.069-1.334-.043-.044c-.519.1-.531.116-1.011.178l-.037.033a.319.319,0,0,0-.008.053l0,.007a6.629,6.629,0,0,1,.106.721c.028.237.065.476.094.71.047.392.074.585.131,1.183-.324.534-.4.736-.712,1.205l.02.044c.467-.018.576-.018.923-.018l.075-.086C269.645,414.444,271.639,411.022,271.639,411.022Z" transform="translate(-108.728 -29.23)" fill="#fff"/>
    <path id="路径_4412" data-name="路径 4412" d="M193.8,410.215c.266-.185.3-.439.076-.572a.913.913,0,0,0-.891.094c-.267.181-.3.438-.071.573A.911.911,0,0,0,193.8,410.215Z" transform="translate(-47.828 -28.092)" fill="#fff"/>
    <path id="路径_4413" data-name="路径 4413" d="M266.271,431.939l-.39.668a.764.764,0,0,1-.716.4l-.62-.011.181-.6h.122a.328.328,0,0,0,.144-.021.166.166,0,0,0,.08-.072l.23-.364Z" transform="translate(-105.651 -46.113)" fill="#fff"/>
  </g>
</svg>
