<svg xmlns="http://www.w3.org/2000/svg" xmlns:xlink="http://www.w3.org/1999/xlink" width="200" height="200" viewBox="0 0 200 200">
  <defs>
    <clipPath id="clip-path">
      <path id="路径_343" data-name="路径 343" d="M48.043-94.6,9-69.607l5.448,9.245,33.595-27.9Z" transform="translate(-9 94.6)" fill="#2488d1" clip-rule="evenodd"/>
    </clipPath>
    <clipPath id="clip-path-2">
      <path id="路径_127" data-name="路径 127" d="M9-94.6,48.043-69.607l-5.448,9.245L9-88.264Z" transform="translate(-9 94.6)" fill="#2488d1" clip-rule="evenodd"/>
    </clipPath>
  </defs>
  <g id="组_1179" data-name="组 1179" transform="translate(-10537 3499)">
    <g id="组_1037" data-name="组 1037" transform="translate(9426.953 -5974.977)">
      <g id="组_629" data-name="组 629" transform="translate(1160 2526.668)">
        <g id="组_147" data-name="组 147" transform="translate(0 0)">
          <g id="路径_123" data-name="路径 123" transform="translate(-1 147)" fill="#aed4f0" fill-rule="evenodd">
            <path d="M 95.71434783935547 -85.75298309326172 L 1.799797415733337 -85.75298309326172 L 1.799797415733337 -113.8701934814453 L 46.7886962890625 -145.5422515869141 L 46.79707336425781 -145.5481414794922 L 46.8052978515625 -145.5542602539062 C 47.37389755249023 -145.9767303466797 48.04892349243164 -146.2000427246094 48.75740814208984 -146.2000427246094 C 49.46588516235352 -146.2000427246094 50.14091110229492 -145.9767303466797 50.70951080322266 -145.5542602539062 L 50.71773529052734 -145.5481414794922 L 50.72610855102539 -145.5422515869141 L 95.71434783935547 -113.8702011108398 L 95.71434783935547 -85.75298309326172 Z" stroke="none"/>
            <path d="M 94.91433715820312 -86.552978515625 L 94.91433715820312 -113.4550247192383 L 50.26557922363281 -144.8880920410156 L 50.24883270263672 -144.8998870849609 L 50.23240661621094 -144.9120941162109 C 49.80278015136719 -145.2313079833984 49.292724609375 -145.4000244140625 48.75740432739258 -145.4000244140625 C 48.22208404541016 -145.4000244140625 47.71203231811523 -145.2313079833984 47.28240585327148 -144.9120941162109 L 47.26596450805664 -144.8998870849609 L 47.24921798706055 -144.8880920410156 L 2.59980583190918 -113.4550323486328 L 2.59980583190918 -86.552978515625 L 94.91433715820312 -86.552978515625 M 96.51433563232422 -84.95298004150391 L 0.9998058080673218 -84.95298004150391 L 0.9998058080673218 -114.2853469848633 L 46.32817840576172 -146.1963958740234 C 47.04924392700195 -146.7321624755859 47.90332412719727 -147.0000305175781 48.75740432739258 -147.0000305175781 C 49.61148452758789 -147.0000305175781 50.4655647277832 -146.7321624755859 51.1866340637207 -146.1963958740234 L 96.51433563232422 -114.2853469848633 L 96.51433563232422 -84.95298004150391 Z" stroke="none" fill="#4ea1de"/>
          </g>
          <g id="矩形_829" data-name="矩形 829" transform="translate(7.879 10.796)" fill="#fff" stroke="#4ea1de" stroke-width="1.6">
            <rect width="80.543" height="57.781" rx="2" stroke="none"/>
            <rect x="0.8" y="0.8" width="78.943" height="56.181" rx="1.2" fill="none"/>
          </g>
          <g id="组_144" data-name="组 144" transform="translate(55.68 32.481)" opacity="0.16" clip-path="url(#clip-path)">
            <path id="路径_342" data-name="路径 342" d="M49.769-58.511H4V-98.6H49.769Z" transform="translate(-7.363 96.112)" fill="#2488d1"/>
          </g>
          <g id="组_136" data-name="组 136" transform="translate(1.401 32.481)" opacity="0.16" clip-path="url(#clip-path-2)">
            <path id="路径_126" data-name="路径 126" d="M4-58.511H49.769V-98.6H4Z" transform="translate(-7.363 96.112)" fill="#2488d1"/>
          </g>
          <g id="路径_340" data-name="路径 340" transform="translate(-128.752 -903.407)" fill="#ddeefa">
            <path d="M 220.1980590820312 992.683349609375 L 132.8211517333984 992.683349609375 C 131.0185394287109 992.683349609375 129.552001953125 991.2168579101562 129.552001953125 989.4142456054688 L 129.552001953125 938.506591796875 L 173.5905303955078 969.5094604492188 L 173.6030120849609 969.5187377929688 C 174.4494781494141 970.1477661132812 175.4544525146484 970.4802856445312 176.50927734375 970.4802856445312 C 177.560546875 970.4802856445312 178.5625152587891 970.1500244140625 179.4076080322266 969.525146484375 L 223.4663543701172 938.5074462890625 L 223.4663543701172 989.4151000976562 C 223.4663543701172 991.2172241210938 222.0002136230469 992.683349609375 220.1980590820312 992.683349609375 Z" stroke="none"/>
            <path d="M 220.1980590820312 991.8833618164062 C 221.5590972900391 991.8833618164062 222.6663665771484 990.7760620117188 222.6663665771484 989.4151000976562 L 222.6663665771484 940.0490112304688 L 179.8753662109375 970.1741943359375 C 178.8932647705078 970.8978881835938 177.7297973632812 971.2802734375 176.50927734375 971.2802734375 C 175.2812652587891 971.2802734375 174.1112823486328 970.8931884765625 173.1258239746094 970.160888671875 L 173.1204681396484 970.1568603515625 L 130.3520050048828 940.048095703125 L 130.3520050048828 989.4142456054688 C 130.3520050048828 990.7756958007812 131.4596710205078 991.8833618164062 132.8211517333984 991.8833618164062 L 220.1980590820312 991.8833618164062 M 220.1980590820312 993.4833374023438 L 132.8211517333984 993.4833374023438 C 130.5738372802734 993.4833374023438 128.7519989013672 991.6624145507812 128.7519989013672 989.4142456054688 L 128.7519989013672 936.9650268554688 L 174.0801849365234 968.8757934570312 L 174.0801849365234 968.8766479492188 C 174.8011322021484 969.4124145507812 175.6551513671875 969.6802978515625 176.50927734375 969.6802978515625 C 177.3634033203125 969.6802978515625 178.2176513671875 969.4124145507812 178.9390258789062 968.8766479492188 L 224.266357421875 936.9658813476562 L 224.266357421875 989.4151000976562 C 224.266357421875 991.6624145507812 222.4445190429688 993.4833374023438 220.1980590820312 993.4833374023438 Z" stroke="none" fill="#4ea1de"/>
          </g>
          <path id="路径_340-2" data-name="路径 340" d="M36.183-29.086V-32L2.053-55.988l-1.935,1.3Z" transform="translate(59.179 113.74)" fill="#2488d1" fill-rule="evenodd" opacity="0.16"/>
          <g id="路径_137" data-name="路径 137" transform="translate(-225.397 -816.244)" fill="#eff8ff" fill-rule="evenodd">
            <path d="M 316.8440246582031 906.0307006835938 L 316.8425598144531 906.0307006835938 L 229.4661560058594 906.0307006835938 C 227.6649169921875 906.0307006835938 226.1983642578125 904.6807861328125 226.1969909667969 903.0215454101562 L 226.1969909667969 900.8795166015625 L 271.1819458007812 869.5972900390625 C 271.7551574707031 869.19873046875 272.4374084472656 868.988037109375 273.1549682617188 868.988037109375 C 273.8724670410156 868.988037109375 274.5544128417969 869.1986694335938 275.1271057128906 869.59716796875 L 320.1104431152344 900.8795166015625 L 320.1104431152344 903.092041015625 C 320.09130859375 903.8699340820312 319.7507934570312 904.6011962890625 319.1510314941406 905.152099609375 C 318.5341796875 905.7186889648438 317.7149047851562 906.0307006835938 316.8440246582031 906.0307006835938 Z" stroke="none"/>
            <path d="M 316.8440246582031 905.230712890625 C 318.1729125976562 905.230712890625 319.2759399414062 904.2677612304688 319.3104553222656 903.0809936523438 L 319.3104553222656 901.297607421875 L 274.6701965332031 870.2538452148438 C 274.2322387695312 869.9490966796875 273.7082824707031 869.7880249023438 273.1549682617188 869.7880249023438 C 272.6015014648438 869.7880249023438 272.0771789550781 869.94921875 271.6387023925781 870.2540893554688 L 226.9969787597656 901.2976684570312 L 226.9969787597656 903.0208740234375 C 226.9980010986328 904.2393798828125 228.1056671142578 905.230712890625 229.4661560058594 905.230712890625 L 316.8422241210938 905.230712890625 L 316.8440246582031 905.230712890625 M 316.8440246582031 906.8306884765625 C 316.8434753417969 906.8306884765625 316.8427734375 906.8306884765625 316.8422241210938 906.8306884765625 L 229.4661560058594 906.8306884765625 C 227.2197113037109 906.8306884765625 225.3987426757812 905.1265258789062 225.3969879150391 903.022216796875 L 225.3969879150391 900.46142578125 L 270.7252197265625 868.9404907226562 C 271.4466247558594 868.4388427734375 272.3008422851562 868.1880493164062 273.1549682617188 868.1880493164062 C 274.0090942382812 868.1880493164062 274.8630981445312 868.4388427734375 275.5840454101562 868.9404907226562 L 320.9104614257812 900.46142578125 L 320.9104614257812 903.1010131835938 C 320.8656616210938 905.1683959960938 319.0624084472656 906.8306884765625 316.8440246582031 906.8306884765625 Z M 320.9104614257812 905.4797973632812 L 320.9104614257812 903.1010131835938 C 320.9110107421875 903.0751953125 320.9113159179688 903.0492553710938 320.9113159179688 903.0233154296875 L 320.9104614257812 905.4797973632812 Z M 320.9113159179688 903.0233154296875 L 320.9113159179688 903.0206298828125 L 320.9113159179688 903.022216796875 C 320.9113159179688 903.0225830078125 320.9113159179688 903.0228881835938 320.9113159179688 903.0233154296875 Z" stroke="none" fill="#4ea1de"/>
          </g>
          <path id="路径_341" data-name="路径 341" d="M.118-29.086V-32l34.13-23.991,1.935,1.3Z" transform="translate(-0.03 113.74)" fill="#2488d1" fill-rule="evenodd" opacity="0.16"/>
        </g>
      </g>
      <rect id="矩形_870" data-name="矩形 870" width="34.354" height="1.341" transform="translate(1190.164 2558.786)" fill="#d8ecfa"/>
      <rect id="矩形_871" data-name="矩形 871" width="34.354" height="1.341" transform="translate(1190.164 2564.651)" fill="#d8ecfa"/>
      <rect id="矩形_872" data-name="矩形 872" width="34.354" height="1.341" transform="translate(1190.164 2570.517)" fill="#d8ecfa"/>
      <g id="组_630" data-name="组 630" transform="translate(1237.924 2597.329)">
        <g id="椭圆_72" data-name="椭圆 72" transform="translate(0 0)" fill="#fff" stroke="#4ea1de" stroke-width="1.6">
          <circle cx="15.082" cy="15.082" r="15.082" stroke="none"/>
          <circle cx="15.082" cy="15.082" r="14.282" fill="none"/>
        </g>
        <path id="减去_12" data-name="减去 12" d="M1.565,27.488A14.613,14.613,0,0,1,0,27.4a14.146,14.146,0,0,0,8.89-4.461,13.541,13.541,0,0,0,3.615-9.2,13.54,13.54,0,0,0-3.612-9.2A14.149,14.149,0,0,0,.008.083,14.62,14.62,0,0,1,1.565,0a14.14,14.14,0,0,1,9.946,4.025,13.524,13.524,0,0,1,0,19.437A14.14,14.14,0,0,1,1.565,27.488Z" transform="translate(13.177 1.337)" fill="#ddeefa"/>
        <path id="联合_2" data-name="联合 2" d="M.671,9.217H.636A.67.67,0,0,1,0,8.546V.671a.671.671,0,0,1,1.341,0V7.876H6.033a.67.67,0,1,1,0,1.341Z" transform="translate(13.406 8.044)" fill="#4ea1de"/>
        <g id="椭圆_90" data-name="椭圆 90" transform="translate(0 0)" fill="none" stroke="#4ea1de" stroke-width="1.6">
          <circle cx="15.082" cy="15.082" r="15.082" stroke="none"/>
          <circle cx="15.082" cy="15.082" r="14.282" fill="none"/>
        </g>
      </g>
      <rect id="矩形_876" data-name="矩形 876" width="34.354" height="1.341" transform="translate(1190.164 2552.921)" fill="#d8ecfa"/>
      <rect id="矩形_877" data-name="矩形 877" width="34.354" height="1.341" transform="translate(1190.164 2547.056)" fill="#d8ecfa"/>
    </g>
    <g id="矩形_910" data-name="矩形 910" transform="translate(10537 -3499)" fill="none" stroke="#707070" stroke-width="1" opacity="0">
      <rect width="200" height="200" stroke="none"/>
      <rect x="0.5" y="0.5" width="199" height="199" fill="none"/>
    </g>
  </g>
</svg>
