<svg xmlns="http://www.w3.org/2000/svg" width="68" height="68" viewBox="0 0 68 68">
  <g id="组_1539" data-name="组 1539" transform="translate(-652.778 -729.236)">
    <g id="矩形_1197" data-name="矩形 1197" transform="translate(652.778 729.236)" fill="#fff" stroke="#d6d7d8" stroke-miterlimit="10" stroke-width="0.425">
      <rect width="68" height="68" rx="14" stroke="none"/>
      <rect x="0.212" y="0.212" width="67.575" height="67.575" rx="13.788" fill="none"/>
    </g>
    <g id="组_1536" data-name="组 1536">
      <path id="路径_3545" data-name="路径 3545" d="M682.108,782.292c-10.36-.191-13.9-.363-16.074-.811a7.077,7.077,0,0,1-3.688-1.917A7.771,7.771,0,0,1,660.6,776.2a22.074,22.074,0,0,1-.746-4.946,117.579,117.579,0,0,1,0-16.031c.333-2.961.495-6.477,2.707-8.528a7.262,7.262,0,0,1,3.625-1.832c2.131-.4,11.213-.725,20.614-.725,9.38,0,18.482.32,20.615.725a7.086,7.086,0,0,1,4.242,2.515c2.019,3.175,2.054,7.123,2.259,10.212.085,1.471.085,9.827,0,11.3-.319,4.881-.575,6.608-1.3,8.4a6.2,6.2,0,0,1-1.492,2.388,7.151,7.151,0,0,1-3.795,1.939c-8.966.675-16.579.821-25.219.683Z" fill="#f21919"/>
      <path id="路径_3546" data-name="路径 3546" d="M696.1,762.679c-4.988-2.665-9.764-5.137-14.646-7.7V770.29c5.138-2.792,10.553-5.351,14.667-7.632Z" fill="#fff"/>
    </g>
  </g>
</svg>
