<svg xmlns="http://www.w3.org/2000/svg" xmlns:xlink="http://www.w3.org/1999/xlink" width="68" height="68" viewBox="0 0 68 68">
  <defs>
    <linearGradient id="linear-gradient" x1="0.5" x2="0.5" y2="1" gradientUnits="objectBoundingBox">
      <stop offset="0.002" stop-color="#61f97e"/>
      <stop offset="0.998" stop-color="#06b724"/>
    </linearGradient>
  </defs>
  <g id="组_1554" data-name="组 1554" transform="translate(-1142.052 -729.236)">
    <rect id="矩形_1207" data-name="矩形 1207" width="68" height="68" rx="14" transform="translate(1142.052 729.236)" fill="url(#linear-gradient)"/>
    <path id="路径_3563" data-name="路径 3563" d="M1187.817,767.787c-.608-.3-3.644-1.743-4.174-1.971s-.988-.306-1.367.3-1.6,1.975-1.9,2.354a.927.927,0,0,1-1.29.151,16.684,16.684,0,0,1-4.933-2.958,18.776,18.776,0,0,1-3.415-4.174c-.38-.608,0-.914.3-1.216a12.985,12.985,0,0,0,.91-1.061,6.835,6.835,0,0,0,.608-.987,1.053,1.053,0,0,0-.078-1.065c-.151-.3-1.363-3.26-1.9-4.476-.531-1.139-.984-.988-1.363-1.061h-1.138a2.185,2.185,0,0,0-1.6.759,6.8,6.8,0,0,0-2.126,5.006c0,2.962,2.2,5.77,2.506,6.223.3.379,4.325,6.451,10.4,9.033,1.445.608,2.583.988,3.493,1.29a8.615,8.615,0,0,0,3.868.228c1.139-.151,3.644-1.444,4.1-2.807a4.717,4.717,0,0,0,.379-2.811,4.99,4.99,0,0,0-1.289-.759M1176.2,783.422a20.189,20.189,0,0,1-10.245-2.807l-.759-.457-7.589,1.975,2.048-7.361-.457-.759a19.994,19.994,0,0,1,17.076-30.585,20,20,0,1,1-.074,39.994m17.076-37.036a24.149,24.149,0,0,0-41.21,17,24.417,24.417,0,0,0,3.186,11.988l-3.415,12.449,12.751-3.342a24.376,24.376,0,0,0,11.535,2.962,24.131,24.131,0,0,0,24.135-24.057,23.559,23.559,0,0,0-6.982-17" fill="#fff"/>
  </g>
</svg>
