<svg xmlns="http://www.w3.org/2000/svg" width="68" height="68" viewBox="0 0 68 68">
  <g id="组_1548" data-name="组 1548" transform="translate(-914.029 -729.236)">
    <rect id="矩形_1203" data-name="矩形 1203" width="68" height="68" rx="14" transform="translate(914.029 729.236)"/>
    <g id="组_1547" data-name="组 1547">
      <path id="路径_3550" data-name="路径 3550" d="M933.972,737.743v25.478c0,14.014.014,25.492.034,25.512s.886-.067,1.933-.181,2.49-.262,3.208-.322c1.1-.094,4.4-.3,4.779-.309.114,0,.121-.57.135-10.793l.02-10.769-.007-.019v.014l-10.1-28.611Z" fill="#b1060f" fill-rule="evenodd"/>
      <path id="路径_3551" data-name="路径 3551" d="M944.069,772.174l.011-5.815-.007-.019v.013l-10.1-28.611,10.1,34.432Z" fill="#9d030f" fill-rule="evenodd"/>
      <path id="路径_3552" data-name="路径 3552" d="M952.061,737.776l-.02,11.27-.02,11.264,10.014,28.416a.172.172,0,0,1-.075.01.206.206,0,0,0,.089-.01c.033-.027.04-11.5.033-25.5l-.02-25.452Z" fill="#b1060f" fill-rule="evenodd"/>
      <path id="路径_3553" data-name="路径 3553" d="M952.032,754.613l-.011,5.7,9.586,27.2-9.575-32.9Z" fill="#9d030f" fill-rule="evenodd"/>
      <path id="路径_3554" data-name="路径 3554" d="M933.972,737.743l10.1,28.611v-.014l.8,2.255c4.436,12.551,6.819,19.286,6.832,19.3s.678.047,1.491.088c2.456.12,5.5.382,7.819.67a5.162,5.162,0,0,0,1.02.074L952.021,760.31v.006l-.926-2.616c-.906-2.556-1.511-4.266-5.155-14.557-.98-2.77-1.812-5.112-1.846-5.219l-.067-.188H939l-5.028.007Z" fill="#e50914" fill-rule="evenodd"/>
    </g>
  </g>
</svg>
