<svg xmlns="http://www.w3.org/2000/svg" width="32" height="32" viewBox="0 0 32 32">
  <g id="组_3238" data-name="组 3238" transform="translate(-657 -186.851)">
    <rect id="矩形_2308" data-name="矩形 2308" width="32" height="32" transform="translate(657 186.851)" fill="#b1b1b1" opacity="0"/>
    <path id="联合_10" data-name="联合 10" d="M11.3,13.6.048,2.35a1,1,0,0,1,0-1.414L.886.1A1,1,0,0,1,2.3.1l9.71,9.709L21.768.048a1,1,0,0,1,1.414,0l.838.838a1,1,0,0,1,0,1.415L12.767,13.554l-.05.05a1,1,0,0,1-1.414,0Z" transform="translate(660.844 196.953)" fill="#a5b1bf"/>
  </g>
</svg>
