<svg xmlns="http://www.w3.org/2000/svg" xmlns:xlink="http://www.w3.org/1999/xlink" width="68" height="68" viewBox="0 0 68 68">
  <defs>
    <clipPath id="clip-path">
      <rect id="矩形_1205" data-name="矩形 1205" width="51" height="39.409" transform="translate(998.812 743.532)" fill="none"/>
    </clipPath>
  </defs>
  <g id="组_1552" data-name="组 1552" transform="translate(-990.312 -729.236)">
    <g id="矩形_1204" data-name="矩形 1204" transform="translate(990.312 729.236)" fill="#fff" stroke="#d6d7d8" stroke-miterlimit="10" stroke-width="0.425">
      <rect width="68" height="68" rx="14" stroke="none"/>
      <rect x="0.212" y="0.212" width="67.575" height="67.575" rx="13.788" fill="none"/>
    </g>
    <g id="组_1551" data-name="组 1551">
      <path id="路径_3555" data-name="路径 3555" d="M1002.868,782.361h42.887a4.055,4.055,0,0,0,4.056-4.057V748.168a4.055,4.055,0,0,0-4.056-4.057h-42.887a4.055,4.055,0,0,0-4.056,4.057V778.3a4.055,4.055,0,0,0,4.056,4.057Zm0,0" fill="#e0e0e0"/>
      <path id="路径_3556" data-name="路径 3556" d="M1026.63,782.361h19.125a4.055,4.055,0,0,0,4.056-4.057V748.168a4.055,4.055,0,0,0-4.056-4.057h-42.887a4.055,4.055,0,0,0-4.056,4.057Zm0,0" fill="#d9d9d9"/>
      <path id="路径_3557" data-name="路径 3557" d="M1004.313,782.361h41.442a4.055,4.055,0,0,0,4.056-4.057V748.747Zm0,0" fill="#eee"/>
      <path id="路径_3558" data-name="路径 3558" d="M1026.335,782.361h19.42a4.055,4.055,0,0,0,4.056-4.057V748.747l-31.562,23.318Zm0,0" fill="#e0e0e0"/>
      <g id="组_1550" data-name="组 1550">
        <g id="组_1549" data-name="组 1549" clip-path="url(#clip-path)">
          <path id="路径_3559" data-name="路径 3559" d="M1045.755,746.429h-42.887c-2.241,0-4.056-.5-4.056,1.739V778.3a4.055,4.055,0,0,0,4.056,4.057h1.739V749.327h39.409v33.034h1.739a4.055,4.055,0,0,0,4.056-4.057V748.168c0-2.242-1.815-1.739-4.056-1.739Zm0,0" fill="#ca3737"/>
          <path id="路径_3560" data-name="路径 3560" d="M1045.755,744.111h-42.887a4.036,4.036,0,0,0-4.056,4.057c0,1.4,1.761,2.617,1.761,2.617l23.738,16.807,23.739-16.807s1.761-1.218,1.761-2.617a4.036,4.036,0,0,0-4.056-4.057Zm0,0" fill="#f5f5f5"/>
          <path id="路径_3561" data-name="路径 3561" d="M1046.619,744.206l-22.308,15.553L1002,744.206a4.022,4.022,0,0,0-3.192,3.962c0,1.4,1.761,2.617,1.761,2.617l23.738,16.807,23.739-16.807s1.761-1.218,1.761-2.617a4.022,4.022,0,0,0-3.192-3.962Zm0,0" fill="#e84f4b"/>
        </g>
      </g>
    </g>
  </g>
</svg>
