<svg xmlns="http://www.w3.org/2000/svg" xmlns:xlink="http://www.w3.org/1999/xlink" width="67.996" height="67.999" viewBox="0 0 67.996 67.999">
  <defs>
    <clipPath id="clip-path">
      <rect id="矩形_1212" data-name="矩形 1212" width="67.996" height="67.999" transform="translate(1396.83 729.237)" fill="none"/>
    </clipPath>
  </defs>
  <g id="组_1564" data-name="组 1564" transform="translate(-1396.83 -729.237)">
    <g id="组_1563" data-name="组 1563">
      <g id="组_1562" data-name="组 1562" clip-path="url(#clip-path)">
        <path id="路径_3569" data-name="路径 3569" d="M1410.743,729.236h40.083a14.041,14.041,0,0,1,14,14v40a14.041,14.041,0,0,1-14,14h-40a14.041,14.041,0,0,1-14-14V743.153a13.958,13.958,0,0,1,13.917-13.917Zm0,0" fill="#3ace01" fill-rule="evenodd"/>
      </g>
    </g>
    <path id="路径_3570" data-name="路径 3570" d="M1430.76,740.5c13.778,0,24.948,8.944,24.948,19.976a17.073,17.073,0,0,1-3.725,10.5,5.1,5.1,0,0,1-.462.578l-.014.015a21.683,21.683,0,0,1-2.713,2.707c-6.9,6.377-18.255,13.969-19.753,12.8-1.3-1.019,2.145-6-1.833-6.827-.278-.032-.555-.066-.829-.1h-.006c-11.686-1.66-20.56-9.834-20.56-19.669,0-11.032,11.169-19.976,24.947-19.976Zm0,0" fill="#fff" fill-rule="evenodd"/>
    <path id="路径_3571" data-name="路径 3571" d="M1416.286,766.849h5.031a1.305,1.305,0,0,0,1.3-1.3v-.108a1.3,1.3,0,0,0-1.3-1.3h-3.622V755.9a1.3,1.3,0,0,0-1.3-1.3h-.108a1.305,1.305,0,0,0-1.3,1.3v9.65a1.306,1.306,0,0,0,1.3,1.3Zm31.177-6.049v-.109a1.3,1.3,0,0,0-1.3-1.3h-3.622v-2.06h3.622a1.3,1.3,0,0,0,1.3-1.3v-.109a1.3,1.3,0,0,0-1.3-1.3h-5.031a1.3,1.3,0,0,0-1.3,1.3v9.65a1.305,1.305,0,0,0,1.3,1.3h5.031a1.305,1.305,0,0,0,1.3-1.3v-.108a1.3,1.3,0,0,0-1.3-1.3h-3.622V762.1h3.622a1.3,1.3,0,0,0,1.3-1.3Zm-9.676,5.661h0a1.3,1.3,0,0,0,.376-.913V755.9a1.306,1.306,0,0,0-1.3-1.3h-.109a1.305,1.305,0,0,0-1.3,1.3v5.664l-4.7-6.308a1.305,1.305,0,0,0-1.13-.658h-.108a1.305,1.305,0,0,0-1.3,1.3v9.649a1.305,1.305,0,0,0,1.3,1.3h.108a1.305,1.305,0,0,0,1.3-1.3v-5.77l4.737,6.469a1.223,1.223,0,0,0,.1.131h0a1.094,1.094,0,0,0,.506.374,1.29,1.29,0,0,0,.494.1h.108a1.29,1.29,0,0,0,.608-.152.918.918,0,0,0,.317-.236Zm-12.818.388h.109a1.305,1.305,0,0,0,1.3-1.3V755.9a1.3,1.3,0,0,0-1.3-1.3h-.109a1.306,1.306,0,0,0-1.3,1.3v9.65a1.306,1.306,0,0,0,1.3,1.3Zm0,0" fill="#3ace01" fill-rule="evenodd"/>
  </g>
</svg>
