<svg xmlns="http://www.w3.org/2000/svg" xmlns:xlink="http://www.w3.org/1999/xlink" width="20" height="20" viewBox="0 0 20 20">
  <defs>
    <linearGradient id="linear-gradient" x1="0.5" x2="0.5" y2="1" gradientUnits="objectBoundingBox">
      <stop offset="0" stop-color="#0ac2fd"/>
      <stop offset="1" stop-color="#008dfa"/>
    </linearGradient>
  </defs>
  <g id="Surge_For_Mac" data-name="Surge For Mac" transform="translate(-203 -1291)">
    <g id="组_2728" data-name="组 2728">
      <rect id="矩形_997" data-name="矩形 997" width="20" height="20" transform="translate(203 1291)" fill="#a4a6be" opacity="0"/>
      <rect id="矩形_2295" data-name="矩形 2295" width="19" height="19" rx="9.5" transform="translate(203.5 1291.5)" fill="url(#linear-gradient)"/>
    </g>
    <path id="联合_11" data-name="联合 11" d="M435.14,9.405V4.758a.647.647,0,1,1,1.294,0V9.405a.647.647,0,1,1-1.294,0Zm2.129-.91V1.589a.647.647,0,0,1,1.294,0V8.5a.647.647,0,1,1-1.294,0ZM433,7.726V6.438a.648.648,0,0,1,1.3,0V7.726a.648.648,0,0,1-1.3,0Zm6.475-2.432V.647a.648.648,0,0,1,1.3,0V5.294a.648.648,0,1,1-1.3,0Zm2.133-1.679V2.326a.648.648,0,0,1,1.3,0V3.614a.648.648,0,1,1-1.3,0Z" transform="translate(-225 1296)" fill="#fff" stroke="rgba(0,0,0,0)" stroke-miterlimit="10" stroke-width="1"/>
  </g>
</svg>
