<svg xmlns="http://www.w3.org/2000/svg" width="20" height="20" viewBox="0 0 20 20">
  <g id="LEDE" transform="translate(-197 -1446)">
    <rect id="矩形_994" data-name="矩形 994" width="20" height="20" transform="translate(197 1446)" fill="#a4a6be" opacity="0.001"/>
    <g id="组_2730" data-name="组 2730">
      <circle id="椭圆_345" data-name="椭圆 345" cx="9.5" cy="9.5" r="9.5" transform="translate(197.5 1446.5)" fill="#f57332"/>
      <g id="组_2729" data-name="组 2729" transform="translate(-28.25 733.687)" style="isolation: isolate">
        <path id="路径_4420" data-name="路径 4420" d="M233.05,726.862v-9.409a.14.14,0,0,1,.14-.14h1.652a.14.14,0,0,1,.14.14v7.667a.14.14,0,0,0,.141.141h3.535a.14.14,0,0,1,.141.14v1.462a.14.14,0,0,1-.141.14H233.19A.14.14,0,0,1,233.05,726.862Z" transform="translate(0)" fill="#fff"/>
      </g>
    </g>
  </g>
</svg>
