<svg xmlns="http://www.w3.org/2000/svg" width="24" height="24" viewBox="0 0 24 24">
  <g id="Linux" transform="translate(-728 -1024)">
    <rect id="矩形_2248" data-name="矩形 2248" width="24" height="24" transform="translate(728 1024)" fill="#cdd3e3" opacity="0.003"/>
    <path id="linux-2" data-name="linux" d="M98.055,20.333c-.131-.39-1.27-.88-1.629-1.664s-.065-1.2-.618-1.6a.646.646,0,0,0-.245-.105,6.015,6.015,0,0,0,.174-2.136,7.3,7.3,0,0,0-1.686-4.564,17.613,17.613,0,0,1-1.432-1.986A5.616,5.616,0,0,1,91.563,5.47a8.318,8.318,0,0,0-.652-3.736A3.464,3.464,0,0,0,86.805.171C84.6.781,84.547,2.634,84.45,4s.527,2.343,0,4.074-1.435,2.375-1.874,3.243c-1.085,2.15-1.315,2.34-1.791,3.448a2.322,2.322,0,0,0-.131,1.945l.023.06c-.188.347-.288.695-.51.789-.444.188-1.5-.1-1.857.262s.174,2.531-.065,2.933-.456.39-.456,1.042.717.588,3.519,1.532,3.323.683,3.975-.131a1.127,1.127,0,0,0,.216-.438c.857-.077,1.723-.145,2.227-.148a16.372,16.372,0,0,1,3.414.527,1.093,1.093,0,0,0,.464.615,2.77,2.77,0,0,0,2.77-.521,34.4,34.4,0,0,1,3.129-2.053c.262-.262.675-.459.547-.849ZM86.326,5.3c-.031-.37-.233-.652-.453-.635s-.373.334-.342.7a.9.9,0,0,0,.185.5l-.1.088A1.827,1.827,0,0,1,85.292,5c-.06-.7.215-1.256.5-1.279h.02c.276,0,.627.483.683,1.179a2.518,2.518,0,0,1,0,.419c-.054.023-.107.048-.159.074,0-.028,0-.063-.006-.1ZM85.923,5.681Zm-.071.062,0,0Zm-.068.063,0,0s0,0,0,0Zm-.273.241L85.559,6A.342.342,0,0,1,85.51,6.047ZM85.567,6l.052-.046C85.6,5.971,85.584,5.985,85.567,6Zm.467.671c.071-.06.14-.123.205-.182.3-.279.51-.45.783-.461.031,0,.063,0,.094,0a2.98,2.98,0,0,1,1.572.558l.162.1q-.249.224-.51.435a7.792,7.792,0,0,1-.962.692,4.864,4.864,0,0,1-.709-.424,6.867,6.867,0,0,1-.743-.581.589.589,0,0,1,.107-.131Zm2.733-.984c.014.009.031.017.046.027ZM88.816,4.6c-.273-.014-.532.279-.578.655a.7.7,0,0,0,0,.174c-.105-.043-.211-.077-.313-.107a1.784,1.784,0,0,1,.006-.387,1.693,1.693,0,0,1,.37-.891.8.8,0,0,1,.578-.319H88.9a.545.545,0,0,1,.393.215,1.392,1.392,0,0,1,.245,1.042,1.689,1.689,0,0,1-.37.891c-.009.009-.017.02-.027.029l-.027-.017c-.04-.027-.08-.048-.12-.071a.867.867,0,0,0,.231-.5c.04-.376-.142-.692-.416-.706Zm.113,1.173-.051-.028A.216.216,0,0,1,88.928,5.778Zm-.393-.211L88.5,5.55Zm-.111-.051L88.393,5.5l.031.014Zm-.672-.231s.006,0,.012,0a.021.021,0,0,0-.012,0Zm1.466.664c-.026-.014-.051-.031-.077-.046Zm.194.111-.048-.027Zm-.054-.029a.72.72,0,0,0-.065-.037c.023.011.046.026.065.037Zm-.068-.039c-.023-.014-.045-.029-.071-.043C89.246,5.964,89.268,5.978,89.29,5.992Zm.931,14.493a6.691,6.691,0,0,1-1.193.843,3.5,3.5,0,0,1-2.309.413,4.2,4.2,0,0,1-1.535-.595,3.247,3.247,0,0,0-.3-.483c-.2-.265-1.555-2.181-2.4-3.377a3.644,3.644,0,0,1-.065-.712,7.838,7.838,0,0,1,.726-3.422c.1-.117.809-2.144.977-2.574.31-.783.789-1.7,1.039-2.241a2.1,2.1,0,0,0,.174-.966,5.756,5.756,0,0,0,2.076,1.29h.009a8.107,8.107,0,0,0,2.415-1.8c.049.205.3.612.464,1.005a22.038,22.038,0,0,0,1.9,4.473,2.37,2.37,0,0,1,.236.47,9.388,9.388,0,0,1,.063,3.978,1.43,1.43,0,0,0-.345-.068.977.977,0,0,0-.814.2s-.034,1.35-.1,2.6c-.052.057-.105.114-.16.171-.307.307-.592.572-.86.8Z" transform="translate(651.915 1023.988)" fill="#3963ef"/>
  </g>
</svg>
