<svg xmlns="http://www.w3.org/2000/svg" xmlns:xlink="http://www.w3.org/1999/xlink" viewBox="0 0 349.03 94.25"><defs><style>.cls-1{fill:#242c45;}.cls-2{fill:#246efc;}.cls-3{fill:#0e1449;}.cls-4{fill:url(#未命名的渐变_16);}.cls-5{fill:url(#未命名的渐变_16-2);}.cls-6{fill:#1892fc;}.cls-7{fill:#304afb;}</style><linearGradient id="未命名的渐变_16" x1="-19.89" y1="-1715.58" x2="-19.89" y2="-1715.77" gradientTransform="matrix(272.17, 0, 0, -164.47, 5438.53, -282091.17)" gradientUnits="userSpaceOnUse"><stop offset="0" stop-color="#2525d0"/><stop offset="1" stop-color="#2a31e3"/></linearGradient><linearGradient id="未命名的渐变_16-2" x1="-20.7" y1="-1715.58" x2="-20.7" y2="-1715.77" gradientTransform="matrix(272.17, 0, 0, -164.47, 5710.68, -282091.17)" xlink:href="#未命名的渐变_16"/></defs><title>资源 5</title><g id="图层_2" data-name="图层 2"><g id="图层_1-2" data-name="图层 1"><path class="cls-1" d="M161,36.52q3.51,3.57,3.51,10.88V64.71a4,4,0,0,1-1.13,3,4.31,4.31,0,0,1-3.12,1.09,4.14,4.14,0,0,1-3-1.13,4,4,0,0,1-1.17-3V63.15a9.23,9.23,0,0,1-3.79,4.33,11.38,11.38,0,0,1-6,1.56A13.88,13.88,0,0,1,140,67.62a11.25,11.25,0,0,1-4.47-3.9,9.93,9.93,0,0,1-1.63-5.53,8.75,8.75,0,0,1,2-6c1.3-1.47,3.42-2.53,6.35-3.2a58.7,58.7,0,0,1,12.13-1h1.77V46.34c0-2.31-.49-4-1.49-5.07s-2.6-1.6-4.82-1.6a15,15,0,0,0-4.18.61q-2.13.6-5,1.73a7.05,7.05,0,0,1-2.7.93,2.66,2.66,0,0,1-2.09-.93A3.51,3.51,0,0,1,135,39.6a3.64,3.64,0,0,1,.6-2.09,5.67,5.67,0,0,1,2-1.67,23.15,23.15,0,0,1,5.92-2.12,30,30,0,0,1,6.78-.78Q157.51,32.94,161,36.52Zm-7.16,23.76a8.59,8.59,0,0,0,2.23-6.14V52.65h-1.27a49.36,49.36,0,0,0-7.38.43,7.14,7.14,0,0,0-3.76,1.49,3.78,3.78,0,0,0-1.13,2.91,4.82,4.82,0,0,0,1.59,3.72,5.65,5.65,0,0,0,3.94,1.46A7.6,7.6,0,0,0,153.86,60.28Z"/><path class="cls-1" d="M201.29,34.21a4,4,0,0,1,1.2,3V64.78a3.83,3.83,0,0,1-1.24,3A4.58,4.58,0,0,1,198,68.9,4.3,4.3,0,0,1,195,67.83a3.81,3.81,0,0,1-1.13-2.9V63.15a11.24,11.24,0,0,1-4.4,4.36A12.65,12.65,0,0,1,183.2,69q-12.76,0-12.77-14.33V37.26a4,4,0,0,1,1.21-3,4.49,4.49,0,0,1,3.19-1.13,4.58,4.58,0,0,1,3.26,1.13,4,4,0,0,1,1.21,3V54.78q0,3.69,1.49,5.46A5.78,5.78,0,0,0,185.47,62a7.63,7.63,0,0,0,5.92-2.45,9.26,9.26,0,0,0,2.24-6.49V37.26a4,4,0,0,1,1.2-3A4.49,4.49,0,0,1,198,33.08,4.63,4.63,0,0,1,201.29,34.21Z"/><path id="路径_7261" data-name="路径 7261" class="cls-2" d="M88,62.84H70.1A15.71,15.71,0,1,1,83.72,39.27l18.14,31.42A15.69,15.69,0,0,0,88,62.84Z"/><circle id="椭圆_399" data-name="椭圆 399" class="cls-3" cx="15.71" cy="78.54" r="15.71"/><circle id="椭圆_400" data-name="椭圆 400" class="cls-3" cx="88.26" cy="78.54" r="15.71"/><path id="路径_7254" data-name="路径 7254" class="cls-4" d="M38.25,70.93h0L29.31,86.41h0A15.7,15.7,0,1,1,15.71,62.84H52A15.65,15.65,0,0,0,38.25,70.93Z"/><path id="路径_7255" data-name="路径 7255" class="cls-5" d="M65.72,70.93h0l8.93,15.48h0A15.7,15.7,0,1,0,88.26,62.84H52A15.67,15.67,0,0,1,65.72,70.93Z"/><path id="路径_7256" data-name="路径 7256" class="cls-2" d="M16,62.84H33.86A15.71,15.71,0,1,0,20.24,39.27L2.1,70.69A15.7,15.7,0,0,1,16,62.84Z"/><path id="路径_7257" data-name="路径 7257" class="cls-6" d="M34.12,31.42H52A15.71,15.71,0,1,0,38.38,7.85L20.24,39.27A15.7,15.7,0,0,1,34.12,31.42Z"/><path id="路径_7258" data-name="路径 7258" class="cls-7" d="M47.58,54.74h0l8.94-15.48h0A15.71,15.71,0,1,1,70.12,62.84H33.85A15.68,15.68,0,0,0,47.58,54.74Z"/><path id="路径_7259" data-name="路径 7259" class="cls-2" d="M51.7,31.41H33.82A15.71,15.71,0,1,0,47.44,55L65.58,23.56A15.69,15.69,0,0,1,51.7,31.41Z"/><path id="路径_7260" data-name="路径 7260" class="cls-7" d="M65.44,23.8h0L56.51,39.28h0a15.7,15.7,0,1,0,27.21,0L65.58,7.86A15.67,15.67,0,0,1,65.44,23.8Z"/><path class="cls-1" d="M253.44,20.19a4.82,4.82,0,0,1,3.07,1.09A3.36,3.36,0,0,1,257.87,24a4.41,4.41,0,0,1-.41,1.7L238.59,66.32a4.41,4.41,0,0,1-1.87,2,5.4,5.4,0,0,1-5.39,0,4.41,4.41,0,0,1-1.87-2l-18.8-40.61a4.31,4.31,0,0,1-.41-1.63,3.41,3.41,0,0,1,1.4-2.8,5,5,0,0,1,3.16-1.09,4.23,4.23,0,0,1,2.15.58,3.84,3.84,0,0,1,1.53,1.74l15.67,34.81,15.67-34.81A3.73,3.73,0,0,1,253.44,20.19Z"/><path class="cls-1" d="M264.72,67.85a4.38,4.38,0,0,1-1.2-3.24V24.76a4.08,4.08,0,0,1,1.13-3.07,4.29,4.29,0,0,1,3.1-1.09h16.76q7.69,0,12,3.85t4.29,10.8q0,6.95-4.29,10.83t-12,3.88h-12.2V64.61A4.11,4.11,0,0,1,267.88,69,4.28,4.28,0,0,1,264.72,67.85Zm18.7-24.63q9.06,0,9.06-7.9t-9.06-7.91H272.31V43.22Z"/><path class="cls-1" d="M347.9,21.45A4.44,4.44,0,0,1,349,24.62v40a4.46,4.46,0,0,1-1.16,3.2,3.94,3.94,0,0,1-3,1.23,3.88,3.88,0,0,1-3.34-1.57L316.66,35.11v29.5a4.6,4.6,0,0,1-1.09,3.2,4.26,4.26,0,0,1-6,0,4.6,4.6,0,0,1-1.09-3.2v-40a4.33,4.33,0,0,1,1.16-3.17,4.08,4.08,0,0,1,3.06-1.19A3.81,3.81,0,0,1,316,21.83l24.8,32.22V24.62a4.48,4.48,0,0,1,1.12-3.17,3.91,3.91,0,0,1,3-1.19A4,4,0,0,1,347.9,21.45Z"/></g></g></svg>