<svg xmlns="http://www.w3.org/2000/svg" width="24" height="24" viewBox="0 0 24 24">
  <g id="macOS" transform="translate(-680 -976)">
    <rect id="矩形_2247" data-name="矩形 2247" width="24" height="24" transform="translate(680 976)" fill="#cdd3e3" opacity="0"/>
    <path id="联合_95" data-name="联合 95" d="M-354.525,875.662a.847.847,0,0,1-.846-.849.847.847,0,0,1,.846-.846h5.257a1.219,1.219,0,0,1-.018-.2V870.34h-8.119a1.9,1.9,0,0,1-1.893-1.91v-.939h22.286v.939a1.9,1.9,0,0,1-1.893,1.91h-8.123v3.426a1.219,1.219,0,0,1-.018.2h5.232a.848.848,0,0,1,.847.846.848.848,0,0,1-.847.849ZM-359.3,865.8v-9.639a1.868,1.868,0,0,1,1.868-1.869H-338.9a1.87,1.87,0,0,1,1.893,1.845V865.8Z" transform="translate(1040.156 123.426)" fill="#3963ef"/>
  </g>
</svg>
