<svg xmlns="http://www.w3.org/2000/svg" width="233.968" height="143.986" viewBox="0 0 233.968 143.986">
  <g id="组_2341" data-name="组 2341" transform="translate(-159.106 -6250.881)">
    <path id="路径_3867" data-name="路径 3867" d="M1632.358,4629.251l192.044-8.345,5.03-91.191-188.451,5.8Z" transform="translate(-1448.358 1753.616)" fill="rgba(2,14,62,0.03)"/>
    <path id="路径_3865" data-name="路径 3865" d="M258.238,236.467l-4.285,92.111a9.237,9.237,0,0,0,9.128,9.665l187.657,1.979a9.236,9.236,0,0,0,9.329-8.946l2.855-91.358a9.236,9.236,0,0,0-9.1-9.523L267.6,227.662A9.236,9.236,0,0,0,258.238,236.467Z" transform="translate(-94.335 6023.72)" fill="#fff" stroke="#e5e9ed" stroke-width="1"/>
    <g id="Page_1" data-name="Page 1" transform="translate(182 6286)">
      <path id="Fill_1" data-name="Fill 1" d="M0,11.172v1.195a1.2,1.2,0,0,0,1.612.8L21.6,9.081s1.827-.3,1.827-1.991V.818s-.215-1.195-1.29-.7L1.72,9.181A2.626,2.626,0,0,0,0,11.172" transform="translate(0 0)" fill="#bec2d0"/>
      <path id="Fill_3" data-name="Fill 3" d="M0,2.072V.878a1.2,1.2,0,0,1,1.612-.8L21.6,4.163s1.827.3,1.827,1.991v6.272s-.215,1.195-1.29.7L1.72,4.063A2.626,2.626,0,0,1,0,2.072" transform="translate(0 23.432)" fill="#bec2d0"/>
      <path id="Fill_5" data-name="Fill 5" d="M0,4.474V5.738A2.084,2.084,0,0,0,1.935,7.461l20.059,2.72s1.317.191,1.438-1.42V1.413S23.3-.2,21.789.02L2.059,2.724A2.01,2.01,0,0,0,0,4.474" transform="translate(0 13.244)" fill="#bec2d0"/>
      <path id="Fill_7" data-name="Fill 7" d="M0,1.225v6.6A2.048,2.048,0,0,0,1.524,9.741l16.447,2.47a1.154,1.154,0,0,0,1.386-1.205V7.41a2.217,2.217,0,0,0-1.445-1.956L1.682.1A1.172,1.172,0,0,0,0,1.225" transform="translate(24.451 0)" fill="#bec2d0"/>
      <path id="Fill_9" data-name="Fill 9" d="M0,1.651V8.618s.058,1.852,1.782,1.532L17.929,8.679s1.213.091,1.425-1.7V3.256A1.666,1.666,0,0,0,17.843,1.5L2.012.05A1.565,1.565,0,0,0,0,1.651" transform="translate(24.451 13.244)" fill="#bec2d0"/>
      <path id="Fill_11" data-name="Fill 11" d="M0,11V4.4A2.048,2.048,0,0,1,1.524,2.484L17.971.015A1.154,1.154,0,0,1,19.357,1.22v3.6a2.217,2.217,0,0,1-1.445,1.956L1.682,12.127A1.172,1.172,0,0,1,0,11" transform="translate(24.451 24.451)" fill="#bec2d0"/>
      <path id="Clip_14" data-name="Clip 14" d="M0,36.676H171.154V0H0Z" transform="translate(0 0)" fill="none"/>
      <g id="组_1566" data-name="组 1566" transform="translate(57.051 7.131)">
        <path id="Fill_13" data-name="Fill 13" d="M0,22.413H4.075V0H0Z" fill="#bec2d0"/>
        <path id="Fill_15" data-name="Fill 15" d="M7.83,16.3a15.1,15.1,0,0,1-2.772-.272,4.7,4.7,0,0,1-1.834-.783A7.746,7.746,0,0,1,.292,10.985,12.747,12.747,0,0,1,0,8.289a10.74,10.74,0,0,1,1.32-5.444A5.953,5.953,0,0,1,2.628,1.422,6.5,6.5,0,0,1,6.742,0,8.093,8.093,0,0,1,8.111.121a5.252,5.252,0,0,1,2.025.705,6,6,0,0,1,2.773,4.062,12.29,12.29,0,0,1,.281,3.5L4.155,9.752a4.707,4.707,0,0,0,.448,1.6,3.029,3.029,0,0,0,2.574,1.771c.009,0,.219.015.549.015a8.655,8.655,0,0,0,3.936-.826l1,2.788a8.68,8.68,0,0,1-4.828,1.2h0ZM6.535,2.719a1.964,1.964,0,0,0-.354.028A3.175,3.175,0,0,0,4.011,5.4a7.936,7.936,0,0,0-.137,2.144l5.233-.765A11.95,11.95,0,0,0,8.983,5.31C8.872,4.531,8.411,2.719,6.535,2.719Z" transform="translate(7.131 6.112)" fill="#bec2d0"/>
        <path id="Fill_16" data-name="Fill 16" d="M6.051,16.3h0c-1.2,0-4.12-.225-5.427-2.31a5.691,5.691,0,0,1,0-5.149A5.111,5.111,0,0,1,1.635,7.695,6.817,6.817,0,0,1,4.972,6.149a22.822,22.822,0,0,1,3.053-.478c.049,0,.093,0,.132,0V4.724a1.851,1.851,0,0,0-1.579-1.8A5.085,5.085,0,0,0,5.7,2.859a9.118,9.118,0,0,0-2.746.449l-1.135.473L.845,1.206A12.3,12.3,0,0,1,6.141,0,11.094,11.094,0,0,1,8.794.318a4.365,4.365,0,0,1,1.589.833,4.869,4.869,0,0,1,1.735,3.7l.1,10.239a10.413,10.413,0,0,1-5.014,1.206c-.18,0-.364,0-.545-.013C6.652,16.28,6.418,16.3,6.051,16.3ZM8.157,7.746a7.115,7.115,0,0,0-1.911.375A3.643,3.643,0,0,0,4.224,9.611a3.874,3.874,0,0,0,.222,3.315,2.693,2.693,0,0,0,2.077.844,4.736,4.736,0,0,0,1.634-.311V7.746Z" transform="translate(21.398 6.112)" fill="#bec2d0"/>
        <path id="Fill_17" data-name="Fill 17" d="M1.277,12.272,0,15.154a9.275,9.275,0,0,0,6.265,1.024,5.638,5.638,0,0,0,4.429-2.844,4.3,4.3,0,0,0-.2-4.436,5.883,5.883,0,0,0-2.873-2.01A4.71,4.71,0,0,1,5.267,5.152a1.605,1.605,0,0,1,1-2.094,4.118,4.118,0,0,1,2.793.455l.439.265,1.2-2.616A7.5,7.5,0,0,0,6.743.048,6.575,6.575,0,0,0,2.195,1.163,4.776,4.776,0,0,0,.678,6.547,6.024,6.024,0,0,0,3.95,9.163S6.3,9.884,6.185,11.4c0,0,.439,2.2-3.112,1.63a3.594,3.594,0,0,1-1.8-.758" transform="translate(36.676 6.113)" fill="#bec2d0"/>
        <path id="Fill_18" data-name="Fill 18" d="M7.83,16.3a15.1,15.1,0,0,1-2.772-.272,4.7,4.7,0,0,1-1.834-.783A7.746,7.746,0,0,1,.292,10.985,12.747,12.747,0,0,1,0,8.289a10.74,10.74,0,0,1,1.32-5.444A5.969,5.969,0,0,1,2.628,1.422,6.5,6.5,0,0,1,6.742,0,8.093,8.093,0,0,1,8.111.121a5.252,5.252,0,0,1,2.025.705,6,6,0,0,1,2.773,4.062,12.244,12.244,0,0,1,.28,3.5L4.155,9.752a4.707,4.707,0,0,0,.448,1.6,3.029,3.029,0,0,0,2.574,1.771c.009,0,.22.015.549.015a8.655,8.655,0,0,0,3.936-.826l1,2.788a8.68,8.68,0,0,1-4.828,1.2h0ZM6.535,2.719a1.976,1.976,0,0,0-.354.028A3.175,3.175,0,0,0,4.012,5.4a7.942,7.942,0,0,0-.136,2.144l5.233-.765A11.951,11.951,0,0,0,8.983,5.31C8.872,4.531,8.411,2.719,6.535,2.719Z" transform="translate(49.92 6.112)" fill="#bec2d0"/>
        <path id="Fill_19" data-name="Fill 19" d="M0,0,3.945,16.3H7.8A111.572,111.572,0,0,0,10.25,5.267a31.826,31.826,0,0,0,1.118,5.758L12.611,16.3h3.851L20.375,0H16.741S14.6,10.182,14.629,11.692c0,0-.559-3.546-.87-4.564L12.207,0H8.79L6.8,8.356a19.306,19.306,0,0,0-.59,3.371,32.474,32.474,0,0,0-.59-3.932L4.193,0Z" transform="translate(63.164 6.113)" fill="#bec2d0"/>
        <path id="Fill_20" data-name="Fill 20" d="M7.83,16.3a15.1,15.1,0,0,1-2.772-.272,4.7,4.7,0,0,1-1.834-.783A7.746,7.746,0,0,1,.292,10.985,12.747,12.747,0,0,1,0,8.289a10.74,10.74,0,0,1,1.32-5.444A5.953,5.953,0,0,1,2.628,1.422,6.5,6.5,0,0,1,6.742,0,8.093,8.093,0,0,1,8.111.121a5.252,5.252,0,0,1,2.025.705,6,6,0,0,1,2.773,4.062,12.29,12.29,0,0,1,.281,3.5L4.155,9.752a4.707,4.707,0,0,0,.448,1.6,3.029,3.029,0,0,0,2.574,1.771c.009,0,.219.015.549.015a8.655,8.655,0,0,0,3.936-.826l1,2.788a8.68,8.68,0,0,1-4.828,1.2h0ZM6.535,2.719a1.964,1.964,0,0,0-.354.028A3.175,3.175,0,0,0,4.011,5.4a7.936,7.936,0,0,0-.137,2.144l5.233-.765A11.95,11.95,0,0,0,8.983,5.31C8.872,4.531,8.411,2.719,6.535,2.719Z" transform="translate(84.558 6.112)" fill="#bec2d0"/>
        <path id="Fill_21" data-name="Fill 21" d="M5.059,22.413A10.084,10.084,0,0,1,0,21.251V0H4.418l.056,7.2a8.863,8.863,0,0,1,2.777-.489,5.6,5.6,0,0,1,3.24.959,4.1,4.1,0,0,1,1.006.959A8.777,8.777,0,0,1,13.225,13.5a9.758,9.758,0,0,1-.142,2.435,7.771,7.771,0,0,1-3.023,5.338,5.2,5.2,0,0,1-2.3.882A14.943,14.943,0,0,1,5.059,22.413Zm.9-13.177a4.239,4.239,0,0,0-1.544.3v9.94a4.122,4.122,0,0,0,1.338.229,2.544,2.544,0,0,0,2.23-1.143,5.1,5.1,0,0,0,.581-1.328,10.334,10.334,0,0,0,.326-3.985c0-.028-.129-2.81-1.529-3.713A3.043,3.043,0,0,0,5.962,9.235Z" transform="translate(100.858 0)" fill="#bec2d0"/>
      </g>
    </g>
  </g>
</svg>
