<svg xmlns="http://www.w3.org/2000/svg" width="208.354" height="134.335" viewBox="0 0 208.354 134.335">
  <g id="组_2342" data-name="组 2342" transform="translate(61.773 -6250.317)">
    <path id="路径_3866" data-name="路径 3866" d="M1434.226,4619.137l184.354,16.98-5.108-45.916-3.875-34.838-165.156-24.79Z" transform="translate(-1484 1736.535)" fill="rgba(2,14,62,0.03)"/>
    <path id="路径_3858" data-name="路径 3858" d="M63.742,233.327l6.32,87.565a9.1,9.1,0,0,0,9.213,8.288h145.37a9.054,9.054,0,0,0,9.223-9.362l-4.656-87.566a9.1,9.1,0,0,0-9.223-8.45H72.955A9.049,9.049,0,0,0,63.742,233.327Z" transform="translate(-123.719 6027.017)" fill="#fff" stroke="#e5e9ed" stroke-width="1"/>
    <g id="Page_1" data-name="Page 1" transform="translate(-35 6274.914)">
      <path id="Fill_1" data-name="Fill 1" d="M0,.848,2.873,0V15.468s-.237,3.148,1.371,3.269c0,0-.316,2.089-2.873,1.544,0,0-1.292-.333-1.371-2.815Z" transform="translate(50.931 15.293)" fill="#bec2d0"/>
      <path id="Fill_3" data-name="Fill 3" d="M2.122,4.244A2.122,2.122,0,1,0,0,2.122,2.122,2.122,0,0,0,2.122,4.244" transform="translate(59.419 15.293)" fill="#bec2d0"/>
      <path id="Fill_5" data-name="Fill 5" d="M0,3.062H1.482V15.279H4.244V0H0Z" transform="translate(58.57 20.386)" fill="#bec2d0"/>
      <path id="Fill_7" data-name="Fill 7" d="M0,15.279H3.413V4.434A3.726,3.726,0,0,1,6.8,2.869a2.641,2.641,0,0,1,2.52,2.644v9.766h3.412V5.405S12.915,1.214,8.978.153c0,0-4.121-.764-5.565,1.124L3.1,1.493,2.415.153H0Z" transform="translate(67.059 20.386)" fill="#bec2d0"/>
      <path id="Fill_9" data-name="Fill 9" d="M6.791,15.279C3.046,15.279,0,11.852,0,7.64S3.046,0,6.791,0s6.79,3.427,6.79,7.64S10.535,15.279,6.791,15.279Zm0-12.316C4.976,2.963,3.5,5.089,3.5,7.7S4.976,12.44,6.791,12.44s3.292-2.126,3.292-4.739S8.606,2.963,6.791,2.963Z" transform="translate(80.64 20.386)" fill="#bec2d0"/>
      <path id="Fill_11" data-name="Fill 11" d="M6.63,20.372h0l-.162,0a7.8,7.8,0,0,1-2.4-.459,5.5,5.5,0,0,1-3.4-3.181,7.429,7.429,0,0,1-.562-2A9.773,9.773,0,0,1,.664,9.8,9.026,9.026,0,0,1,1.856,8.114,6.754,6.754,0,0,1,5.321,5.932a12.744,12.744,0,0,1,2-.161,5.322,5.322,0,0,1,2.85.617V.852L13.58,0V20.108H10.2v-.821A5.321,5.321,0,0,1,6.63,20.372ZM7.613,8.448a5.624,5.624,0,0,0-.823.057,3.908,3.908,0,0,0-2.643,2.184,5.566,5.566,0,0,0-.516,1.692,5.128,5.128,0,0,0,.8,3.65,3.379,3.379,0,0,0,1.084,1,4.364,4.364,0,0,0,2.048.518,4.753,4.753,0,0,0,2.575-.792V9.339A3.325,3.325,0,0,0,7.613,8.448Z" transform="translate(96.77 15.293)" fill="#bec2d0"/>
      <path id="Fill_13" data-name="Fill 13" d="M7.606,15.279h0a11.441,11.441,0,0,1-3.993-.695,2.509,2.509,0,0,1-.958-.6A6.618,6.618,0,0,1,.4,10.572,7.855,7.855,0,0,1,.061,8.631,8.127,8.127,0,0,1,.99,3.691,6.406,6.406,0,0,1,2.3,2.017C3.592.262,5.884,0,7.136,0a7.326,7.326,0,0,1,.9.05h.113a4.864,4.864,0,0,1,3.493,1.675A7.589,7.589,0,0,1,12.832,3.4a7.043,7.043,0,0,1,.432,5.232H3.559a2.97,2.97,0,0,0,.869,2.579,4.43,4.43,0,0,0,1.134.853,7.54,7.54,0,0,0,1.909.265,4.727,4.727,0,0,0,2.472-.635,2.946,2.946,0,0,0,.766-.635l1.218,2.68C10.8,15.06,7.638,15.277,7.606,15.279ZM7,2.764a3.465,3.465,0,0,0-1.916.544,3.769,3.769,0,0,0-1.514,2.71H10.28a3.147,3.147,0,0,0-.257-1.369A3.335,3.335,0,0,0,7,2.764Z" transform="translate(112.898 20.386)" fill="#bec2d0"/>
      <g id="Group_17" data-name="Group 17" transform="translate(0 0.086)">
        <path id="Clip_16" data-name="Clip 16" d="M0,0H22.066V23.635H0Z" transform="translate(0 0)" fill="none"/>
        <g id="组_1565" data-name="组 1565" transform="translate(0 0)">
          <path id="Fill_15" data-name="Fill 15" d="M10.659,23.635h0L2.621,17.44,0,4,12.3,0l9.2,4.491.563,13.293L11.232,23.542l-.572.093ZM20.844,5.117h0L9.212,9.707l1.822,12.975,10.256-5.333L20.844,5.117ZM.743,4.788h0l2.5,12.192,7.006,5.42L8.436,9.611.743,4.788Z" transform="translate(0)" fill="#bec2d0"/>
        </g>
      </g>
      <path id="Fill_20" data-name="Fill 20" d="M8.567,16.977H8.1L1.6,10.1,0,2.08,1.975.879,2.21.716,7.284,5.484l.577.272L14.474.982l2.269,1.411.234,7.976L8.567,16.976Zm7.51-13.724-8.331,5.9L8.6,16.2l7.709-6.262ZM.9,3.253,2.229,9.743l5.514,5.746-.78-6.116Z" transform="translate(5.093 33.119)" fill="#bec2d0"/>
      <path id="Fill_22" data-name="Fill 22" d="M4.58,16.977H4L1.1,14.806l-.63-1.131L.432,12.8,1.1,13.816l2.65,2.241V9.717L.821,7.67l-.587.423L0,2.538.39,2.3,4.241,0l7.642,4.642-.41,7.321L4.58,16.977Zm6.5-11.468L4.58,9.888v6.17l6.132-4.379Z" transform="translate(22.07 23.782)" fill="#bec2d0"/>
      <path id="Fill_18" data-name="Fill 18" d="M9.864,19.524h0L9.242,19.4,2.116,12.644,0,2.248,2.964.784l4.49,3.3L15.37,0l3.807,2.652.346,10.468-9.659,6.4Zm8.66-16.276L8.59,9.107l1.178,9.935,9.168-6.375ZM.958,3.387l1.788,8.859,6.289,6.2L7.868,9.107Z" transform="translate(3.395 19.537)" fill="#bec2d0"/>
      <path id="Fill_24" data-name="Fill 24" d="M6.953,16.128h0l-2.4-1.492L4,14.067l.043-.778.488.418,2.079,1.421.52-6.437L.736,4.6.628,9.6v.476l.691.718-.328.175L0,9.945V4L6.325,0l7.256,4.108-.953,7.481L6.954,16.128ZM12.8,5.016l-4.96,3.5L7.278,15,12,11.28Z" transform="translate(28.861 17.84)" fill="#bec2d0"/>
    </g>
  </g>
</svg>
