<svg xmlns="http://www.w3.org/2000/svg" width="251.059" height="155.229" viewBox="0 0 251.059 155.229">
  <g id="组_2340" data-name="组 2340" transform="translate(-423.498 -6244.5)">
    <path id="路径_3868" data-name="路径 3868" d="M1826.261,4644.62l186.021-13.025,4.036-96.7H1828.261Z" transform="translate(-1353.761 1743.109)" fill="rgba(2,14,62,0.03)"/>
    <path id="路径_3864" data-name="路径 3864" d="M482.541,210.487l6.8,97.03c.278,3.975,4.252,7.1,9.1,7.149l206.5,2.221c5.248.057,9.5-3.485,9.354-7.794l-3.408-101.1c-.14-4.138-4.291-7.419-9.332-7.374l-209.889,1.85C486.392,202.513,482.239,206.165,482.541,210.487Z" transform="translate(-58.526 6044.384)" fill="#fff" stroke="#e5e9ed" stroke-width="1"/>
    <g id="Page_1" data-name="Page 1" transform="translate(461 6289)">
      <path id="Fill_1" data-name="Fill 1" d="M19.494,24.767a.236.236,0,0,0-.182-.17L9.857,22.675l-.028,0C7.205,22.48,7,20.658,6.988,20.513c0-.006,0-.011,0-.018L6.959,9.021c0-.007,0-.015,0-.022A2.458,2.458,0,0,1,8.988,6.667l9.544-1.979a.234.234,0,0,1,.05,0,1.15,1.15,0,0,0,1.154-1.125.228.228,0,0,1,.006-.036L20.574.292A.235.235,0,0,0,20.344,0H7.165C1.134.237.062,6.558,0,6.94a.253.253,0,0,0,0,.035V21.161c0,.006,0,.011,0,.017.5,7.979,7.563,7.979,7.563,7.979H20.342a.235.235,0,0,0,.23-.293Z" fill="#bec2d0"/>
      <path id="Fill_3" data-name="Fill 3" d="M20.581,7.979C20.079,0,13.019,0,13.019,0H.239a.235.235,0,0,0-.23.293l1.079,4.1a.237.237,0,0,0,.182.17l9.454,1.921.028,0c2.624.191,2.828,2.013,2.84,2.158,0,.006,0,.011,0,.018l.028,11.474c0,.008,0,.015,0,.022a2.458,2.458,0,0,1-2.028,2.332L2.049,24.469a.235.235,0,0,1-.05,0A1.15,1.15,0,0,0,.845,25.6a.229.229,0,0,1-.006.036L.007,28.866a.235.235,0,0,0,.23.292H13.417c6.032-.237,7.1-6.558,7.162-6.94a.212.212,0,0,0,0-.035V8c0-.005,0-.011,0-.017" transform="translate(27.442)" fill="#bec2d0"/>
      <path id="Clip_6" data-name="Clip 6" d="M0,30.015H156.936V0H0Z" fill="none"/>
      <g id="组_1677" data-name="组 1677">
        <path id="Fill_5" data-name="Fill 5" d="M0,.858H9.433V0H0Z" transform="translate(19.724 14.579)" fill="#bec2d0"/>
        <path id="Fill_7" data-name="Fill 7" d="M2.053,13.721h0L0,13.688l0-.019C.289,12.595,2.854,3.084,5.041,0h2.72l0,.005c.164.338,4.035,8.346,5.1,13.682H10.815l-.961-3.414H2.973l-.92,3.447ZM6.431,1.643c-.014.017-1.438,1.749-2.855,6.728H9.212A30.345,30.345,0,0,0,6.431,1.643Z" transform="translate(54.885 3.43)" fill="#bec2d0"/>
        <path id="Fill_8" data-name="Fill 8" d="M0,13.721H1.715V0H0Z" transform="translate(68.606 3.43)" fill="#bec2d0"/>
        <path id="Fill_9" data-name="Fill 9" d="M0,10.291H1.715V0H0Z" transform="translate(72.036 6.861)" fill="#bec2d0"/>
        <path id="Fill_10" data-name="Fill 10" d="M1.133,2.142A1.072,1.072,0,1,0,0,1.133,1.072,1.072,0,0,0,1.133,2.142" transform="translate(72.036 3.43)" fill="#bec2d0"/>
        <path id="Fill_11" data-name="Fill 11" d="M3.41,13.721a8.925,8.925,0,0,1-1.855-.207,3.4,3.4,0,0,0-.681-.058A7.108,7.108,0,0,0,0,13.515V0H1.555V3.678a8.665,8.665,0,0,1,2.336-.3,8.075,8.075,0,0,1,.816.037,2.5,2.5,0,0,1,1.924,1.5A2.961,2.961,0,0,1,6.86,6.069v4.368a3.412,3.412,0,0,1-.753,2.322A3.221,3.221,0,0,1,3.41,13.721Zm.262-8.581a4.729,4.729,0,0,0-2.117.327v6.251a10.726,10.726,0,0,0,1.8.182,3.343,3.343,0,0,0,1.23-.182c.007,0,.638-.026.688-1.172v-4.3a1.189,1.189,0,0,0-.249-.8.959.959,0,0,0-.714-.3S4.042,5.141,3.672,5.141Z" transform="translate(75.467 3.43)" fill="#bec2d0"/>
        <path id="Fill_12" data-name="Fill 12" d="M3.918,10.291a4.313,4.313,0,0,1-2.523-.6A2.706,2.706,0,0,1,.015,7.318a2.4,2.4,0,0,1,1.029-2.16c1.123-.991,3.3-1.041,3.72-1.041H4.82c.078,0,.157,0,.236,0a6.12,6.12,0,0,1,1.587.206v-1.7c-.094-.856-1.715-.9-2.039-.9H4.528c-.048,0-.1,0-.152,0a11.492,11.492,0,0,0-3.037.676c.117-.179-.083-.746-.085-.752C.984,1.434.918.6.918.6,1.346.517,2.76.182,2.774.179A6.9,6.9,0,0,1,4.377,0a7.928,7.928,0,0,1,1.7.179A3.131,3.131,0,0,1,8.346,1.612a1.807,1.807,0,0,1,.224.981v7.425l-2.014.034a8.583,8.583,0,0,0-1.875.236H4.107Zm-.578-1.8h0s.147,0,.382,0a13.509,13.509,0,0,0,2.9-.2V6.074A3.568,3.568,0,0,0,5.1,5.8a6.044,6.044,0,0,0-1.193.125c-.016,0-1.6.2-1.871.963a1.319,1.319,0,0,0,0,.916,1.276,1.276,0,0,0,1.272.693Z" transform="translate(84.042 6.003)" fill="#bec2d0"/>
        <path id="Fill_13" data-name="Fill 13" d="M3.41,13.721a8.925,8.925,0,0,1-1.855-.207,3.42,3.42,0,0,0-.681-.058A7.222,7.222,0,0,0,0,13.515V0H1.555V3.678a8.665,8.665,0,0,1,2.336-.3,8.075,8.075,0,0,1,.816.037,2.5,2.5,0,0,1,1.924,1.5A2.961,2.961,0,0,1,6.86,6.069v4.368a3.412,3.412,0,0,1-.753,2.322A3.221,3.221,0,0,1,3.41,13.721Zm.262-8.581a4.73,4.73,0,0,0-2.118.327V11.72A10.728,10.728,0,0,0,3.36,11.9a3.346,3.346,0,0,0,1.231-.182c.007,0,.636-.027.688-1.173v-4.3a1.189,1.189,0,0,0-.249-.8.959.959,0,0,0-.714-.3S4.043,5.141,3.673,5.141Z" transform="translate(94.333 3.43)" fill="#bec2d0"/>
        <path id="Fill_14" data-name="Fill 14" d="M3.918,10.291a4.318,4.318,0,0,1-2.523-.6A2.707,2.707,0,0,1,.015,7.318a2.4,2.4,0,0,1,1.029-2.16c1.122-.99,3.294-1.04,3.718-1.04h.057c.079,0,.16,0,.24,0a6.109,6.109,0,0,1,1.584.206v-1.7c-.094-.855-1.716-.9-2.04-.9H4.527c-.049,0-.1,0-.152,0a11.5,11.5,0,0,0-3.036.676c.117-.179-.083-.746-.085-.752C.983,1.434.918.6.918.6,1.346.517,2.76.182,2.774.179A6.9,6.9,0,0,1,4.377,0a7.925,7.925,0,0,1,1.7.179A3.132,3.132,0,0,1,8.346,1.612a1.807,1.807,0,0,1,.224.981v7.425l-2.015.034a8.57,8.57,0,0,0-1.874.236H4.107Zm-.578-1.8h0s.147,0,.382,0a13.515,13.515,0,0,0,2.9-.2V6.075A3.573,3.573,0,0,0,5.1,5.8a6.038,6.038,0,0,0-1.192.125c-.016,0-1.6.2-1.871.963a1.314,1.314,0,0,0,0,.916,1.275,1.275,0,0,0,1.271.693Z" transform="translate(102.909 6.003)" fill="#bec2d0"/>
        <path id="Fill_15" data-name="Fill 15" d="M0,13.721H1.715V0H0Z" transform="translate(127.779 3.43)" fill="#bec2d0"/>
        <path id="Fill_16" data-name="Fill 16" d="M9.433.837s-.278.3-.43,1.775a8.752,8.752,0,0,0-2.441-.67,9.5,9.5,0,0,0-2.454-.026s-1.847.1-2.226,1.2a.585.585,0,0,0-.111.342v7.7A1.211,1.211,0,0,0,2.648,12.3a2.507,2.507,0,0,0,1.247.319,18.21,18.21,0,0,0,3.136-.065s1.446-.1,1.835-.63a5.862,5.862,0,0,0,.567,1.96,12.983,12.983,0,0,1-3.7.683,9.167,9.167,0,0,1-3.594-.491S.109,13.028,0,11.482V3.188A3.235,3.235,0,0,1,1.947.565,8.019,8.019,0,0,1,4.667,0S8.332.082,9.433.837" transform="translate(117.488 3.43)" fill="#bec2d0"/>
        <path id="Fill_17" data-name="Fill 17" d="M4.081,10.291H2.78A2.95,2.95,0,0,1,0,7.2V3.09A2.951,2.951,0,0,1,2.78,0h1.3a2.951,2.951,0,0,1,2.78,3.09V7.2A2.95,2.95,0,0,1,4.081,10.291ZM2.651,1.782a1.144,1.144,0,0,0-1.078,1.2V7.314a1.144,1.144,0,0,0,1.078,1.2H4.144a1.144,1.144,0,0,0,1.078-1.2V2.98a1.144,1.144,0,0,0-1.078-1.2Z" transform="translate(131.209 6.003)" fill="#bec2d0"/>
        <path id="Fill_18" data-name="Fill 18" d="M0,0V7.864s.527,2.009,1.973,2.225a6.342,6.342,0,0,0,3.244,0,3.931,3.931,0,0,1,1.643-.022V0H5.2L5.139,8.339a6.753,6.753,0,0,0-1.353.118s-1.976.219-2.045-.783c0,0-.077-.353-.1-.552L1.644,0Z" transform="translate(141.5 6.003)" fill="#bec2d0"/>
        <path id="Fill_19" data-name="Fill 19" d="M3.3,13.721a3.343,3.343,0,0,1-2.318-.7A3.423,3.423,0,0,1,0,11.2v-5a3.463,3.463,0,0,1,.259-1.23,2.349,2.349,0,0,1,1.9-1.476A13.983,13.983,0,0,1,3.6,3.413a5.532,5.532,0,0,1,1.677.2L5.264,0h1.6V13.5a4.538,4.538,0,0,0-.878-.074,6.325,6.325,0,0,0-.718.042,5.5,5.5,0,0,1-1.678.251H3.523C3.514,13.717,3.431,13.721,3.3,13.721Zm.036-8.492c-.363,0-.635.015-.646.016a1.063,1.063,0,0,0-.827.314,1.041,1.041,0,0,0-.221.735v4.378a1.2,1.2,0,0,0,.3.887,2.252,2.252,0,0,0,1.547.433,7.885,7.885,0,0,0,1.7-.214V5.461A5.491,5.491,0,0,0,3.334,5.229Z" transform="translate(150.076 3.43)" fill="#bec2d0"/>
        <path id="Fill_20" data-name="Fill 20" d="M2,6A2.152,2.152,0,0,1,.56,5.525,1.521,1.521,0,0,1,0,4.326,1.475,1.475,0,0,1,.55,3.1,2.814,2.814,0,0,1,2,2.568l1.7-.191A.588.588,0,0,0,4.189,2.1a.771.771,0,0,0,.072-.367.76.76,0,0,0-.388-.71A2.286,2.286,0,0,0,2.764.805a1.5,1.5,0,0,0-1.182.4,1.252,1.252,0,0,0-.255.666h-1A1.6,1.6,0,0,1,1.092.412,3.414,3.414,0,0,1,2.788,0,3.8,3.8,0,0,1,4.605.381,1.271,1.271,0,0,1,5.3,1.568V4.838a.387.387,0,0,0,.069.239.353.353,0,0,0,.287.09c.045,0,.1,0,.16-.008s.122-.013.19-.024v.7a3.068,3.068,0,0,1-.379.08,2.989,2.989,0,0,1-.356.016.918.918,0,0,1-.8-.35,1.258,1.258,0,0,1-.184-.524,2.7,2.7,0,0,1-.936.662A3.2,3.2,0,0,1,2,6ZM4.231,2.928a1.949,1.949,0,0,1-.5.186,4.718,4.718,0,0,1-.6.106l-.645.074a2.726,2.726,0,0,0-.872.218.831.831,0,0,0-.5.792.756.756,0,0,0,.338.651,1.355,1.355,0,0,0,.8.238,2.682,2.682,0,0,0,1.09-.233A1.312,1.312,0,0,0,4.231,3.7Z" transform="translate(54.885 20.582)" fill="#bec2d0"/>
        <path id="Fill_21" data-name="Fill 21" d="M0,8.576H.858V0H0Z" transform="translate(61.745 18.867)" fill="#bec2d0"/>
        <path id="Fill_22" data-name="Fill 22" d="M.858,8.576H0V2.353H.858V8.575Zm0-7.385H0V0H.858V1.19Z" transform="translate(64.318 18.867)" fill="#bec2d0"/>
        <path id="Fill_23" data-name="Fill 23" d="M4.783,0H6Q5.77.586,4.967,2.671q-.6,1.568-1.006,2.557A16.716,16.716,0,0,1,2.614,8.065a1.6,1.6,0,0,1-1.348.511,2.851,2.851,0,0,1-.359-.017A2.991,2.991,0,0,1,.6,8.5V7.565a4.1,4.1,0,0,0,.416.091,1.8,1.8,0,0,0,.226.017.842.842,0,0,0,.45-.094.9.9,0,0,0,.242-.23q.03-.045.22-.465t.275-.624L0,0H1.251l1.76,4.955Z" transform="translate(66.891 21.439)" fill="#bec2d0"/>
        <path id="Fill_24" data-name="Fill 24" d="M1.115,0V3.88a1.53,1.53,0,0,0,.153.731,1.092,1.092,0,0,0,1.056.524,1.5,1.5,0,0,0,1.511-.917A3.391,3.391,0,0,0,4.054,2.87V0H5.145V5.845H4.115l.012-.862a2.039,2.039,0,0,1-.518.562A2.411,2.411,0,0,1,2.123,6,1.972,1.972,0,0,1,.268,5.168,2.315,2.315,0,0,1,0,3.973V0Z" transform="translate(72.894 21.439)" fill="#bec2d0"/>
        <path id="Fill_25" data-name="Fill 25" d="M0,.132H1.008V.965a2.786,2.786,0,0,1,.949-.74A2.691,2.691,0,0,1,3.071,0,1.873,1.873,0,0,1,4.886.872a2.906,2.906,0,0,1,.26,1.365V6H4.067V2.3A1.882,1.882,0,0,0,3.9,1.437,1.05,1.05,0,0,0,2.87.888a2.244,2.244,0,0,0-.619.071,1.61,1.61,0,0,0-.766.483,1.427,1.427,0,0,0-.345.6,3.762,3.762,0,0,0-.08.885V6H0Z" transform="translate(79.754 20.582)" fill="#bec2d0"/>
        <path id="Fill_26" data-name="Fill 26" d="M0,.858H.858V0H0Z" transform="translate(87.473 25.727)" fill="#bec2d0"/>
        <path id="Fill_27" data-name="Fill 27" d="M4.379.466a2.186,2.186,0,0,1,.766,1.605H4.164a1.671,1.671,0,0,0-.41-.872A1.337,1.337,0,0,0,2.727.853a1.421,1.421,0,0,0-1.381.889,3.361,3.361,0,0,0-.269,1.424A2.562,2.562,0,0,0,1.459,4.6a1.333,1.333,0,0,0,1.2.582,1.358,1.358,0,0,0,1-.362,1.945,1.945,0,0,0,.508-.99h.982A2.441,2.441,0,0,1,4.3,5.481,2.731,2.731,0,0,1,2.581,6,2.356,2.356,0,0,1,.7,5.19,3,3,0,0,1,0,3.158,3.3,3.3,0,0,1,.769.832,2.549,2.549,0,0,1,2.727,0,2.729,2.729,0,0,1,4.379.466" transform="translate(89.188 20.582)" fill="#bec2d0"/>
        <path id="Fill_28" data-name="Fill 28" d="M2.893,6A2.857,2.857,0,0,1,.782,5.217,2.876,2.876,0,0,1,0,3.1,3.11,3.11,0,0,1,.824.842,2.97,2.97,0,0,1,3.038,0a3.169,3.169,0,0,1,2.1.726A2.65,2.65,0,0,1,6,2.862a3.365,3.365,0,0,1-.758,2.252A2.933,2.933,0,0,1,2.893,6ZM3.007.826a1.62,1.62,0,0,0-1.438.663,2.8,2.8,0,0,0-.449,1.6,2.44,2.44,0,0,0,.449,1.5A1.673,1.673,0,0,0,3,5.187a1.541,1.541,0,0,0,1.47-.713,3.215,3.215,0,0,0,.4-1.586A2.551,2.551,0,0,0,4.577,1.6,1.675,1.675,0,0,0,3.007.826Z" transform="translate(95.191 20.582)" fill="#bec2d0"/>
        <path id="Fill_29" data-name="Fill 29" d="M0,.132H1.059V.965A3.455,3.455,0,0,1,1.75.334,2.206,2.206,0,0,1,2.952,0,2,2,0,0,1,4.178.346a1.83,1.83,0,0,1,.476.581,2.263,2.263,0,0,1,.839-.7A2.506,2.506,0,0,1,6.576,0a1.809,1.809,0,0,1,1.75.855,2.6,2.6,0,0,1,.25,1.239V6H7.463V1.925a.912.912,0,0,0-.319-.806A1.337,1.337,0,0,0,6.368.9a1.618,1.618,0,0,0-1.086.389,1.629,1.629,0,0,0-.455,1.3V6H3.737V2.171A1.855,1.855,0,0,0,3.583,1.3a.969.969,0,0,0-.91-.411,1.64,1.64,0,0,0-1.1.433,2.014,2.014,0,0,0-.5,1.568V6H0Z" transform="translate(102.909 20.582)" fill="#bec2d0"/>
      </g>
    </g>
  </g>
</svg>
