<svg xmlns="http://www.w3.org/2000/svg" xmlns:xlink="http://www.w3.org/1999/xlink" width="217.628" height="142.565" viewBox="0 0 217.628 142.565">
  <defs>
    <clipPath id="clip-path">
      <path id="Clip_6" data-name="Clip 6" d="M0,0H22.888V27.975H0Z" fill="#bec2d0"/>
    </clipPath>
    <clipPath id="clip-path-2">
      <path id="Clip_9" data-name="Clip 9" d="M0,0H18.8V26.993H0Z" fill="#bec2d0"/>
    </clipPath>
    <clipPath id="clip-path-3">
      <path id="Clip_14" data-name="Clip 14" d="M0,0H21.249V26.949H0Z" fill="#bec2d0"/>
    </clipPath>
  </defs>
  <g id="组_2344" data-name="组 2344" transform="translate(-1294.372 -6244.586)">
    <g id="组_2337" data-name="组 2337">
      <path id="路径_3871" data-name="路径 3871" d="M2551.849,4515.495l2.465,91.721,181.349,12.435-1.738-104.156Z" transform="translate(-1235.664 1755.5)" fill="rgba(2,14,62,0.03)"/>
      <path id="路径_3861" data-name="路径 3861" d="M1237.308,227.994l2.556,87.225a9.086,9.086,0,0,0,9.232,8.654h169.137a9.048,9.048,0,0,0,9.214-9.515l-6.061-85.217a9.1,9.1,0,0,0-9.1-8.3l-165.633-2.008A9.068,9.068,0,0,0,1237.308,227.994Z" transform="translate(57.568 6026.249)" fill="#fff" stroke="#e5e9ed" stroke-width="1"/>
    </g>
    <g id="组_2343" data-name="组 2343">
      <g id="Page_1" data-name="Page 1" transform="translate(1324 6288.995)">
        <path id="Fill_1" data-name="Fill 1" d="M9.564,1.741A1.93,1.93,0,0,0,7.653,0H1.921a1.929,1.929,0,0,0,0,3.858h4.36l4.491,10.968h4.054Z" fill="#bec2d0"/>
        <path id="Fill_3" data-name="Fill 3" d="M18.659.132a1.808,1.808,0,0,0-2.338.959L6.76,24.344,3.755,17.03H0l3.923,9.376.013,0A3.019,3.019,0,0,0,6.765,28,2.986,2.986,0,0,0,9.63,26.32l.011,0L19.634,2.429a1.755,1.755,0,0,0-.975-2.3" transform="translate(11.583 0)" fill="#bec2d0"/>
        <g id="Group_7" data-name="Group 7" transform="translate(36.294 0.03)">
          <path id="Clip_6-2" data-name="Clip 6" d="M0,0H22.888V27.975H0Z" transform="translate(0)" fill="none"/>
          <g id="Group_7-2" data-name="Group 7" transform="translate(0)" clip-path="url(#clip-path)">
            <path id="Fill_5" data-name="Fill 5" d="M21.108,0a1.769,1.769,0,0,0-1.78,1.746v16.24a7.33,7.33,0,0,1-1.762,4.272,8.747,8.747,0,0,1-5.808,2.473,9.3,9.3,0,0,1-5.426-1.6,7.025,7.025,0,0,1-2.445-3.5A19.041,19.041,0,0,1,3.561,15.8V1.746A1.769,1.769,0,0,0,1.781,0,1.769,1.769,0,0,0,0,1.746v16.64s.193,4.047,2.613,6.071c0,0,3.031,3.061,6.6,3.4,0,0,4.636.593,7.463-.931a10.644,10.644,0,0,0,5.222-4.8,10.364,10.364,0,0,0,.993-4.583V15.8h0V1.746A1.769,1.769,0,0,0,21.108,0" transform="translate(0 0)" fill="#bec2d0"/>
          </g>
        </g>
        <g id="Group_10" data-name="Group 10" transform="translate(68.448 0.029)">
          <path id="Clip_9-2" data-name="Clip 9" d="M0,0H18.8V26.993H0Z" transform="translate(0)" fill="none"/>
          <g id="Group_10-2" data-name="Group 10" transform="translate(0)" clip-path="url(#clip-path-2)">
            <path id="Fill_8" data-name="Fill 8" d="M16.972,23.514H3.632V1.717A1.774,1.774,0,0,0,1.816,0,1.774,1.774,0,0,0,0,1.717V25.276a1.774,1.774,0,0,0,1.816,1.717,1.915,1.915,0,0,0,.227-.015,1.922,1.922,0,0,0,.227.015h14.7A1.786,1.786,0,0,0,18.8,25.265v-.022a1.785,1.785,0,0,0-1.828-1.728" transform="translate(0 0)" fill="#bec2d0"/>
          </g>
        </g>
        <path id="Fill_11" data-name="Fill 11" d="M21.372,0H1.691A1.676,1.676,0,0,0,0,1.65,1.676,1.676,0,0,0,1.691,3.3h8V25.386a1.841,1.841,0,0,0,3.682,0V3.3h8a1.676,1.676,0,0,0,1.691-1.65A1.676,1.676,0,0,0,21.372,0" transform="translate(89.008 0.824)" fill="#bec2d0"/>
        <g id="Group_15" data-name="Group 15" transform="translate(117.866 0.071)">
          <path id="Clip_14-2" data-name="Clip 14" d="M0,0H21.249V26.949H0Z" transform="translate(0)" fill="none"/>
          <g id="Group_15-2" data-name="Group 15" transform="translate(0)" clip-path="url(#clip-path-3)">
            <path id="Fill_13" data-name="Fill 13" d="M1.8,26.949A1.792,1.792,0,0,1,0,25.164V1.827a1.63,1.63,0,0,1,.01-.186A1.623,1.623,0,0,1,.493.481,1.643,1.643,0,0,1,1.66,0H12.324a1.674,1.674,0,0,1,.2.013c.851.065,5.181.5,6.837,2.671a5.483,5.483,0,0,1,.94,1.292,8.014,8.014,0,0,1,.94,3.857A6.14,6.14,0,0,1,20.978,9.9a7.349,7.349,0,0,1-2.844,3.926,9.551,9.551,0,0,1-1.8.864h0a4.664,4.664,0,0,1,1.983,1.02,8.266,8.266,0,0,1,2.519,5.368,29.314,29.314,0,0,1,.228,4.282A1.913,1.913,0,0,1,19.812,26.9a2.952,2.952,0,0,1-.492.04,1.747,1.747,0,0,1-.968-.243,1.663,1.663,0,0,1-.8-1.479V22.951c0-.033-.156-3.3-.9-3.916a5.6,5.6,0,0,0-3.655-2.641h-9.4v8.77A1.792,1.792,0,0,1,1.8,26.949Zm1.8-23.671v9.708h8.464c.035-.005,3.526-.52,4.455-1.8a4.622,4.622,0,0,0,.837-1.272,4.779,4.779,0,0,0,.229-3.359,3.881,3.881,0,0,0-2.291-2.546A11.112,11.112,0,0,0,11.5,3.278Z" transform="translate(0 0)" fill="#bec2d0"/>
          </g>
        </g>
      </g>
    </g>
  </g>
</svg>
