<svg xmlns="http://www.w3.org/2000/svg" width="213.15" height="120.512" viewBox="0 0 213.15 120.512">
  <g id="组_2338" data-name="组 2338" transform="translate(-1522.942 -6254.496)">
    <path id="路径_3872" data-name="路径 3872" d="M2790.942,4531.5l8.12,86.566,148.621,9.946-10.636-96.512Z" transform="translate(-1256 1735)" fill="rgba(2,14,62,0.03)"/>
    <path id="路径_3862" data-name="路径 3862" d="M1441.736,287.6l-2.052-69.5c-.116-3.96,3.96-7.236,9.085-7.3l185.719-2.315c5.066-.063,9.251,3.039,9.381,6.953l2.4,71.819c.134,4.013-4.038,7.322-9.234,7.322H1450.969C1445.951,294.576,1441.85,291.478,1441.736,287.6Z" transform="translate(89.318 6046.52)" fill="#fff" stroke="#e5e9ed" stroke-width="1"/>
    <path id="Combined_Shape" data-name="Combined Shape" d="M20.956,33.964,28.6,19.285c-1.056-.434-4.409.3-4.409.3-.761-1.139-3.8-2.583-3.8-2.583,1.833-.718,7.343-.752,7.343-.752-3.775-1.364-8.952.181-8.952.181a28,28,0,0,0-6.154-1.122c2.781-2.67,9.306-2.724,9.306-2.724C17.594,11.469,0,16.435,0,16.435a35.706,35.706,0,0,1,3.636-3.364A28.509,28.509,0,0,1,18.27,6.731c8.337-.565,13.25,2.165,14.344,2.853l.01-.018c-3.854-2.333-9.612-5.118-9.612-5.118C20.931,2.861,11.547,1.878,11.547,1.878,15.634-.465,21.536.047,21.536.047A24.53,24.53,0,0,1,34.515,6.025l.231-.432C37.3.655,41.231.337,46.081,2.906c-3.8,1.649-4.023,5.306-4.822,8.716A16.343,16.343,0,0,1,35.85,20.48c-.18.155-.357.315-.535.473-.053.065-.1.131-.157.2C31.129,25.674,22.28,33.19,22.28,33.19c-.619.7-1.046.786-1.226.786A.32.32,0,0,1,20.956,33.964Zm59.52-1.144V17.006H74.6l.8-2.659H90.09l-1.183,2.659H84.215V32.821Zm17.05,0V17.006H91.652l.8-2.659h14.689l-1.183,2.659h-4.69V32.82Zm-32.278,0-5.9-15.832s-.834-1.794-1.907-2.058L56.5,14.9v-.55h4.616a1.3,1.3,0,0,1,1.2.81l3.952,10.323a.191.191,0,0,0,.331,0L67.678,22.5,70.3,14.347h2.786a5.191,5.191,0,0,1-.433,1.82l-3.227,8.811L66.648,32.82Zm-9.965,0-5.9-15.832s-.834-1.794-1.907-2.058l-.938-.032v-.55h4.616a1.3,1.3,0,0,1,1.2.81L56.3,25.481a.192.192,0,0,0,.331,0l1.91-5.286a3.719,3.719,0,0,1,1.308,2.381,6.01,6.01,0,0,1-.252,2.013L56.684,32.82Z" transform="translate(1578 6281)" fill="#bec2d0"/>
  </g>
</svg>
