<svg xmlns="http://www.w3.org/2000/svg" width="229.552" height="140.98" viewBox="0 0 229.552 140.98">
  <g id="组_2339" data-name="组 2339" transform="translate(-1749.297 -6249.5)">
    <path id="路径_3873" data-name="路径 3873" d="M3000.3,4620.48l149.253-18.41v-74.745l-145.229,6.8Z" transform="translate(-1239 1758)" fill="rgba(2,14,62,0.03)"/>
    <path id="路径_3863" data-name="路径 3863" d="M1669.967,212.386l-11.5,87.574a9.028,9.028,0,0,0,9.163,10.026h167.955a9.124,9.124,0,0,0,9.17-7.845l10.91-87.574a9.03,9.03,0,0,0-9.17-9.969H1679.13A9.128,9.128,0,0,0,1669.967,212.386Z" transform="translate(122.606 6045.402)" fill="#fff" stroke="#e5e9ed" stroke-width="1"/>
    <path id="Combined_Shape" data-name="Combined Shape" d="M21.362,36.009c-1.253,0-1.631-.369-1.632-1.613q0-5.9,0-11.795c0-1.4-.342-1.754-1.72-1.756q-4.036,0-8.072,0c-1.143,0-1.55.408-1.551,1.549q0,6.008,0,12.017c0,1.209-.377,1.593-1.571,1.6q-2.605.006-5.211,0c-1.221,0-1.589-.364-1.589-1.564Q.012,18.006,0,1.567c0-.068,0-.133.01-.2A1.265,1.265,0,0,1,0,1.224,1.218,1.218,0,0,1,1.1.01V0H7.54a1.217,1.217,0,0,1,1.194,1.22c0,.008,0,.017,0,.025,0,.088.006.183.006.29.02,2.847,0,5.694.008,8.54,0,.295-.009.59.012.884.067.947.428,1.321,1.383,1.349.882.026,1.765.021,2.648.016.388,0,.776,0,1.163,0q1.687,0,3.371,0c1.77,0,2-.23,2-1.979q0-3.939,0-7.878c0-.319,0-.638.01-.957,0-.1.011-.2.019-.29h0A1.218,1.218,0,0,1,20.574,0c.022,0,.044,0,.066,0H26.9a1.216,1.216,0,0,1,1.182,1.156l0,0v.065c0,.193,0,.437,0,.547q0,16.006,0,32.011c0,.2-.018.393-.027.589.075,1.213-.3,1.629-1.484,1.634q-1.176,0-2.352,0Q22.791,36.013,21.362,36.009Zm53.834,0c-.723,0-1.263-.243-1.359-1.046-.01-.54-.027-1.08-.028-1.62q0-11.837,0-23.673c0-.319.017-.639.027-.957-.219-1.119-.508-1.367-1.638-1.368q-3.063,0-6.126,0H61.988a5.535,5.535,0,0,1-.67-.014c-.671-.081-.838-.427-.4-.933,1.655-1.9,3.323-3.782,5.022-5.64A5.4,5.4,0,0,1,67.109,0H95.3a.919.919,0,0,1-.233,1.062C93.5,2.811,91.962,4.577,90.407,6.33A3.045,3.045,0,0,1,88.02,7.343q-.9,0-1.793,0c-.843,0-1.686,0-2.528,0-.993.006-1.4.392-1.46,1.366-.016.245-.008.491-.008.737q0,12.417,0,24.835c0,1.426-.3,1.724-1.745,1.726H78.55ZM51.761,34.575c-2.49-3.9-5.008-7.79-7.518-11.681-.625-.968-1.062-1-1.845-.182a6.176,6.176,0,0,0-1.811,2.749.5.5,0,0,0-.014.119l-.026,9.341c-.081.761-.574,1.04-1.28,1.043-1.891,0-3.781.011-5.672,0A1.22,1.22,0,0,1,32.242,34.7a6.563,6.563,0,0,1-.014-.662q0-15.8-.006-31.607V1.12h0A1.226,1.226,0,0,1,33.4.006V0h6.434V.01a1.226,1.226,0,0,1,1.1,1.205h0V11.569a.48.48,0,0,0,.013.112c.029.126.058.251.088.376.3.25.45-.017.6-.192Q44.19,8.9,46.727,5.932q2.231-2.6,4.463-5.2A2.435,2.435,0,0,1,52.76.01.574.574,0,0,1,52.842,0h8.513a.5.5,0,0,1,.463.7,2.223,2.223,0,0,1-.343.461q-5.4,6.1-10.787,12.207c-.164.185-.328.369-.49.555a1.678,1.678,0,0,0-.18,2.505q5.77,8.81,11.545,17.618c.176.268.359.532.524.806.435.731.227,1.088-.651,1.108-.6.014-1.193,0-1.79,0-1.766,0-3.533-.033-5.3.011h-.1A2.739,2.739,0,0,1,51.761,34.575Zm-11.215.346c-.015-.058-.035-.116-.054-.174A.415.415,0,0,0,40.546,34.922Z" transform="translate(1832 6285)" fill="#bec2d0"/>
  </g>
</svg>
