<svg xmlns="http://www.w3.org/2000/svg" xmlns:xlink="http://www.w3.org/1999/xlink" width="240.714" height="151.282" viewBox="0 0 240.714 151.282">
  <defs>
    <clipPath id="clip-path">
      <path id="Clip_2" data-name="Clip 2" d="M0,0H14.362V15.931H0Z" fill="#bec2d0"/>
    </clipPath>
    <clipPath id="clip-path-2">
      <path id="Clip_9" data-name="Clip 9" d="M0,0H47.93V11.2H0Z" fill="#bec2d0"/>
    </clipPath>
  </defs>
  <g id="组_2345" data-name="组 2345" transform="translate(-1003.5 -6235.5)">
    <g id="组_2336" data-name="组 2336">
      <path id="路径_3870" data-name="路径 3870" d="M2309.9,4611.422l183.847,3.36,2.239-111.181H2309.9Z" transform="translate(-1278 1760)" fill="rgba(2,14,62,0.03)"/>
      <path id="路径_3860" data-name="路径 3860" d="M985.763,200.1v98.86c0,4.175,4.135,7.558,9.236,7.558H1216.24c5.2,0,9.368-3.5,9.234-7.752l-3.072-97.384c-.128-4.072-4.178-7.328-9.156-7.362l-218.17-1.478C989.945,192.51,985.763,195.9,985.763,200.1Z" transform="translate(18.237 6043.455)" fill="#fff" stroke="#e5e9ed" stroke-width="1"/>
    </g>
    <g id="Page_1" data-name="Page 1" transform="translate(1067 6277)">
      <g id="Group_3" data-name="Group 3" transform="translate(1.621 0.049)">
        <path id="Clip_2-2" data-name="Clip 2" d="M0,0H14.362V15.931H0Z" transform="translate(0)" fill="none"/>
        <g id="Group_3-2" data-name="Group 3" transform="translate(0)" clip-path="url(#clip-path)">
          <path id="Fill_1" data-name="Fill 1" d="M4.97,15.932a5.678,5.678,0,0,1-3.2-.839A5.254,5.254,0,0,1,0,12.015c0-.023-.074-2.32.915-3.4a6.193,6.193,0,0,1,4.1-1.962c.019,0,.48-.018,1.128-.018,1.264,0,3.5.069,4.289.53l.02-2.154A2.821,2.821,0,0,0,8.579,2.524a7.68,7.68,0,0,0-2.212-.3,8.084,8.084,0,0,0-2.214.3c-.01,0-1.05.375-1.579.607a2.5,2.5,0,0,1-1.009.32.516.516,0,0,1-.529-.32A2.546,2.546,0,0,1,1.17,1.5,8.144,8.144,0,0,1,4.536.241,14.734,14.734,0,0,1,7.189,0a9.863,9.863,0,0,1,2.973.407A5.392,5.392,0,0,1,13.235,3.3a26.154,26.154,0,0,1,.226,4.378l.005,4.481v.658l.738.965a.635.635,0,0,1,.122.593l-1.784,1.185a.42.42,0,0,1-.142.022.7.7,0,0,1-.544-.3L10.567,13.6l0,.005c-.186.193-1.853,1.89-3.108,2.046a6.984,6.984,0,0,1-2.293.279S5.09,15.932,4.97,15.932ZM6.511,8.477a3.613,3.613,0,0,0-3.048,1.595c-.93,1.269.22,2.894.232,2.91a3.267,3.267,0,0,0,2.365.882,4.391,4.391,0,0,0,.964-.1,4.136,4.136,0,0,0,2.862-1.574,2.981,2.981,0,0,0,.539-1.217V8.961c-.7-.419-3.634-.476-3.664-.476C6.677,8.48,6.593,8.477,6.511,8.477Z" transform="translate(0 0)" fill="#bec2d0"/>
        </g>
      </g>
      <path id="Fill_4" data-name="Fill 4" d="M4.135,15.035s.182.871.908.965H6.881s.613.047.749-.965L10.173,3.946a.264.264,0,0,1,.45,0l2.393,11.288a1.036,1.036,0,0,0,.63.677,9.533,9.533,0,0,0,2.209-.023s.3-.008.565-.7L20.709.932s.314-.73-.214-.813a5.918,5.918,0,0,0-2.2,0s-.31-.107-.539.964L15,12.456s-.238.448-.462-.015L11.969.707S11.854.19,11.554.148A4.7,4.7,0,0,0,9.191.165s-.349.068-.509.969L6.206,12.165s-.3.456-.509.012L2.942.6A.529.529,0,0,0,2.374.151,3.832,3.832,0,0,0,.271.19.621.621,0,0,0,.026.932Z" transform="translate(16.801 0)" fill="#bec2d0"/>
      <path id="Fill_6" data-name="Fill 6" d="M.732,14.95a8.457,8.457,0,0,0,3.636,1.013s3,.214,4.264-.371c0,0,2.89-1.326,3.276-3.21a4.222,4.222,0,0,0-.551-3.132A5.934,5.934,0,0,0,7.228,6.936s-2.687-.5-3.313-1.312c0,0-1.136-1.224-.563-1.942A2.448,2.448,0,0,1,5.682,2.223s2.973-.319,4.624.8c0,0,.4.273.692.159a2.332,2.332,0,0,0-.065-1.939A8.147,8.147,0,0,0,6.5.009S3.1-.213,1.792,1.516c0,0-1.674,1.519-1.569,3.05A4.563,4.563,0,0,0,2.838,8.183S5.61,9.258,7.428,9.752c0,0,1.648.531,1.687,1.827,0,0,.157,1.679-2.459,2.223a5.793,5.793,0,0,1-2.341,0A12.671,12.671,0,0,1,.536,12.629s-.523-.1-.51.963A1.2,1.2,0,0,0,.732,14.95" transform="translate(38.402 0)" fill="#bec2d0"/>
      <g id="Group_10" data-name="Group 10" transform="translate(0 20.802)">
        <path id="Clip_9-2" data-name="Clip 9" d="M0,0H47.93V11.2H0Z" transform="translate(0 0)" fill="none"/>
        <g id="Group_10-2" data-name="Group 10" transform="translate(0 0)" clip-path="url(#clip-path-2)">
          <path id="Fill_8" data-name="Fill 8" d="M44.776,3.838a52.95,52.95,0,0,1-14.221,3.32S19.1,8.083,11.177,4.8c0,0-6.261-1.947-10.057-4.623a.848.848,0,0,0-1.014,0,.6.6,0,0,0,.254.888A36.987,36.987,0,0,0,6.989,5.935a32.584,32.584,0,0,0,12.033,4.542s9.784,1.857,16.105-.386c0,0,7.552-1.835,11.778-5.166,0,0,1.505-.909.869-1.738,0,0-.636-.912-3,.65" transform="translate(0 0)" fill="#bec2d0"/>
        </g>
      </g>
      <path id="Fill_11" data-name="Fill 11" d="M7.247.024a11.969,11.969,0,0,0-6.7,1.488c-.707.375-.522.708-.522.708.175.428.845.4.845.4A15.082,15.082,0,0,1,6.9,2.345c1.051.177.829,1.569.829,1.569a12.587,12.587,0,0,1-1.009,3.9,3.372,3.372,0,0,0-.758,2.4c.179.414.626,0,.626,0A11.886,11.886,0,0,0,9.657,5.642a8.929,8.929,0,0,0,.679-4.574C9.9.024,7.247.024,7.247.024" transform="translate(43.202 19.201)" fill="#bec2d0"/>
      <path id="Fill_13" data-name="Fill 13" d="M.847,10.4H0V.165L.745.1.833,1A5.724,5.724,0,0,1,2.053.282,3.456,3.456,0,0,1,3.434,0,2.69,2.69,0,0,1,4.7.289a2.866,2.866,0,0,1,.928.778A3.5,3.5,0,0,1,6.2,2.2a4.676,4.676,0,0,1,.2,1.362,4.8,4.8,0,0,1-.219,1.458,3.608,3.608,0,0,1-.643,1.2,3.131,3.131,0,0,1-1.03.818,3.1,3.1,0,0,1-1.4.3A3.7,3.7,0,0,1,1.863,7.14,4.066,4.066,0,0,1,.847,6.617V10.4ZM3.288.715A3.182,3.182,0,0,0,1.995,1a5.481,5.481,0,0,0-1.148.681v4.2a4.839,4.839,0,0,0,1.016.537,3.173,3.173,0,0,0,1.162.221,2.311,2.311,0,0,0,1.1-.255A2.354,2.354,0,0,0,4.917,5.7a2.983,2.983,0,0,0,.468-.984,4.365,4.365,0,0,0,.154-1.162,3.94,3.94,0,0,0-.146-1.086,2.877,2.877,0,0,0-.431-.9,2.115,2.115,0,0,0-.7-.619A2.007,2.007,0,0,0,3.288.715Z" transform="translate(65.603 1.6)" fill="#bec2d0"/>
      <path id="Fill_15" data-name="Fill 15" d="M2.412,8a2.828,2.828,0,0,1-.956-.158A2.3,2.3,0,0,1,.692,7.4a2.03,2.03,0,0,1-.507-.7A2.3,2.3,0,0,1,0,5.755,2.08,2.08,0,0,1,.289,4.633a2.3,2.3,0,0,1,.764-.745,3.458,3.458,0,0,1,1.094-.414,6.388,6.388,0,0,1,1.295-.128A8.677,8.677,0,0,1,4.455,3.4c.286.035.573.078.852.128v-.5A2.4,2.4,0,0,0,4.76,1.386a2.172,2.172,0,0,0-1.7-.618,4.277,4.277,0,0,0-1.19.173A5.845,5.845,0,0,0,.74,1.4L.418.708A5.42,5.42,0,0,1,1.664.2,5.486,5.486,0,0,1,3.136,0,3.823,3.823,0,0,1,4.519.226a2.646,2.646,0,0,1,.956.618,2.5,2.5,0,0,1,.563.927,3.519,3.519,0,0,1,.185,1.152V6.057c0,.289.008.6.024.919a3.965,3.965,0,0,0,.153.919H5.467a3.112,3.112,0,0,1-.1-.5c-.022-.179-.038-.351-.049-.512a5.432,5.432,0,0,1-.571.4,5.118,5.118,0,0,1-.708.362,5.021,5.021,0,0,1-.8.256A3.644,3.644,0,0,1,2.412,8ZM3.586,4.053A3.638,3.638,0,0,0,1.624,4.5,1.417,1.417,0,0,0,.933,5.755a1.441,1.441,0,0,0,.41,1.04,1.651,1.651,0,0,0,1.23.422A3.433,3.433,0,0,0,3.3,7.134a4.534,4.534,0,0,0,.731-.226,5.231,5.231,0,0,0,.675-.331c.209-.122.409-.252.595-.385v-2a8.045,8.045,0,0,0-.884-.106C4.1,4.062,3.831,4.053,3.586,4.053Z" transform="translate(72.804 1.6)" fill="#bec2d0"/>
      <path id="Fill_17" data-name="Fill 17" d="M.7,2.092a3.779,3.779,0,0,1,.821-.9,1.477,1.477,0,0,1,.9-.321,1.67,1.67,0,0,1,.611.122L3.2.137a1.7,1.7,0,0,0-.354-.1A2.049,2.049,0,0,0,2.493,0a1.513,1.513,0,0,0-.929.344A4.132,4.132,0,0,0,.7,1.3L.611.107,0,.183V8H.7Z" transform="translate(80.804 1.6)" fill="#bec2d0"/>
      <path id="Fill_19" data-name="Fill 19" d="M1.624,6.468A6.753,6.753,0,0,0,1.761,7.94a2.584,2.584,0,0,0,.41.972,1.515,1.515,0,0,0,.69.529,2.685,2.685,0,0,0,.963.16A3.452,3.452,0,0,0,4.3,9.564a1.729,1.729,0,0,0,.5-.152l-.172-.7a2.506,2.506,0,0,1-.8.131,1.289,1.289,0,0,1-.661-.152,1.134,1.134,0,0,1-.417-.435,2.066,2.066,0,0,1-.223-.682,5.6,5.6,0,0,1-.065-.892V2.726H4.5V2H2.458V0L1.624.072V2H0v.725H1.624Z" transform="translate(85.605)" fill="#bec2d0"/>
      <path id="Fill_21" data-name="Fill 21" d="M5.357,7.069A4.174,4.174,0,0,0,5.5,8h.9a4.179,4.179,0,0,1-.147-.931q-.023-.489-.023-.931v-3.1a4.94,4.94,0,0,0-.139-1.2A2.676,2.676,0,0,0,5.65.878,2.192,2.192,0,0,0,4.893.237,2.377,2.377,0,0,0,3.788,0,3.623,3.623,0,0,0,2.265.336,7.455,7.455,0,0,0,.881,1.16L.788.107,0,.183V8H.9V1.924a6.141,6.141,0,0,1,1.306-.8A3.357,3.357,0,0,1,3.6.794a1.7,1.7,0,0,1,.827.183,1.441,1.441,0,0,1,.533.5,2.211,2.211,0,0,1,.286.74,4.5,4.5,0,0,1,.085.893V6.138q0,.443.023.931" transform="translate(92.005 1.6)" fill="#bec2d0"/>
      <path id="Fill_23" data-name="Fill 23" d="M3.709,8a4.029,4.029,0,0,1-1.573-.292A3.242,3.242,0,0,1,.973,6.892,3.585,3.585,0,0,1,.251,5.618,5.226,5.226,0,0,1,0,3.955,5.761,5.761,0,0,1,.2,2.427,3.74,3.74,0,0,1,.8,1.168,2.912,2.912,0,0,1,1.816.314,3.173,3.173,0,0,1,3.269,0,3.246,3.246,0,0,1,4.6.262a2.866,2.866,0,0,1,.988.72A3.042,3.042,0,0,1,6.2,2.075,4.53,4.53,0,0,1,6.4,3.461c0,.137,0,.275-.015.42a3.619,3.619,0,0,1-.046.374H.9A3.385,3.385,0,0,0,1.7,6.435a2.653,2.653,0,0,0,2.037.786,3.9,3.9,0,0,0,1.126-.165,5.359,5.359,0,0,0,1.079-.464l.3.7a4.8,4.8,0,0,1-1.193.524A4.9,4.9,0,0,1,3.709,8ZM3.284.779A2.274,2.274,0,0,0,2.258,1a2.158,2.158,0,0,0-.73.592,2.637,2.637,0,0,0-.449.876,5.126,5.126,0,0,0-.2,1.072H5.534A3.346,3.346,0,0,0,4.956,1.52,1.977,1.977,0,0,0,3.284.779Z" transform="translate(98.405 1.6)" fill="#bec2d0"/>
      <path id="Fill_25" data-name="Fill 25" d="M3.2.137a1.707,1.707,0,0,0-.354-.1A2.048,2.048,0,0,0,2.493,0a1.513,1.513,0,0,0-.929.344A4.132,4.132,0,0,0,.7,1.3L.611.107,0,.183V8H.7V2.092a3.78,3.78,0,0,1,.821-.9,1.478,1.478,0,0,1,.9-.321,1.67,1.67,0,0,1,.611.122Z" transform="translate(105.606 1.6)" fill="#bec2d0"/>
      <path id="Fill_27" data-name="Fill 27" d="M6.23,6.138v-3.1a4.942,4.942,0,0,0-.139-1.2A2.675,2.675,0,0,0,5.651.878,2.194,2.194,0,0,0,4.893.237,2.375,2.375,0,0,0,3.788,0,3.624,3.624,0,0,0,2.265.336,7.449,7.449,0,0,0,.881,1.16L.788.107,0,.183V8H.9V1.924a6.135,6.135,0,0,1,1.306-.8A3.358,3.358,0,0,1,3.6.794a1.7,1.7,0,0,1,.827.183,1.441,1.441,0,0,1,.533.5,2.21,2.21,0,0,1,.286.74,4.51,4.51,0,0,1,.085.893V6.138q0,.443.023.931A4.181,4.181,0,0,0,5.5,8h.9a4.181,4.181,0,0,1-.147-.931q-.023-.489-.023-.931" transform="translate(65.603 17.601)" fill="#bec2d0"/>
      <path id="Fill_29" data-name="Fill 29" d="M3.709,8a4.029,4.029,0,0,1-1.573-.292A3.242,3.242,0,0,1,.973,6.892,3.585,3.585,0,0,1,.251,5.618,5.226,5.226,0,0,1,0,3.955,5.75,5.75,0,0,1,.2,2.427,3.735,3.735,0,0,1,.8,1.168,2.908,2.908,0,0,1,1.817.314,3.167,3.167,0,0,1,3.269,0,3.246,3.246,0,0,1,4.6.262a2.866,2.866,0,0,1,.988.72A3.05,3.05,0,0,1,6.2,2.075,4.53,4.53,0,0,1,6.4,3.461c0,.137,0,.275-.015.42a3.619,3.619,0,0,1-.046.374H.9A3.385,3.385,0,0,0,1.7,6.435a2.653,2.653,0,0,0,2.037.787,3.9,3.9,0,0,0,1.126-.165,5.316,5.316,0,0,0,1.079-.464l.3.7a4.8,4.8,0,0,1-1.193.524A4.9,4.9,0,0,1,3.709,8ZM3.284.779A2.275,2.275,0,0,0,2.258,1a2.158,2.158,0,0,0-.73.592,2.621,2.621,0,0,0-.448.876,5.083,5.083,0,0,0-.2,1.072H5.534a3.341,3.341,0,0,0-.578-2.015A1.975,1.975,0,0,0,3.284.779Z" transform="translate(72.804 17.601)" fill="#bec2d0"/>
      <path id="Fill_31" data-name="Fill 31" d="M3.823,8.846a1.289,1.289,0,0,1-.661-.152,1.133,1.133,0,0,1-.417-.435,2.064,2.064,0,0,1-.223-.682,5.609,5.609,0,0,1-.065-.892V2.726H4.5V2H2.458V0L1.624.073V2H0v.725H1.624V6.468A6.761,6.761,0,0,0,1.761,7.94a2.585,2.585,0,0,0,.41.972,1.516,1.516,0,0,0,.69.529,2.684,2.684,0,0,0,.963.16A3.466,3.466,0,0,0,4.3,9.564a1.732,1.732,0,0,0,.5-.152l-.172-.7a2.51,2.51,0,0,1-.8.131" transform="translate(80.004 16.001)" fill="#bec2d0"/>
      <path id="Fill_33" data-name="Fill 33" d="M7.034,6.942,5.176.716H4.424L2.581,6.942.851,0H0L2.1,8h.922L4.779,2.07,6.594,8H7.5L9.6,0H8.792Z" transform="translate(85.605 17.601)" fill="#bec2d0"/>
      <path id="Fill_35" data-name="Fill 35" d="M3.6,8a3.778,3.778,0,0,1-1.524-.292A3.141,3.141,0,0,1,.95,6.884a3.713,3.713,0,0,1-.7-1.266A5.108,5.108,0,0,1,0,4,5.114,5.114,0,0,1,.245,2.382a3.727,3.727,0,0,1,.7-1.266A3.141,3.141,0,0,1,2.076.292,3.778,3.778,0,0,1,3.6,0,3.778,3.778,0,0,1,5.124.292a3.141,3.141,0,0,1,1.126.824,3.741,3.741,0,0,1,.7,1.266A5.114,5.114,0,0,1,7.2,4a5.108,5.108,0,0,1-.245,1.618,3.813,3.813,0,0,1-.7,1.274,3.177,3.177,0,0,1-1.126.816A3.778,3.778,0,0,1,3.6,8ZM3.6.779a2.7,2.7,0,0,0-1.164.239,2.3,2.3,0,0,0-.843.675A3.1,3.1,0,0,0,1.08,2.719,4.5,4.5,0,0,0,.9,4,4.477,4.477,0,0,0,1.08,5.289a3.106,3.106,0,0,0,.514,1.018,2.3,2.3,0,0,0,.843.675,2.7,2.7,0,0,0,1.164.24,2.708,2.708,0,0,0,1.165-.24,2.3,2.3,0,0,0,.842-.675,3.134,3.134,0,0,0,.514-1.018A4.477,4.477,0,0,0,6.3,4a4.5,4.5,0,0,0-.176-1.281,3.128,3.128,0,0,0-.514-1.026,2.3,2.3,0,0,0-.842-.675A2.708,2.708,0,0,0,3.6.779Z" transform="translate(96.005 17.601)" fill="#bec2d0"/>
      <path id="Fill_37" data-name="Fill 37" d="M2.493,0a1.513,1.513,0,0,0-.929.344A4.129,4.129,0,0,0,.7,1.3L.611.107,0,.183V8H.7V2.092a3.773,3.773,0,0,1,.821-.9,1.477,1.477,0,0,1,.9-.321,1.67,1.67,0,0,1,.611.122L3.2.137a1.7,1.7,0,0,0-.354-.1A2.051,2.051,0,0,0,2.493,0" transform="translate(104.005 17.601)" fill="#bec2d0"/>
      <path id="Fill_39" data-name="Fill 39" d="M4.617,8.146Q3.773,7.221,2.993,6.18L6.1,3.275H4.983L.923,7.112V0L0,.069v10.25H.923V8.112L2.388,6.756q.86,1.11,1.7,2.035A20.777,20.777,0,0,0,5.716,10.4L6.4,9.894A22.242,22.242,0,0,1,4.617,8.146" transform="translate(108.806 15.201)" fill="#bec2d0"/>
    </g>
  </g>
</svg>
