<svg xmlns="http://www.w3.org/2000/svg" xmlns:xlink="http://www.w3.org/1999/xlink" width="246.364" height="159.309" viewBox="0 0 246.364 159.309">
  <defs>
    <clipPath id="clip-path">
      <path id="Clip_4" data-name="Clip 4" d="M0,0H32.729V17.455H0Z" fill="#bec2d0"/>
    </clipPath>
  </defs>
  <g id="组_2335" data-name="组 2335" transform="translate(-712.499 -6229.062)">
    <g id="组_2179" data-name="组 2179">
      <path id="路径_3869" data-name="路径 3869" d="M2058.024,4646.371l194.839-14.015V4511.062l-194.839,8.691Z" transform="translate(-1306 1730)" fill="rgba(2,14,62,0.03)"/>
      <path id="路径_3859" data-name="路径 3859" d="M733.124,195.87l3.183,98.19c.133,4.09,4.227,7.349,9.232,7.349H964.574c5.1,0,9.236-3.38,9.236-7.549V195.67c0-4.169-4.135-7.549-9.236-7.549H742.357C737.16,188.121,732.986,191.624,733.124,195.87Z" transform="translate(-20.12 6042.879)" fill="#fff" stroke="#e5e9ed" stroke-width="1"/>
      <g id="Page_1" data-name="Page 1" transform="translate(777 6271.894)">
        <path id="Fill_1" data-name="Fill 1" d="M0,15.113C0,6.776,3.246,0,7.238,0c2.02,0,3.833,1.731,5.16,4.513l-1.333.344a1.871,1.871,0,0,0-1.29-.6c-1.146,0-2.089,1.356-2.74,3.419a25.558,25.558,0,0,0-.964,7.441C6.071,20.731,7.436,25.3,9.11,25.3c1.241,0,2.313-2.449,2.782-5.983l2.377-.613c-.773,6.628-3.63,11.517-7.03,11.517C3.246,30.216,0,23.441,0,15.113" transform="translate(9.233 0.863)" fill="#bec2d0"/>
        <g id="Group_5" data-name="Group 5" transform="translate(0 0.106)">
          <path id="Clip_4-2" data-name="Clip 4" d="M0,0H32.729V17.455H0Z" fill="none"/>
          <g id="Group_5-2" data-name="Group 5" clip-path="url(#clip-path)">
            <path id="Fill_3" data-name="Fill 3" d="M.121,12.7C-.8,9.058,3.67,4.721,10.526,2.143l.351,1.312C6.863,5.137,4.307,7.544,4.8,9.517c.648,2.535,6.116,3.367,12.243,1.865S27.6,6.6,26.952,4.06c-.275-1.118-1.508-1.9-3.307-2.3L23.164,0c5.01.224,8.732,1.919,9.445,4.732,1.08,4.284-5.306,9.56-14.276,11.753S1.206,17.008.121,12.7" transform="translate(0 0)" fill="#bec2d0"/>
          </g>
        </g>
        <path id="Fill_6" data-name="Fill 6" d="M61.188,29.377a3.257,3.257,0,0,1-2.124-.673,2.368,2.368,0,0,1-.81-1.925v-.294a2.447,2.447,0,0,1,.774-1.891,2.989,2.989,0,0,1,2.2-.746,2.885,2.885,0,0,1,2.151.746,2.6,2.6,0,0,1,.737,1.891v.294A2.357,2.357,0,0,1,63.3,28.7,3.227,3.227,0,0,1,61.188,29.377Zm0-4.762a1.12,1.12,0,0,0-1.045.432,3,3,0,0,0-.268,1.511v.127A3.528,3.528,0,0,0,60.1,28.2c.162.272.527.41,1.084.41a1.186,1.186,0,0,0,1-.442A2.677,2.677,0,0,0,62.5,26.7v-.137a3.7,3.7,0,0,0-.231-1.47C62.123,24.77,61.769,24.615,61.188,24.615Zm-5.257,4.762a4.057,4.057,0,0,1-2.369-.673,2.327,2.327,0,0,1-.906-1.966v-.22a2.308,2.308,0,0,1,.931-1.935,3.644,3.644,0,0,1,2.323-.736,6.4,6.4,0,0,1,.994.063,1.881,1.881,0,0,1,.628.147V24.9a1.849,1.849,0,0,0-.512-.14l-.033-.006a4.617,4.617,0,0,0-.811-.063,1.784,1.784,0,0,0-1.36.5,1.9,1.9,0,0,0-.486,1.4v.073a2.02,2.02,0,0,0,.44,1.419,1.777,1.777,0,0,0,1.25.452,4.373,4.373,0,0,0,.915-.084,2.974,2.974,0,0,0,.6-.157v.82a2.106,2.106,0,0,1-.6.168A4.775,4.775,0,0,1,55.932,29.377Zm-52.377,0A3.968,3.968,0,0,1,1.2,28.7a2.279,2.279,0,0,1-.91-1.966v-.22a2.3,2.3,0,0,1,.92-1.935,3.654,3.654,0,0,1,2.313-.736,6.375,6.375,0,0,1,1.015.063,1.69,1.69,0,0,1,.621.147V24.9a1.9,1.9,0,0,0-.525-.143H4.621l-.015,0a4.432,4.432,0,0,0-.822-.063,1.792,1.792,0,0,0-1.349.5,1.886,1.886,0,0,0-.5,1.4v.073A1.936,1.936,0,0,0,2.4,28.083a1.739,1.739,0,0,0,1.244.452,4.61,4.61,0,0,0,.921-.084l.1-.021h.013l.009,0,.014,0,.013,0,.011,0,.007,0a2.417,2.417,0,0,0,.428-.121v.82a2.305,2.305,0,0,1-.59.168A4.86,4.86,0,0,1,3.554,29.377Zm62.561-.1h-1.1v-5.34H66.2l2.69,3.889,2.724-3.889h1.041v5.339h-1.46V26.223L69,29.272h-.837l-2.051-3.049v3.049Zm-48.8,0H16.151v-5.34h.867l3.4,3.2v-3.2h1.156v5.339h-.7l-3.567-3.364v3.364Zm6.2,0H22.2l2.39-5.34h1.507l2.484,5.338H26.926l-.518-1.262h-2.37l-.528,1.262Zm1.663-4.026-.826,1.975h1.731l-.9-1.975ZM7.849,29.272H6.233v-5.34H7.849V26.15H9.68V23.932h1.606v5.339H9.68V26.979H7.849v2.293Zm44.143,0H47.447v-5.34H51.8v.8H49.063v1.439h2.109v.82H49.063v1.493h2.929v.787Zm-5.612,0H42.107v-5.34h1.611v4.552H46.38v.787Zm-5.263,0h-4.54v-5.34h4.352v.8H38.183v1.439H40.3v.82H38.183v1.493h2.934v.787Zm-8.44,0,0-4.541h-1.58v-.8h4.734v.8H34.281v4.54h-1.6Zm-19.714,0,0-5.34h1.611v5.339H12.963ZM9.011,22.838h0a.64.64,0,0,1-.068-.335H8.822V22.45l.087-.112a1.993,1.993,0,0,1-.358.24c-.043-.008-.08-.082-.1-.21-.067-.383.007-1.075.243-1.21l.115.074v-.169l-.413.022c0-.015-.284-1.482-.477-1.493a1.3,1.3,0,0,0-.115.882.294.294,0,0,0,.168.18A.43.43,0,0,1,8,20.9v.042c0,.03,0,.054,0,.076a.036.036,0,0,1-.034.03.02.02,0,0,1-.017-.008l-.052-.305L7.7,20.716c0,.023,0,.046.008.068l0,.031v.012l0,.032,0,.026.006.044v.02a3,3,0,0,1,.034.377l-.12-.031a1.122,1.122,0,0,1-.046-.321v-.02a1.674,1.674,0,0,0-.027-.28c-.043-.159-.079-.267-.111-.361a1.886,1.886,0,0,1-.1-.964.249.249,0,0,1,.048-.113.261.261,0,0,0,.051-.139,3.651,3.651,0,0,0-.144-.451l0-.008,0-.006c-.043-.119-.049-.142-.049-.145a8.586,8.586,0,0,0,0-1.2v-.034c-.01-.216-.022-.464-.022-.681a1.441,1.441,0,0,0-.1-.379l0-.01,0-.006,0-.006,0-.012,0-.006,0-.006,0,0a1.528,1.528,0,0,1-.1-.39,2.956,2.956,0,0,1,.034-.783A1.9,1.9,0,0,0,6.8,13.591a6.444,6.444,0,0,1-1.462.416H5.332l-.015,0H5.309l-.025,0h0l-.024,0h0l-.009,0-.011,0a9.141,9.141,0,0,0-.952.233,1.418,1.418,0,0,0-.266.122l-.006,0-.019.011-.01.006a1.47,1.47,0,0,1-.27.131l-.033,0a5.885,5.885,0,0,1-1.128-.18,1.8,1.8,0,0,1-.317-.918l0-.025-.006-.029v-.015l-.006-.03v-.007l0-.01,0-.019c-.01-.054-.024-.124-.037-.177H2.154l-.043,0a1.258,1.258,0,0,0-.458.117l-.018.007H1.622a1.15,1.15,0,0,1-.394.106c-.186,0-.321-.12-.425-.379A.447.447,0,0,0,.7,12.827L.674,12.8l-.1.03a5.09,5.09,0,0,0-.261-.609l0-.01c.021-.026-.029-.155-.061-.229-.351-.191-.243-1-.171-1.531l0-.028V10.42l0-.019a2.464,2.464,0,0,0,.035-.374l0,0A2.517,2.517,0,0,0,.4,9.355c.171-.11.254-.347.246-.7V8.63l.147-.147a1.534,1.534,0,0,1,.159-.37l0-.005,0-.008,0,0,0,0,0-.008.01-.02c.1-.191.2-.371.17-.421l.01-.029.161-.426,0-.007,0-.012.039-.1,0-.007c.031-.082.05-.131.056-.15s.032-.051.051-.133v0c.057-.095.465-1.157.493-1.251h.11c.006-.124.255-.631.329-.631.132.01.393.947.393,1.083l.146.262a1.054,1.054,0,0,1,0,.883l.12.02V7.083l.089-.009.058-.032a.821.821,0,0,0,.477-.235l.006,0a1.031,1.031,0,0,1,.291-.191l.05-.018a3.723,3.723,0,0,0,.782-.36,4.27,4.27,0,0,1,.619-.2h0a3.1,3.1,0,0,1,.885-.456l.013-.006.007,0,.006,0,.013-.006.007,0,.009,0,.022-.009.015-.006.008,0,.022-.008.015-.006.008,0c.119-.047.2-.082.241-.1V5.087a.9.9,0,0,0,.3-.973l-.006-.045c-.008-.062-.016-.119-.023-.18a.82.82,0,0,1,.082-.395V3.487a.862.862,0,0,0,.078-.3,16.178,16.178,0,0,0-.114-1.934A2.5,2.5,0,0,0,6.949,1l0-.006,0-.008,0,0,0-.006,0-.007v0A1.87,1.87,0,0,1,6.85.695h.184L7.019.652,7,.609,7,.6a2.379,2.379,0,0,0-.224-.5L6.918,0C8.366.081,8.869,1.039,9.355,1.965l0,.01a4.12,4.12,0,0,0,.952,1.356.842.842,0,0,1,.1.087l.006.006,0,0,.008.008.006.007,0,0a.523.523,0,0,0,.263.18.076.076,0,0,0,.027,0,.239.239,0,0,0,.117-.043.244.244,0,0,1,.119-.043.289.289,0,0,0,.182.078.5.5,0,0,1,.132.036.187.187,0,0,1,.1.079.161.161,0,0,0,.12.079l.073-.168h.022a.669.669,0,0,0,.18-.034l.009,0a.636.636,0,0,1,.16-.03.157.157,0,0,1,.038,0,1.783,1.783,0,0,0,.47.042c-.035-.082-.119-.12-.265-.12a2.035,2.035,0,0,0-.227.017h-.124c-.057,0-.085.006-.108.006a.315.315,0,0,1-.164-.034.142.142,0,0,1-.065-.133c.623-.046,1.085-.075,1.465-.075a.447.447,0,0,1-.365.263c.023.044.045.084.093.168l.006.01.01.017.01.017.008.015.008.015-.136.106.2.063c.074-.155.11-.182.18-.182l.035,0h.177l.011-.084h.067l.052.094h.027a.229.229,0,0,1,.254-.172.568.568,0,0,1,.122.014,1.053,1.053,0,0,1-.064.21l0,.006,0,0a.755.755,0,0,0-.058.242.673.673,0,0,1,.086,0c.03,0,.293,0,.3.089h.042l.145-.2,0,0a.153.153,0,0,0-.11-.059l.057-.126h.009l.013,0h.007l.013,0,.01,0,.008,0,.008,0,.01,0a.63.63,0,0,0,.145.025c.081,0,.118-.044.118-.138a1.44,1.44,0,0,1,.407.159l.006,0,.013.006A2.025,2.025,0,0,0,15.141,4v.052c-.045-.008-.081-.016-.112-.024l-.011,0h-.023a1.148,1.148,0,0,0-.249-.041c-.158,0-.232.1-.232.305-.166-.032-.177-.1-.162-.231-.015-.031-.015-.031-.052-.052-.138.429-.752.665-1.345.894l-.02.007h-.013a2.975,2.975,0,0,0-1.143.619c-.052.055-.034.166-.019.254l0,.023V5.83a.578.578,0,0,1,.01.087.261.261,0,0,1-.054.144l0,0a.316.316,0,0,0-.064.148.75.75,0,0,0,.031.252l0,.009V6.5l0,.011.006.024,0,.013a1.043,1.043,0,0,1,.024.12c0,.034,0,.069,0,.106,0,.07,0,.117.007.155,0,.019,0,.045.006.077l.006.078v0a7.618,7.618,0,0,0,.1.934l.094.085a1.216,1.216,0,0,1,.732-.234h.013a1.232,1.232,0,0,0,.239-.038,1.666,1.666,0,0,0,.342-.218l.007,0,.02-.015.013-.009.012-.008c.053-.04.116-.086.176-.123a3.178,3.178,0,0,1,.572-.813l.027-.028a2.617,2.617,0,0,0,.558-.819.114.114,0,0,0-.01-.1.245.245,0,0,1-.027-.1,1.93,1.93,0,0,0,.6-1.546c-.064-.263-.311-.354-.55-.442L14.66,3.6a2.047,2.047,0,0,1-.21-.087l.063-.052c.7.192,1.186.39,1.089,1.2-.035.312-.087.608-.128.832l0,.022,0,.013,0,.013v.008l0,.013v.008l0,.013,0,.012a7.035,7.035,0,0,0-.169,1.569.225.225,0,0,1-.054.117l0,0-.006.006,0,0,0,.006,0,0-.006.009a.269.269,0,0,0-.017.027,1.108,1.108,0,0,0-.172.347,6.784,6.784,0,0,0-.264,1.267V8.98c-.015.108-.03.215-.046.322-.006.034-.013.085-.019.133l-.006.048v0c-.061.468-.187,1.443-.514,1.443.068.486-.746.654-1.341.777h0l-.025,0-.015,0-.015,0c-.156.033-.317.069-.425.1-.375.152-.945,1.9-1.057,2.335a.851.851,0,0,1-.217.289l-.006.006,0,0a.809.809,0,0,0-.235.329c-.022.236-.03.5-.036.7V15.6a6.784,6.784,0,0,1-.2,1.787c-.148.4-.336.79-.426.979l-.008.018-.008.018,0,0,0,.006,0,.01-.01.022-.012.024,0,.006L10.1,18.5l-.034.07-.011.024c-.006.012-.012.024-.017.036l-.022.046a1.245,1.245,0,0,0-.01.347v.022c0,.045,0,.082,0,.107a3.727,3.727,0,0,1-.075.514v.008a3.254,3.254,0,0,0-.082.667c0,.03.009.078.022.171l0,.016a1.763,1.763,0,0,1,.038.5,1.073,1.073,0,0,1-.34.463c-.022-.065-.084-.158-.136-.158a1.432,1.432,0,0,0,0,.286v.076a1.218,1.218,0,0,1-.012.4l-.043.052L9.2,22.051H9.167C9.167,22.154,9.134,22.837,9.011,22.838ZM6.714,7.252c-.194.518-.88.771-1.486,1l-.013,0-.009,0a3.087,3.087,0,0,0-.824.385,3.7,3.7,0,0,0-.681.769l-.006.008-.006.008-.006.008-.006.008-.006.008-.01.013c-.084.116-.174.24-.28.366a.189.189,0,0,0-.026.081v.008c-.008.054-.017.111-.14.216l-.147.515-.2.409c-.115.032-.253.26-.32.463a.42.42,0,0,0-.015.347c-.184.164-.224.247-.131.483l.208-.094a.3.3,0,0,0,.051,0c.192,0,.378-.166.593-.358a2.162,2.162,0,0,1,1.156-.644,3.914,3.914,0,0,0,1.914-.609,2.916,2.916,0,0,1,.4-.524l.005-.006,0,0A1.9,1.9,0,0,0,7.148,9.5a1.335,1.335,0,0,0-.083-.739l0-.011V8.746l0-.01a1.808,1.808,0,0,1-.1-.516,2.936,2.936,0,0,0-.176-.746l0-.01,0-.013L6.75,7.373l-.024-.08V7.287ZM8.258,22.578h0l-.042-.021a1.309,1.309,0,0,1,.02-.768c.125.133.094.361.066.563l0,.023v.043l0,.016c0,.022-.006.046-.008.069v0a.079.079,0,0,1-.025.07Zm1.312-.2h0c0-.114.008-.236.02-.365v-.063c.007-.08.021-.245.021-.39.124.085.127.478.064.679C9.662,22.3,9.627,22.376,9.57,22.376ZM8,22.325H7.965a3.034,3.034,0,0,0-.079-.338l-.014-.027-.014-.027-.006-.012-.006-.012L7.84,21.9a.428.428,0,0,1-.053-.415.509.509,0,0,1,.049.032l.008.006,0,0a.334.334,0,0,0,.206.075.633.633,0,0,1-.025.068l0,.01c-.024.059-.05.12-.029.141h.027s0,0,0-.007v-.006a.047.047,0,0,1,0-.01h.062v.347a.549.549,0,0,1-.066.14L8,22.325Zm25.565-.274h0a1.223,1.223,0,0,0-.193-.1l-.013-.007-.024-.012,0,0-.006,0-.006,0A4.139,4.139,0,0,1,31.932,21a3.208,3.208,0,0,1-.232-.656l0-.014a5.628,5.628,0,0,0-.229-.687.427.427,0,0,1-.064-.116c-.036-.057-.074-.118-.115-.181a3.311,3.311,0,0,1-.5-1.015l-.094-.054a2.738,2.738,0,0,1-.471-1.471.521.521,0,0,1,.174-.048.871.871,0,0,1,.512.295l.052.047,0,0a.014.014,0,0,1,.011.01c0,.005,0,.01-.013.014a.894.894,0,0,1,.154.158l.006.006,0,0,0,.006,0,0,0,0,0,.006,0,.006.006.008,0,0,0,0,0,0c.1.131.193.256.347.269h.006a.094.094,0,0,0,.073-.031c.078-.087.054-.329.039-.474v-.024c0-.03-.006-.054-.006-.069a.313.313,0,0,1,.006-.031v-.008l0-.01.007-.038,0-.013a1.392,1.392,0,0,0,.037-.256l-.083-.1a.453.453,0,0,0,.011-.155.657.657,0,0,1,0-.129,2.076,2.076,0,0,1,.211-.592l0-.006,0-.007,0-.01,0-.006.006-.011a2.792,2.792,0,0,0,.167-.41,23.291,23.291,0,0,0-.33-2.627c.115-.122.074-.4.038-.646v-.008l0-.017V11.9a1.64,1.64,0,0,1-.03-.319,1.311,1.311,0,0,1,.06-.337V11.23l0-.008,0-.013,0-.014,0-.009,0-.011,0-.008a1.655,1.655,0,0,0,.081-.437v-.043a9.215,9.215,0,0,0-.1-1.585V9.1a6.72,6.72,0,0,0,.129-1.182,5.97,5.97,0,0,0,.112-1.045V6.413a9.823,9.823,0,0,1,.192-1.9c-.123-.108-.029-.793,0-.925-.008-.019-.022-.052-.025-.062l-.006-.015,0-.011,0-.007c-.055-.147-.148-.394-.24-.419l-.219-.336c-.08-.031-.132-.051-.173-.071l-.01,0,0,0,0,0a.815.815,0,0,0-.338-.1.378.378,0,0,0-.145.02.539.539,0,0,1-.158.013c-.115,0-.254-.014-.424-.032h-.009l-.031,0-.029,0h-.015a4.086,4.086,0,0,0-.525-.038.908.908,0,0,0-.394.066.041.041,0,0,0-.019,0,.789.789,0,0,0-.221.075l-.018.008-.015.006-.04.017-.089.022-.049.012a2.1,2.1,0,0,1-.558.083,3.5,3.5,0,0,0-1.11.333l-.008,0-.008,0-.007,0-.007,0-.031.013-.03.012-.036.014-.036.014L27.12,3.2c-.139.054-.21.08-.263.1l-.037.012a2.311,2.311,0,0,1-.5.126l0,0a2.057,2.057,0,0,0-.419.217h0a.474.474,0,0,0-.466.2h-.01a1.11,1.11,0,0,0-.254.089l-.015.006-.071.03a1.384,1.384,0,0,1-.4.126.109.109,0,0,1-.046-.008,2.294,2.294,0,0,1-1.1.233,2.683,2.683,0,0,1-.372-.022.484.484,0,0,1-.2-.059.461.461,0,0,0-.189-.056c-.007-.232-.305-.295-.523-.341-.117-.024-.209-.043-.209-.08a5.069,5.069,0,0,1,1.05-.4l.067-.02h.006l.006,0,.021-.006.015,0,.006,0,.01,0,.006,0c.27-.081.492-.149.684-.228a.545.545,0,0,0,.107.01,1.1,1.1,0,0,0,.62-.286l.006,0,.006,0,.021-.015.011-.008.012-.008.009-.007a1.706,1.706,0,0,1,.14-.1,5.221,5.221,0,0,1,.685-.3,1.73,1.73,0,0,1,.774-.335h0l.007,0h.018l.013,0h.013l.012,0h.006l.012,0h.006l.007,0,.007,0,.007,0a2.24,2.24,0,0,0,.567-.2h.193a9.536,9.536,0,0,1,1.349-.232l.048-.063a2.184,2.184,0,0,0,.249-.039l.011,0h.014a1.683,1.683,0,0,1,.328-.043.538.538,0,0,1,.224.035A3.578,3.578,0,0,1,31.309.948h.045A7.14,7.14,0,0,0,32.366.789a.225.225,0,0,1,.068-.008,1.459,1.459,0,0,1,.618.177,5.371,5.371,0,0,1,1.3,1.776,2.817,2.817,0,0,1-.078.549V3.29c-.1.528-.238,1.251-.075,1.458A.141.141,0,0,0,34.3,4.8l-.008.078v.01l0,.037L34.279,5a2.868,2.868,0,0,0-.025.79,1,1,0,0,0-.129.547v.03a6.776,6.776,0,0,0,.089.731l0,.019a6.284,6.284,0,0,1,.085.69c-.01.218,0,.431.011.62v.325c.013.168.025.352.032.549.017.477.022.855.025,1.2v.229a16.55,16.55,0,0,0,.095,1.881,3.924,3.924,0,0,1,0,.73V13.4a4.568,4.568,0,0,0,0,.7,5,5,0,0,1-.067,1.754,2.957,2.957,0,0,1,.094,1.1c-.27.088-.112.625-.008.981l0,.007.008.029,0,.013,0,.006,0,.017.006.021,0,.017.006.021,0,.01v0l0,.011,0,.015a.977.977,0,0,1,.022.1,1.962,1.962,0,0,1-.051.833v.015l0,.026v.02a3.208,3.208,0,0,0-.078.535,4.709,4.709,0,0,0,.014.611,1.591,1.591,0,0,1-.391,1.366l-.026.04c-.1.153-.173.275-.377.275v.084A.124.124,0,0,1,33.56,22.051Zm32.5-1.468c-.1,0-.158-.091-.211-.18l0,0a.4.4,0,0,0-.108-.136,3.014,3.014,0,0,1-.483-.21.4.4,0,0,0-.152-.044l-.015,0L65.062,20h-.01a.562.562,0,0,1-.139-.031.443.443,0,0,1-.261-.347.536.536,0,0,1,0-.21v0a.671.671,0,0,0,0-.269l-.062-.146c-.007-.024-.026-.087-.053-.169l-.01-.03-.02-.059-.006-.019c-.045-.136-.067-.2-.073-.228,0-.01-.009-.039-.02-.08a4.8,4.8,0,0,1-.154-.749,1.6,1.6,0,0,1,.014-.423v-.04a2.063,2.063,0,0,0,.02-.22c0-.223-.032-.917-.038-.957a7.645,7.645,0,0,1,.028-.893,2.168,2.168,0,0,0-.1-.479l0-.009,0-.01-.007-.028v-.006l-.006-.021,0-.008,0-.01v-.007l0-.017,0-.02,0-.014,0-.011,0-.01c-.014-.054-.027-.108-.039-.17a1.4,1.4,0,0,1,.025-.473c.006-.037.012-.071.017-.1a1.516,1.516,0,0,1,.034-.217V13.5l0-.018,0-.015a3.409,3.409,0,0,0,.066-.489.2.2,0,0,0,.02-.022l0,0c.021-.025.038-.045.068-.045a.121.121,0,0,1,.061.02l.088.115c.013.016.024.032.036.049l.008.01a.631.631,0,0,0,.214.215,1.235,1.235,0,0,0,.3.1.945.945,0,0,1,.436.194.452.452,0,0,1,.078.168l0,.006,0,.008a.359.359,0,0,0,.043.111.869.869,0,0,0,.084.11l.01.013,0,.007,0,.006.015.017.048.059c.019.021.04.047.063.078l0,.006.006.008.015.02.01.014a.4.4,0,0,0,.421.2.382.382,0,0,1,.229-.079h.02a.558.558,0,0,0,.243-.059c.322-.19,1.683-.889,1.82-.934a2.164,2.164,0,0,0,.363-.272l.02-.017.017-.015.009-.008.01-.008.015-.013.031-.026.485-.273a.289.289,0,0,1,.1.041l.023.013a.5.5,0,0,0,.132.061h.031a1.262,1.262,0,0,0,.19-.02l.013,0a1.37,1.37,0,0,1,.206-.022H70.3l.033,0a.945.945,0,0,1,.426.122.354.354,0,0,1,.082.062l.007.006,0,0a.408.408,0,0,0,.117.087l.074.045,0,0a1.18,1.18,0,0,1,.337.267.243.243,0,0,1,.027.045l.009.016,0,0,0,0,.011.021.013.025,0,.01,0,0,0,.006,0,0a1.613,1.613,0,0,0,.257.416,2.065,2.065,0,0,1,.335.4c0,.013,0,.032,0,.052v.045l0,.026v.01a1.331,1.331,0,0,1-.008.435,1.985,1.985,0,0,0-.027.482,1.929,1.929,0,0,1-.03.581v.028l-.008.053c-.016.078-.094.288-.186.535l-.008.022-.006.017-.006.017,0,.006,0,.012v0l-.007.018-.006.015,0,.01-.007.019-.006.017-.009.025-.006.017-.006.015-.008.02-.008.021-.006.018c-.04.11-.114.315-.132.4a.548.548,0,0,0,.006.226.013.013,0,0,0,.01.006,1.221,1.221,0,0,0,.117.07.447.447,0,0,1,.209.182c0,.033.006.041.042.041l.025.008.015.006.014,0h0a.4.4,0,0,1,.233.138.953.953,0,0,1-.016.437l0,.013a1.673,1.673,0,0,0-.034.266.407.407,0,0,0,0,.077v.051a.444.444,0,0,1-.013.2c-.017.079-.1.143-.181.205l-.015.011-.011.009-.02.015a.738.738,0,0,1-.219.1c-.041.022-.078.045-.112.068a.782.782,0,0,1-.217.11,2.07,2.07,0,0,1-.414.031c-.12,0-.253,0-.33-.009l-.1-.024-.04-.01-.012,0h-.017a2.444,2.444,0,0,0-.4-.075,2.484,2.484,0,0,0-.619.094l-.016,0a1.991,1.991,0,0,1-.365.071.828.828,0,0,1-.221.015,4.649,4.649,0,0,1-.7-.057.292.292,0,0,1-.124-.1l0,0a.4.4,0,0,0-.132-.11A1.115,1.115,0,0,0,67.8,19.3l-.013-.006-.006,0-.006,0-.006,0-.022-.009a.721.721,0,0,1-.366-.247,2.013,2.013,0,0,1-.039-.866l0-.028V18.1a1.3,1.3,0,0,0,.008-.2l.036-.209c.027-.009.121-.066.118-.081s0,0-.008,0a1.417,1.417,0,0,1,.5-.655c.084-.075.173-.154.252-.238l.083-.088.006-.006c.177-.184.545-.567.545-.674a1.639,1.639,0,0,0-.032-.831A.46.46,0,0,0,68.792,15l-.008-.013,0-.007,0-.006,0-.008,0-.006a.183.183,0,0,1-.026-.049,4.824,4.824,0,0,0-.837.6c-.016.02-.036.045-.057.073-.08.1-.19.248-.273.273a.844.844,0,0,1-.321.058,2.374,2.374,0,0,1-.437-.056l-.063-.011-.063-.012h-.034c-.013,0-.029,0-.029.022a.351.351,0,0,0,.006.256l0,.01q.007.026.013.05a.373.373,0,0,1-.015.146.443.443,0,0,0-.016.18.779.779,0,0,0,.119.237l0,0a.608.608,0,0,1,.113.243,4.716,4.716,0,0,1-.093.756c-.009.063-.025.208-.036.313l0,.02,0,.023,0,.024v.043l0,.017v.01a3,3,0,0,1-.054.39.483.483,0,0,1-.043.168.444.444,0,0,0-.037.176l-.11.484v.043c0,.015,0,.03,0,.044a1.575,1.575,0,0,1-.022.355.547.547,0,0,1-.078.139L66.36,20l0,0-.01.015-.008.01,0,0,0,0,0,.007a.8.8,0,0,0-.124.207.59.59,0,0,0-.01.078v.013c-.009.095-.02.212-.092.235A.21.21,0,0,1,66.061,20.583ZM47.5,20.163a.977.977,0,0,1-.549-.089.856.856,0,0,1-.215.018,3.488,3.488,0,0,1-.394-.029h-.017l-.022,0h-.019l-.023,0-.017,0-.029,0c-.056-.006-.113-.012-.163-.016a3.635,3.635,0,0,1-1.989-.62l-.01-.006-.017-.01-.022-.012-.022-.013c-.155-.086-.444-.246-.463-.4l-.02-.021c-.437-.141-.665-1.149-.831-1.885v-.018a3.11,3.11,0,0,0-.212-.735c-.093-.16-.353-.188-.6-.215a1.822,1.822,0,0,1-.411-.069,1.241,1.241,0,0,1-.3-.211l-.008-.006,0,0-.011-.01a1.98,1.98,0,0,0-.286-.212c-.077-.033-.145-.156-.2-.255l-.008-.015,0,0,0,0,0-.006c-.069-.128-.141-.261-.223-.273a2.054,2.054,0,0,1-1.041-.618,1.056,1.056,0,0,1,.048-1v0l0-.006a1.88,1.88,0,0,0,.188-.607c.017-.126.039-.266.068-.44l0-.018.008-.048.009-.051v-.017l0-.018a7.422,7.422,0,0,0,.162-1.719c0-.034-.006-.068-.01-.1v-.01c0-.031-.006-.061-.009-.092a3.98,3.98,0,0,1,0-1.215.959.959,0,0,1,.2-.335l.006-.007a1.04,1.04,0,0,0,.284-.552l.068-.031a.4.4,0,0,1,.042-.221,1.109,1.109,0,0,0,.168-.381l0-.012,0-.008c.059-.183.114-.356.177-.356.14.054.148.166.157.285a.4.4,0,0,0,.349.439.042.042,0,0,1,0-.035.01.01,0,0,1,.008,0,.014.014,0,0,1,.01.008,1.877,1.877,0,0,0,.3.527l.006.008,0,.008,0,.007.006.008a1.107,1.107,0,0,1,.212.367c0,.023,0,.046,0,.068a.667.667,0,0,0,.034.279,4.741,4.741,0,0,0-.131,1.606c.208-.131,1.6-1.093,1.621-1.523a1.743,1.743,0,0,0,.309-.537c-.011,0-.036-.051-.077-.154a1.337,1.337,0,0,0-.017-.188V8.287a1.13,1.13,0,0,1-.012-.152.525.525,0,0,0-.122-.013,1.069,1.069,0,0,0-.421.1,1.151,1.151,0,0,1-.451.109c-.177-.276-.221-.28-.462-.3l-.166-.014c-.008,0-.01-.007-.009-.009s.007,0,.015-.006h.009l-.015,0A3.966,3.966,0,0,1,42.7,7.41l.017-.012c.1-.066.173-.116.262-.177h.006a1.561,1.561,0,0,0,.324-.2l.02-.014L43.347,7l.02-.013.015-.01.026-.017c.13-.06.208-.089.235-.1l.014-.006c.155-.057.2-.074.447-.347a5.044,5.044,0,0,0,.3-1.376V5.119l0-.013,0-.014,0-.013v-.03l0-.018,0-.013a8.694,8.694,0,0,1,.153-.877,2.24,2.24,0,0,1,.363-.736l.006-.008.029-.043A1.456,1.456,0,0,1,45,3.075V3.027a1.006,1.006,0,0,0,.025-.325,1.47,1.47,0,0,1,.839.222l.053.026.112.056c.975.46.836,1.1.676,1.831v.038l0,.01v0a4.067,4.067,0,0,0-.117.84.034.034,0,0,1,.024.019l.027,0h.053l.089,0a.31.31,0,0,0,.168-.027,18.966,18.966,0,0,1,2.271-1.156l.036,0a.773.773,0,0,1,.214.043l.013,0a.911.911,0,0,0,.254.047.359.359,0,0,0,.08-.007.525.525,0,0,1,.153-.017.893.893,0,0,1,.481.173l.009.006a.714.714,0,0,0,.361.144c.055,0,.089-.008.1-.023a.026.026,0,0,0,.006-.02c.51.2.558.408.619.669a1.325,1.325,0,0,0,.2.5l.319.442a.551.551,0,0,0,.1.305l0,0a.665.665,0,0,1,.1.28.31.31,0,0,1-.026.14.335.335,0,0,0-.027.111.56.56,0,0,0,.041.217v.01a.472.472,0,0,1,.031.141,1.229,1.229,0,0,1-.1.414v.018a1.323,1.323,0,0,0-.1.441c0,.021-.033.16-.092.391l0,.008c-.113.024-.171.322-.21.52a1.342,1.342,0,0,1-.036.164l-.006.014a15.445,15.445,0,0,0-.574,1.435,1.68,1.68,0,0,0,.284.635l0,.006c.161.269.328.548.3.695a1.184,1.184,0,0,1-.035.159l0,.015,0,.01,0,.008,0,.01a1.689,1.689,0,0,0-.042.178.1.1,0,0,0,0,.017v.023l0,.013v0a.73.73,0,0,1,.012.259.5.5,0,0,1-.194.295l0,0,0,0a.69.69,0,0,0-.15.172.723.723,0,0,1-.1.143l-.006.008,0,0-.006.008-.006.007,0,0,0,0a.674.674,0,0,0-.132.21c-.022.086-.231.379-.314.379h0a6.157,6.157,0,0,1-.691.1h-.1c-.191.017-.378.036-.561.066a.51.51,0,0,0-.12.026h0l-.01,0-.008,0-.008,0h-.015a.623.623,0,0,1-.138.034h-.01a.68.68,0,0,1-.351.082h-.022a.727.727,0,0,0-.3.056c-.031.015-.061.031-.094.049l-.028.015-.006,0-.021.011c-.043.023-.078.042-.114.059l-.118.025-.013,0-.024,0-.022,0-.024,0-.027,0c-.08.014-.142.026-.2.038a.2.2,0,0,1-.151.049.555.555,0,0,1-.1-.007h-.03a1.4,1.4,0,0,0-.151-.009.692.692,0,0,0-.4.126,1.332,1.332,0,0,0-.293.279l0,0c-.12.148-.23.268-.289.332-.379.418-.41.452.069,1.414.007.019.013.038.022.068.03.1.064.205.182.205a2.4,2.4,0,0,1,.37.144l.025.01.1.045.038-.006h.009a13.206,13.206,0,0,1,1.878-.213l.346-.052a9.975,9.975,0,0,1,2.14-.526,2.86,2.86,0,0,1,.706-.222H52.2l.339-.242a.132.132,0,0,1,.04-.024c.018-.006.027-.011.028-.015l.126-.066a.174.174,0,0,1,.187-.112.325.325,0,0,1,.174.049H53.06l-.115.073h.04c.012,0,.013,0,.016,0a.029.029,0,0,1,.012-.007l.048.01.12.232h.047a.306.306,0,0,0-.015-.163l0-.016-.079.01,0-.1c0,.033,0,.064.026.074l.11-.032a.029.029,0,0,0,0,.025.023.023,0,0,0,.017.01.012.012,0,0,0,.008,0l.089.126.031-.021.115.1h0a.018.018,0,0,1,.017.01.01.01,0,0,1,0,.013l-.079-.031c0,.006-.009.013-.017.013a.013.013,0,0,1-.009,0v.074l.062.052c-.02,0-.09.015-.1.038a.014.014,0,0,0,0,.014l.006,0a.5.5,0,0,0,.172.041.272.272,0,0,1-.031.137h.006c.016,0,.021.009.026.022v.015s0,.006,0,.006l.08-.075.006-.01,0,0c.031-.057.046-.086.054-.086s.008.007.012.02a.146.146,0,0,0,.157.112c0,.01.006.016,0,.02s-.01.008-.017.01-.013.006-.015.009a.015.015,0,0,0,0,.013h-.078l-.068.2a.492.492,0,0,1,.147-.147l.027.063-.1.063a.019.019,0,0,0-.011,0,.018.018,0,0,0-.018.011s0,.01.008.013l.068.094.016-.052-.016.126c.03,0,.03,0,.031,0s0,.008.027.018v-.052a.043.043,0,0,1,.023-.009.024.024,0,0,1,.021.015l0,.006c0,.006.006.01.008.01l0,.146.008-.015.008-.015.008-.015c.016-.034.025-.051.039-.051s.046.026.1.077l.009.008.009.009v.147l-.047.053-.1.126-.036-.053-.084.073-.031.117a.062.062,0,0,1-.027.006.014.014,0,0,1-.012,0c0-.006,0-.019,0-.031v-.006c0-.015.006-.025,0-.031a.013.013,0,0,0-.007-.006l.042-.1v.005l0,.005c.006,0,.013-.023.013-.029l-.043,0-.147.209.01-.115H53.64a.44.44,0,0,1-.152.172l0,0-.008.006,0,0-.006.006c-.1.074-.2.151-.2.283l.079-.031-.068.115a.063.063,0,0,1,.022.039.107.107,0,0,0,.008.034c0,.011-.016.052-.041.052l-.062-.042h-.048l.022.106h-.048l-.067.115-.032.052.094.021a.791.791,0,0,0-.1.051L53,18.845l-.008,0-.009,0-.006,0a.852.852,0,0,1-.28.123c-.013,0-.021,0-.024-.01s-.01-.006-.015-.006a13.739,13.739,0,0,0-1.554.409l-.012,0-.085.024-.038.01-.038.011c-.082,0-.1.006-.11.011a.018.018,0,0,1,0,.02,3.2,3.2,0,0,1-.941.305l-.421.031H49.45l-.5.094C48.869,20.055,48.035,20.163,47.5,20.163Zm-5.037-8.35-.4.106a1.14,1.14,0,0,0-.165.07l-.01,0-.008,0,0,0a.679.679,0,0,1-.314.1c-.02,0-.027,0-.028,0v0a.024.024,0,0,1,.006.016l-.115.284c-.017.039-.034.078-.051.117a2.9,2.9,0,0,0-.19.535c0,.017,0,.034,0,.052v.086c0,.043,0,.087,0,.146a.223.223,0,0,1-.038.119.316.316,0,0,0-.051.155.335.335,0,0,0,.015.142V13.8a.4.4,0,0,1,.019.11,1.082,1.082,0,0,1-.049.169l0,.008,0,.009,0,.008,0,.006-.006.015a.671.671,0,0,0-.07.29c0,.009,0,.014,0,.017s.011,0,.029,0c.008-.027.038-.052.085-.082l.007,0a.237.237,0,0,0,.055-.041.172.172,0,0,0,.052-.025l.006,0,.006,0,.022-.013.027-.016.013-.008a2.565,2.565,0,0,1,.748-.349,4.509,4.509,0,0,1,.44-.1.407.407,0,0,1,.094-.152l0-.006.008-.009c.042-.047.076-.088.076-.117a.155.155,0,0,0,0-.035v-.008a.168.168,0,0,1,.026-.093c.013-.054.035-.123.061-.2l0-.009.007-.022c.124-.382.312-.959.085-1.177a.51.51,0,0,0-.289-.136l-.082-.022c0,.019,0,.022-.006.022h-.021Zm6.3-2.118a4.755,4.755,0,0,0-1.43.437,2.522,2.522,0,0,0-.521.286l-.01.006-.02.014-.015.01-.078.052-.282.3a.714.714,0,0,0-.026.421v.034a.4.4,0,0,1-.082.27,1.712,1.712,0,0,0,.141.421.611.611,0,0,0,.4.137,1.566,1.566,0,0,0,.855-.347l.01,0a3.22,3.22,0,0,0,.931-.542l.006-.015.009-.021a.694.694,0,0,1,.131-.226,1.983,1.983,0,0,1,.095-.5l0-.01V10.4a2.991,2.991,0,0,0,.1-.412.549.549,0,0,0-.031-.22.167.167,0,0,1-.045-.03l-.009-.007-.008-.006-.008-.006,0,0A.3.3,0,0,0,48.762,9.7ZM48.7,6.317a2.432,2.432,0,0,0-.811.137.556.556,0,0,1-.314.18c-.091.038-.2.071-.245.084l-.007,0-.01,0-.01,0-.02.006-.01,0-.01,0-.01,0-.015,0-.008,0-.013,0-.01,0h0a2.586,2.586,0,0,0-.333.118c-.005,0-.518.159-.518.377-.172.043-.267.6-.235.757.046.217.4.294.691.294a1.6,1.6,0,0,0,.24-.021.352.352,0,0,1,.085-.008,1.074,1.074,0,0,1,.109.008l.429-.053a2.721,2.721,0,0,0,.962-.473l.006,0a5.4,5.4,0,0,1,.538-.321l.064.02a.111.111,0,0,1,.094-.038H49.4l.014,0,.014,0h.019a.4.4,0,0,0,.058.006.433.433,0,0,1,.1-.142l0-.005a.354.354,0,0,0,.126-.242V6.874a.334.334,0,0,1-.14-.173l-.014-.031-.013-.028,0-.116A4.048,4.048,0,0,1,48.7,6.317ZM60.143,20.054h0a.674.674,0,0,1-.6-.684l.01-.5v-.619l.043-.369a9.542,9.542,0,0,1,.152-.976l0-.018,0-.02.006-.033.006-.032.01-.054c.018-.1.034-.189.041-.233a5.085,5.085,0,0,1,.177-.536l0-.041.018-.169.009-.089v-.01l.015-.147.009-.085,0-.036.013-.128.016-.152.011-.109.006-.052c.009-.089.017-.154.02-.17s.015-.058.024-.088l.008-.029.009-.03,0-.015.007-.025,0-.01a2,2,0,0,0,.1-.453,5.059,5.059,0,0,0,0-.713v-.042c-.006-.144-.013-.307-.006-.37a3.112,3.112,0,0,0-.052-.639v-.006l0-.023,0-.027c-.011-.057-.02-.127-.029-.219l-.084-.431a.541.541,0,0,0-.467-.412.408.408,0,0,0-.1.013c-.074.023-.213.192-.325.327l-.017.02c-.038.047-.072.088-.1.115l-.277.242c-.05.042-.1.1-.21.208l0,0-.011.012-.013.013-.01.011-.015.016,0,0-.012.013-.019.02-.021.021c-.043.045-.108.112-.177.173l-.178.126-.314.347a.916.916,0,0,0-.133.347v.007l0,.008v.009a1.651,1.651,0,0,1-.05.176.141.141,0,0,1-.017.031l0,0,0,.007-.015.021a.209.209,0,0,0-.059.126h-.052l-.026-.063a.237.237,0,0,0,.052-.147l-.01,0c-.014-.006-.017-.008-.017-.017h-.042v.021l-.063.263a.333.333,0,0,1-.033.037l-.007.007a.278.278,0,0,0-.07.092l.042-.325-.016-.326c0-.029,0-.059.008-.088a1.166,1.166,0,0,0-.034-.543.519.519,0,0,0-.2-.274l0,0,0,0-.007,0a.227.227,0,0,0-.028-.02l-.006,0-.006,0a.214.214,0,0,1-.087-.078.725.725,0,0,1-.049-.455v-.042c.009-.1.012-.151.012-.186l-.022-.452a1.4,1.4,0,0,1,.081-.319v-.008l0-.006,0-.006,0-.009,0-.009c.016-.043.029-.08.041-.116L57,10.54l0-.012.008-.034,0-.021v-.01a1.03,1.03,0,0,1,.112-.331l.256-.326a1.459,1.459,0,0,1,.21-.368l.293-.347.1-.263.444-.894c.085-.165.159-.343.222-.5l.006-.013,0-.013,0-.008.006-.014,0-.013c.022-.056.045-.111.068-.166l.119-.242.064-.2a2.883,2.883,0,0,1,.376-.653,2.812,2.812,0,0,1,.167-.818c.026-.082.047-.151.064-.212V4.919a.672.672,0,0,1,.13-.368.664.664,0,0,1,.446.379,2.63,2.63,0,0,1,.2.515l.043.242c.044.1.107.226.2.405l.006.013.007.013a2.407,2.407,0,0,1,.411,1.293.346.346,0,0,1-.039.149l0,.011a.4.4,0,0,0-.045.164.37.37,0,0,0,0,.068v.113a1.2,1.2,0,0,1-.025.387,1.526,1.526,0,0,1-.087.209l0,.008,0,.008a.979.979,0,0,0-.13.437.889.889,0,0,0,.139-.037h.006a.592.592,0,0,1,.184-.038.352.352,0,0,1,.043,0h0a.831.831,0,0,1,.379.156l.011.007.01.006.006,0,.02.012.006,0,.01.006a.8.8,0,0,0,.087.048l.01,0,.01.006a.861.861,0,0,0,.113.055l0,0,.012.006.015.006.019.008.01,0h0l.015.007.008,0a.723.723,0,0,1,.133.065l.177.189a.227.227,0,0,0,.071.057l.013.009a.246.246,0,0,1,.1.092.384.384,0,0,1,.052.22,1.893,1.893,0,0,1-.089.662.906.906,0,0,1-.072.151l0,.008a.713.713,0,0,0-.1.24,1.636,1.636,0,0,0,.022.453v0l0,.016v.006a2.289,2.289,0,0,1,.027.383c-.006.073-.011.148-.016.224v.033c-.011.173-.024.369-.049.531-.01.07-.021.3-.033.67v.017c-.006.175-.01.294-.013.343-.007.032-.02.126-.038.28l0,.028v.01c-.033.284-.055.437-.066.47-.034.148-.158,1.162-.173,1.356-.012.076-.024.159-.036.244l-.006.041-.008.053-.006.042v.006c-.013.085-.027.182-.043.276a1.144,1.144,0,0,0-.011.3v.2c0,.043,0,.089,0,.136l-.063.662v.008c0,.009,0,.019,0,.031l0,.015,0,.032v.008l0,.033-.006.062v0a3.859,3.859,0,0,1-.109.709.94.94,0,0,1-.146.224l0,.006a.606.606,0,0,0-.147.245h-.047c-.1,0-.347.02-.393.2v.23c.044.052.057.1.039.135-.031.067-.148.092-.219.092-.048,0-.083-.011-.087-.027l-.018.015-.015.011-.014.012,0,0c-.084.066-.224.178-.225.284Zm-36.794-.662h0a.607.607,0,0,0-.278-.057l-.078-.006c-.15-.043-.435-.648-.642-1.089l0-.011,0,0,0-.006-.011-.024-.008-.017,0-.007c-.109-.232-.168-.354-.209-.418a.453.453,0,0,1,.125-.014.269.269,0,0,1,.117.026l.006,0,.007,0h0l.006,0,.006,0a.509.509,0,0,0,.11.031h.017a.473.473,0,0,0,.152-.036l.006,0,.006,0,.008,0a.611.611,0,0,1,.146-.042.63.63,0,0,1,.14-.009h.261a1.163,1.163,0,0,0,.166.008c.033,0,.064,0,.092,0a1.329,1.329,0,0,0,.4-.111,1.086,1.086,0,0,1,.492-.122h.041a.383.383,0,0,1,.129.038l.01,0,.01,0,.006,0a.37.37,0,0,0,.115.038.019.019,0,0,0,.012,0l.066-.032.03-.015.048-.024a2.95,2.95,0,0,1,.907-.35.174.174,0,0,1,.094.022l.235-.032a3.2,3.2,0,0,1,.832-.263c.226-.106.745-.337.837-.368a2.345,2.345,0,0,1,.335-.038H28.1a2.141,2.141,0,0,0,.249-.024.865.865,0,0,0,.206-.092l.006,0,0,0,0,0,.006,0,0,0,.01-.006.006,0,.007,0,0,0a.676.676,0,0,1,.285-.117l.177-.021c.045-.081.282-.142.534-.206l.009,0,.008,0a2.392,2.392,0,0,0,.814-.305h.173v.085c-.027.022-.056.05-.08.073l-.017.017a.678.678,0,0,1-.159.131,5.636,5.636,0,0,1-.641.345l-.009,0-.015.008,0,0,0,0,0,0,0,0,0,0,0,0,0,0,0,0,0,0,0,0,0,0,0,0,0,0,0,0-.017.008-.017.008-.017.008-.017.008-.014.006-.009,0-.01,0-.01,0-.01,0-.016.008a6.663,6.663,0,0,0-.771.421c-.155.109-.283.212-.41.317l-.009.008,0,0a4.549,4.549,0,0,1-.776.535,1.364,1.364,0,0,0-.132.08l-.01.007-.014.009-.017.011-.021.013a1.929,1.929,0,0,1-.3.173l-.094.03c-.107.031-.356.1-.356.17a.372.372,0,0,1-.267.125,6.192,6.192,0,0,1-1.219.42,1.447,1.447,0,0,1-.357.182l-.012,0-.008,0-.014.006c-.108.046-.181.078-.215.1h-.119c-.061.112-.412.19-.645.242h-.03l-.017,0-.01,0a2.436,2.436,0,0,0-.318.082Zm-2.53-1.105a.526.526,0,0,1-.306-.154,2.038,2.038,0,0,1-.549-1.641,1.248,1.248,0,0,1,.027-.231v0a1.272,1.272,0,0,0,.025-.226.67.67,0,0,0,.074-.549,1.14,1.14,0,0,1-.011-.376,1.631,1.631,0,0,0-.038-.409.005.005,0,0,0,0,0,1.461,1.461,0,0,1-.031-.7.823.823,0,0,1,.055-.134l0-.01,0,0,0-.007,0,0,0,0,0-.007,0-.008a.683.683,0,0,0,.055-.137,2.225,2.225,0,0,1,.068-.358c.013,0,.013,0,.013,0l.008,0a1.212,1.212,0,0,1,0-.14v-.027l0-.051v-.062l0-.044v-.017c.012-.207.017-.33.017-.435a1.939,1.939,0,0,1,.021-.243l0-.015v-.024l0-.027v-.008l0-.015,0-.02v-.02c0-.022.01-.086.01-.113a.98.98,0,0,1,.036-.12l.006-.017,0-.011v0a.756.756,0,0,0,.053-.236c.006-.087.017-.179.024-.241l0-.028,0-.016v-.013l0-.038,0-.036c.007-.069.014-.144.019-.207v-.274c.007-.036.014-.068.023-.106l0-.022,0-.008,0-.008,0-.008,0-.008v-.017c.013-.058.023-.111.033-.18.016-.2.016-.418.016-.63a.084.084,0,0,0-.024-.077l0,0a.093.093,0,0,1-.025-.055.558.558,0,0,0,.036-.18V9.5l0-.033c0-.027.007-.052.01-.073s.014-.048.022-.073l.01-.038.01-.036.008-.029,0-.013,0-.009,0-.016c.021-.076.045-.163.073-.238l.1-.274a4.065,4.065,0,0,0,.031-.609.6.6,0,0,1,.04-.152v0l0-.007,0-.006,0-.008a.629.629,0,0,0,.055-.223,1.743,1.743,0,0,0-.047-.33V7.325c-.012-.06-.023-.117-.03-.167a3.629,3.629,0,0,1-.011-.365V6.709a.081.081,0,0,1,0-.013V6.663a.252.252,0,0,1,.007-.1.009.009,0,0,1,.006,0,.186.186,0,0,1-.008-.087V6.438a.374.374,0,0,0,0-.121l-.062-.263a1.9,1.9,0,0,1,.062-.609c.014-.048.032-.1.05-.141l.01-.027,0-.013,0-.008a1.621,1.621,0,0,0,.106-.337.351.351,0,0,0,.1-.292V4.6l.021.016.007.006.021.017.024.018.022.016.017.012.017.013.038.029a.748.748,0,0,1,.153.432l0,.028,0,.023,0,.023c0,.023.006.048.01.072a1.593,1.593,0,0,0,.3.526.558.558,0,0,0,.08.159.688.688,0,0,1,.042.175v0l.015.05c.03.1.048.165.053.188a.4.4,0,0,1,.009.069v.13c.008.275.021.736.142.736a.4.4,0,0,0,.008.2v0a.633.633,0,0,1,.022.152h0a.493.493,0,0,0-.013.2v.128c0,.01,0,.019,0,.027v.013c0,.056-.018.192-.036.314v.006a1.62,1.62,0,0,0-.021.163.241.241,0,0,1-.036.071l0,.006,0,.006c-.026.039-.054.079-.044.117v.337l.018.034L22,9.153l.015.027,0,.008,0,.008,0,.008.007.014.008.015,0,.008.006.01c.01.017.02.035.031.052a.212.212,0,0,0,.006.055v.009c.008.049.008.08,0,.09a.01.01,0,0,1-.008,0l0,.006v0a1.856,1.856,0,0,0-.112.358,1.39,1.39,0,0,1-.086.258l0,.01-.008.02-.01.027-.009.024,0,.009,0,.01,0,.014,0,.013,0,.008,0,.014,0,.012,0,.006,0,.012v.006c-.052.167-.161.712-.161.734a4.916,4.916,0,0,0-.162.663,2.326,2.326,0,0,0-.12.5,3.434,3.434,0,0,0-.089.641,2.746,2.746,0,0,1-.027.537c-.148.65-.12,1.042.084,1.166a1.327,1.327,0,0,0-.043.334v.018a1.783,1.783,0,0,1-.014.194,2.918,2.918,0,0,1-.057.362v.008a2.229,2.229,0,0,0-.066.534.73.73,0,0,0,.021.16v.014l0,.022a.7.7,0,0,1,.015.088c.006.057.014.119.024.2l0,.029a2.281,2.281,0,0,1-.168,1.6L21,18.149l-.01.014-.011.015c-.023.03-.047.06-.071.089A.192.192,0,0,1,20.819,18.286ZM23.8,16.359h0a2.18,2.18,0,0,1-.435-.037c-.133-.024-.2-.067-.2-.126h-.006a.844.844,0,0,1-.309-.369.961.961,0,0,1-.034-.122l0-.008,0-.016,0-.017-.007-.028v-.013l0-.013V15.6c-.031-.125-.06-.242-.089-.242v-.231a1.146,1.146,0,0,0,.219-.484.252.252,0,0,0-.006-.048v-.012a.105.105,0,0,1,0-.063.01.01,0,0,1,.009,0,.529.529,0,0,1,.071-.1l0,0L23,14.4,23,14.391l0,0,0,0,0,0a.314.314,0,0,0,.092-.17c0-.024.32-.482.544-.514,0-.026.027-.136.057-.136a.868.868,0,0,0,.136-.295.69.69,0,0,0,.118-.379v-.008s0,0,0,0v-.154c.028,0,.053-.087.053-.178h-.006l-.05,0h-.009l-.028,0H23.9c-.02,0-.071.006-.1.006h-.013s0,0,0,0c-.027-.011-.308-.074-.33-.074a1.26,1.26,0,0,1-.387-.5h-.024c-.23,0-.6-.136-.66-.348a.035.035,0,0,0-.012-.025.107.107,0,0,0-.067-.027.526.526,0,0,0-.018-.111l0-.011a.291.291,0,0,1-.014-.108c.113-.154.2-.233.254-.233v-.084a.115.115,0,0,1-.036-.094c.007-.007.045-.042.116-.122.039-.045.074-.08.1-.1l.006-.007a2.43,2.43,0,0,1,.472-.3l.059-.046.007-.006.015-.012.029-.022.017-.013.024-.019.01-.008.016-.013c.048-.038.087-.068.118-.09a3.464,3.464,0,0,1,.473-.208l.006,0,.007,0,.006,0,.013,0,.01,0,.016-.006.022-.008h0l.01,0,.028-.01.14-.052.252-.147a2.2,2.2,0,0,1,.345-.052.6.6,0,0,1,.045-.1l0,0,0-.008,0,0,0,0,0,0,0,0,0,0a.711.711,0,0,0,.067-.161A1.436,1.436,0,0,0,25,8.924a.773.773,0,0,0-.015-.145v-.01l0-.01V8.751a.718.718,0,0,1-.017-.143l0-.041,0-.035a.778.778,0,0,0-.069-.3.122.122,0,0,0-.09-.094A.4.4,0,0,0,24.6,8.1a1.117,1.117,0,0,0-.195.017h-.021l-.013,0-.277-.02h-.3a.848.848,0,0,1-.164-.009.766.766,0,0,0-.079,0H23.5a.4.4,0,0,1-.073,0,.206.206,0,0,1-.092-.014.726.726,0,0,1-.266-.369c0-.022,0-.051.009-.109.012-.1.027-.233-.014-.279a2.036,2.036,0,0,0-.208-.087c-.239-.093-.567-.22-.567-.3l-.005,0,0,0c-.024.019-.04.031-.054.031s-.016-.005-.02-.017a.335.335,0,0,1,.022-.312.546.546,0,0,1,.455-.15,1.421,1.421,0,0,1,.349-.231.4.4,0,0,1,.262-.158c0-.009.052-.168.131-.168.021-.03.021-.03.047-.03l0,0,0,0,.006-.008c.018-.022.047-.058.067-.058l.015,0a1.867,1.867,0,0,1,.252-.059.748.748,0,0,0,.169-.086L24,5.7l.014-.008.014-.008.007,0,.018-.011a.773.773,0,0,1,.164-.087l0,0a1.129,1.129,0,0,1,.438-.2,2.013,2.013,0,0,1,.236-.128l.01,0,.006,0,.055-.028.055-.027a.628.628,0,0,1,.181-.053.037.037,0,0,1,.013,0,.6.6,0,0,1,.1-.02h.009l.019,0c.077-.011.083-.016.083-.017a.528.528,0,0,0,.135-.047l.008,0,.008,0,.013-.006.008,0,.027-.011.013,0c.032-.01.059-.02.087-.031l.014,0,0,0A1.057,1.057,0,0,1,26.11,4.9a1.992,1.992,0,0,1,.362-.2l.011-.006.012,0c.09-.039.154-.068.154-.086a1.947,1.947,0,0,0,.481-.137,4.013,4.013,0,0,1,.617-.094,2.153,2.153,0,0,1,.429-.094H28.2a1.441,1.441,0,0,0,.615-.175c.13,0,.377.094.377.242.031,0,.142.12.177.2a1.4,1.4,0,0,0,.129.221l0,0a1.223,1.223,0,0,1,.152.28l0,.013a.36.36,0,0,1,.027.271l0,.008,0,.008,0,.008a.286.286,0,0,0-.041.134,1.032,1.032,0,0,0,0,.18v.008a.488.488,0,0,1-.052.336,2.217,2.217,0,0,0-.209.273c-.007.026-.254.568-.414.568,0,.006-.024.034-.1.106l-.006.006L28.836,7,28.83,7l-.006.006-.006.006,0,0a1.634,1.634,0,0,0-.287.331l-.142.125a1.618,1.618,0,0,0-.162.558.124.124,0,0,0-.017.031l0,.008,0,.007v0a.125.125,0,0,1-.042.066.907.907,0,0,1,.229.137l.089.085.236.126.549.4.05.041.022.018.017.014.012.009a1.172,1.172,0,0,1,.249.243l.011.03a.446.446,0,0,1,.041.243l-.022.085a.362.362,0,0,0,.008.1v0a.264.264,0,0,1,.007.083.649.649,0,0,1-.072.171l0,0c-.012.022-.024.043-.035.066a.743.743,0,0,0-.028.073l0,.013-.008.022-.006.019c-.026.113-.311.361-.448.481l-.037.034L29,10.66l-.008.008c-.009.01-.046.065-.11.164l-.054.082-.021.032-.023.036-.016.024-.015.024-.006.01-.008.012-.016.024-.015.023-.027.041c-.066.1-.129.194-.139.2a.062.062,0,0,0-.052-.02.931.931,0,0,0-.334.146h.036a.18.18,0,0,1,.008.054v.007c0,.044,0,.085.071.085a2.279,2.279,0,0,0-.134.576l0,0v.01c0,.013-.006.028-.013.05l-.006.02,0,.012-.006.022-.01.035,0,.011a.764.764,0,0,0-.043.187,3.028,3.028,0,0,1,.827-.073.017.017,0,0,0,0,.008.634.634,0,0,0,.278.108,2.586,2.586,0,0,1,.5.031c-.035.043-.233.354-.178.472a.082.082,0,0,0,.083.043.876.876,0,0,1,.22.018.172.172,0,0,1-.041.066.428.428,0,0,0-.064.136l-.007.019,0,.01a.266.266,0,0,1-.009.025.652.652,0,0,1-.267.368,3.622,3.622,0,0,0-.4.3,1.637,1.637,0,0,1-.2.143l-.02.013-.015.01-.016.01-.013.008a1.528,1.528,0,0,0-.265.186,2.149,2.149,0,0,0-.382.125l-.3.148a.6.6,0,0,1-.121.039l-.012,0a.67.67,0,0,0-.133.041,2.3,2.3,0,0,1-.328.157,1.034,1.034,0,0,1-.325.169h-.008l0,0a2.485,2.485,0,0,1-.587.365.853.853,0,0,1-.184.136,2.189,2.189,0,0,1-.5.185l-.01,0h-.008l-.006,0h-.006l-.008,0h-.013l-.012,0h-.006c-.13.034-.194.052-.25.068l-.44.231a1.274,1.274,0,0,1-.233.064c-.059.012-.112.023-.17.041a1.9,1.9,0,0,1-.335.089h0l-.008,0-.01,0-.045.01A1.014,1.014,0,0,1,23.8,16.359ZM29.395,11.8a.373.373,0,0,1-.057,0c-.022,0-.039,0-.049-.013a.033.033,0,0,1,0-.03c.012-.017.073-.11.061-.132a.008.008,0,0,0-.009,0,.521.521,0,0,1,.088-.05l.006,0,.006,0,.011-.006,0,0,.01-.006c.027-.013.036-.02.036-.022a1.078,1.078,0,0,0,.067-.295A.685.685,0,0,0,29.69,11s0,0,0,0a.069.069,0,0,0,0-.019v-.008c0-.005,0-.01,0-.013a.03.03,0,0,1,.018,0,.572.572,0,0,0,.109-.119l.038-.048a.922.922,0,0,0,.345-.756.817.817,0,0,0-.05-.179v0l0-.011,0-.006,0-.006,0-.006,0-.007,0-.006,0-.006a.883.883,0,0,1-.066-.219l.273.126a.356.356,0,0,0,.04.018l.005,0,.015.006.011,0,.015.006.014,0,.006,0,.013,0h0l.009,0,.008,0a.5.5,0,0,1,.244.133.238.238,0,0,0,.072.061.261.261,0,0,1,.117-.025.718.718,0,0,1,.286.078l.117.034.021.006.036.01.015,0c.024,0,.115.032.115.074a.171.171,0,0,1,.065.123c0,.035.008.06.013.087,0,.009.006.019.01.028l0,.014.006.017,0,.009a.767.767,0,0,1,.05.237.9.9,0,0,1-.029.19.923.923,0,0,0-.029.346.712.712,0,0,1-.491.32.346.346,0,0,1-.136-.027h-.008a.144.144,0,0,0-.045.012l-.011,0,0,0-.012,0a.159.159,0,0,1-.045.015s-.006,0-.006,0a.209.209,0,0,0-.087-.018.48.48,0,0,0-.132.024l-.064.015-.34.042-.345.1a.235.235,0,0,0-.073.024l-.01,0-.006,0-.006,0A1.042,1.042,0,0,1,29.395,11.8Zm39.491,0h-.029a1.09,1.09,0,0,1-.293-.139l0,0a.827.827,0,0,0-.345-.143l-.02,0h-.008c-.279-.052-.439-.079-.475-.079a1.162,1.162,0,0,0-.172-.011h-.106l-.107,0a1.02,1.02,0,0,1-.217-.024,1.377,1.377,0,0,1-.418-.2c-.061-.061-.4-.356-.534-.463a3.948,3.948,0,0,1-.507-.788.341.341,0,0,1,0-.251l.043-.126c.005,0,.03-.006.06-.015l.015,0h.016l.011,0a2.222,2.222,0,0,1,.379-.07,2.7,2.7,0,0,1,.517-.073l.184-.031c.172-.026.647-.054.843-.066h.212c.185-.008.295-.016.3-.018h0a4.159,4.159,0,0,1,.634.032,3.8,3.8,0,0,1,.771.17l.026.007.028.008.023.006.007,0,.022.006.045.012.2.051h.038a1.129,1.129,0,0,0,.179-.018h0l.012,0a1.315,1.315,0,0,1,.206-.022.291.291,0,0,1,.123-.02c.211,0,.546.085.546.156a.421.421,0,0,0,0,.211.475.475,0,0,1,0,.219c-.017.028-.048.039-.1.055l-.007,0-.009,0a.452.452,0,0,0-.086.035.445.445,0,0,0-.177.177.275.275,0,0,0-.038.214v.007a.4.4,0,0,1,0,.115,1.275,1.275,0,0,1-.481.79c-.04.012-.077.023-.117.033l-.01,0h-.016l-.013,0h-.008l-.01,0a.724.724,0,0,0-.144.038.577.577,0,0,0-.11.051l-.007,0,0,0-.03.017-.006,0-.01.006-.006,0-.007,0a.729.729,0,0,1-.119.057.324.324,0,0,1-.106.014l-.071,0H69.36l-.031,0-.048,0a.781.781,0,0,0-.123.02h0l-.01,0h-.013l-.01,0-.007,0A1.018,1.018,0,0,1,68.886,11.794ZM70.34,8.785a.306.306,0,0,1-.117-.029l-.01,0h-.008l-.027-.013a.516.516,0,0,0-.139-.045L69.3,8.671l-.486-.126c-.034,0-.664-.287-.858-.379l-.189-.084-.177-.2-.01-.006-.027-.013-.046-.023-.027-.014-.024-.013-.011-.006L67.42,7.8l-.031-.016-.016-.008-.014-.007,0,0-.033-.017L67.3,7.732l-.013-.007a4.508,4.508,0,0,0-.458-.221.631.631,0,0,1-.4-.318.394.394,0,0,1,0-.344.236.236,0,0,1,.193-.177.818.818,0,0,1,.372-.138.359.359,0,0,1,.2-.084l.634-.19c.141-.01.242-.014.326-.014a2.67,2.67,0,0,1,.41.025,2.634,2.634,0,0,0,.591.1.362.362,0,0,1,.1.009h.129a.42.42,0,0,0,.134-.02.2.2,0,0,1,.093-.019.773.773,0,0,1,.4.147c.021.021.038.038.064.067l0,0,0,0,0,0,0,0,.007.007a.981.981,0,0,0,.152.142.66.66,0,0,0,.119.038l.016,0a.391.391,0,0,1,.236.115.56.56,0,0,1,.076.192v0a.467.467,0,0,0,.085.2.274.274,0,0,0,.037.015l.006,0,.006,0,.006,0,.006,0,.009,0,.01,0c.094.031.183.06.17.191A2.132,2.132,0,0,0,71,8.009a.5.5,0,0,0-.1.119l-.009.012c-.013.02-.027.039-.042.058a.3.3,0,0,0-.048.084l-.009.016,0,.006-.006.012,0,.007,0,.008-.009.019,0,0c-.073.149-.172.352-.271.381A.273.273,0,0,1,70.34,8.785Zm-7.3-2.636H63a1.116,1.116,0,0,1-.307-.1l-.006,0-.006,0-.008,0-.008,0-.031-.014-.006,0c-.043-.015-.093-.031-.157-.048l-.01,0c-.2-.052-.326-.086-.314-.4,0-.011,0-.022,0-.031V5.512a.344.344,0,0,1,.059-.247.218.218,0,0,0,.031-.042l0,0c.031-.047.073-.11.112-.11a.321.321,0,0,1,.063.116l.03,0h.02c.006,0,.009,0,.009,0a1.053,1.053,0,0,1,.114-.066l.016-.008.008,0,0,0,0,0,.017-.01a.611.611,0,0,0,.154-.1H62.8l.008,0,.012,0,.008,0,.012,0,.017,0,.02-.006.017,0,.013,0c.088-.025.354-.1.474-.147a3.461,3.461,0,0,1,.537-.057h.007l.129-.006.04,0,.079-.01h.009a4.63,4.63,0,0,0,.5-.078,4.007,4.007,0,0,1,.632-.179l.142-.013.05,0c.138-.014.48-.047.6-.055h.008a2.208,2.208,0,0,0,.288-.052l.023,0,.013,0,.013,0h.007l.017,0h.019l.012,0h.034l.016,0,.015,0h.006l.012,0,.022,0,.018,0a3.472,3.472,0,0,1,.484-.086l.283-.052.23-.106.074-.078L67.714,4l0,0,0,0,0,0,0,0,0,0c.109-.114.169-.177.174-.21a1.581,1.581,0,0,0-.89-.7c-.072-.009-.159-.017-.28-.025a2.267,2.267,0,0,1-.4-.05.223.223,0,0,0-.055-.027l-.015-.006-.008,0c-.061-.022-.129-.046-.125-.08a1.809,1.809,0,0,0,.344-.178,1.158,1.158,0,0,0,.241.02c.089,0,.3-.007.358-.073a.052.052,0,0,0,.013-.042.541.541,0,0,0-.188-.032,1.745,1.745,0,0,0-.479.073l-.149.054a.507.507,0,0,0-.175-.047l-.02,0-.016,0h-.009c-.015.2-.315.355-.523.377a.132.132,0,0,1-.1-.05c-.019-.019-.034-.034-.052-.034a.152.152,0,0,1,.029-.058.154.154,0,0,0,.037-.088,1.67,1.67,0,0,0,.468-.175l.092-.046.017-.013.008-.006a.217.217,0,0,1,.1-.055h0c-.01,0-.052-.021-.052-.031a.194.194,0,0,1-.067.019c-.012,0-.018,0-.02-.011-.016-.069.4-.45.589-.543l0,0,0,0,.008,0,0,0,0,0,0,0a.288.288,0,0,1,.111-.047l-.026-.052-.006,0-.006,0-.008,0a.608.608,0,0,1,.3-.166H67a.254.254,0,0,1,.064.01h0l.015,0,.01,0h.01a.362.362,0,0,0,.088.014c.013,0,.019-.015.021-.021a2.407,2.407,0,0,1,.347-.652A.4.4,0,0,1,67.7.973l.013,0c.019,0,.042-.008.061-.013a1.169,1.169,0,0,1,.25.062l.006,0,.008,0,.007,0h.008l.007,0,.013,0,.019.006a1.021,1.021,0,0,0,.122.039l.026.013.023.011.019.009.024.012,0,0,0,0,.02.01.02.01a3.309,3.309,0,0,1,.331.173,1.932,1.932,0,0,0,.225.093l.01,0,0,0,.008,0,.035.013.009,0,.01,0,.012,0,.015.006.015.006a.618.618,0,0,0,.15.058l.008,0,.02.006h.006l.029.008.022.007h.006l.011,0h.006l.008,0,.008,0,.276.2a.641.641,0,0,0,.138.034l.01,0c.019,0,.049.008.088.017A.933.933,0,0,1,70.2,2.1a.919.919,0,0,1,.025.422v.032a.519.519,0,0,0,0,.145,1.284,1.284,0,0,0,.043.312l.008.042,0,.019,0,.01c.008.043.013.076.017.1a.211.211,0,0,1-.006.1l0,.009,0,.007,0,.011V3.33a.406.406,0,0,0-.022.117.139.139,0,0,0,.042.1.434.434,0,0,0,.29.1h.034a1.386,1.386,0,0,1,.365-.043c.109,0,.234.01.331.018h.031l.029,0h.013l.048,0,.187.014h.036c.057,0,.12,0,.157-.006l.033,0h.1l.04,0c.119-.009.245-.017.365-.017a.764.764,0,0,1,.617.193.22.22,0,0,1,.05.187c-.036.181-.28.33-.354.371a.29.29,0,0,1-.044.024l-.007,0L72.6,4.4a.335.335,0,0,0-.154.112.2.2,0,0,0-.013.181l0,.024a.5.5,0,0,1,.011.205.237.237,0,0,0,0,.031v.017c-.006.052-.015.122-.045.131h-.008a.86.86,0,0,0-.174.045l-.01,0h-.01l-.013,0h0l-.01,0-.013,0-.013,0-.015,0-.034.01a1.321,1.321,0,0,1-.157.045.257.257,0,0,1-.063,0,.721.721,0,0,1-.228-.045l-.013,0a.819.819,0,0,0-.226-.043h-.023c-.029,0-.1.017-.222.044l-.008,0h-.022a4.9,4.9,0,0,1-.727.118l-.1,0H68.643c-.205,0-.408,0-.481,0-.518.042-1.145.042-1.648.042a7.576,7.576,0,0,0-1.2.179l-.743.21c-.1.022-.2.037-.292.052l-.014,0-.016,0a2.528,2.528,0,0,0-.477.1c-.04.014-.078.029-.122.05l-.025.01-.006,0A1.68,1.68,0,0,1,63.043,6.15ZM13.216,3.5a.112.112,0,0,1-.063-.02.1.1,0,0,0-.062-.023V3.406l.157-.127a2.653,2.653,0,0,1,.491.056l.015,0h.008l.012,0,.012,0H13.8l.011,0,.01,0a3.5,3.5,0,0,0,.393.055h-.048a1.052,1.052,0,0,1-.247.034,1.535,1.535,0,0,1-.176-.014l-.21-.042a.227.227,0,0,1-.089.054l-.208.061Z" transform="translate(38.61 1.702)" fill="#bec2d0"/>
      </g>
    </g>
  </g>
</svg>
