<svg xmlns="http://www.w3.org/2000/svg" width="202.406" height="80.296" viewBox="0 0 202.406 80.296">
  <g id="移动端-norton" transform="translate(-1458 -2064)">
    <g id="矩形_1001" data-name="矩形 1001" transform="translate(1461.973 2075.919)" fill="#fff" stroke="#c2c2c2" stroke-width="1">
      <rect width="190.707" height="67.542" rx="33.771" stroke="none"/>
      <rect x="0.5" y="0.5" width="189.707" height="66.542" rx="33.271" fill="none"/>
    </g>
    <path id="联合_9" data-name="联合 9" d="M9.175,5.961V1.255L7.92,5.961H7.135L5.883,1.255V5.961H4.862V0h1.57l1.1,3.92L8.549,0h1.567V5.961Zm-7.761,0V1.021H0V0H4.08V1.021H2.588V5.961Z" transform="translate(1650.29 2074.647)" fill="#a0a0a0"/>
    <path id="路径_454" data-name="路径 454" d="M49.882,249.408A24.073,24.073,0,1,0,66.9,290.5a24.191,24.191,0,0,0,7.057-17.017,24.093,24.093,0,0,0-24.073-24.073m0,59.255a35.182,35.182,0,1,1,35.182-35.182,35.246,35.246,0,0,1-35.182,35.182" transform="translate(1443.3 1835.633)" fill="#ffc20e"/>
    <rect id="矩形_991" data-name="矩形 991" width="2.735" height="2.735" transform="translate(1531.504 2069.47)" fill="#ffc20e"/>
    <rect id="矩形_992" data-name="矩形 992" width="2.735" height="2.735" transform="translate(1531.504 2064)" fill="#ffc20e"/>
    <rect id="矩形_993" data-name="矩形 993" width="2.566" height="2.667" transform="translate(1523.805 2072.205)" fill="#fff"/>
    <rect id="矩形_994" data-name="矩形 994" width="2.6" height="2.566" transform="translate(1518.707 2077.472)"/>
    <rect id="矩形_995" data-name="矩形 995" width="2.87" height="2.566" transform="translate(1526.338 2074.872)"/>
    <rect id="矩形_996" data-name="矩形 996" width="2.566" height="2.465" transform="translate(1516.141 2075.007)"/>
    <rect id="矩形_997" data-name="矩形 997" width="2.566" height="2.566" transform="translate(1523.805 2077.472)"/>
    <rect id="矩形_998" data-name="矩形 998" width="2.701" height="2.735" transform="translate(1528.803 2066.769)"/>
    <rect id="矩形_999" data-name="矩形 999" width="4.997" height="2.735" transform="translate(1523.805 2069.47)"/>
    <rect id="矩形_1000" data-name="矩形 1000" width="2.499" height="5.267" transform="translate(1521.307 2072.205)"/>
    <path id="路径_455" data-name="路径 455" d="M116.893,253.5v2.566h-2.6V253.5h-4.288v1.857h-2.3v2.3h2.566v2.566h-2.566v-2.566h-2.735v4.018h-2.566v2.566h-1.722V266.8H98.8a145.217,145.217,0,0,0-9.015,16.916c-5.774-8.036-10.264-11.209-13.776-12.357-1.891-.574-4.187,1.486-1.047,4.761,7.259,8,9.555,14.586,11.75,19.887,1.182,2.769,6.415,3.208,7.462.371a84.579,84.579,0,0,1,9.319-18.232v-2.87h2.06v-2.566h2.161v-3h2.566v-2.87h-2.6V264.2h2.6v2.634h2.532v-2.6h2.026V261.1h2.3v-2.161h2.195V253.5Z" transform="translate(1404.414 1826.538)"/>
    <g id="组_765" data-name="组 765" transform="translate(1535.475 2084.785)">
      <path id="路径_436" data-name="路径 436" d="M499.188,296.435a4.546,4.546,0,1,1,4.546-4.546,4.556,4.556,0,0,1-4.546,4.546m0-13.435a8.888,8.888,0,1,0,8.888,8.888A8.895,8.895,0,0,0,499.188,283" transform="translate(-428.886 -277.228)"/>
      <path id="路径_437" data-name="路径 437" d="M339.388,296.435a4.546,4.546,0,1,1,4.546-4.546,4.556,4.556,0,0,1-4.546,4.546m0-13.435a8.888,8.888,0,1,0,8.888,8.888A8.895,8.895,0,0,0,339.388,283" transform="translate(-309.9 -277.228)"/>
      <path id="路径_438" data-name="路径 438" d="M426.448,283.734a10.038,10.038,0,0,1-1.737.332c-1.532,0-1.839-.536-1.839-1.967v-8.224H426.5v-3.423h-3.627V265.6h-4.086l-.869,4.853h-3.065c-2.324,0-4.087,1.43-5.21,3.653l-1.4-3.653H405.3v17.036h5.006v-7.407c0-3.729,2.222-6.13,4.827-6.207h2.733v8.48c0,3.984,2.043,5.466,5.364,5.466a12.349,12.349,0,0,0,3.831-.613Z" transform="translate(-365.595 -264.272)"/>
      <path id="路径_439" data-name="路径 439" d="M569.478,289.889v11.672H564.6V284.5h2.963l1,2.605" transform="translate(-484.209 -278.345)"/>
      <path id="路径_440" data-name="路径 440" d="M580,286.014A7.889,7.889,0,0,1,585.874,283c4.061,0,5.721,3.244,5.721,6.232v11.213h-5.006V289.385a2.319,2.319,0,0,0-2.529-2.248,4.163,4.163,0,0,0-3.09,1.66" transform="translate(-495.676 -277.228)"/>
      <path id="路径_441" data-name="路径 441" d="M254.4,260.4h5.593l7.662,14.584V260.4h4.623v23.217h-5.057l-8.2-16.065v16.065H254.4Z" transform="translate(-253.236 -260.4)"/>
      <text id="SECURED" transform="translate(0 47.41)" fill="#a0a0a0" font-size="22" font-family="SanFranciscoDisplay-Regular, San Francisco Display"><tspan x="0" y="0">SECURED</tspan></text>
    </g>
  </g>
</svg>
