<svg xmlns="http://www.w3.org/2000/svg" width="24" height="24" viewBox="0 0 24 24">
  <g id="组_2550" data-name="组 2550" transform="translate(-900 -931)">
    <rect id="矩形_2272" data-name="矩形 2272" width="24" height="24" transform="translate(900 931)" fill="#cfd2e0" opacity="0"/>
    <path id="银行卡_支付_账单_付款_金钱_储存卡_" data-name="银行卡 支付 账单 付款 金钱 储存卡 " d="M79.386,163.219v-3h-21v3Zm0,1.5h-21v11.249h21Zm-21-6h21a1.5,1.5,0,0,1,1.5,1.5v15.748a1.5,1.5,0,0,1-1.5,1.5h-21a1.5,1.5,0,0,1-1.5-1.5V160.22A1.5,1.5,0,0,1,58.389,158.72Zm3,9h4.5a.75.75,0,1,1,0,1.5h-4.5a.75.75,0,1,1,0-1.5Zm0,3h3a.75.75,0,1,1,0,1.5h-3a.75.75,0,1,1,0-1.5Z" transform="translate(843.111 774.78)" fill="#616577"/>
  </g>
</svg>
