<svg xmlns="http://www.w3.org/2000/svg" xmlns:xlink="http://www.w3.org/1999/xlink" width="129.465" height="32.903" viewBox="0 0 129.465 32.903">
  <defs>
    <clipPath id="clip-path">
      <path id="Clip_2" data-name="Clip 2" d="M21.568,19.922A5.261,5.261,0,0,1,17.325,18.2,6.363,6.363,0,0,1,16.1,13.007a8.27,8.27,0,0,1,2.58-4.885A7.369,7.369,0,0,1,23.622,6.21c2.472,0,3.529.772,3.981,1.42l.219.341L28,7.025a.563.563,0,0,1,.569-.5h3.368a.6.6,0,0,1,.467.228.521.521,0,0,1,.1.452l-1.794,11.57a1.029,1.029,0,0,1-1.005.828H26.684a.6.6,0,0,1-.468-.23.515.515,0,0,1-.1-.448l.13-.943,0,0A6.527,6.527,0,0,1,21.568,19.922ZM24.41,9.795a3.771,3.771,0,0,0-3.761,3.255,2.734,2.734,0,0,0,.525,2.372,2.779,2.779,0,0,0,2.23.916,3.822,3.822,0,0,0,3.848-3.23,2.951,2.951,0,0,0-.611-2.389A2.761,2.761,0,0,0,24.41,9.795Zm12.115,9.812h-2.93a.557.557,0,0,1-.419-.192.619.619,0,0,1-.148-.487L35.913.5a.6.6,0,0,1,.569-.5h3.281a.553.553,0,0,1,.419.191.627.627,0,0,1,.149.489l-2.844,18.1A.979.979,0,0,1,36.525,19.607Zm-32.322,0H.573a.557.557,0,0,1-.419-.192A.619.619,0,0,1,0,18.928L2.848.828A.979.979,0,0,1,3.81,0H10.9c2.342,0,4.112.623,5.117,1.8a5.3,5.3,0,0,1,.875,4.558c-.655,4.453-3.348,6.71-8,6.71H6.653a.979.979,0,0,0-.962.828L4.9,19.029A.726.726,0,0,1,4.2,19.607ZM7.746,3.918a.6.6,0,0,0-.569.495L6.434,9.141H7.484c1.871,0,3.805,0,4.2-2.533a2.3,2.3,0,0,0-.35-1.968c-.612-.723-1.8-.723-3.062-.723Z" transform="translate(0.187 0.006)" fill="none"/>
    </clipPath>
    <clipPath id="clip-path-2">
      <path id="Clip_5" data-name="Clip 5" d="M38.318,24.182H34.906a.573.573,0,0,1-.513-.307.6.6,0,0,1,.033-.622l3.542-4.964L34.207,7.305a.568.568,0,0,1,.079-.52.6.6,0,0,1,.489-.256H38.1a1.016,1.016,0,0,1,.962.7l1.968,6.634,4.68-6.9A.943.943,0,0,1,46.5,6.53h3.411a.574.574,0,0,1,.516.306.6.6,0,0,1-.034.614L39.106,23.761A.958.958,0,0,1,38.318,24.182Zm-16.708-4.26A5.386,5.386,0,0,1,17.324,18.2,6.361,6.361,0,0,1,16.1,13.007a7.752,7.752,0,0,1,7.522-6.8c2.471,0,3.528.772,3.98,1.42l.22.341L28,7.025a.563.563,0,0,1,.569-.5h3.367a.6.6,0,0,1,.469.23.516.516,0,0,1,.1.45L30.708,18.778a.979.979,0,0,1-.962.828H26.684a.557.557,0,0,1-.419-.192.621.621,0,0,1-.149-.487l.131-.943,0,0A6.486,6.486,0,0,1,21.611,19.922Zm2.8-10.128a3.772,3.772,0,0,0-3.762,3.255,2.734,2.734,0,0,0,.526,2.372,2.8,2.8,0,0,0,2.274.916,3.8,3.8,0,0,0,3.805-3.23,3.1,3.1,0,0,0-.569-2.389A2.9,2.9,0,0,0,24.41,9.795ZM3.984,19.607H.617a.613.613,0,0,1-.468-.2A.6.6,0,0,1,0,18.928L2.892.828A.949.949,0,0,1,3.853,0H10.9c2.343,0,4.112.623,5.117,1.8a5.458,5.458,0,0,1,.919,4.558c-.7,4.453-3.407,6.71-8.048,6.71H6.653a.979.979,0,0,0-.962.828l-.744,4.882A.978.978,0,0,1,3.984,19.607ZM7.79,3.918a.611.611,0,0,0-.613.5L6.434,9.141H7.528c1.849,0,3.761,0,4.154-2.533a2.3,2.3,0,0,0-.349-1.968c-.613-.723-1.8-.723-3.062-.723Z" transform="translate(0.132 0.006)" fill="none"/>
    </clipPath>
    <clipPath id="clip-path-3">
      <path id="Clip_8" data-name="Clip 8" d="M5.7,0A1.466,1.466,0,0,0,4.258,1.236h0l-4.247,27a.874.874,0,0,0,.862,1.017h6.3l1.547-9.831q-.007.033-.013.067h0l0,.022a.2.2,0,0,1,0-.022h0l.048-.294-.036.227a1.46,1.46,0,0,1,1.423-1.147h3c5.878,0,10.484-2.393,11.831-9.317h0c.044-.206.074-.4.1-.6h0c.4-2.555,0-4.3-1.386-5.876h0C22.174.745,19.422,0,15.906,0H5.7Z" transform="translate(0.299 0.323)" fill="none"/>
    </clipPath>
    <clipPath id="clip-path-4">
      <path id="Clip_11" data-name="Clip 11" d="M18.243.6C16.9,7.525,12.29,9.918,6.412,9.918h-3a1.461,1.461,0,0,0-1.439,1.236h0L.446,20.9.009,23.656a.773.773,0,0,0,.757.89H6.079a1.279,1.279,0,0,0,1.26-1.082h0l.052-.272,1-6.355.066-.35A1.275,1.275,0,0,1,9.718,15.4h.8c5.143,0,9.171-2.091,10.348-8.151h0c.494-2.528.236-4.641-1.063-6.126h0A5.123,5.123,0,0,0,18.347,0h0c-.044.2-.065.4-.1.6Z" transform="translate(0.164 0.072)" fill="none"/>
    </clipPath>
    <clipPath id="clip-path-5">
      <path id="Clip_14" data-name="Clip 14" d="M3.009,0a1.282,1.282,0,0,0-.551.123h0a1.275,1.275,0,0,0-.708.955h0l-1.7,10.8L0,12.2A1.454,1.454,0,0,1,1.435,10.96h3c5.878,0,10.484-2.393,11.831-9.317h0c.044-.206.074-.4.1-.6h0A7.324,7.324,0,0,0,15.26.578h0a2.723,2.723,0,0,0-.3-.1h0a10.274,10.274,0,0,0-1.312-.29h0A16.523,16.523,0,0,0,11.009,0h-8Z" transform="translate(0 0.321)" fill="none"/>
    </clipPath>
  </defs>
  <g id="paypal" transform="translate(-0.299 -0.371)">
    <g id="Group_3" data-name="Group 3" transform="translate(89.241 9.087)">
      <path id="Clip_2-2" data-name="Clip 2" d="M21.568,19.922A5.261,5.261,0,0,1,17.325,18.2,6.363,6.363,0,0,1,16.1,13.007a8.27,8.27,0,0,1,2.58-4.885A7.369,7.369,0,0,1,23.622,6.21c2.472,0,3.529.772,3.981,1.42l.219.341L28,7.025a.563.563,0,0,1,.569-.5h3.368a.6.6,0,0,1,.467.228.521.521,0,0,1,.1.452l-1.794,11.57a1.029,1.029,0,0,1-1.005.828H26.684a.6.6,0,0,1-.468-.23.515.515,0,0,1-.1-.448l.13-.943,0,0A6.527,6.527,0,0,1,21.568,19.922ZM24.41,9.795a3.771,3.771,0,0,0-3.761,3.255,2.734,2.734,0,0,0,.525,2.372,2.779,2.779,0,0,0,2.23.916,3.822,3.822,0,0,0,3.848-3.23,2.951,2.951,0,0,0-.611-2.389A2.761,2.761,0,0,0,24.41,9.795Zm12.115,9.812h-2.93a.557.557,0,0,1-.419-.192.619.619,0,0,1-.148-.487L35.913.5a.6.6,0,0,1,.569-.5h3.281a.553.553,0,0,1,.419.191.627.627,0,0,1,.149.489l-2.844,18.1A.979.979,0,0,1,36.525,19.607Zm-32.322,0H.573a.557.557,0,0,1-.419-.192A.619.619,0,0,1,0,18.928L2.848.828A.979.979,0,0,1,3.81,0H10.9c2.342,0,4.112.623,5.117,1.8a5.3,5.3,0,0,1,.875,4.558c-.655,4.453-3.348,6.71-8,6.71H6.653a.979.979,0,0,0-.962.828L4.9,19.029A.726.726,0,0,1,4.2,19.607ZM7.746,3.918a.6.6,0,0,0-.569.495L6.434,9.141H7.484c1.871,0,3.805,0,4.2-2.533a2.3,2.3,0,0,0-.35-1.968c-.612-.723-1.8-.723-3.062-.723Z" transform="translate(0.187 0.006)" fill="none"/>
      <g id="Group_3-2" data-name="Group 3" clip-path="url(#clip-path)">
        <path id="Fill_1" data-name="Fill 1" d="M0,22.844H43.248V0H0Z" transform="translate(-1.269 -1.455)" fill="#179bd7"/>
      </g>
    </g>
    <g id="Group_6" data-name="Group 6" transform="translate(39.043 9.087)">
      <path id="Clip_5-2" data-name="Clip 5" d="M38.318,24.182H34.906a.573.573,0,0,1-.513-.307.6.6,0,0,1,.033-.622l3.542-4.964L34.207,7.305a.568.568,0,0,1,.079-.52.6.6,0,0,1,.489-.256H38.1a1.016,1.016,0,0,1,.962.7l1.968,6.634,4.68-6.9A.943.943,0,0,1,46.5,6.53h3.411a.574.574,0,0,1,.516.306.6.6,0,0,1-.034.614L39.106,23.761A.958.958,0,0,1,38.318,24.182Zm-16.708-4.26A5.386,5.386,0,0,1,17.324,18.2,6.361,6.361,0,0,1,16.1,13.007a7.752,7.752,0,0,1,7.522-6.8c2.471,0,3.528.772,3.98,1.42l.22.341L28,7.025a.563.563,0,0,1,.569-.5h3.367a.6.6,0,0,1,.469.23.516.516,0,0,1,.1.45L30.708,18.778a.979.979,0,0,1-.962.828H26.684a.557.557,0,0,1-.419-.192.621.621,0,0,1-.149-.487l.131-.943,0,0A6.486,6.486,0,0,1,21.611,19.922Zm2.8-10.128a3.772,3.772,0,0,0-3.762,3.255,2.734,2.734,0,0,0,.526,2.372,2.8,2.8,0,0,0,2.274.916,3.8,3.8,0,0,0,3.805-3.23,3.1,3.1,0,0,0-.569-2.389A2.9,2.9,0,0,0,24.41,9.795ZM3.984,19.607H.617a.613.613,0,0,1-.468-.2A.6.6,0,0,1,0,18.928L2.892.828A.949.949,0,0,1,3.853,0H10.9c2.343,0,4.112.623,5.117,1.8a5.458,5.458,0,0,1,.919,4.558c-.7,4.453-3.407,6.71-8.048,6.71H6.653a.979.979,0,0,0-.962.828l-.744,4.882A.978.978,0,0,1,3.984,19.607ZM7.79,3.918a.611.611,0,0,0-.613.5L6.434,9.141H7.528c1.849,0,3.761,0,4.154-2.533a2.3,2.3,0,0,0-.349-1.968c-.613-.723-1.8-.723-3.062-.723Z" transform="translate(0.132 0.006)" fill="none"/>
      <g id="Group_6-2" data-name="Group 6" clip-path="url(#clip-path-2)">
        <path id="Fill_4" data-name="Fill 4" d="M0,27.1H53.406V0H0Z" transform="translate(-1.324 -1.456)" fill="#253b80"/>
      </g>
    </g>
    <g id="Group_9" data-name="Group 9" transform="translate(0 0.049)">
      <path id="Clip_8-2" data-name="Clip 8" d="M5.7,0A1.466,1.466,0,0,0,4.258,1.236h0l-4.247,27a.874.874,0,0,0,.862,1.017h6.3l1.547-9.831q-.007.033-.013.067h0l0,.022a.2.2,0,0,1,0-.022h0l.048-.294-.036.227a1.46,1.46,0,0,1,1.423-1.147h3c5.878,0,10.484-2.393,11.831-9.317h0c.044-.206.074-.4.1-.6h0c.4-2.555,0-4.3-1.386-5.876h0C22.174.745,19.422,0,15.906,0H5.7Z" transform="translate(0.299 0.323)" fill="none"/>
      <g id="Group_9-2" data-name="Group 9" clip-path="url(#clip-path-3)">
        <path id="Fill_7" data-name="Fill 7" d="M0,32.174H28.136V0H0Z" transform="translate(-1.157 -1.138)" fill="#253b80"/>
      </g>
    </g>
    <g id="Group_12" data-name="Group 12" transform="translate(6.865 8.656)">
      <path id="Clip_11-2" data-name="Clip 11" d="M18.243.6C16.9,7.525,12.29,9.918,6.412,9.918h-3a1.461,1.461,0,0,0-1.439,1.236h0L.446,20.9.009,23.656a.773.773,0,0,0,.757.89H6.079a1.279,1.279,0,0,0,1.26-1.082h0l.052-.272,1-6.355.066-.35A1.275,1.275,0,0,1,9.718,15.4h.8c5.143,0,9.171-2.091,10.348-8.151h0c.494-2.528.236-4.641-1.063-6.126h0A5.123,5.123,0,0,0,18.347,0h0c-.044.2-.065.4-.1.6Z" transform="translate(0.164 0.072)" fill="none"/>
      <g id="Group_12-2" data-name="Group 12" clip-path="url(#clip-path-4)">
        <path id="Fill_10" data-name="Fill 10" d="M0,27.467H24.009V0H0Z" transform="translate(-1.292 -1.388)" fill="#179bd7"/>
      </g>
    </g>
    <g id="Group_15" data-name="Group 15" transform="translate(9.01 7.365)">
      <path id="Clip_14-2" data-name="Clip 14" d="M3.009,0a1.282,1.282,0,0,0-.551.123h0a1.275,1.275,0,0,0-.708.955h0l-1.7,10.8L0,12.2A1.454,1.454,0,0,1,1.435,10.96h3c5.878,0,10.484-2.393,11.831-9.317h0c.044-.206.074-.4.1-.6h0A7.324,7.324,0,0,0,15.26.578h0a2.723,2.723,0,0,0-.3-.1h0a10.274,10.274,0,0,0-1.312-.29h0A16.523,16.523,0,0,0,11.009,0h-8Z" transform="translate(0 0.321)" fill="none"/>
      <g id="Group_15-2" data-name="Group 15" clip-path="url(#clip-path-5)">
        <path id="Fill_13" data-name="Fill 13" d="M0,15.118H19.279V0H0Z" transform="translate(-1.456 -1.141)" fill="#222d65"/>
      </g>
    </g>
  </g>
</svg>
