<svg xmlns="http://www.w3.org/2000/svg" xmlns:xlink="http://www.w3.org/1999/xlink"  viewBox="0 0 180 180">
    <defs>
        <linearGradient id="linear-gradient" x1="0.5" x2="1.428" y2="0.5" gradientUnits="objectBoundingBox">
            <stop offset="0" stop-color="#3349f0" stop-opacity="0.2"/>
            <stop offset="0.172" stop-color="#6475f4" stop-opacity="0.169"/>
            <stop offset="0.493" stop-color="#e4e7fd" stop-opacity="0"/>
            <stop offset="1" stop-color="#fff" stop-opacity="0"/>
        </linearGradient>
        <linearGradient id="linear-gradient-2" x1="0.5" x2="0.5" y2="1" gradientUnits="objectBoundingBox">
            <stop offset="0" stop-color="#eaeefc"/>
            <stop offset="0.714" stop-color="#f5f7fe"/>
            <stop offset="1" stop-color="#f9fbff"/>
        </linearGradient>
        <linearGradient id="linear-gradient-3" x1="0.5" x2="0.5" y2="1" gradientUnits="objectBoundingBox">
            <stop offset="0" stop-color="#bfd1ff"/>
            <stop offset="1" stop-color="#5f8afc"/>
        </linearGradient>
        <linearGradient id="linear-gradient-4" x1="0.5" x2="0.5" y2="1" gradientUnits="objectBoundingBox">
            <stop offset="0" stop-color="#5f8aff"/>
            <stop offset="1" stop-color="#5f8aff" stop-opacity="0.502"/>
        </linearGradient>
    </defs>
    <g id="Group_4202" data-name="Group 4202" transform="translate(-40 -903)">
        <rect id="Rectangle_2773" data-name="Rectangle 2773" width="180" height="180" rx="12" transform="translate(40 903)" fill="#c9d0e5" opacity="0"/>
        <g id="Group_4201" data-name="Group 4201" transform="translate(15212 -8992)">
            <path id="Path_4484" data-name="Path 4484" d="M3013.96,1857.836c13.44,19.384,5.276,60.626-21.027,98.783-26.4,38.3-62.2,60.624-85.093,54.733-.2-.053-.408-.107-.611-.164" transform="translate(-18032.936 8055.112)" fill="none" stroke="#3963ef" stroke-linecap="round" stroke-width="2" stroke-dasharray="1.5 8"/>
            <path id="Path_4483" data-name="Path 4483" d="M2891.388,2003.14c-21.689-14.95-15.147-62.064,14.609-105.232s71.461-66.042,93.149-51.092" transform="translate(-18024.541 8059.685)" stroke="#3349f0" stroke-linecap="round" stroke-width="2" fill="url(#linear-gradient)"/>
            <g id="Rectangle_2815" data-name="Rectangle 2815" transform="translate(-15159 9932)" fill="#fff" stroke="#3963ef" stroke-width="2">
                <rect width="113" height="84" rx="10" stroke="none"/>
                <rect x="1" y="1" width="111" height="82" rx="9" fill="none"/>
            </g>
            <circle id="Ellipse_509" data-name="Ellipse 509" cx="2.5" cy="2.5" r="2.5" transform="translate(-15128 9940)" fill="#455ab4"/>
            <circle id="Ellipse_510" data-name="Ellipse 510" cx="2.5" cy="2.5" r="2.5" transform="translate(-15148 9940)" fill="#455ab4"/>
            <circle id="Ellipse_511" data-name="Ellipse 511" cx="2.5" cy="2.5" r="2.5" transform="translate(-15138 9940)" fill="#455ab4"/>
            <circle id="Ellipse_519" data-name="Ellipse 519" cx="5" cy="5" r="5" transform="translate(-15018 9926)" fill="#3963ef"/>
            <g id="Rectangle_2822" data-name="Rectangle 2822" transform="translate(-15159 9950)" stroke="#3963ef" stroke-width="2" fill="url(#linear-gradient-2)">
                <path d="M0,0H113a0,0,0,0,1,0,0V55a11,11,0,0,1-11,11H11A11,11,0,0,1,0,55V0A0,0,0,0,1,0,0Z" stroke="none"/>
                <path d="M2,1H111a1,1,0,0,1,1,1V55a10,10,0,0,1-10,10H11A10,10,0,0,1,1,55V2A1,1,0,0,1,2,1Z" fill="none"/>
            </g>
            <g id="Group_4198" data-name="Group 4198" transform="translate(-15019.192 9975.108) rotate(60)">
                <line id="Line_17" data-name="Line 17" y2="21.626" transform="translate(22.932 78.184)" fill="none" stroke="#3349f0" stroke-linecap="round" stroke-miterlimit="10" stroke-width="2"/>
                <line id="Line_18" data-name="Line 18" y2="10.813" transform="translate(19.083 78.184)" fill="none" stroke="#3349f0" stroke-linecap="round" stroke-miterlimit="10" stroke-width="2"/>
                <path id="Path_4490" data-name="Path 4490" d="M15.537,8.181a1.952,1.952,0,0,1-1.828,1.95c-1.695.109-3.692.259-5.924.259-2.053,0-4.214-.15-5.951-.259A1.955,1.955,0,0,1,0,8.18V0H15.537Z" transform="translate(13.157 68.411)" fill="#394b9b" stroke="#3349f0" stroke-width="2"/>
                <path id="Path_4491" data-name="Path 4491" d="M7.8,0,.4,7.1A1.29,1.29,0,0,0,.011,8.2l2,15.054A1.289,1.289,0,0,0,4.2,24l6.179-6.175Z" transform="translate(0 50.589)" fill="#394b9b" stroke="#3349f0" stroke-width="2"/>
                <path id="Path_4492" data-name="Path 4492" d="M2.582,0l7.4,7.1a1.291,1.291,0,0,1,.386,1.1l-2,15.054A1.29,1.29,0,0,1,6.179,24L0,17.822Z" transform="translate(31.933 50.589)" fill="#394b9b" stroke="#3349f0" stroke-width="2"/>
                <path id="Path_4493" data-name="Path 4493" d="M0,0" transform="translate(21.153 0.905)" fill="#333" opacity="0.4"/>
                <path id="Path_4494" data-name="Path 4494" d="M14.048,0Q11.913,2.238,9.982,4.692A44.22,44.22,0,0,0,.852,27.281,146.486,146.486,0,0,0,2.3,68.9a45.141,45.141,0,0,0,11.749,1.843h0A45.151,45.151,0,0,0,25.8,68.9a145.488,145.488,0,0,0,2.3-25.808,146.413,146.413,0,0,0-.957-16.748,41.625,41.625,0,0,0-7.61-19.78A64.952,64.952,0,0,0,14.048,0" transform="translate(7.106 0.906)" stroke="#3963ef" stroke-width="2" opacity="0.996" fill="url(#linear-gradient-3)"/>
                <circle id="Ellipse_523" data-name="Ellipse 523" cx="7.332" cy="7.332" r="7.332" transform="translate(13.77 23.565)" fill="#455ab4"/>
                <circle id="Ellipse_526" data-name="Ellipse 526" cx="0.841" cy="0.841" r="0.841" transform="translate(20.336 0)" fill="#3963ee"/>
            </g>
            <g id="Group_4193" data-name="Group 4193" transform="translate(-15121.376 9968.593)">
                <path id="Path_3545" data-name="Path 3545" d="M675.446,771.01c-7.3-.134-9.79-.256-11.322-.571a4.986,4.986,0,0,1-2.6-1.35,5.474,5.474,0,0,1-1.231-2.373,15.539,15.539,0,0,1-.526-3.483,82.881,82.881,0,0,1,0-11.291c.235-2.086.349-4.562,1.907-6.007a5.115,5.115,0,0,1,2.553-1.29,206.708,206.708,0,0,1,29.039,0,4.989,4.989,0,0,1,2.988,1.771c1.422,2.236,1.447,5.017,1.591,7.193.06,1.036.06,6.922,0,7.957-.225,3.438-.405,4.654-.916,5.916a4.369,4.369,0,0,1-1.051,1.682,5.036,5.036,0,0,1-2.673,1.366c-6.315.476-11.677.578-17.763.481Z" transform="translate(-659.578 -744.133)" opacity="0.7" fill="url(#linear-gradient-4)"/>
                <path id="Polygon_5" data-name="Polygon 5" d="M5.318.4a.2.2,0,0,1,.364,0l5.188,11.32a.2.2,0,0,1-.182.283H.312a.2.2,0,0,1-.182-.283Z" transform="translate(26.376 7.908) rotate(90)" fill="#fff"/>
            </g>
        </g>
    </g>
</svg>
