<svg xmlns="http://www.w3.org/2000/svg" width="320" height="320" viewBox="0 0 320 320">
  <path id="外圈" d="M160,320a161.186,161.186,0,0,1-32.246-3.251,159.127,159.127,0,0,1-57.212-24.075,160.466,160.466,0,0,1-57.969-70.395,159.2,159.2,0,0,1-9.323-30.034,161.561,161.561,0,0,1,0-64.491A159.125,159.125,0,0,1,27.326,70.543a160.467,160.467,0,0,1,70.4-57.969,159.2,159.2,0,0,1,30.034-9.323,161.561,161.561,0,0,1,64.491,0,159.123,159.123,0,0,1,57.212,24.075,160.466,160.466,0,0,1,57.968,70.4,159.2,159.2,0,0,1,9.323,30.034,161.563,161.563,0,0,1,0,64.491,159.125,159.125,0,0,1-24.075,57.212,160.465,160.465,0,0,1-70.395,57.968,159.191,159.191,0,0,1-30.034,9.323A161.186,161.186,0,0,1,160,320Zm0-308a149.092,149.092,0,0,0-29.827,3.007A147.189,147.189,0,0,0,77.252,37.276,148.434,148.434,0,0,0,23.63,102.392a147.254,147.254,0,0,0-8.624,27.781,149.44,149.44,0,0,0,0,59.654,147.187,147.187,0,0,0,22.269,52.921,148.432,148.432,0,0,0,65.116,53.621,147.251,147.251,0,0,0,27.781,8.624,149.442,149.442,0,0,0,59.654,0,147.189,147.189,0,0,0,52.921-22.269,148.431,148.431,0,0,0,53.621-65.115,147.253,147.253,0,0,0,8.624-27.781,149.442,149.442,0,0,0,0-59.654,147.191,147.191,0,0,0-22.269-52.921A148.433,148.433,0,0,0,217.608,23.63a147.251,147.251,0,0,0-27.781-8.624A149.092,149.092,0,0,0,160,12Z" transform="translate(0 0)" fill="#3f4a65"/>
</svg>
