<svg id="组_2440" data-name="组 2440" xmlns="http://www.w3.org/2000/svg" xmlns:xlink="http://www.w3.org/1999/xlink" width="320" height="320" viewBox="0 0 320 320">
  <defs>
    <clipPath id="clip-path">
      <circle id="椭圆_238" data-name="椭圆 238" cx="104" cy="104" r="104" transform="translate(0.185 0.185)" fill="none"/>
    </clipPath>
    <clipPath id="clip-path-2">
      <circle id="椭圆_240" data-name="椭圆 240" cx="55.5" cy="55.5" r="55.5" transform="translate(-0.224 -0.224)" fill="none"/>
    </clipPath>
  </defs>
  <g id="组_2020" data-name="组 2020" transform="translate(55.815 55.815)">
    <g id="组_2019" data-name="组 2019" transform="translate(0 0)" clip-path="url(#clip-path)">
      <rect id="矩形_1735" data-name="矩形 1735" width="223" height="223" transform="translate(-6.815 -6.815)" fill="#1c263e"/>
    </g>
  </g>
  <circle id="椭圆_239" data-name="椭圆 239" cx="104" cy="104" r="104" transform="translate(56 56)" fill="none" stroke="#26304a" stroke-miterlimit="10" stroke-width="2"/>
  <g id="组_2022" data-name="组 2022" transform="translate(105.224 105.224)">
    <g id="组_2021" data-name="组 2021" transform="translate(0 0)" clip-path="url(#clip-path-2)">
      <rect id="矩形_1736" data-name="矩形 1736" width="123" height="123" transform="translate(-6.224 -6.224)" fill="#1c263e"/>
    </g>
  </g>
  <circle id="椭圆_241" data-name="椭圆 241" cx="55.5" cy="55.5" r="55.5" transform="translate(105 105)" fill="none" stroke="#26304a" stroke-miterlimit="10" stroke-width="2"/>
  <path id="减去_27" data-name="减去 27" d="M160,320a161.178,161.178,0,0,1-32.245-3.251,159.122,159.122,0,0,1-57.212-24.075,160.468,160.468,0,0,1-57.969-70.4,159.2,159.2,0,0,1-9.323-30.034,161.558,161.558,0,0,1,0-64.491A159.122,159.122,0,0,1,27.325,70.542a160.467,160.467,0,0,1,70.4-57.969,159.191,159.191,0,0,1,30.034-9.323,161.558,161.558,0,0,1,64.491,0,159.123,159.123,0,0,1,57.212,24.075,160.466,160.466,0,0,1,57.969,70.4,159.189,159.189,0,0,1,9.323,30.034,161.56,161.56,0,0,1,0,64.491,159.123,159.123,0,0,1-24.075,57.212,160.467,160.467,0,0,1-70.4,57.969,159.19,159.19,0,0,1-30.034,9.323A161.182,161.182,0,0,1,160,320Zm0-307.692a148.786,148.786,0,0,0-29.765,3A146.885,146.885,0,0,0,77.423,37.531a148.122,148.122,0,0,0-53.509,64.98,146.951,146.951,0,0,0-8.606,27.723,149.135,149.135,0,0,0,0,59.53,146.887,146.887,0,0,0,22.223,52.811,148.123,148.123,0,0,0,64.98,53.51,146.949,146.949,0,0,0,27.723,8.606,149.13,149.13,0,0,0,59.53,0,146.885,146.885,0,0,0,52.811-22.223,148.125,148.125,0,0,0,53.51-64.981,146.949,146.949,0,0,0,8.606-27.723,149.13,149.13,0,0,0,0-59.53,146.883,146.883,0,0,0-22.223-52.811,148.124,148.124,0,0,0-64.981-53.509,146.951,146.951,0,0,0-27.723-8.606A148.787,148.787,0,0,0,160,12.308Z" fill="#3f4a65"/>
</svg>
