<svg xmlns="http://www.w3.org/2000/svg" width="85.997" height="13.528" viewBox="0 0 85.997 13.528">
  <g id="组_1682" data-name="组 1682" transform="translate(-456 -8200.307)">
    <path id="路径_3647" data-name="路径 3647" d="M1767.092,957.811a.731.731,0,0,1-.346-.087l-3.521-1.877-3.52,1.877a.751.751,0,0,1-.912-.177.742.742,0,0,1-.164-.606l.674-3.983-2.854-2.82a.746.746,0,0,1,.412-1.267l3.938-.58,1.762-3.62a.766.766,0,0,1,1.33,0l1.763,3.62,3.937.58a.747.747,0,0,1,.412,1.268l-2.853,2.82.674,3.984a.743.743,0,0,1-.731.869Z" transform="translate(-1300.227 7256.023)" fill="#ffbc26"/>
    <path id="路径_3648" data-name="路径 3648" d="M1767.092,957.811a.731.731,0,0,1-.346-.087l-3.521-1.877-3.52,1.877a.751.751,0,0,1-.912-.177.742.742,0,0,1-.164-.606l.674-3.983-2.854-2.82a.746.746,0,0,1,.412-1.267l3.938-.58,1.762-3.62a.766.766,0,0,1,1.33,0l1.763,3.62,3.937.58a.747.747,0,0,1,.412,1.268l-2.853,2.82.674,3.984a.743.743,0,0,1-.731.869Z" transform="translate(-1282.227 7256.023)" fill="#ffbc26"/>
    <path id="路径_3649" data-name="路径 3649" d="M1767.092,957.811a.731.731,0,0,1-.346-.087l-3.521-1.877-3.52,1.877a.751.751,0,0,1-.912-.177.742.742,0,0,1-.164-.606l.674-3.983-2.854-2.82a.746.746,0,0,1,.412-1.267l3.938-.58,1.762-3.62a.766.766,0,0,1,1.33,0l1.763,3.62,3.937.58a.747.747,0,0,1,.412,1.268l-2.853,2.82.674,3.984a.743.743,0,0,1-.731.869Z" transform="translate(-1264.227 7256.023)" fill="#ffbc26"/>
    <path id="路径_3650" data-name="路径 3650" d="M1767.092,957.811a.731.731,0,0,1-.346-.087l-3.521-1.877-3.52,1.877a.751.751,0,0,1-.912-.177.742.742,0,0,1-.164-.606l.674-3.983-2.854-2.82a.746.746,0,0,1,.412-1.267l3.938-.58,1.762-3.62a.766.766,0,0,1,1.33,0l1.763,3.62,3.937.58a.747.747,0,0,1,.412,1.268l-2.853,2.82.674,3.984a.743.743,0,0,1-.731.869Z" transform="translate(-1246.227 7256.023)" fill="#ffbc26"/>
    <path id="路径_3651" data-name="路径 3651" d="M1767.092,957.811a.731.731,0,0,1-.346-.087l-3.521-1.877-3.52,1.877a.751.751,0,0,1-.912-.177.742.742,0,0,1-.164-.606l.674-3.983-2.854-2.82a.746.746,0,0,1,.412-1.267l3.938-.58,1.762-3.62a.766.766,0,0,1,1.33,0l1.763,3.62,3.937.58a.747.747,0,0,1,.412,1.268l-2.853,2.82.674,3.984a.743.743,0,0,1-.731.869Z" transform="translate(-1228.227 7256.023)" fill="#ffbc26"/>
  </g>
</svg>
