<svg xmlns="http://www.w3.org/2000/svg" width="24" height="24" viewBox="0 0 24 24">
  <g id="路由器" transform="translate(-680 -1024)">
    <rect id="矩形_2249" data-name="矩形 2249" width="24" height="24" transform="translate(680 1024)" fill="#cdd3e3" opacity="0.004"/>
    <path id="路由器-2" data-name="路由器" d="M11.872,7.462a.882.882,0,0,1-1.169.411.864.864,0,0,1-.418-1.151A1.479,1.479,0,0,0,10.27,5.4,1.51,1.51,0,0,0,9.2,4.61.868.868,0,1,1,9.5,2.9l.024.005a3.262,3.262,0,0,1,2.31,1.706,3.191,3.191,0,0,1,.04,2.85Zm3.928,0a.882.882,0,0,1-1.167.416.862.862,0,0,1-.421-1.154,3.639,3.639,0,0,0-.042-3.249,3.714,3.714,0,0,0-2.634-1.943.868.868,0,0,1-.7-1.009.876.876,0,0,1,1.021-.7h.011a5.46,5.46,0,0,1,3.87,2.86A5.355,5.355,0,0,1,15.8,7.459ZM4.255,11.986V6.728a1.064,1.064,0,1,1,2.127,0v5.257H21.061A2.327,2.327,0,0,1,23.4,14.3v5.886a2.327,2.327,0,0,1-2.34,2.315H2.34A2.327,2.327,0,0,1,0,20.187V14.3a2.327,2.327,0,0,1,2.34-2.313H4.255Zm11.7,7.36a1.052,1.052,0,1,0-1.064-1.052A1.052,1.052,0,0,0,15.955,19.346Zm-4.255,0a1.159,1.159,0,0,0,1.446-.623,1.046,1.046,0,0,0-.538-1.388,1.824,1.824,0,0,0-.908-.091,1.052,1.052,0,1,0,0,2.1Zm8.51,0a1.052,1.052,0,1,0-1.052-1.052,1.052,1.052,0,0,0,1.052,1.052Z" transform="translate(680.433 1024.622)" fill="#3963ef"/>
  </g>
</svg>
