<svg xmlns="http://www.w3.org/2000/svg" width="52" height="52.068" viewBox="0 0 52 52.068">
  <g id="组_2146" data-name="组 2146" transform="translate(-3828 -915)">
    <g id="矩形_1850" data-name="矩形 1850" transform="translate(3828 915)" fill="#fff" stroke="#707070" stroke-width="1" opacity="0">
      <rect width="52" height="52" stroke="none"/>
      <rect x="0.5" y="0.5" width="51" height="51" fill="none"/>
    </g>
    <g id="组_2136" data-name="组 2136" transform="translate(3565 -457)">
      <path id="路径_432" data-name="路径 432" d="M1673.6,793.2a12.312,12.312,0,0,0-12.425,11.211,10.927,10.927,0,0,0-8.361,10.286c0,5.721,4.9,10.421,11.085,10.749h20.785a12.623,12.623,0,0,0,12.468-12.764,12.929,12.929,0,0,0-12.374-12.726A12.5,12.5,0,0,0,1673.6,793.2Z" transform="translate(-1389.816 590.798)" fill="#1c73ff"/>
      <path id="路径_433" data-name="路径 433" d="M1703.367,793.2" transform="translate(-1419.582 590.798)" fill="#1c73ff"/>
      <path id="路径_434" data-name="路径 434" d="M1482.52,850.652l-9.443-4.2a.636.636,0,0,0-.613,0l-9.443,4.2a.808.808,0,0,0-.51.787v10.124c.051,4.931,8.372,8.656,10.005,9.338a1.017,1.017,0,0,0,.562,0c1.583-.682,9.9-4.406,9.9-9.39V851.438a.846.846,0,0,0-.46-.787Z" transform="translate(-1168.988 552.126)" fill="#adc1f8" stroke="#f8fafc" stroke-width="2"/>
      <path id="路径_435" data-name="路径 435" d="M1491.7,891.531l-1.573,1.573-4.147-4.147,1.573-1.573,2.574,2.574,4.671-4.671,1.573,1.573Z" transform="translate(-1187.254 521.229)" fill="#fff"/>
    </g>
  </g>
</svg>
