<svg xmlns="http://www.w3.org/2000/svg" xmlns:xlink="http://www.w3.org/1999/xlink" width="100" height="160" viewBox="0 0 100 160">
  <defs>
    <clipPath id="clip-path">
      <rect id="矩形_2123" data-name="矩形 2123" width="100" height="160" rx="8" transform="translate(972 8120)" fill="#e6e6e6"/>
    </clipPath>
  </defs>
  <g id="蒙版组_33" data-name="蒙版组 33" transform="translate(-972 -8120)" clip-path="url(#clip-path)">
    <g id="组_2507" data-name="组 2507" transform="translate(-673)">
      <rect id="矩形_2120" data-name="矩形 2120" width="116" height="116" rx="58" transform="translate(1629 8142)" fill="#3971ef" opacity="0.2"/>
      <g id="组_2506" data-name="组 2506" transform="translate(-121 -91.067)">
        <path id="路径_4267" data-name="路径 4267" d="M520.181,1188.417a2.743,2.743,0,0,1,.259-.42c.093-.12.2-.219.286-.219a.437.437,0,0,1,.249.085,23.276,23.276,0,0,1-7.356-13.518,6.293,6.293,0,0,1,4.73-6.873c4.489-.836,8.955-1.788,13.444-2.608a7.749,7.749,0,0,0,6-4.693,12.109,12.109,0,0,0,.869-3.618.556.556,0,0,1,.543-.468.564.564,0,0,1,.447.231l.124-.077c1.769,2.569,5.279,8.257,5.783,14.255.579,6.858.256,11.554-4.993,16.359l-.021.02a.427.427,0,0,0-.116.293.422.422,0,0,0,.192.351c.044.018.087.041.13.059a.479.479,0,0,0,.1.02.394.394,0,0,0,.1-.02c.075-.039.145-.085.219-.124a24,24,0,0,0,11.262-13.681v0a24.11,24.11,0,0,0-.366-15.66c-.187-.5-.394-1-.612-1.482-.043-.1-.085-.191-.129-.286q-.334-.717-.711-1.409c-.054-.1-.111-.192-.166-.289q-.313-.554-.656-1.087c-.081-.127-.16-.256-.244-.382-.259-.391-.531-.772-.813-1.146-.127-.169-.258-.333-.389-.5-.183-.23-.371-.455-.562-.679q-.37-.431-.759-.844c-.172-.183-.345-.366-.522-.543q-.329-.327-.67-.641c-.1-.09-.2-.177-.3-.265-.495-.442-1-.866-1.535-1.265l-.038-.03a23.8,23.8,0,0,0-28.457-.066c-.114.085-.226.172-.338.259q-.57.439-1.112.913c-.189.164-.378.329-.561.5s-.349.329-.52.5c-.29.286-.575.578-.85.878-.108.119-.214.24-.321.361q-.424.483-.823.987c-.08.1-.161.2-.24.307-.323.423-.635.855-.93,1.3-.016.024-.031.05-.048.075q-.46.7-.871,1.432l-.041.072a23.95,23.95,0,0,0-1.5,3.247l0,0a24.078,24.078,0,0,0,0,16.891h0A24.04,24.04,0,0,0,520.181,1188.417Z" transform="translate(1277.823 7124.57)" fill="#1c73ff"/>
        <path id="路径_4268" data-name="路径 4268" d="M545.409,1194.649a.469.469,0,0,0-.251-.574.474.474,0,0,0-.6.191c-.012.02-1.272,2.054-6.176,2.717a15.975,15.975,0,0,1-2.126.15c-3.436,0-4.968-1.3-4.981-1.309a.471.471,0,0,0-.713.6,8.226,8.226,0,0,0,14.848-1.776Z" transform="translate(1270.729 7109.758)" fill="#1c73ff"/>
        <path id="联合_92" data-name="联合 92" d="M26.36,61.584a4.524,4.524,0,0,1,4.577-4.468,4.57,4.57,0,0,1,4.251,2.84c11.167-.961,20.182-7.286,22.4-17.393a5.309,5.309,0,0,1-3.34-2.229c-.045.141-.1.279-.145.419q.087-.256.168-.515a5.248,5.248,0,0,1-.838-2.853v-10.4a5.251,5.251,0,0,1,.494-2.231l-.023-.062a5.1,5.1,0,0,1,.512-.822,23.226,23.226,0,0,0-45.8.061,5.184,5.184,0,0,1,1.766,3.9V38.246A5.175,5.175,0,0,1,9.2,41.554q.058.153.118.3c-.04-.1-.083-.2-.123-.3A5.2,5.2,0,0,1,0,38.246V27.833a5.2,5.2,0,0,1,4.282-5.116,27.679,27.679,0,0,1,54.26-1l.168,0a5.273,5.273,0,0,1,5.272,5.272v10.4a5.285,5.285,0,0,1-3.258,4.884C58.561,54.209,48.2,61.893,35.272,62.943a4.578,4.578,0,0,1-8.912-1.359Z" transform="translate(1776 8258.067)" fill="#a4c7ff" stroke="rgba(0,0,0,0)" stroke-miterlimit="10" stroke-width="1"/>
      </g>
    </g>
  </g>
</svg>
