<svg xmlns="http://www.w3.org/2000/svg" xmlns:xlink="http://www.w3.org/1999/xlink" width="20" height="20" viewBox="0 0 20 20">
  <defs>
    <linearGradient id="linear-gradient" x1="0.5" y1="1" x2="0.5" gradientUnits="objectBoundingBox">
      <stop offset="0" stop-color="#a173f9"/>
      <stop offset="1" stop-color="#4bc8f9"/>
    </linearGradient>
  </defs>
  <g id="ios_-_Shadowrocket" data-name="ios - Shadowrocket" transform="translate(-163 -807)">
    <rect id="矩形_996" data-name="矩形 996" width="20" height="20" transform="translate(163 807)" fill="#a4a6be" opacity="0"/>
    <g id="组_2539" data-name="组 2539" transform="translate(264.557 -676.871)">
      <path id="路径_4311" data-name="路径 4311" d="M-87.454,1493.329c.088-.9.455-6.652-4.24-9.446a.084.084,0,0,0-.084,0c-.461.256-4.543,2.722-4.184,9.461a.268.268,0,0,1-.063.188,6.284,6.284,0,0,0-1.517,4.243.086.086,0,0,0,.1.077l3.342-.712a.085.085,0,0,1,.1.05,2.3,2.3,0,0,0,2.258,1.355,2.536,2.536,0,0,0,2.184-1.288.086.086,0,0,1,.092-.044l3.491.689a.086.086,0,0,0,.1-.073,5.5,5.5,0,0,0-1.511-4.288A.271.271,0,0,1-87.454,1493.329Zm.5,3.613-2.954-.592a.086.086,0,0,0-.093.046,2.248,2.248,0,0,1-1.723,1.2h-.01a1.857,1.857,0,0,1-1.785-1.251.085.085,0,0,0-.1-.055l-2.914.519a.087.087,0,0,1-.1-.091,4.377,4.377,0,0,1,1.522-3.136.085.085,0,0,0,.031-.075c-.555-5.863,2.855-8.146,3.3-8.42a.087.087,0,0,1,.095,0c3.994,2.788,3.4,7.9,3.331,8.428a.085.085,0,0,0,.028.075,3.962,3.962,0,0,1,1.47,3.278A.086.086,0,0,1-86.957,1496.942Z" transform="translate(0)" fill="url(#linear-gradient)"/>
      <path id="路径_4312" data-name="路径 4312" d="M-61.417,1524.145a1.814,1.814,0,0,0-1.814,1.814,1.814,1.814,0,0,0,1.814,1.814,1.814,1.814,0,0,0,1.814-1.814A1.814,1.814,0,0,0-61.417,1524.145Zm0,2.862a1.048,1.048,0,0,1-1.048-1.048,1.048,1.048,0,0,1,1.048-1.048,1.048,1.048,0,0,1,1.048,1.048A1.048,1.048,0,0,1-61.417,1527.007Z" transform="translate(-30.284 -35.531)" fill="url(#linear-gradient)"/>
      <path id="路径_4313" data-name="路径 4313" d="M-58.2,1614.085a1.534,1.534,0,0,0-1.384,1.648,3.488,3.488,0,0,0,.053.446,11.66,11.66,0,0,0,1.308,2.571,7.451,7.451,0,0,0,1.355-2.572,3.505,3.505,0,0,0,.053-.445A1.534,1.534,0,0,0-58.2,1614.085Zm.687,1.959a4.047,4.047,0,0,1-.7,1.375,6.315,6.315,0,0,1-.675-1.375,1.926,1.926,0,0,1-.027-.238.811.811,0,0,1,.714-.882.811.811,0,0,1,.714.882A1.935,1.935,0,0,1-57.512,1616.044Z" transform="translate(-33.502 -114.879)" fill="url(#linear-gradient)"/>
    </g>
  </g>
</svg>
