<svg xmlns="http://www.w3.org/2000/svg" xmlns:xlink="http://www.w3.org/1999/xlink" width="34" height="37.201" viewBox="0 0 34 37.201">
  <defs>
    <linearGradient id="linear-gradient" x1="0.5" x2="0.5" y2="1.009" gradientUnits="objectBoundingBox">
      <stop offset="0" stop-color="#d6ebff"/>
      <stop offset="1" stop-color="#fff"/>
    </linearGradient>
    <filter id="减去_1" x="0" y="0" width="34" height="37.201" filterUnits="userSpaceOnUse">
      <feOffset dy="3" input="SourceAlpha"/>
      <feGaussianBlur stdDeviation="3" result="blur"/>
      <feFlood flood-color="#4e5681" flood-opacity="0.102"/>
      <feComposite operator="in" in2="blur"/>
      <feComposite in="SourceGraphic"/>
    </filter>
  </defs>
  <g transform="matrix(1, 0, 0, 1, 0, 0)" filter="url(#减去_1)">
    <path id="减去_1-2" data-name="减去 1" d="M-2864.975,6270.2a.628.628,0,0,1-.2-.031c-1.3-.543-7.78-3.447-7.821-7.3v-7.914a.634.634,0,0,1,.4-.615l7.382-3.281a.515.515,0,0,1,.239-.062.515.515,0,0,1,.239.062l7.382,3.281a.659.659,0,0,1,.359.615v7.873c0,3.712-5.925,6.556-7.74,7.339A.931.931,0,0,1-2864.975,6270.2Zm-2.4-11.337-1.149,1.149,3.029,3.029,1.149-1.149,3.41-3.412-1.149-1.149-3.41,3.412-1.88-1.88Z" transform="translate(2882 -6245)" opacity="0.4" fill="url(#linear-gradient)"/>
  </g>
</svg>
