<svg xmlns="http://www.w3.org/2000/svg" xmlns:xlink="http://www.w3.org/1999/xlink" width="34" height="37.2" viewBox="0 0 34 37.2">
  <defs>
    <linearGradient id="linear-gradient" x1="0.5" x2="0.5" y2="1.009" gradientUnits="objectBoundingBox">
      <stop offset="0" stop-color="#d6ebff"/>
      <stop offset="1" stop-color="#fff"/>
    </linearGradient>
    <filter id="路径_434" x="0" y="0" width="34" height="37.2" filterUnits="userSpaceOnUse">
      <feOffset dy="3" input="SourceAlpha"/>
      <feGaussianBlur stdDeviation="3" result="blur"/>
      <feFlood flood-color="#4e5681" flood-opacity="0.102"/>
      <feComposite operator="in" in2="blur"/>
      <feComposite in="SourceGraphic"/>
    </filter>
  </defs>
  <g id="立即下单-icon" transform="translate(-523 -2695.83)">
    <g transform="matrix(1, 0, 0, 1, 523, 2695.83)" filter="url(#路径_434)">
      <path id="路径_434-2" data-name="路径 434" d="M1478.151,849.718l-7.382-3.28a.5.5,0,0,0-.479,0l-7.382,3.28a.631.631,0,0,0-.4.615v7.914c.04,3.855,6.544,6.766,7.821,7.3a.794.794,0,0,0,.439,0c1.237-.533,7.741-3.444,7.741-7.34v-7.873a.662.662,0,0,0-.359-.615Z" transform="translate(-1453.51 -840.38)" opacity="0.8" fill="url(#linear-gradient)"/>
    </g>
    <path id="路径_435" data-name="路径 435" d="M1490.161,889.846l-1.149,1.149-3.028-3.028,1.149-1.149,1.88,1.88,3.411-3.411,1.149,1.149Z" transform="translate(-949.51 1822.875)" fill="#138cff"/>
  </g>
</svg>
