<svg xmlns="http://www.w3.org/2000/svg" width="24" height="24" viewBox="0 0 24 24">
  <g id="组_2545" data-name="组 2545" transform="translate(-680 -931)">
    <rect id="矩形_2267" data-name="矩形 2267" width="24" height="24" transform="translate(680 931)" fill="#cfd2e0" opacity="0"/>
    <g id="注册" transform="translate(676.811 932)">
      <path id="路径_4308" data-name="路径 4308" d="M4.922,556.373a.733.733,0,0,1-.733-.734A9.537,9.537,0,0,1,18.531,547.4a.734.734,0,0,1-.742,1.266,8.069,8.069,0,0,0-12.133,6.969.733.733,0,0,1-.734.734Z" transform="translate(0 -534.372)" fill="#616679" stroke="#616679" stroke-width="0.2"/>
      <path id="路径_4309" data-name="路径 4309" d="M147.347,13.2a6.6,6.6,0,1,1,6.6-6.6A6.608,6.608,0,0,1,147.347,13.2Zm0-11.734A5.134,5.134,0,1,0,152.48,6.6a5.141,5.141,0,0,0-5.133-5.134ZM158.9,18.547h-6.458a.733.733,0,1,1,0-1.467H158.9a.733.733,0,1,1,0,1.467Z" transform="translate(-133.624)" fill="#616679" stroke="#616679" stroke-width="0.2"/>
      <path id="路径_4310" data-name="路径 4310" d="M802.023,652.59a.733.733,0,0,1-.733-.733V645.4a.733.733,0,1,1,1.467,0v6.46a.733.733,0,0,1-.733.733Z" transform="translate(-779.975 -630.813)" fill="#616679" stroke="#616679" stroke-width="0.2"/>
    </g>
  </g>
</svg>
