<svg xmlns="http://www.w3.org/2000/svg"  viewBox="0 0 68 68">
    <g id="Group_4316" data-name="Group 4316" transform="translate(-499.999 -1437)">
        <g id="Group_4308" data-name="Group 4308" transform="translate(-414.029 707.764)">
            <rect id="Rectangle_1203" data-name="Rectangle 1203" width="68" height="68" rx="14" transform="translate(914.029 729.236)"/>
        </g>
        <path id="Path_4563" data-name="Path 4563" d="M3069.269,1483.054a2.034,2.034,0,0,0-1.053-1.791,30.123,30.123,0,0,0-15.714-4.041,46.9,46.9,0,0,0-10.089,1.2,1.689,1.689,0,0,0-1.476,1.827,1.73,1.73,0,0,0,.472,1.215,1.6,1.6,0,0,0,1.247.509,10.434,10.434,0,0,0,1.3-.279,42.824,42.824,0,0,1,8.541-.95,26.515,26.515,0,0,1,13.959,3.623,2.4,2.4,0,0,0,1.161.387,1.625,1.625,0,0,0,1.16-.473,1.588,1.588,0,0,0,.491-1.215Zm3.375-7.56a2.368,2.368,0,0,0-1.229-2.147,36.953,36.953,0,0,0-19.265-4.959,39.342,39.342,0,0,0-10.651,1.476,2.109,2.109,0,0,0-1.688,2.25,2.1,2.1,0,0,0,2.11,2.111,7.672,7.672,0,0,0,1.3-.279,33.619,33.619,0,0,1,8.824-1.161,32.964,32.964,0,0,1,17.154,4.361,3.063,3.063,0,0,0,1.337.459,2.106,2.106,0,0,0,2.111-2.111Zm3.793-8.716a2.657,2.657,0,0,0-1.4-2.462,36.287,36.287,0,0,0-10.3-3.884,54.885,54.885,0,0,0-12.06-1.319,45.46,45.46,0,0,0-12.8,1.652,2.8,2.8,0,0,0-1.354.9,2.562,2.562,0,0,0-.545,1.706,2.513,2.513,0,0,0,.72,1.827,2.423,2.423,0,0,0,1.809.738,6.431,6.431,0,0,0,1.4-.279,40.412,40.412,0,0,1,10.791-1.3,49.181,49.181,0,0,1,10.881,1.2,30.824,30.824,0,0,1,8.91,3.339,2.835,2.835,0,0,0,1.4.423,2.494,2.494,0,0,0,1.778-.72,2.394,2.394,0,0,0,.756-1.809Zm7.209,5.238a26.412,26.412,0,0,1-3.623,13.554,26.9,26.9,0,0,1-9.828,9.828,27.167,27.167,0,0,1-27.108,0,26.9,26.9,0,0,1-9.828-9.828,27.169,27.169,0,0,1,0-27.108,26.9,26.9,0,0,1,9.828-9.828,27.168,27.168,0,0,1,27.108,0,26.9,26.9,0,0,1,9.828,9.828,26.41,26.41,0,0,1,3.623,13.554Zm0,0" transform="translate(-2522.637 -1.011)" fill="#22d860"/>
    </g>
</svg>
