<svg xmlns="http://www.w3.org/2000/svg" width="181.908" height="139.958" viewBox="0 0 181.908 139.958">
  <g id="移动端-中文30天退款" transform="translate(-1732 -598)">
    <path id="路径_3554" data-name="路径 3554" d="M1050.449,797.629s14.8-11.747,27.96-15.389l12.686,28.311S1073,819.479,1069.95,824.3l.822-21.027Z" transform="translate(681.551 -86.985)" fill="#eb5b48"/>
    <path id="路径_3555" data-name="路径 3555" d="M1212.311,799.185s-14.8-11.747-27.959-15.389l-12.686,28.31s18.09,8.928,21.145,13.745l-.823-21.027Z" transform="translate(701.598 -87.893)" fill="#eb5b48"/>
    <path id="路径_373" data-name="路径 373" d="M1133.137,832.536l-10.283,3.984a11.512,11.512,0,0,1-13.83-4.494l-5.978-9.268a11.5,11.5,0,0,0-6.727-4.888l-10.662-2.821a11.51,11.51,0,0,1-8.547-11.763l.612-11.013a11.5,11.5,0,0,0-2.564-7.908l-6.968-8.549a11.514,11.514,0,0,1,0-14.542l6.968-8.549a11.5,11.5,0,0,0,2.564-7.908l-.612-11.01a11.51,11.51,0,0,1,8.547-11.77l10.662-2.82a11.5,11.5,0,0,0,6.727-4.889l5.978-9.267a11.506,11.506,0,0,1,13.83-4.494l10.283,3.983a11.509,11.509,0,0,0,8.315,0l10.284-3.983a11.506,11.506,0,0,1,13.83,4.494l5.977,9.267a11.51,11.51,0,0,0,6.728,4.889l10.661,2.82a11.51,11.51,0,0,1,8.548,11.77l-.612,11.01a11.5,11.5,0,0,0,2.564,7.908l6.967,8.549a11.507,11.507,0,0,1,0,14.542l-6.967,8.549a11.5,11.5,0,0,0-2.564,7.908l.612,11.013a11.51,11.51,0,0,1-8.548,11.763l-10.661,2.821a11.509,11.509,0,0,0-6.728,4.888l-5.977,9.268a11.512,11.512,0,0,1-13.83,4.494l-10.284-3.984A11.5,11.5,0,0,0,1133.137,832.536Z" transform="translate(684.057 -101.786)" fill="#ea2e45"/>
    <circle id="椭圆_35" data-name="椭圆 35" cx="54.913" cy="54.913" r="54.913" transform="translate(1766.439 615.599)" fill="#fff"/>
    <path id="路径_3556" data-name="路径 3556" d="M1067.888,784.122s66.681-39.154,139.224,0l-17.158,36.746s-54.182-24.123-104.15,0Z" transform="translate(684.435 -90.716)" fill="#f76552"/>
    <g id="组_1549" data-name="组 1549" transform="translate(1770.932 690.251) rotate(-7)">
      <g id="组_1547" data-name="组 1547">
        <path id="路径_3550" data-name="路径 3550" d="M5.106,6.227,4.348,7.613A23.767,23.767,0,0,0,0,5.273L.788,3.9A24.576,24.576,0,0,1,5.106,6.227Zm.828,2.161L6.3,9.676a31.244,31.244,0,0,1-1.776,4.7l3.054-.861L7.881,14.6a19.881,19.881,0,0,1-.161,4.978,3.233,3.233,0,0,1,.562.258,7.639,7.639,0,0,0,2.418.954,8.432,8.432,0,0,0,2.968-.3l3.891-1.1c1.81-.51,4.151-1.219,7.027-2.1l.078,1.662-6.471,1.825q-2.374.67-4.227,1.118a9.223,9.223,0,0,1-3.446.337,7.494,7.494,0,0,1-2.874-1.1.666.666,0,0,0-.562-.085c-.52.147-.964,1.346-1.346,3.627l-1.5-.725c.444-2.324,1.085-3.773,1.937-4.307a19.077,19.077,0,0,0,.248-4.319l-3.462.977-.351-1.246a30.778,30.778,0,0,0,1.931-4.671L.9,11.418.481,9.924Zm6.711,8.563q2.022-1.012,3.989-2.226l.777,1.37c-1.593.937-3.615,2-6.073,3.152l-.781-1.295c.369-.251.531-.541.455-.812L7.021,2.976,17.589,0l2.346,8.324-9,2.539ZM16.412,1.894,8.991,3.984l.574,2.037,7.421-2.091Zm-5.9,7.5L17.936,7.3l-.567-2.013L9.948,7.379Zm7.649,2.7a16.179,16.179,0,0,0,1.491-2.765l1.433.574a19.663,19.663,0,0,1-1.477,2.735A34.129,34.129,0,0,1,23.43,14.4l-.681,1.487a37.518,37.518,0,0,0-9.3-3.631l.609-1.391C15.5,11.234,16.862,11.633,18.165,12.1Z" transform="translate(0 2.48)" fill="#fff"/>
        <path id="路径_3551" data-name="路径 3551" d="M4.981,2.2,4.947.059l1.6-.026.034,2.14L10.9,2.1l.023,1.5L6.6,3.676l.033,2.069,3.782-.059.024,1.457L.9,7.292.879,5.835,5.038,5.77,5.005,3.7.023,3.78,0,2.276ZM3.544,15.405a16.342,16.342,0,0,1-2.015,4.85L.248,19.477a13.82,13.82,0,0,0,1.929-4.333Zm7.779-3.014.023,1.48L6.6,13.948l.12,7.541-1.6.026L5,13.973l-4.652.073L.328,12.565ZM9.743,9.033l.024,1.5-8.036.126-.023-1.5Zm1.181,9.31-1.305.609a25.4,25.4,0,0,0-1.632-3.618l1.355-.443A27.52,27.52,0,0,1,10.923,18.343ZM16.455,6.951a40.148,40.148,0,0,1-.167,4.328,17.756,17.756,0,0,0,5.427,8.8l-1.107,1.311a19.6,19.6,0,0,1-4.768-7.162c-.043.164-.065.33-.11.517a11.753,11.753,0,0,1-4.85,6.893l-1.052-1.23a10.958,10.958,0,0,0,4.348-5.9A27.842,27.842,0,0,0,14.9,6.977ZM14.775.233c-.122,1.225-.292,2.331-.487,3.369l6.227-.1.015,1.033c-.3,2-.665,3.982-1.128,5.941l-1.58-.422a37.109,37.109,0,0,0,1.1-5l-4.958.077A15.737,15.737,0,0,1,11.9,9.962l-1.308-.9A20.372,20.372,0,0,0,13.22,0Z" transform="translate(25.449 0)" fill="#fff"/>
        <path id="路径_3552" data-name="路径 3552" d="M8.86,1.088a30.548,30.548,0,0,1-3.2,4.269L1.816,20.989l-1.664-.41L3.331,7.641A32.927,32.927,0,0,1,.092,10.086L0,8.2A26.273,26.273,0,0,0,7.484,0ZM10.1,16.226a20.537,20.537,0,0,1-6.02,3.819L3.419,18.5A20.814,20.814,0,0,0,9.23,14.946Zm10.763-11.7-1.773,7.209-4.586-1.127L13.9,13.071l6.57,1.614-.392,1.6-6.57-1.614-2.121,8.624-1.643-.4,2.121-8.624L5.522,12.7l.394-1.6,6.342,1.56.606-2.465L8.323,9.086,10.1,1.875ZM18.858,5.7l-7.53-1.851-.993,4.038,7.529,1.851Zm.232,16.679L17.7,23.3a37.84,37.84,0,0,0-3.529-6.022l1.28-.872A36.524,36.524,0,0,1,19.09,22.379Z" transform="translate(50.217 1.552)" fill="#fff"/>
        <path id="路径_3553" data-name="路径 3553" d="M1.425,18.6,0,17.828,3.919,10.62,9.6,13.707,5.827,20.648,4.4,19.873l.516-.951L2.088,17.385Zm6.018-4.327L4.615,12.738,2.84,16l2.83,1.536Zm3.716-3.733-.719,1.322L5.008,8.912l.72-1.322Zm1.572-2.891-.719,1.32L6.581,6.019,7.3,4.7ZM10.653,21.317a14.173,14.173,0,0,0-.15-2.677l1.612.234a15.281,15.281,0,0,1-.057,3.207l2.437,1.325A24.418,24.418,0,0,0,17.1,21.56l1.1,1.185a12.971,12.971,0,0,1-2.238,1.46l2.994,1.627L18.214,27.2,6.876,21.031l.741-1.364ZM12.609,3.249l-.934-.106L15.085,5l-.753,1.385L7.6,2.719l.753-1.382,2.788,1.513A20.115,20.115,0,0,0,11.458,0L13.1.384C12.965,1.462,12.8,2.414,12.609,3.249ZM21.9,17.126l-2.672,4.917-8.779-4.772,2.672-4.916Zm-9.5-5.753L12.153,9.8a12.016,12.016,0,0,0,3.75-.743,20.441,20.441,0,0,0-1.035-2.676L16.249,6a16.178,16.178,0,0,1,.9,2.472A12.506,12.506,0,0,0,19.666,6.71L16.4,4.935l.685-1.26,4.543,2.472L21.057,7.2A13.5,13.5,0,0,1,16.7,10.29L22.05,13.2l-.707,1.3-5.39-2.93.674-1.241A12.733,12.733,0,0,1,12.393,11.373Zm7.413,6.251-5.969-3.246L12.523,16.8l5.969,3.246Zm3.7-9.067a11.892,11.892,0,0,0,2.608-.909L26.6,9.012a11.223,11.223,0,0,1-3.19.94c-.009.612-.008,1.2.034,1.811a11.791,11.791,0,0,0,2.9-1.048l.5,1.4a12.143,12.143,0,0,1-3.213,1.035,13.6,13.6,0,0,0,.93,3.262l-1.482.559a17.95,17.95,0,0,1-.608-10.447L23.847,6.5A17.851,17.851,0,0,0,23.5,8.557Z" transform="translate(69.608 9.161)" fill="#fff"/>
      </g>
    </g>
    <text id="_30天" data-name="30天" transform="translate(1783.496 662.969)" fill="#383e44" font-size="36" font-family="DIN-Black, DIN" font-weight="800"><tspan x="0" y="0">30</tspan><tspan y="0" font-size="32" font-family="PingFangSC-Semibold, PingFang SC" font-weight="600">天</tspan></text>
  </g>
</svg>
