<svg xmlns="http://www.w3.org/2000/svg" width="107.828" height="105.249" viewBox="0 0 107.828 105.249">
  <g id="_30天退款保证_英文" data-name="30天退款保证 英文" transform="matrix(0.966, 0.259, -0.259, 0.966, -1181.073, -895.917)">
    <path id="路径_373" data-name="路径 373" d="M1556.352,730.751l-6.369,2.468a7.128,7.128,0,0,1-8.565-2.783l-3.7-5.74a7.126,7.126,0,0,0-4.166-3.027l-6.6-1.748a7.128,7.128,0,0,1-5.293-7.286l.379-6.82a7.128,7.128,0,0,0-1.591-4.9l-4.315-5.3a7.129,7.129,0,0,1,0-9.006l4.315-5.295a7.129,7.129,0,0,0,1.591-4.9l-.379-6.82a7.129,7.129,0,0,1,5.293-7.287l6.6-1.747a7.124,7.124,0,0,0,4.166-3.028l3.7-5.74a7.127,7.127,0,0,1,8.565-2.783l6.369,2.467a7.128,7.128,0,0,0,5.15,0l6.37-2.467a7.128,7.128,0,0,1,8.565,2.783l3.7,5.74a7.128,7.128,0,0,0,4.167,3.028l6.6,1.747a7.128,7.128,0,0,1,5.294,7.287l-.379,6.82a7.12,7.12,0,0,0,1.591,4.9l4.315,5.295a7.127,7.127,0,0,1,0,9.006l-4.315,5.3a7.12,7.12,0,0,0-1.591,4.9l.379,6.82a7.128,7.128,0,0,1-5.294,7.286l-6.6,1.748a7.13,7.13,0,0,0-4.167,3.027l-3.7,5.74a7.129,7.129,0,0,1-8.565,2.783l-6.37-2.468A7.127,7.127,0,0,0,1556.352,730.751Z" transform="translate(-120.522 -94.537)" fill="#ea2e45"/>
    <circle id="椭圆_35" data-name="椭圆 35" cx="25.984" cy="25.984" r="25.984" transform="translate(1412.766 570.601)" fill="#fff"/>
    <text id="_30" data-name="30" transform="translate(1425.037 597.044)" fill="#383e44" font-size="24" font-family="Helvetica"><tspan x="0" y="0">30</tspan></text>
    <text id="DAY" transform="translate(1425.758 612.472)" fill="#383e44" font-size="13" font-family="Helvetica"><tspan x="0" y="0">DAY</tspan></text>
    <g id="组_776" data-name="组 776" transform="translate(1414.932 617.517)">
      <g id="组_775" data-name="组 775" transform="translate(0 0)">
        <path id="路径_457" data-name="路径 457" d="M1626.117,991.411a1.245,1.245,0,0,0-.351-1.7c-.636-.509-1.483-.5-2.272.487l-.47.587c-.7.867-.774,1.73-.005,2.344a1.233,1.233,0,0,0,1.8-.044l.291-.363-1.086-.869.465-.581,1.742,1.4-.732.913a2.01,2.01,0,0,1-2.981.18c-1.23-.985-1.156-2.294-.176-3.519l.478-.6a2.309,2.309,0,0,1,3.468-.552,2.013,2.013,0,0,1,.5,2.851Z" transform="translate(-1621.597 -988.534)" fill="#fff"/>
        <path id="路径_458" data-name="路径 458" d="M1629.849,995.886a1.365,1.365,0,0,0,2.388,1.322l1.8-3.242.761.422-1.824,3.294a2.239,2.239,0,0,1-3.906-2.177l1.818-3.283.762.422Z" transform="translate(-1623.592 -989.56)" fill="#fff"/>
        <path id="路径_459" data-name="路径 459" d="M1635.45,1001.412l3.834-4.762.888.316-.045,6.113-.876-.312.03-1.7-1.953-.7-1.05,1.336Zm3.91-3.689-1.59,2.041,1.562.557.06-2.588Z" transform="translate(-1625.451 -990.792)" fill="#fff"/>
        <path id="路径_460" data-name="路径 460" d="M1649.09,1000.771a1.631,1.631,0,0,1-1.348,1.393l.713,2.564-.971-.182-.621-2.383-1.252-.235-.412,2.189-.852-.16,1.065-5.68,2.127.4A1.71,1.71,0,0,1,1649.09,1000.771Zm-2.212.629c.741.138,1.2-.131,1.324-.76a1,1,0,0,0-.921-1.228l-1.157-.217-.374,1.994Z" transform="translate(-1627.927 -991.245)" fill="#fff"/>
        <path id="路径_461" data-name="路径 461" d="M1652.033,1005.255l2.178-5.706.942.027,1.837,5.823-.929-.027-.493-1.625-2.069-.06-.588,1.592Zm2.58-4.709-.882,2.43,1.655.048-.739-2.476Z" transform="translate(-1630.065 -991.599)" fill="#fff"/>
        <path id="路径_462" data-name="路径 462" d="M1661.156,1005.043l-.793-5.722.784-.108,3.324,3.76.041-.006-.574-4.141.839-.116.793,5.722-.785.108-3.33-3.772-.037.005.575,4.154Z" transform="translate(-1632.383 -991.365)" fill="#fff"/>
        <path id="路径_463" data-name="路径 463" d="M1670.984,1002.984l-1.447-4.76-1.641.5-.234-.769,4.116-1.252.234.77-1.641.5,1.446,4.761Z" transform="translate(-1634.413 -990.807)" fill="#fff"/>
        <path id="路径_464" data-name="路径 464" d="M1680.123,999.4l-3.213,1.494-2.43-5.229,3.213-1.494.336.72-2.429,1.129.7,1.5,2.291-1.064.32.69-2.291,1.065.741,1.593,2.429-1.129Z" transform="translate(-1636.31 -990.104)" fill="#fff"/>
        <path id="路径_465" data-name="路径 465" d="M1686.578,995.453l-2.977,1.934-3.146-4.842,2.977-1.934.433.667-2.248,1.462.9,1.394,2.122-1.378.416.639-2.121,1.378.958,1.475,2.249-1.461Z" transform="translate(-1637.972 -989.112)" fill="#fff"/>
      </g>
    </g>
    <g id="组_778" data-name="组 778" transform="translate(1412.766 561.94)">
      <g id="组_777" data-name="组 777" transform="translate(0 0)">
        <path id="路径_466" data-name="路径 466" d="M1499.394,924.153l-3.649-4.469.672-.549,4.018,2.05.027-.022-1.207-4.345.671-.548,3.649,4.469-.612.5-2.555-3.13-.036.03.99,3.633-.515.42-3.367-1.693-.032.027,2.555,3.13Z" transform="translate(-1495.745 -909.379)" fill="#fff"/>
        <path id="路径_467" data-name="路径 467" d="M1505.559,916.226a2.377,2.377,0,1,1,4.157-2.253l.379.7a2.374,2.374,0,1,1-4.157,2.253Zm1.154.282c.575,1.06,1.4,1.257,2.146.854s1.038-1.208.465-2.269l-.384-.705c-.574-1.06-1.428-1.3-2.175-.89s-1.01,1.245-.435,2.3Z" transform="translate(-1498.36 -908.321)" fill="#fff"/>
        <path id="路径_468" data-name="路径 468" d="M1514.288,915.3l-1.823-5.483.751-.249,3.953,3.092.041-.014-1.318-3.967.8-.268,1.823,5.483-.751.25-3.962-3.1-.036.011,1.323,3.981Z" transform="translate(-1500.397 -907.193)" fill="#fff"/>
        <path id="路径_469" data-name="路径 469" d="M1525.821,912.686l-3.508.548-.891-5.706,3.507-.548.123.786-2.65.415.257,1.642,2.5-.391.118.754-2.5.39.272,1.739,2.65-.414Z" transform="translate(-1502.889 -906.794)" fill="#fff"/>
        <path id="路径_470" data-name="路径 470" d="M1530.086,912.52l-.022-2.343-1.958-3.413.982-.008,1.387,2.492h.042l1.353-2.515.965-.008-1.9,3.433.022,2.355Z" transform="translate(-1504.748 -906.723)" fill="#fff"/>
        <path id="路径_471" data-name="路径 471" d="M1539.363,907.275l2.2.451a1.437,1.437,0,0,1,1.32,1.721,1.218,1.218,0,0,1-1.179,1.055l-.008.041a1.337,1.337,0,0,1,.954,1.644c-.213,1.04-1.159,1.421-2.3,1.187l-2.144-.44Zm-.16,5.1.933.191c.853.175,1.5.121,1.644-.587.128-.627-.258-1.034-.939-1.173l-1.265-.259Zm.518-2.529.825.169c.85.174,1.334,0,1.454-.583a.817.817,0,0,0-.749-1l-1.19-.244Z" transform="translate(-1507.558 -906.877)" fill="#fff"/>
        <path id="路径_472" data-name="路径 472" d="M1544.484,914.619l3.929-4.693.883.333-.162,6.116-.871-.329.064-1.7-1.941-.734-1.077,1.317Zm3.985-3.618-1.631,2.014,1.553.587.11-2.588Z" transform="translate(-1509.305 -907.614)" fill="#fff"/>
        <path id="路径_473" data-name="路径 473" d="M1553.786,915.788c-.611,1.06-.4,1.843.367,2.282a1.168,1.168,0,0,0,1.708-.354l.737.424-.031.055a1.981,1.981,0,0,1-2.846.565c-1.234-.71-1.54-1.951-.7-3.407l.391-.68c.826-1.434,2.092-1.825,3.317-1.119a2.007,2.007,0,0,1,.9,2.806l-.032.055-.738-.423a1.242,1.242,0,0,0-.526-1.734c-.744-.43-1.556-.183-2.157.862Z" transform="translate(-1511.549 -908.528)" fill="#fff"/>
        <path id="路径_474" data-name="路径 474" d="M1561.835,920.236l-.369,3.967-.836-.683.3-3.2-.979.135-1.233,1.507-.674-.552,3.657-4.471.675.551-1.7,2.084.03.024,3.568-.559.769.63Z" transform="translate(-1513.078 -909.564)" fill="#fff"/>
      </g>
    </g>
    <g id="组_779" data-name="组 779" transform="translate(1406.27 578.54)">
      <path id="路径_475" data-name="路径 475" d="M1164.387,733.741a32.137,32.137,0,0,1,.032,36.1" transform="translate(-1105.714 -733.741)" fill="none" stroke="#fff" stroke-linecap="round" stroke-width="1"/>
      <path id="路径_476" data-name="路径 476" d="M1088.667,769.937a32.144,32.144,0,0,1-.735-35.036q.324-.519.665-1.025" transform="translate(-1083.098 -733.779)" fill="none" stroke="#fff" stroke-linecap="round" stroke-width="1"/>
    </g>
  </g>
</svg>
