<svg xmlns="http://www.w3.org/2000/svg" xmlns:xlink="http://www.w3.org/1999/xlink" width="100" height="160" viewBox="0 0 100 160">
  <defs>
    <clipPath id="clip-path">
      <rect id="矩形_1853" data-name="矩形 1853" width="100" height="160" rx="8" transform="translate(420 7966)" fill="#e6e6e6"/>
    </clipPath>
  </defs>
  <g id="蒙版组_28" data-name="蒙版组 28" transform="translate(-420 -7966)" clip-path="url(#clip-path)">
    <g id="组_2149" data-name="组 2149" transform="translate(0 -41)">
      <rect id="矩形_1852" data-name="矩形 1852" width="116" height="116" rx="58" transform="translate(404 8029)" fill="#3971ef" opacity="0.2"/>
      <g id="组_2148" data-name="组 2148" transform="translate(-26.01 2904.213)">
        <path id="路径_3939" data-name="路径 3939" d="M1460.406,1038.583s-23.253-8.665-23.253-23.932v-24.01a2.454,2.454,0,0,1,1.58-2.293l20.8-7.928a2.452,2.452,0,0,1,1.75,0l20.8,7.928a2.452,2.452,0,0,1,1.58,2.293v24.01c0,15.267-23.253,23.932-23.253,23.932Zm0,0" transform="translate(-971.895 4174.707)" fill="#1c73ff"/>
        <path id="减去_21" data-name="减去 21" d="M21.009,18.282H0L8.508,9.141,0,0H14.017V3.34c0,5.181,2.352,10.207,6.99,14.939Z" transform="translate(448.01 5186.183)" fill="#a4c7ff" stroke="rgba(0,0,0,0)" stroke-width="1"/>
        <path id="减去_22" data-name="减去 22" d="M19.9,18.281H0C4.639,13.548,6.991,8.522,6.991,3.34V0H19.9L11.391,9.141,19.9,18.278Z" transform="translate(508.127 5186.183)" fill="#a4c7ff" stroke="rgba(0,0,0,0)" stroke-width="1"/>
        <text id="_30" data-name="30" transform="translate(477.486 5187.372)" fill="#fff" font-size="19" font-family="PingFangTC-Semibold, PingFang TC" font-weight="600"><tspan x="0" y="0">30</tspan></text>
      </g>
    </g>
  </g>
</svg>
