<svg xmlns="http://www.w3.org/2000/svg" width="52" height="52" viewBox="0 0 52 52">
  <g id="组_2143" data-name="组 2143" transform="translate(-3552 -915)">
    <g id="矩形_1847" data-name="矩形 1847" transform="translate(3552 915)" fill="#fff" stroke="#707070" stroke-width="1" opacity="0">
      <rect width="52" height="52" stroke="none"/>
      <rect x="0.5" y="0.5" width="51" height="51" fill="none"/>
    </g>
    <g id="组_2138" data-name="组 2138" transform="translate(2774 -296)">
      <rect id="矩形_1085" data-name="矩形 1085" width="14.511" height="40.185" rx="1" transform="translate(780 1220)" fill="#a0c4fe"/>
      <rect id="矩形_1089" data-name="矩形 1089" width="14.511" height="40.185" rx="1" transform="translate(813.487 1220)" fill="#a0c4fe"/>
      <g id="联合_1" data-name="联合 1" transform="translate(798.976 1226.055)" fill="#1c73ff">
        <path d="M 13.02173042297363 12.52336692810059 C 13.02172088623047 12.52336692810059 13.02172088623047 12.52336692810059 13.02172088623047 12.52336692810059 C 12.63375091552734 12.52340698242188 12.2649507522583 12.37534713745117 11.9832706451416 12.1064567565918 C 11.68504047393799 11.82177734375 11.52080059051514 11.43674659729004 11.52080059051514 11.02229690551758 L 11.52080059051514 9.45639705657959 L 0.5580005645751953 9.45639705657959 C -0.3010794222354889 9.45639705657959 -0.9999994039535522 8.757476806640625 -0.9999994039535522 7.898396968841553 L -0.9999994039535522 3.433496952056885 C -0.9999994039535522 2.574416875839233 -0.3010794222354889 1.875496983528137 0.5580005645751953 1.875496983528137 L 11.52080059051514 1.875496983528137 L 11.52080059051514 0.4517969489097595 C 11.52080059051514 -0.3758930563926697 12.19406032562256 -1.049273014068604 13.02161026000977 -1.049273014068604 C 13.31277084350586 -1.049273014068604 13.59656047821045 -0.9640830755233765 13.84231090545654 -0.8029130697250366 L 21.91296005249023 4.48242712020874 C 22.33740997314453 4.759906768798828 22.59123039245605 5.229086875915527 22.59123039245605 5.737046718597412 C 22.59123039245605 6.245007038116455 22.33740997314453 6.714187145233154 21.91228103637695 6.992106914520264 L 13.84176063537598 12.27736663818359 C 13.59662055969238 12.43814659118652 13.3128604888916 12.52333736419678 13.02172088623047 12.52336692810059 L 13.02173042297363 12.52336692810059 Z" stroke="none"/>
        <path d="M 13.02161026000977 11.52336692810059 C 13.11326026916504 11.52335739135742 13.20731067657471 11.49758720397949 13.29390048980713 11.44079685211182 L 21.3651008605957 6.155097007751465 C 21.66660118103027 5.957996845245361 21.66660118103027 5.516097068786621 21.3651008605957 5.318996906280518 L 13.29390048980713 0.03329694643616676 C 13.20728778839111 -0.02350599691271782 13.11327838897705 -0.04927016422152519 13.0216064453125 -0.04927016422152519 C 12.76177883148193 -0.04927016422152519 12.52080059051514 0.1577444672584534 12.52080059051514 0.4517969489097595 L 12.52080059051514 2.875496864318848 L 0.5580005645751953 2.875496864318848 C 0.2502005994319916 2.875496864318848 5.905151283513987e-07 3.124796867370605 5.905151283513987e-07 3.433496952056885 L 5.905151283513987e-07 7.898396968841553 C 5.905151283513987e-07 8.206196784973145 0.2502005994319916 8.45639705657959 0.5580005645751953 8.45639705657959 L 12.52080059051514 8.45639705657959 L 12.52080059051514 11.02229690551758 C 12.52080059051514 11.31637668609619 12.76176071166992 11.52339649200439 13.02161026000977 11.52336692810059 M 13.02184104919434 13.52336692810059 C 13.02183055877686 13.52336692810059 13.02183055877686 13.52336692810059 13.02183055877686 13.52336692810059 C 12.37544059753418 13.52343654632568 11.76138019561768 13.27712726593018 11.29277038574219 12.82979679107666 C 10.802170753479 12.36147689819336 10.52080059051514 11.70266723632812 10.52080059051514 11.02229690551758 L 10.52080059051514 10.45639705657959 L 0.5580005645751953 10.45639705657959 C -0.8524894118309021 10.45639705657959 -1.999999403953552 9.308886528015137 -1.999999403953552 7.898396968841553 L -1.999999403953552 3.433496952056885 C -1.999999403953552 2.023006916046143 -0.8524894118309021 0.8754969239234924 0.5580005645751953 0.8754969239234924 L 10.52080059051514 0.8754969239234924 L 10.52080059051514 0.4517969489097595 C 10.52080059051514 -0.927293062210083 11.64266014099121 -2.049273014068604 13.02161026000977 -2.049273014068604 C 13.50814056396484 -2.049273014068604 13.98157024383545 -1.907453060150146 14.390700340271 -1.639133095741272 L 22.4608097076416 3.645856857299805 C 23.16814041137695 4.108246803283691 23.59123039245605 4.890336990356445 23.59123039245605 5.737046718597412 C 23.59123039245605 6.583756923675537 23.16814041137695 7.365847110748291 22.4594612121582 7.829126834869385 L 14.38961029052734 13.11393737792969 C 13.98169040679932 13.38147735595703 13.50832080841064 13.52331733703613 13.02183055877686 13.52336692810059 L 13.02184104919434 13.52336692810059 Z" stroke="none" fill="#f8fafc"/>
      </g>
      <g id="联合_2" data-name="联合 2" transform="translate(808.24 1254.272) rotate(180)" fill="#1c73ff">
        <path d="M 13.02173042297363 12.52336692810059 C 13.02172088623047 12.52336692810059 13.02172088623047 12.52336692810059 13.02172088623047 12.52336692810059 C 12.63375091552734 12.52340698242188 12.2649507522583 12.37534713745117 11.9832706451416 12.1064567565918 C 11.68504047393799 11.82177734375 11.52080059051514 11.43674659729004 11.52080059051514 11.02229690551758 L 11.52080059051514 9.598596572875977 L 0.5580005645751953 9.598596572875977 C -0.3010794222354889 9.598596572875977 -0.9999994039535522 8.899677276611328 -0.9999994039535522 8.040596961975098 L -0.9999994039535522 3.57569694519043 C -0.9999994039535522 2.716616868972778 -0.3010794222354889 2.017696857452393 0.5580005645751953 2.017696857452393 L 11.52080059051514 2.017696857452393 L 11.52080059051514 0.4517969489097595 C 11.52080059051514 -0.3758930563926697 12.19406032562256 -1.049273014068604 13.02161026000977 -1.049273014068604 C 13.31277084350586 -1.049273014068604 13.59656047821045 -0.9640830755233765 13.84231090545654 -0.8029130697250366 L 21.91296005249023 4.48242712020874 C 22.33740997314453 4.759906768798828 22.59123039245605 5.229086875915527 22.59123039245605 5.737046718597412 C 22.59123039245605 6.245007038116455 22.33740997314453 6.714187145233154 21.91228103637695 6.992106914520264 L 13.84176063537598 12.27736663818359 C 13.59662055969238 12.43814659118652 13.3128604888916 12.52333736419678 13.02172088623047 12.52336692810059 L 13.02173042297363 12.52336692810059 Z" stroke="none"/>
        <path d="M 13.02161026000977 11.52336692810059 C 13.11326026916504 11.52335739135742 13.20731067657471 11.49758720397949 13.29390048980713 11.44079685211182 L 21.3651008605957 6.155097007751465 C 21.66660118103027 5.957996845245361 21.66660118103027 5.516097068786621 21.3651008605957 5.318996906280518 L 13.29390048980713 0.03329694643616676 C 13.20728778839111 -0.02350599691271782 13.11327838897705 -0.04927016422152519 13.0216064453125 -0.04927016422152519 C 12.76177883148193 -0.04927016422152519 12.52080059051514 0.1577444672584534 12.52080059051514 0.4517969489097595 L 12.52080059051514 3.017696857452393 L 0.5580005645751953 3.017696857452393 C 0.2502005994319916 3.017696857452393 5.905151283513987e-07 3.26699686050415 5.905151283513987e-07 3.57569694519043 L 5.905151283513987e-07 8.040596961975098 C 5.905151283513987e-07 8.349296569824219 0.2502005994319916 8.598596572875977 0.5580005645751953 8.598596572875977 L 12.52080059051514 8.598596572875977 L 12.52080059051514 11.02229690551758 C 12.52080059051514 11.31637668609619 12.76176071166992 11.52339649200439 13.02161026000977 11.52336692810059 M 13.02184104919434 13.52336692810059 C 13.02183055877686 13.52336692810059 13.02183055877686 13.52336692810059 13.02183055877686 13.52336692810059 C 12.37544059753418 13.52343654632568 11.76138019561768 13.27712726593018 11.29277038574219 12.82979679107666 C 10.802170753479 12.36147689819336 10.52080059051514 11.70266723632812 10.52080059051514 11.02229690551758 L 10.52080059051514 10.59859657287598 L 0.5580005645751953 10.59859657287598 C -0.8524894118309021 10.59859657287598 -1.999999403953552 9.45108699798584 -1.999999403953552 8.040596961975098 L -1.999999403953552 3.57569694519043 C -1.999999403953552 2.165206909179688 -0.8524894118309021 1.017696976661682 0.5580005645751953 1.017696976661682 L 10.52080059051514 1.017696976661682 L 10.52080059051514 0.4517969489097595 C 10.52080059051514 -0.927293062210083 11.64266014099121 -2.049273014068604 13.02161026000977 -2.049273014068604 C 13.50814056396484 -2.049273014068604 13.98157024383545 -1.907453060150146 14.390700340271 -1.639133095741272 L 22.4608097076416 3.645856857299805 C 23.16814041137695 4.108246803283691 23.59123039245605 4.890336990356445 23.59123039245605 5.737046718597412 C 23.59123039245605 6.583756923675537 23.16814041137695 7.365847110748291 22.4594612121582 7.829126834869385 L 14.38961029052734 13.11393737792969 C 13.98169040679932 13.38147735595703 13.50832080841064 13.52331733703613 13.02183055877686 13.52336692810059 L 13.02184104919434 13.52336692810059 Z" stroke="none" fill="#f8fafc"/>
      </g>
    </g>
  </g>
</svg>
