<svg xmlns="http://www.w3.org/2000/svg"  viewBox="0 0 68 68">
    <g id="Group_4303" data-name="Group 4303" transform="translate(-1219.845 -729.236)">
        <rect id="Rectangle_1208" data-name="Rectangle 1208" width="68" height="68" rx="14" transform="translate(1219.845 729.236)" fill="#21aff7"/>
        <path id="Path_3564" data-name="Path 3564" d="M1262.885,745.882l-1.125.146a13.079,13.079,0,0,0-2.032.616,9.025,9.025,0,0,0-5.153,6.133,8.556,8.556,0,0,0,0,4.282,15.209,15.209,0,0,1-4.065-.545,26.689,26.689,0,0,1-11.106-5.406,16.8,16.8,0,0,1-2.689-2.649,7.432,7.432,0,0,1-.834-.98,10.147,10.147,0,0,0-.98,2.359,9.454,9.454,0,0,0,2.032,8.31c.472.58,1.2.943,1.669,1.451a2.4,2.4,0,0,1-1.233-.109,8.93,8.93,0,0,1-1.924-.544l-.979-.363a8.757,8.757,0,0,0,4.281,7.838,6.331,6.331,0,0,0,2.976,1.2c-.58.508-3.157.29-4.064.181a9.236,9.236,0,0,0,5.772,5.842,7.613,7.613,0,0,0,2.686.472,11.967,11.967,0,0,1-2.468,1.6,19.616,19.616,0,0,1-5.443,1.995c-.834.182-1.705.145-2.649.291a13,13,0,0,1-2.9-.109l.8.471a17.162,17.162,0,0,0,2.576,1.307,35.269,35.269,0,0,0,5.334,1.742,27,27,0,0,0,12.958-.436c9.51-2.975,15.534-9.943,17.823-20.212a26.558,26.558,0,0,0,.435-5.878l1.452-1.2a15.212,15.212,0,0,0,3.084-3.556,18.092,18.092,0,0,1-5.152,1.415,4.784,4.784,0,0,0,1.016-.725,9.225,9.225,0,0,0,2.939-4.282l-1.125.616a14.741,14.741,0,0,1-4.717,1.561,9.164,9.164,0,0,0-7.152-2.867v.036Z" fill="#fff"/>
    </g>
</svg>
