<svg xmlns="http://www.w3.org/2000/svg" width="52" height="52" viewBox="0 0 52 52">
  <g id="组_2147" data-name="组 2147" transform="translate(-3920 -915)">
    <g id="矩形_1851" data-name="矩形 1851" transform="translate(3920 915)" fill="#fff" stroke="#707070" stroke-width="1" opacity="0">
      <rect width="52" height="52" stroke="none"/>
      <rect x="0.5" y="0.5" width="51" height="51" fill="none"/>
    </g>
    <g id="组_2140" data-name="组 2140" transform="translate(2731 -753)">
      <g id="组_1289" data-name="组 1289" transform="translate(0 301)">
        <path id="联合_3" data-name="联合 3" d="M-2123,10V0h10V3h-7v7Z" transform="translate(3314 1375)" fill="#adc1f8"/>
        <path id="联合_4" data-name="联合 4" d="M0,0V10H10V7H3V0Z" transform="translate(1233 1385) rotate(180)" fill="#adc1f8"/>
        <path id="联合_5" data-name="联合 5" d="M0,0V10H10V7H3V0Z" transform="translate(1191 1407)" fill="#adc1f8"/>
        <path id="联合_6" data-name="联合 6" d="M0,10V0H10V3H3v7Z" transform="translate(1233 1417) rotate(180)" fill="#adc1f8"/>
      </g>
      <path id="路径_439" data-name="路径 439" d="M1357.835,538.354a11.164,11.164,0,0,1-11-11.3,11.527,11.527,0,0,1,1.383-5.469,1.548,1.548,0,0,1,.1-.2l7.871-13.527a1.9,1.9,0,0,1,3.29,0l1.662,2.855h0l6.128,10.534a1.631,1.631,0,0,1,.224.42,11.539,11.539,0,0,1,.477,9.778,11.3,11.3,0,0,1-2.358,3.591,10.975,10.975,0,0,1-3.5,2.426,10.658,10.658,0,0,1-4.28.89Z" transform="translate(-145.836 1174.084)" fill="#1c73ff"/>
      <path id="路径_441" data-name="路径 441" d="M1374.28,563.411l.631-.447a3.8,3.8,0,0,1,3.947-.271l.075.039c.077.04.153.083.227.128l.018.011a3.8,3.8,0,0,0,3.891.04l.793-.463" transform="translate(-135.409 1067.225) rotate(3)" fill="none" stroke="#f8fafc" stroke-linecap="round" stroke-linejoin="round" stroke-width="2"/>
    </g>
  </g>
</svg>
