<svg xmlns="http://www.w3.org/2000/svg" width="52" height="52" viewBox="0 0 52 52">
  <g id="组_2145" data-name="组 2145" transform="translate(-3736 -915)">
    <g id="矩形_1849" data-name="矩形 1849" transform="translate(3736 915)" fill="#fff" stroke="#707070" stroke-width="1" opacity="0">
      <rect width="52" height="52" stroke="none"/>
      <rect x="0.5" y="0.5" width="51" height="51" fill="none"/>
    </g>
    <g id="组_2139" data-name="组 2139" transform="translate(3489 -304)">
      <g id="组_1286" data-name="组 1286">
        <rect id="矩形_1068" data-name="矩形 1068" width="43.915" height="34.156" rx="2" transform="translate(248 1228)" fill="#1c73ff"/>
        <rect id="矩形_1070" data-name="矩形 1070" width="38.036" height="25.837" rx="1" transform="translate(251 1231.44)" fill="#f8fafc"/>
        <path id="多边形_1" data-name="多边形 1" d="M7.068,1.457a1,1,0,0,1,1.722,0L14.967,11.91a1,1,0,0,1-.861,1.509H1.752A1,1,0,0,1,.892,11.91Z" transform="translate(278.277 1235.929) rotate(90)" fill="#1c73ff"/>
        <rect id="矩形_1071" data-name="矩形 1071" width="20.738" height="20.738" transform="translate(277.277 1247.518)" fill="#f8fafc"/>
        <path id="路径_431" data-name="路径 431" d="M1501.243,797.567a4.365,4.365,0,0,0-4.365-4.365h0a4.365,4.365,0,0,0-4.365,4.365v4.014" transform="translate(-1208.784 457.358)" fill="none" stroke="#adc1f8" stroke-linecap="round" stroke-width="2"/>
        <rect id="矩形_206" data-name="矩形 206" width="16.054" height="12.041" rx="1" transform="translate(279.717 1257.985)" fill="#adc1f8"/>
        <path id="Path" d="M.637,2.542v2.1a.745.745,0,1,0,1.491,0V2.537A1.365,1.365,0,0,0,2.761,1.38,1.38,1.38,0,0,0,0,1.38,1.4,1.4,0,0,0,.637,2.542Z" transform="translate(286.363 1261.497)" fill="#fff"/>
      </g>
    </g>
  </g>
</svg>
