<svg xmlns="http://www.w3.org/2000/svg" width="64" height="21" viewBox="0 0 64 21">
  <g id="微信支付" transform="translate(-448 -1643)">
    <g id="组_767" data-name="组 767" transform="translate(476 1643)">
      <text id="微信支付-2" data-name="微信支付" transform="translate(0 10)" fill="#07a245" font-size="9" font-family="PingFangSC-Regular, PingFang SC"><tspan x="0" y="0">微信支付</tspan></text>
      <text id="WeChat_Pay" data-name="WeChat Pay" transform="translate(0 19)" fill="#07a245" font-size="6" font-family="Helvetica"><tspan x="0" y="0">WeChat Pay</tspan></text>
    </g>
    <path id="路径_456" data-name="路径 456" d="M1063,509.651v-.645a8.207,8.207,0,0,1,.328-1.666,8.941,8.941,0,0,1,2.127-3.6,11.207,11.207,0,0,1,4.8-2.956,12.584,12.584,0,0,1,3.109-.537,10.3,10.3,0,0,1,2.564.161,9.843,9.843,0,0,1,2.073.538,11.22,11.22,0,0,1,4.419,2.8c.163.161.273.323.436.484-.054,0-.054.054-.109.054a13.921,13.921,0,0,1-1.309.591c-3.055,1.4-6.109,2.8-9.164,4.139a1.83,1.83,0,0,1-1.746-.108c-.436-.269-.818-.538-1.255-.806-.272-.215-.545-.376-.872-.591-.273-.161-.437-.054-.437.269v.054a4.447,4.447,0,0,0,.219.807c.546,1.29,1.091,2.526,1.636,3.817a.686.686,0,0,0,.764.483,1.112,1.112,0,0,0,.6-.161,20.659,20.659,0,0,0,1.855-1.075c3.327-1.935,6.6-3.87,9.928-5.805.219-.161.491-.269.709-.43,0,.054.055.054.055.107a2.85,2.85,0,0,1,.273.591,7.965,7.965,0,0,1,.764,4.031,10.142,10.142,0,0,1-.327,1.774,8.731,8.731,0,0,1-1.964,3.44,10.86,10.86,0,0,1-3.928,2.687,15.977,15.977,0,0,1-2.618.753,10.028,10.028,0,0,1-1.745.161h-.982c-.437-.054-.873-.054-1.255-.107a11.028,11.028,0,0,1-1.909-.484h-.164c-.273.161-.491.323-.763.484-.6.376-1.146.7-1.746,1.021a1.021,1.021,0,0,1-.382.108.2.2,0,0,1-.218-.215.9.9,0,0,1,.055-.376c.109-.806.273-1.559.436-2.365,0-.108,0-.161-.109-.215-.327-.269-.654-.484-.982-.806a9.438,9.438,0,0,1-2.51-3.494,10.579,10.579,0,0,1-.491-1.881,4.284,4.284,0,0,1-.055-.86c-.109,0-.109-.054-.109-.161Zm0,0" transform="translate(-615 1142.776)" fill="#04b74c"/>
  </g>
</svg>
