<svg xmlns="http://www.w3.org/2000/svg" xmlns:xlink="http://www.w3.org/1999/xlink" width="20" height="20" viewBox="0 0 20 20">
  <defs>
    <linearGradient id="linear-gradient" x1="0.5" x2="0.5" y2="1" gradientUnits="objectBoundingBox">
      <stop offset="0" stop-color="#215088"/>
      <stop offset="1" stop-color="#0d2346"/>
    </linearGradient>
  </defs>
  <g id="Windows_-_Clash_" data-name="Windows - Clash " transform="translate(-163 -897)">
    <rect id="矩形_999" data-name="矩形 999" width="20" height="20" transform="translate(163 897)" fill="#a4a6be" opacity="0"/>
    <g id="组_2665" data-name="组 2665" transform="translate(-3849 -10406.5)">
      <path id="路径_4321" data-name="路径 4321" d="M-1088.078,370.772a128.683,128.683,0,0,0-2.414-17.039.333.333,0,0,0-.518-.2,4.883,4.883,0,0,0-1.8,2.938.077.077,0,0,1-.094.057c-.482-.132-3.184-.809-5.084,0a.077.077,0,0,1-.1-.043,7.683,7.683,0,0,0-2.047-2.958.328.328,0,0,0-.514.135c-.369.938-1.195,4.27-2.309,16.1a2.593,2.593,0,0,1-2.2-.717,1.933,1.933,0,0,1-.338-1.606c.211-.825,1.328-1.312,1.328-1.312.23-.127.243-.281.217-.383a.21.21,0,0,0-.148-.15,2.184,2.184,0,0,0-1.024.109.879.879,0,0,0-.105.04,2.667,2.667,0,0,0-1.518,2.488,2.788,2.788,0,0,0,1.9,2.5,8.591,8.591,0,0,0,2.323.39h0a78.679,78.679,0,0,0,14.172-.008A.328.328,0,0,0-1088.078,370.772Z" transform="translate(5118.757 10950.543)" fill="url(#linear-gradient)"/>
      <circle id="椭圆_342" data-name="椭圆 342" cx="0.849" cy="0.849" r="0.849" transform="translate(4019.214 11310.191)" fill="#fff"/>
      <circle id="椭圆_343" data-name="椭圆 343" cx="0.849" cy="0.849" r="0.849" transform="translate(4025.763 11310.191)" fill="#fff"/>
      <path id="路径_4322" data-name="路径 4322" d="M-1044.044,407.049s.794.257,1.069-.414" transform="translate(5066.229 10906.002)" fill="none" stroke="#fff" stroke-linecap="round" stroke-miterlimit="10" stroke-width="0.4"/>
      <path id="路径_4323" data-name="路径 4323" d="M-1036.389,407.049s-.795.257-1.07-.414" transform="translate(5060.714 10906.002)" fill="none" stroke="#fff" stroke-linecap="round" stroke-miterlimit="10" stroke-width="0.4"/>
    </g>
  </g>
</svg>
